<svg xmlns="http://www.w3.org/2000/svg" width="40" height="40" viewBox="0 0 40 40" fill="none"><rect width="40" height="40" rx="10" fill="url(#paint0_linear_3237_17079)" fill-opacity="0.4"></rect><path fill-rule="evenodd" clip-rule="evenodd" d="M17.5625 29.7486H15.125V15.9361C15.125 15.5054 14.9536 15.0919 14.6489 14.7872C14.3442 14.4825 13.9306 14.3111 13.5 14.3111C12.5981 14.3111 12.7769 14.3111 11.875 14.3111C11.4444 14.3111 11.0308 14.4825 10.7261 14.7872C10.4214 15.0919 10.25 15.5054 10.25 15.9361V29.7486H8.625C8.1765 29.7486 7.8125 30.1126 7.8125 30.5611C7.8125 31.0096 8.1765 31.3736 8.625 31.3736H31.375C31.8235 31.3736 32.1875 31.0096 32.1875 30.5611C32.1875 30.1126 31.8235 29.7486 31.375 29.7486H29.75V22.4361C29.75 21.5391 29.0228 20.8111 28.125 20.8111C27.2231 20.8111 27.4019 20.8111 26.5 20.8111C25.6022 20.8111 24.875 21.5391 24.875 22.4361V29.7486H22.4375V19.1861C22.4375 18.7554 22.2661 18.3419 21.9614 18.0372C21.6567 17.7325 21.2431 17.5611 20.8125 17.5611C19.9106 17.5611 20.0894 17.5611 19.1875 17.5611C18.7569 17.5611 18.3433 17.7325 18.0386 18.0372C17.7339 18.3419 17.5625 18.7554 17.5625 19.1861V29.7486ZM26.9477 16.7063L26.4269 16.7534C25.9808 16.7941 25.6509 17.1889 25.6907 17.6358C25.7314 18.0819 26.1263 18.4117 26.5731 18.3719L29.8231 18.0794C30.0945 18.0551 30.3358 17.8958 30.465 17.6553C30.595 17.4148 30.595 17.1264 30.4658 16.8859L28.9635 14.0892C28.7514 13.6944 28.2591 13.5457 27.8634 13.7577C27.4685 13.9698 27.3198 14.463 27.5327 14.8579L27.7683 15.2974L13.8478 8.70318C13.4423 8.51143 12.9581 8.6845 12.7655 9.08993C12.5738 9.49537 12.7468 9.97962 13.1523 10.1722L26.9477 16.7063Z" fill="#FF8A7A"></path><defs><linearGradient id="paint0_linear_3237_17079" x1="-32.5" y1="-71" x2="20" y2="40" gradientUnits="userSpaceOnUse"><stop stop-color="white" stop-opacity="0.06"></stop><stop offset="1" stop-color="#FF8A7A" stop-opacity="0.5"></stop></linearGradient></defs></svg>