<svg xmlns="http://www.w3.org/2000/svg" width="40" height="40" viewBox="0 0 40 40" fill="none"><rect width="40" height="40" rx="10" fill="url(#paint0_linear_3237_17073)" fill-opacity="0.4"></rect><path d="M25.3828 12.3828H10.0469C9.20548 12.3828 8.52344 13.0649 8.52344 13.9062C8.52344 14.7475 9.20548 15.4297 10.0469 15.4297H14.668C15.5094 15.4297 16.1914 16.1117 16.1914 16.9531C16.1914 17.7944 15.5094 18.4766 14.668 18.4766H11.5703C10.7289 18.4766 10.0469 19.1586 10.0469 20C10.0469 20.8413 10.7289 21.5234 11.5703 21.5234H14.668C15.5094 21.5234 16.1914 22.2055 16.1914 23.0469C16.1914 23.8882 15.5094 24.5703 14.668 24.5703H8.52344C7.68204 24.5703 7 25.2524 7 26.0938C7 26.935 7.68204 27.6172 8.52344 27.6172H25.3828C29.5896 27.6172 33 24.2068 33 20C33 15.7932 29.5896 12.3828 25.3828 12.3828ZM25.3828 25.332C22.443 25.332 20.0508 22.9398 20.0508 20C20.0508 17.0602 22.443 14.668 25.3828 14.668C28.3226 14.668 30.7148 17.0602 30.7148 20C30.7148 22.9398 28.3226 25.332 25.3828 25.332Z" fill="#F5C84D"></path><path d="M25.3867 16.1914C23.2868 16.1914 21.5781 17.9 21.5781 20C21.5781 22.1 23.2868 23.8086 25.3867 23.8086C27.4867 23.8086 29.1953 22.1 29.1953 20C29.1953 17.9 27.4867 16.1914 25.3867 16.1914ZM27.6719 20.7617H24.625V17.7148H26.1484V19.2383H27.6719V20.7617Z" fill="#F5C84D"></path><defs><linearGradient id="paint0_linear_3237_17073" x1="11.5" y1="-41.3333" x2="20" y2="40" gradientUnits="userSpaceOnUse"><stop stop-color="white" stop-opacity="0.06"></stop><stop offset="1" stop-color="#F5C84D" stop-opacity="0.5"></stop></linearGradient></defs></svg>