<svg width="71" height="71" viewBox="0 0 71 71" fill="none" xmlns="http://www.w3.org/2000/svg">
<path d="M35.5 0C33.0865 0 30.7271 0.715701 28.7203 2.0566C26.7135 3.39749 25.1494 5.30336 24.2258 7.53319C23.3022 9.76302 23.0605 12.2167 23.5314 14.5838C24.0022 16.951 25.1645 19.1254 26.8711 20.832C28.5777 22.5387 30.7521 23.7009 33.1193 24.1718C35.4865 24.6426 37.9401 24.401 40.1699 23.4773C42.3998 22.5537 44.3056 20.9896 45.6465 18.9828C46.9874 16.976 47.7031 14.6167 47.7031 12.2031C47.6995 8.96777 46.4126 5.86598 44.1249 3.57824C41.8372 1.29049 38.7354 0.00364244 35.5 0Z" fill="white"/>
<path d="M46.3916 23.2969H44.7037C43.6006 24.2144 42.3668 24.9622 41.043 25.5156H46.3916C53.1171 25.5156 57.1327 29.2695 57.1327 35.5574V47.6657C57.9158 48.0179 58.6595 48.4519 59.3515 48.9604V35.5574C59.3515 27.9949 54.3853 23.2969 46.3916 23.2969Z" fill="white"/>
<path d="M52.1412 48.8125C50.1664 48.8124 48.236 49.3979 46.594 50.4949C44.952 51.5919 43.6722 53.1512 42.9164 54.9756C42.1606 56.8 41.9628 58.8076 42.348 60.7444C42.7332 62.6812 43.6841 64.4603 45.0804 65.8567C46.4767 67.2531 48.2558 68.2041 50.1926 68.5894C52.1294 68.9747 54.1369 68.777 55.9614 68.0213C57.7858 67.2656 59.3452 65.9859 60.4423 64.344C61.5394 62.702 62.125 60.7716 62.125 58.7969C62.1249 56.149 61.0731 53.6095 59.2008 51.7371C57.3285 49.8647 54.7891 48.8127 52.1412 48.8125ZM56.0727 58.6181L50.9462 61.9462C50.7105 62.0959 50.4274 62.1523 50.1523 62.1043C49.8772 62.0564 49.6299 61.9075 49.4587 61.6868L47.929 59.6739C47.751 59.4396 47.6734 59.1441 47.7132 58.8526C47.753 58.561 47.907 58.2972 48.1413 58.1192C48.3757 57.9412 48.6711 57.8636 48.9626 57.9034C49.2542 57.9432 49.518 58.0972 49.696 58.3315L50.6023 59.5243L54.8648 56.7569C55.1116 56.597 55.4118 56.5416 55.6994 56.603C55.987 56.6643 56.2385 56.8373 56.3986 57.084C56.5587 57.3307 56.6143 57.6308 56.5532 57.9185C56.4921 58.2062 56.3193 58.4578 56.0727 58.6181Z" fill="white"/>
<path d="M20.5234 71C24.8123 71 28.2891 67.5232 28.2891 63.2344C28.2891 58.9455 24.8123 55.4688 20.5234 55.4688C16.2346 55.4688 12.7578 58.9455 12.7578 63.2344C12.7578 67.5232 16.2346 71 20.5234 71Z" fill="white"/>
<path d="M11.6484 35.5574V49.3336C12.3595 49.0604 13.1073 48.8943 13.8672 48.8407V35.5574C13.8672 29.2695 17.8822 25.5156 24.6078 25.5156H29.9569C28.6331 24.9622 27.3993 24.2144 26.2962 23.2969H24.6078C16.6141 23.2969 11.6484 27.9949 11.6484 35.5574Z" fill="white"/>
<path d="M40.5712 30.8811L37.6862 31.8019L36.6591 30.4054C36.556 30.2652 36.4214 30.1512 36.2661 30.0727C36.1109 29.9941 35.9393 29.9531 35.7653 29.9531H35.2361C35.0622 29.9532 34.8908 29.9941 34.7356 30.0726C34.5805 30.151 34.4459 30.2649 34.3429 30.4049L33.3142 31.8019L30.4292 30.8811C30.2319 30.818 30.0208 30.8114 29.82 30.8622C29.6191 30.9129 29.4365 31.0188 29.2928 31.168C29.1491 31.3172 29.05 31.5036 29.0068 31.7062C28.9636 31.9088 28.978 32.1195 29.0484 32.3143L30.6328 36.7058H40.3679L41.9519 32.3143C42.0223 32.1195 42.0367 31.9088 41.9935 31.7062C41.9503 31.5036 41.8513 31.3172 41.7076 31.168C41.5638 31.0188 41.3812 30.9129 41.1804 30.8622C40.9795 30.8114 40.7685 30.818 40.5712 30.8811Z" fill="white"/>
<path d="M33.175 70.8238C33.9393 70.9393 34.7111 70.998 35.4842 70.9993C35.4847 70.9993 37.529 70.8894 38.0658 70.7843C40.2813 70.3427 42.3634 69.3912 44.1473 68.0054C42.5976 66.6634 41.4112 64.9521 40.6983 63.03C39.9853 61.108 39.7686 59.0372 40.0683 57.0092C40.368 54.9812 41.1744 53.0615 42.4129 51.4279C43.6513 49.7942 45.2818 48.4993 47.1535 47.663L47.157 47.6613C46.3033 46.1602 45.3643 44.7094 44.3445 43.3158C43.9219 42.7297 42.2039 40.4966 41.0463 38.9238H34.9776L36.6206 42.0764C36.7554 42.3372 36.7814 42.6408 36.6928 42.9207C36.6043 43.2006 36.4084 43.4339 36.1481 43.5697C35.8878 43.7054 35.5843 43.7325 35.3041 43.6449C35.0239 43.5573 34.7899 43.3622 34.6532 43.1024L33.5236 40.9349L33.2573 42.2108C33.2053 42.4601 33.069 42.684 32.8714 42.8447C32.6739 43.0055 32.427 43.0934 32.1723 43.0938C32.0959 43.0937 32.0197 43.0859 31.9448 43.0705C31.8022 43.0408 31.6668 42.9832 31.5464 42.9012C31.426 42.8191 31.3229 42.7142 31.2431 42.5923C31.1632 42.4704 31.1082 42.334 31.0811 42.1908C31.054 42.0477 31.0554 41.9006 31.0851 41.758L31.6766 38.9239H29.9653C28.7116 40.5657 26.7575 43.0193 26.2907 43.6663C24.3357 46.377 22.2957 49.6558 21.4658 53.2969C23.2232 53.46 24.906 54.0871 26.3415 55.1139C27.777 56.1407 28.914 57.5304 29.636 59.1409C30.358 60.7515 30.6392 62.5249 30.4508 64.2797C30.2624 66.0346 29.6111 67.7079 28.5636 69.1284C29.9913 69.9556 31.5515 70.5292 33.175 70.8238ZM32.8765 51.4379C33.1178 51.1427 33.417 50.9 33.7556 50.7247C34.0942 50.5493 34.4651 50.4451 34.8455 50.4185V49.3665C34.8455 49.0723 34.9624 48.7901 35.1704 48.5821C35.3785 48.374 35.6607 48.2571 35.9549 48.2571C36.2491 48.2571 36.5313 48.374 36.7393 48.5821C36.9474 48.7901 37.0643 49.0723 37.0643 49.3665V50.4044H37.2468C37.541 50.4044 37.8232 50.5213 38.0312 50.7293C38.2392 50.9374 38.3561 51.2195 38.3561 51.5138C38.3561 51.808 38.2392 52.0901 38.0312 52.2982C37.8232 52.5062 37.541 52.6231 37.2468 52.6231H35.1179C34.4614 52.6231 34.3905 53.2477 34.3905 53.5163C34.3905 53.6122 34.4111 54.4524 35.1179 54.4524H35.8779C36.2797 54.4493 36.6778 54.5287 37.0476 54.6859C37.4174 54.843 37.7509 55.0745 38.0275 55.3659C38.3041 55.6573 38.5179 56.0024 38.6556 56.3798C38.7933 56.7573 38.852 57.159 38.828 57.5601C38.8364 58.3203 38.587 59.0609 38.1206 59.6613C37.8395 60.0138 37.477 60.2928 37.0643 60.4743V61.5696C37.0643 61.8639 36.9474 62.146 36.7393 62.3541C36.5313 62.5621 36.2491 62.679 35.9549 62.679C35.6607 62.679 35.3785 62.5621 35.1704 62.3541C34.9624 62.146 34.8455 61.8639 34.8455 61.5696V60.7203H33.7481C33.4538 60.7203 33.1717 60.6034 32.9636 60.3954C32.7556 60.1873 32.6387 59.9051 32.6387 59.6109C32.6387 59.3167 32.7556 59.0345 32.9636 58.8265C33.1717 58.6184 33.4538 58.5015 33.7481 58.5015H35.8779C36.5887 58.5015 36.6093 57.6565 36.6093 57.5601C36.6093 57.293 36.5377 56.6711 35.8779 56.6711H35.1179C34.7147 56.666 34.3166 56.5793 33.9477 56.4163C33.5788 56.2533 33.2468 56.0173 32.9715 55.7226C32.6962 55.4278 32.4835 55.0804 32.346 54.7012C32.2086 54.3221 32.1493 53.919 32.1718 53.5163C32.162 52.7633 32.4107 52.0297 32.8765 51.4379Z" fill="white"/>
<path d="M8.875 56.5781C8.87442 57.3857 9.05072 58.1836 9.39151 58.9158C9.7323 59.6479 10.2293 60.2966 10.8476 60.8161C11.3246 58.9209 12.3465 57.2071 13.7872 55.8865C15.2278 54.566 17.0238 53.6966 18.9533 53.386C18.2754 52.4222 17.3085 51.6993 16.1921 51.3225C15.0757 50.9456 13.8682 50.9342 12.7449 51.29C11.6216 51.6458 10.6409 52.3502 9.94504 53.3011C9.24918 54.252 8.87437 55.3998 8.875 56.5781Z" fill="white"/>
</svg>
