<svg xmlns="http://www.w3.org/2000/svg" width="31" height="32" viewBox="0 0 31 32" fill="none"><path d="M22.2812 17.9375C19.0747 17.9375 16.4688 20.5434 16.4688 23.75C16.7884 31.4613 27.7741 31.4613 28.0938 23.75C28.0938 20.5434 25.4878 17.9375 22.2812 17.9375ZM24.2769 25.1256C24.2769 25.9927 23.6327 26.7192 22.7656 26.9227C22.7753 27.5862 21.7872 27.5862 21.7969 26.9227C20.9298 26.7192 20.2856 25.9927 20.2856 25.1256C20.2856 24.8592 20.5036 24.6413 20.77 24.6413C21.0364 24.6413 21.2544 24.8592 21.2544 25.1256C21.2544 25.4647 21.4772 25.7553 21.7969 25.9055V24.0939C21.1527 23.8759 20.2905 23.6144 20.2856 22.3744C20.2856 21.5073 20.9298 20.7808 21.7969 20.5773C21.7872 19.9138 22.7753 19.9138 22.7656 20.5773C23.6327 20.7808 24.2769 21.5073 24.2769 22.3744C24.2769 22.6408 24.0589 22.8587 23.7925 22.8587C23.5261 22.8587 23.3081 22.6408 23.3081 22.3744C23.3081 22.0353 23.0853 21.7447 22.7656 21.5945V23.4061C23.342 23.595 24.2769 23.9195 24.2769 25.1256Z" fill="#FFF8F8"></path><path d="M13.0781 13.8154C13.0781 15.1523 14.1631 16.2373 15.5 16.2373C18.7066 16.1259 18.7066 11.505 15.5 11.3936C14.1631 11.3936 13.0781 12.4786 13.0781 13.8154Z" fill="#FFF8F8"></path><path d="M22.7656 24.4326V25.9003C23.4147 25.6242 23.5552 24.6409 22.7656 24.4326Z" fill="#FFF8F8"></path><path d="M21.2544 22.3746C21.2544 22.7911 21.3755 22.9122 21.7969 23.0672V21.5947C21.4772 21.7449 21.2544 22.0355 21.2544 22.3746Z" fill="#FFF8F8"></path><path d="M27.125 10.1875C26.0206 10.1826 25.0955 11.1465 25.202 12.2557L22.2231 13.2487C21.7823 12.1782 21.0945 11.2434 20.2323 10.4975L22.0294 8.0998C23.2597 8.63746 24.7322 7.65902 24.7031 6.30762C24.7031 5.23715 23.8361 4.37012 22.7656 4.37012C21.172 4.33621 20.2323 6.30762 21.2592 7.50887L19.4573 9.91137C18.445 9.25262 17.2583 8.8409 15.9844 8.75371V6.2398C18.1544 5.65856 17.7669 2.46168 15.5 2.43262C13.2331 2.46168 12.8456 5.65856 15.0156 6.2398V8.75371C14.3278 8.79731 13.6642 8.94262 13.0394 9.16543L12.5502 8.05137C12.4436 7.80918 12.1578 7.69293 11.9108 7.79949C11.6637 7.90605 11.5523 8.19184 11.6589 8.43887L12.1481 9.55293C11.5717 9.85324 11.0437 10.2311 10.5739 10.667L7.9825 8.21121C8.72359 6.9809 7.73547 5.30012 6.29688 5.33887C5.22641 5.33887 4.35938 6.2059 4.35938 7.27637C4.31578 8.75855 6.09828 9.73699 7.31891 8.91356L9.90547 11.3645C8.96094 12.5076 8.36516 13.9414 8.25859 15.5107H5.74469C5.16344 13.3407 1.96656 13.7282 1.9375 15.9951C1.96656 18.262 5.16344 18.6495 5.74469 16.4795H8.26344C8.31187 17.1915 8.45234 17.8939 8.69937 18.5526L6.58266 19.5117C6.34047 19.6231 6.22906 19.9089 6.34047 20.1511C6.45188 20.3981 6.7425 20.4998 6.97984 20.3932L9.10625 19.4293C9.455 20.0784 9.91031 20.6742 10.4431 21.1973L8.10844 23.9486C6.87812 23.2995 5.29422 24.2876 5.32812 25.6875C5.32812 26.7579 6.19516 27.625 7.26562 27.625C8.79625 27.6734 9.76016 25.7843 8.84953 24.5734L11.1842 21.827C12.0125 22.4664 12.9861 22.8829 13.9887 23.1009L13.5722 26.012C13.5334 26.2784 13.7175 26.5206 13.9839 26.5593C14.2455 26.5981 14.4973 26.414 14.5312 26.1476L14.9478 23.2365C15.1416 23.2511 15.3353 23.2607 15.5291 23.2559C15.7034 20.8437 17.1372 18.7754 19.1812 17.7195C18.7453 17.2884 18.1447 17.0171 17.4811 17.0171H13.5286C12.1917 17.0171 11.1067 18.1021 11.1067 19.439V20.495C7.09125 16.5957 9.89094 9.68371 15.5048 9.6934C19.3266 9.65949 22.3733 13.2196 21.7145 16.9881C22.0391 16.959 22.3733 16.9493 22.6978 16.9784C22.8383 16.0484 22.7705 15.0506 22.5283 14.1593L25.5072 13.1664C26.5098 14.7648 29.0819 14.0286 29.0673 12.1153C29.0673 11.0448 28.2003 10.1778 27.1298 10.1778L27.125 10.1875Z" fill="#FFF8F8"></path></svg>