<svg width="40" height="41" viewBox="0 0 40 41" fill="none" xmlns="http://www.w3.org/2000/svg">
<g clip-path="url(#clip0_9766_44526)">
<path d="M30 20.5C30 22.0773 29.6344 23.5695 28.9836 24.8961C28.7781 25.3164 28.5437 25.7195 28.2828 26.1039C26.4852 28.757 23.4461 30.5 20 30.5C16.5539 30.5 13.5148 28.757 11.7172 26.1039C11.4562 25.7195 11.2219 25.3164 11.0164 24.8961C10.3656 23.5695 10 22.0773 10 20.5C10 18.9227 10.3656 17.4305 11.0164 16.1039C11.2219 15.6836 11.4562 15.2805 11.7172 14.8961C13.5148 12.243 16.5539 10.5 20 10.5C23.4461 10.5 26.4852 12.243 28.2828 14.8961C28.5437 15.2805 28.7781 15.6836 28.9836 16.1039C29.6344 17.4305 30 18.9227 30 20.5Z" fill="#0ED290"/>
<path d="M39.5898 17.7092L35.7874 16.728C35.5984 16.6791 35.448 16.5337 35.3973 16.3451C35.0359 15.002 34.5045 13.7287 33.8259 12.5506C33.7283 12.3813 33.7315 12.1721 33.8307 12.0037L35.8254 8.62133C35.9521 8.40648 35.9173 8.1332 35.741 7.9568L32.5432 4.75891C32.3669 4.58258 32.0935 4.54781 31.8787 4.67453L28.4963 6.6693C28.3279 6.76859 28.1188 6.77172 27.9494 6.67414C26.7712 5.99547 25.498 5.46406 24.1548 5.10266C23.9663 5.05195 23.8208 4.90164 23.772 4.71258L22.7907 0.910234C22.7284 0.66875 22.5106 0.5 22.2612 0.5H17.7388C17.4894 0.5 17.2716 0.66875 17.2092 0.910234L16.228 4.71258C16.1791 4.90164 16.0337 5.05195 15.8451 5.10266C14.502 5.46406 13.2287 5.99547 12.0505 6.67414C11.8812 6.77172 11.672 6.76852 11.5037 6.6693L8.12125 4.67453C7.90641 4.54781 7.63312 4.58258 7.45672 4.75891L4.25891 7.9568C4.08258 8.13312 4.04789 8.40648 4.17453 8.62133L6.16922 12.0037C6.26852 12.1721 6.27164 12.3813 6.17406 12.5506C5.49547 13.7288 4.96398 15.002 4.60258 16.3451C4.55187 16.5337 4.40156 16.6791 4.2125 16.728L0.410156 17.7092C0.16875 17.7716 0 17.9894 0 18.2388V22.7612C0 23.0106 0.16875 23.2284 0.410234 23.2908L4.21258 24.272C4.40164 24.3209 4.55195 24.4663 4.60266 24.6549C4.96406 25.998 5.49547 27.2713 6.17414 28.4494C6.27172 28.6187 6.26852 28.8279 6.1693 28.9963L4.17461 32.3787C4.04789 32.5935 4.08266 32.8668 4.25898 33.0432L7.4568 36.2411C7.63312 36.4174 7.90648 36.4522 8.12133 36.3255L11.5037 34.3308C11.6721 34.2315 11.8813 34.2284 12.0506 34.3259C13.2288 35.0046 14.502 35.536 15.8452 35.8974C16.0337 35.9481 16.1792 36.0984 16.228 36.2875L17.2093 40.0898C17.2716 40.3313 17.4895 40.5001 17.7388 40.5001H22.2613C22.5107 40.5001 22.7285 40.3313 22.7909 40.0898L23.7721 36.2875C23.8209 36.0984 23.9664 35.9481 24.155 35.8974C25.4981 35.536 26.7713 35.0046 27.9495 34.3259C28.1188 34.2284 28.328 34.2316 28.4964 34.3308L31.8788 36.3255C32.0937 36.4522 32.367 36.4174 32.5434 36.2411L35.7412 33.0432C35.9175 32.8669 35.9522 32.5935 35.8255 32.3787L33.8309 28.9963C33.7316 28.8279 33.7284 28.6188 33.826 28.4494C34.5047 27.2713 35.0361 25.998 35.3975 24.6549C35.4482 24.4663 35.5985 24.3209 35.7876 24.272L39.5899 23.2908C39.8314 23.2284 40.0002 23.0106 40.0002 22.7612V18.2388C40 17.9894 39.8312 17.7716 39.5898 17.7092ZM20 33C13.0964 33 7.5 27.4036 7.5 20.5C7.5 13.5964 13.0964 8 20 8C26.9036 8 32.5 13.5964 32.5 20.5C32.5 27.4036 26.9036 33 20 33Z" fill="#FE9738"/>
<path d="M14.6284 6.6693C14.7968 6.76859 15.0059 6.77172 15.1753 6.67414C16.3535 5.99547 17.6267 5.46406 18.9698 5.10266C19.1584 5.05195 19.3039 4.90164 19.3527 4.71258L20.3339 0.910234C20.3963 0.66875 20.6141 0.5 20.8635 0.5H17.7385C17.4891 0.5 17.2713 0.66875 17.2089 0.910234L16.2277 4.71258C16.1789 4.90164 16.0334 5.05195 15.8448 5.10266C15.0125 5.32664 14.2072 5.61617 13.4346 5.96523L14.6284 6.6693Z" fill="#FE7701"/>
<path d="M7.38391 33.0422C7.20758 32.8658 7.17289 32.5925 7.29953 32.3776L9.29422 28.9952C9.39352 28.8268 9.39664 28.6177 9.29906 28.4483C8.62039 27.2702 8.08898 25.997 7.72758 24.6539C7.67688 24.4653 7.52656 24.3198 7.3375 24.271L3.53516 23.2897C3.29375 23.2274 3.125 23.0096 3.125 22.7602V18.2377C3.125 17.9883 3.29375 17.7705 3.53523 17.7082L7.33758 16.7269C7.52664 16.6781 7.67695 16.5326 7.72766 16.344C8.08906 15.0009 8.62047 13.7276 9.29914 12.5496C9.39672 12.3803 9.39352 12.1711 9.2943 12.0027L7.29961 8.62028C7.17289 8.40544 7.20766 8.13216 7.38398 7.95575L9.72211 5.61755L8.12133 4.67348C7.90648 4.54676 7.6332 4.58153 7.4568 4.75786L4.25891 7.95575C4.08258 8.13208 4.04789 8.40544 4.17453 8.62028L6.16922 12.0027C6.26852 12.1711 6.27164 12.3802 6.17406 12.5496C5.49547 13.7277 4.96398 15.0009 4.60258 16.344C4.55187 16.5326 4.40156 16.6781 4.2125 16.7269L0.410156 17.7082C0.16875 17.7705 0 17.9883 0 18.2377V22.7602C0 23.0096 0.16875 23.2274 0.410234 23.2897L4.21258 24.271C4.40164 24.3198 4.55195 24.4653 4.60266 24.6539C4.96406 25.997 5.49547 27.2703 6.17414 28.4483C6.27172 28.6176 6.26852 28.8268 6.1693 28.9952L4.17461 32.3776C4.04789 32.5925 4.08266 32.8657 4.25898 33.0422L7.4568 36.24C7.63312 36.4164 7.90648 36.4511 8.12133 36.3244L9.72211 35.3804L7.38391 33.0422Z" fill="#FE7701"/>
<path d="M20.3339 40.0892L19.3527 36.2869C19.3039 36.0978 19.1584 35.9475 18.9698 35.8968C17.6267 35.5354 16.3534 35.004 15.1753 34.3253C15.006 34.2277 14.7968 34.2309 14.6284 34.3302L13.4346 35.0342C14.2072 35.3833 15.0125 35.6728 15.8448 35.8968C16.0334 35.9475 16.1789 36.0978 16.2277 36.2869L17.2089 40.0892C17.2713 40.3307 17.4891 40.4995 17.7385 40.4995H20.8635C20.6141 40.4995 20.3963 40.3307 20.3339 40.0892Z" fill="#FE7701"/>
<path d="M16.2502 17.3945C15.228 17.3945 14.3965 18.2261 14.3965 19.2482V22.9982C14.3965 23.3316 14.6667 23.6018 15.0001 23.6018C15.3334 23.6018 15.6037 23.3316 15.6037 22.9982V21.1018H16.8964V22.9982C16.8964 23.3316 17.1666 23.6018 17.5 23.6018C17.8334 23.6018 18.1036 23.3316 18.1036 22.9982V19.2482C18.1038 18.2261 17.2723 17.3945 16.2502 17.3945ZM15.6038 19.8946V19.2482C15.6038 18.8918 15.8938 18.6018 16.2502 18.6018C16.6066 18.6018 16.8966 18.8917 16.8966 19.2482V19.8946H15.6038Z" fill="#E9F1FF"/>
<path d="M21.2501 17.3945H20.0001C19.6667 17.3945 19.3965 17.6648 19.3965 17.9981V22.9981C19.3965 23.3316 19.6667 23.6017 20.0001 23.6017C20.3335 23.6017 20.6037 23.3315 20.6037 22.9981V21.1017H21.2501C22.2722 21.1017 23.1037 20.2702 23.1037 19.248C23.1037 18.2259 22.2722 17.3945 21.2501 17.3945ZM21.2501 19.8946H20.6037V18.6019H21.2501C21.6065 18.6019 21.8965 18.8918 21.8965 19.2483C21.8965 19.6048 21.6066 19.8946 21.2501 19.8946Z" fill="#E9F1FF"/>
<path d="M25.0001 17.3945C24.6666 17.3945 24.3965 17.6648 24.3965 17.9981V22.9981C24.3965 23.3316 24.6667 23.6017 25.0001 23.6017C25.3334 23.6017 25.6037 23.3315 25.6037 22.9981V17.9981C25.6037 17.6648 25.3334 17.3945 25.0001 17.3945Z" fill="#E9F1FF"/>
<path d="M28.9838 16.1023H11.0166C11.2221 15.682 11.4564 15.2789 11.7174 14.8945H28.283C28.5439 15.2789 28.7783 15.682 28.9838 16.1023Z" fill="#E9F1FF"/>
<path d="M28.9838 24.8945C28.7783 25.3148 28.5439 25.718 28.283 26.1023H11.7174C11.4564 25.718 11.2221 25.3148 11.0166 24.8945H28.9838Z" fill="#E9F1FF"/>
<path d="M20.0003 30.5019C20.5319 30.5019 21.0537 30.46 21.5628 30.3801C18.7713 29.942 16.3633 28.3488 14.8424 26.1055H11.7168C13.515 28.7584 16.554 30.5019 20.0003 30.5019Z" fill="#08B865"/>
<path d="M21.5628 10.6218C21.0537 10.5419 20.5319 10.5 20.0003 10.5C16.554 10.5 13.515 12.2434 11.7168 14.8964H14.8424C16.3633 12.653 18.7713 11.0598 21.5628 10.6218Z" fill="#08B865"/>
<path d="M13.125 20.5018C13.125 18.9243 13.4906 17.4323 14.1412 16.1055H11.0164C10.3658 17.4323 10 18.9243 10 20.5018C10 22.0793 10.3658 23.5713 11.0164 24.8981H14.1413C13.4906 23.5713 13.125 22.0793 13.125 20.5018Z" fill="#08B865"/>
<path d="M14.8424 14.8945H11.7168C11.4564 15.2787 11.2225 15.682 11.0166 16.1018H14.1415C14.3474 15.682 14.5819 15.2788 14.8424 14.8945Z" fill="#D7E4F7"/>
<path d="M11.0166 24.8945C11.2224 25.3143 11.4564 25.7177 11.7168 26.1018H14.8424C14.5819 25.7176 14.3474 25.3144 14.1415 24.8945H11.0166Z" fill="#D7E4F7"/>
</g>
<defs>
<clipPath id="clip0_9766_44526">
<rect width="40" height="40" fill="white" transform="translate(0 0.5)"/>
</clipPath>
</defs>
</svg>
