<svg xmlns="http://www.w3.org/2000/svg" width="40" height="40" viewBox="0 0 40 40" fill="none"><rect width="40" height="40" rx="10" fill="url(#paint0_linear_2789_14914)" fill-opacity="0.4"></rect><path d="M11.125 28.4175C11.1262 29.0636 11.3834 29.6829 11.8402 30.1397C12.2971 30.5966 12.9164 30.8538 13.5625 30.855H28.935C29.5813 30.8544 30.201 30.5975 30.658 30.1405C31.115 29.6835 31.372 29.0638 31.3725 28.4175V15.3037H11.125V28.4175ZM18.8194 18.2693C23.2262 15.8281 28.0839 20.6857 25.6565 25.0944C25.2827 25.7823 24.7533 26.3734 24.1106 26.8205C23.4679 27.2676 22.7296 27.5584 21.9547 27.6696C21.1797 27.7809 20.3894 27.7096 19.6469 27.4613C18.9043 27.2131 18.2301 26.7949 17.6778 26.2399C15.3197 23.9601 15.8501 19.7978 18.8194 18.2693Z" fill="#FF8A7A"></path><path d="M10.315 28.4175V15.3037H8.625V28.4175C8.62948 28.7674 8.70773 29.1125 8.85466 29.4302C9.00158 29.7478 9.21386 30.0309 9.47765 30.261C9.74143 30.491 10.0508 30.6628 10.3855 30.7652C10.7202 30.8675 11.0727 30.8981 11.42 30.8549C11.0724 30.5512 10.7939 30.1765 10.6032 29.756C10.4126 29.3355 10.3143 28.8791 10.315 28.4175Z" fill="#FF8A7A"></path><path d="M10.315 13.041C10.3164 12.5797 10.4156 12.1239 10.6061 11.7037C10.7966 11.2836 11.074 10.9086 11.42 10.6035C11.0727 10.5603 10.7202 10.5909 10.3855 10.6932C10.0507 10.7956 9.7414 10.9674 9.47762 11.1974C9.21383 11.4275 9.00155 11.7106 8.85463 12.0283C8.70771 12.3459 8.62947 12.691 8.625 13.041V14.4913H10.315V13.041Z" fill="#FF8A7A"></path><path d="M28.935 10.6035H27.7813C27.8814 11.2937 27.7105 11.9959 27.3044 12.5629C26.8983 13.1299 26.2885 13.5177 25.6028 13.6451C25.4983 13.6592 25.3924 13.6319 25.3077 13.5691C25.223 13.5063 25.1662 13.4128 25.1494 13.3087C25.1326 13.2046 25.157 13.0981 25.2176 13.0117C25.2782 12.9254 25.3701 12.8662 25.4738 12.8466C25.8052 12.7857 26.114 12.6361 26.3672 12.4138C26.6205 12.1914 26.8087 11.9047 26.912 11.5839C27.0154 11.2631 27.0298 10.9203 26.9539 10.592C26.8781 10.2636 26.7146 9.96199 26.481 9.71909C26.2474 9.47619 25.9524 9.30111 25.6273 9.21246C25.3021 9.12381 24.959 9.1249 24.6345 9.21561C24.3099 9.30632 24.016 9.48326 23.7839 9.72764C23.5519 9.97202 23.3904 10.2747 23.3166 10.6035L20.0056 10.6035C20.1053 11.2957 19.9333 11.9996 19.5254 12.5678C19.1176 13.1359 18.5057 13.5241 17.818 13.6511C17.7122 13.6632 17.6058 13.6337 17.5214 13.5688C17.437 13.504 17.381 13.4088 17.3654 13.3035C17.3498 13.1982 17.3758 13.0909 17.4378 13.0044C17.4998 12.9178 17.593 12.8587 17.6977 12.8396C19.8216 12.4599 19.7053 9.22073 17.3609 9.14502C16.9371 9.14569 16.5262 9.29041 16.1955 9.55542C15.8647 9.82044 15.6339 10.19 15.5409 10.6035H13.5625C12.9166 10.6052 12.2976 10.8626 11.8409 11.3193C11.3841 11.7761 11.1268 12.395 11.125 13.041V14.4913H31.3725V13.041C31.3725 12.3945 31.1157 11.7745 30.6586 11.3174C30.2015 10.8603 29.5815 10.6035 28.935 10.6035ZM17.3609 9.95753C17.5684 9.95754 17.7713 10.0189 17.944 10.1338C18.1168 10.2487 18.2517 10.4121 18.3319 10.6035H16.39C16.4702 10.4121 16.6051 10.2487 16.7779 10.1338C16.9506 10.0189 17.1535 9.95754 17.3609 9.95753ZM25.1366 9.95753C25.3439 9.9581 25.5465 10.0196 25.7192 10.1345C25.8918 10.2493 26.0269 10.4124 26.1075 10.6035H24.1656C24.2458 10.4121 24.3807 10.2487 24.5535 10.1338C24.7262 10.0189 24.9291 9.95754 25.1366 9.95753Z" fill="#FF8A7A"></path><path d="M19.6161 26.5896C20.5792 26.9948 21.6588 27.0262 22.6438 26.6776C23.6288 26.329 24.4483 25.6254 24.9421 24.7046C27.0178 21.045 22.8694 16.8948 19.2099 18.9847C16.0656 20.6223 16.4104 25.2829 19.6161 26.5896ZM17.8977 21.999C17.9472 21.9552 18.0059 21.923 18.0694 21.9046C18.1328 21.8862 18.1996 21.8821 18.2649 21.8926C18.3302 21.903 18.3923 21.9279 18.4468 21.9652C18.5013 22.0026 18.5469 22.0516 18.5802 22.1087C19.3196 18.9474 23.9105 19.4126 23.9752 22.6775C23.9742 23.4008 23.6861 24.0942 23.1742 24.6053C22.6623 25.1164 21.9686 25.4034 21.2452 25.4034C20.7765 25.3815 19.4893 25.2327 19.7786 24.5178C19.8311 24.4237 19.9184 24.3541 20.0217 24.3237C20.125 24.2933 20.2361 24.3046 20.3311 24.3552C20.6112 24.5093 20.9256 24.5904 21.2452 24.5909C23.7803 24.5108 23.7773 20.8417 21.2452 20.7599C20.8579 20.7631 20.4804 20.882 20.1611 21.1014C19.8419 21.3207 19.5955 21.6305 19.4536 21.9909C19.532 21.9202 19.6347 21.8828 19.7401 21.8865C19.8455 21.8902 19.9454 21.9346 20.0186 22.0105C20.0919 22.0864 20.1328 22.1878 20.1327 22.2932C20.1327 22.3987 20.0917 22.5 20.0183 22.5759L19.2465 23.3477C19.2062 23.3872 19.1583 23.4179 19.1057 23.4382C19.0531 23.4584 18.9969 23.4677 18.9406 23.4654C18.8843 23.4631 18.829 23.4493 18.7782 23.4249C18.7274 23.4005 18.6822 23.3659 18.6452 23.3234C18.5233 23.1974 17.8977 22.5759 17.8977 22.5759C17.8216 22.4992 17.7789 22.3955 17.7789 22.2874C17.7789 22.1794 17.8216 22.0757 17.8977 21.999Z" fill="#FF8A7A"></path><defs><linearGradient id="paint0_linear_2789_14914" x1="-32.5" y1="-71" x2="20" y2="40" gradientUnits="userSpaceOnUse"><stop stop-color="white" stop-opacity="0.06"></stop><stop offset="1" stop-color="#FF8A7A" stop-opacity="0.5"></stop></linearGradient></defs></svg>