<svg width="31" height="32" viewBox="0 0 31 32" fill="none" xmlns="http://www.w3.org/2000/svg">
<path d="M20.7982 3.07018L19.6157 5.1177C19.482 5.34917 19.5614 5.64518 19.7928 5.77887C19.8691 5.82295 19.9523 5.84383 20.0344 5.84383C20.2016 5.84383 20.3643 5.75701 20.454 5.60183L21.6365 3.55432C21.7702 3.32284 21.6909 3.02683 21.4594 2.89314C21.2279 2.75933 20.9319 2.83871 20.7982 3.07018Z" fill="white"/>
<path d="M25.3806 7.14293L23.3331 8.32377C23.1016 8.45734 23.0221 8.75329 23.1556 8.98482C23.2452 9.14019 23.408 9.22713 23.5753 9.22713C23.6574 9.22713 23.7406 9.20624 23.8167 9.16235L25.8642 7.9815C26.0957 7.84793 26.1752 7.55198 26.0417 7.32045C25.908 7.08892 25.6121 7.00936 25.3806 7.14293Z" fill="white"/>
<path d="M9.15704 3.10796C8.92557 3.24165 8.84632 3.53766 8.98 3.76913L10.1625 5.81659C10.2522 5.97177 10.4148 6.05859 10.5821 6.05859C10.6642 6.05859 10.7475 6.03764 10.8238 5.99362C11.0552 5.85994 11.1345 5.56392 11.0008 5.33245L9.81828 3.285C9.68459 3.05353 9.38851 2.97421 9.15704 3.10796Z" fill="white"/>
<path d="M14.7949 1.83753V4.20085C14.7949 4.46817 15.0116 4.68486 15.2789 4.68486C15.5462 4.68486 15.7629 4.46817 15.7629 4.20085V1.83753C15.7629 1.57021 15.5462 1.35352 15.2789 1.35352C15.0116 1.35352 14.7949 1.57021 14.7949 1.83753Z" fill="white"/>
<path d="M15.4965 30.1543C16.2858 30.1543 17.0309 29.7912 17.5183 29.1764V28.0605H12.9648C13.1921 29.2513 14.2405 30.1543 15.4965 30.1543Z" fill="white"/>
<path d="M16.6022 25.4648H11.5528C11.1042 25.4648 10.7393 25.8305 10.7393 26.28C10.7393 26.7295 11.1042 27.0936 11.5528 27.0936H17.5169V26.0292C17.368 25.9797 17.2228 25.916 17.0842 25.8358C16.906 25.7333 16.7451 25.6079 16.6023 25.4649L16.6022 25.4648Z" fill="white"/>
<path d="M20.0536 18.4961C18.8394 18.4961 17.8516 19.4831 17.8516 20.6964C17.8516 21.9096 18.8394 22.8983 20.0536 22.8983C21.2678 22.8983 22.2539 21.9106 22.2539 20.6964C22.2539 19.4822 21.2668 18.4961 20.0536 18.4961Z" fill="white"/>
<path d="M14.6325 22.8613H11.5548C11.1062 22.8613 10.7412 23.2262 10.7412 23.6748C10.7412 24.1234 11.1062 24.49 11.5548 24.49H15.737C15.3984 24.2908 15.1152 24.0059 14.9145 23.657C14.7708 23.4084 14.6762 23.1392 14.6325 22.8613Z" fill="white"/>
<path d="M6.03874 13.3848H3.67542C3.4081 13.3848 3.19141 13.6015 3.19141 13.8688C3.19141 14.1361 3.4081 14.3528 3.67542 14.3528H6.03874C6.30606 14.3528 6.52276 14.1361 6.52276 13.8688C6.52276 13.6015 6.30606 13.3848 6.03874 13.3848Z" fill="white"/>
<path d="M12.3015 21.8956H14.4597C14.2388 21.5322 14.1213 21.1196 14.1213 20.6941C14.1213 20.2294 14.26 19.7795 14.5223 19.3927C14.5949 19.2865 14.6227 19.1831 14.6135 19.0558C14.5778 18.5961 14.6827 18.1365 14.9169 17.7292C14.9477 17.6756 14.9808 17.6237 15.0155 17.5731V15.2325C13.7248 15.0029 12.7414 13.8734 12.7414 12.5178C12.7414 12.2505 12.9581 12.0338 13.2254 12.0338C13.4927 12.0338 13.7094 12.2505 13.7094 12.5178C13.7094 13.5048 14.5125 14.3078 15.4995 14.3078C16.4865 14.3078 17.2896 13.5047 17.2896 12.5178C17.2896 12.2505 17.5063 12.0338 17.7736 12.0338C18.0409 12.0338 18.2576 12.2505 18.2576 12.5178C18.2576 13.8734 17.2742 15.0029 15.9835 15.2325V16.7633C16.0608 16.7129 16.1157 16.6482 16.1599 16.5561C16.3614 16.1378 16.6822 15.7927 17.088 15.5574C17.4911 15.3244 17.9495 15.2193 18.4146 15.2531C18.545 15.2634 18.6452 15.2367 18.7526 15.164C19.1368 14.9014 19.587 14.7626 20.0546 14.7626C20.5222 14.7626 20.9732 14.9017 21.3576 15.1647C21.4631 15.2369 21.5622 15.2633 21.6898 15.2533C22.0509 15.2268 22.4069 15.2846 22.7366 15.4192C22.8759 14.8442 22.9465 14.2528 22.9465 13.654C22.9465 9.5477 19.6058 6.20703 15.4995 6.20703C11.3932 6.20703 8.05078 9.5477 8.05078 13.654C8.05078 16.0518 9.21734 18.3183 11.1712 19.7171C11.8945 20.2322 12.2953 21.0057 12.3015 21.8956Z" fill="white"/>
<path d="M24.531 18.9821C24.5505 18.7149 24.4893 18.4473 24.3536 18.2116C24.218 17.9779 24.0169 17.7911 23.7729 17.673C23.461 17.5233 23.2258 17.2882 23.0754 16.9748C22.9576 16.7315 22.7711 16.5305 22.5366 16.3949C22.3018 16.26 22.0341 16.1986 21.7636 16.2184C21.4202 16.2455 21.0987 16.1598 20.8116 15.9635C20.5888 15.811 20.3272 15.7305 20.0551 15.7305C19.783 15.7305 19.5214 15.811 19.2986 15.9635C19.2981 15.9638 19.2975 15.9642 19.297 15.9645C19.0087 16.1601 18.6872 16.2455 18.3419 16.2181C18.0743 16.1986 17.8075 16.2597 17.5736 16.3949C17.3367 16.5323 17.1495 16.7331 17.0328 16.9754C16.8823 17.2889 16.6478 17.5241 16.3359 17.6737C16.0918 17.7912 15.8913 17.9773 15.7565 18.2116C15.6198 18.4493 15.5585 18.7161 15.5792 18.9832C15.6045 19.3317 15.5182 19.652 15.3228 19.9375C15.1708 20.1617 15.0898 20.4238 15.0898 20.694C15.0898 20.9641 15.1708 21.2264 15.3239 21.4521C15.5183 21.7388 15.6043 22.059 15.5795 22.4039C15.5585 22.6738 15.6197 22.9397 15.756 23.1756C15.8923 23.4126 16.0922 23.5983 16.3345 23.7136C16.6504 23.8678 16.884 24.1025 17.0332 24.4133C17.1502 24.6565 17.3369 24.8569 17.5727 24.9926C17.8095 25.1295 18.0755 25.1909 18.3426 25.1699C18.3819 25.1671 18.4209 25.1657 18.4595 25.1657C18.7622 25.1657 19.0428 25.2527 19.297 25.4252C19.5211 25.5773 19.7832 25.6576 20.0551 25.6576C20.327 25.6576 20.5891 25.5773 20.8132 25.4253C21.097 25.2311 21.417 25.1445 21.7633 25.1697C22.033 25.1906 22.2999 25.1293 22.5376 24.9926C22.772 24.8571 22.9584 24.6563 23.0757 24.4128C23.2243 24.1032 23.4584 23.8685 23.7715 23.7157C24.0166 23.5984 24.217 23.4119 24.3547 23.1748C24.4895 22.9416 24.5505 22.675 24.5309 22.4043C24.5037 22.062 24.589 21.7405 24.7846 21.4521C24.9382 21.2277 25.0187 20.9661 25.0187 20.694C25.0187 20.4218 24.9382 20.1603 24.7858 19.9375C24.5892 19.6502 24.5035 19.3287 24.5312 18.9821H24.531ZM20.0552 23.864C18.3072 23.864 16.8852 22.442 16.8852 20.694C16.8852 18.9461 18.3072 17.5257 20.0552 17.5257C21.8031 17.5257 23.2235 18.9471 23.2235 20.694C23.2235 22.441 21.8022 23.864 20.0552 23.864Z" fill="white"/>
<path d="M7.4476 8.69496L5.40178 7.51411C5.17031 7.38048 4.87424 7.45986 4.74067 7.69133C4.60705 7.9228 4.68642 8.21882 4.91789 8.35244L6.96371 9.53329C7.03994 9.57731 7.12313 9.59819 7.20523 9.59819C7.37252 9.59819 7.53521 9.51131 7.62488 9.35607C7.75851 9.1246 7.67907 8.82858 7.4476 8.69496Z" fill="white"/>
<path d="M27.3151 12.957H24.9518C24.6845 12.957 24.4678 13.1737 24.4678 13.441C24.4678 13.7084 24.6845 13.9251 24.9518 13.9251H27.3151C27.5824 13.9251 27.7991 13.7084 27.7991 13.441C27.7991 13.1737 27.5824 12.957 27.3151 12.957Z" fill="white"/>
<path d="M20.0506 26.6243C19.5841 26.6243 19.134 26.4862 18.7491 26.225C18.663 26.1666 18.5807 26.1378 18.4854 26.1332V30.6502L19.8038 29.8613C19.9567 29.7697 20.1476 29.7697 20.3007 29.8612L21.621 30.6505V26.1328C21.5241 26.1362 21.4406 26.1645 21.3536 26.224C20.9672 26.4862 20.5171 26.6243 20.0506 26.6243Z" fill="white"/>
</svg>
