<svg xmlns="http://www.w3.org/2000/svg" width="40" height="40" viewBox="0 0 40 40" fill="none"><rect width="40" height="40" rx="20" fill="url(#paint0_linear_2355_44044)"></rect><path d="M16.125 14.2314H18.1003V23.1958H16.125V14.2314Z" fill="white"></path><path d="M12.1934 13.3568H22.0249C22.0279 13.3568 22.0306 13.355 22.0332 13.355H24.8835C24.8866 13.355 24.8892 13.3568 24.8918 13.3568H26.1632V10.7151L17.1131 7.77295L8.0625 10.7151V13.3568H12.1934ZM17.1131 9.12045C18.1403 9.12045 18.9759 9.95607 18.9759 10.9829C18.9759 12.0097 18.1403 12.8453 17.1131 12.8453C16.0858 12.8453 15.2506 12.0097 15.2506 10.9829C15.2506 9.95607 16.0863 9.12045 17.1131 9.12045Z" fill="white"></path><path d="M22.5003 20.5563C22.7553 20.5108 23.0021 20.4505 23.2423 20.3809C23.2991 20.3643 23.3547 20.3468 23.4107 20.3288C23.6522 20.2523 23.8884 20.1678 24.112 20.0668C24.2209 20.0178 24.3233 19.9666 24.4218 19.9154C24.4296 19.9115 24.4366 19.9071 24.4441 19.9027V14.231H22.4688V20.5607C22.4788 20.559 22.4898 20.5581 22.4998 20.5559L22.5003 20.5563Z" fill="white"></path><path d="M17.1124 11.97C17.6571 11.97 18.1003 11.5268 18.1003 10.9826C18.1003 10.4383 17.6571 9.99512 17.1124 9.99512C16.5677 9.99512 16.125 10.4383 16.125 10.9826C16.125 11.5268 16.5682 11.97 17.1124 11.97Z" fill="white"></path><path d="M9.78125 14.2314H11.7566V23.1958H9.78125V14.2314Z" fill="white"></path><path d="M26.1393 32.2224C31.871 30.1215 31.9379 25.516 31.9379 25.4692V21.5649C30.604 21.6292 29.3842 21.4612 28.3062 21.0666C27.9164 20.9227 27.5507 20.7525 27.2186 20.56C26.7299 20.2765 26.3751 19.986 26.1406 19.7642C25.9149 19.9803 25.5754 20.2607 25.1099 20.5355C25.1094 20.5355 25.109 20.5363 25.1086 20.5368C25.0132 20.5932 24.9126 20.6492 24.8067 20.7039C24.7012 20.7586 24.5906 20.812 24.4755 20.8645C23.751 21.1917 22.9464 21.4061 22.0832 21.5028C21.5429 21.5737 20.9576 21.5951 20.3438 21.5653V25.4692C20.3438 25.4692 20.3468 25.8017 20.454 26.3162C20.5607 26.8184 20.79 27.5928 21.2739 28.4205C21.3837 28.613 21.5097 28.806 21.6619 29.0138C22.6752 30.4247 24.1802 31.5027 26.1389 32.222L26.1393 32.2224ZM22.1016 25.8183L23.4264 24.4935C23.5974 24.3225 23.8739 24.3225 24.045 24.4935L25.1882 25.6367L28.2349 22.59C28.3172 22.5077 28.4283 22.4618 28.5442 22.4618C28.6602 22.4618 28.7717 22.5077 28.8536 22.59L30.1779 23.9147C30.3489 24.0858 30.3489 24.3623 30.1779 24.5333L25.4971 29.2142C25.4148 29.2964 25.3037 29.3423 25.1877 29.3423C25.0718 29.3423 24.9602 29.2964 24.8784 29.2142L22.1012 26.4369C21.9301 26.2658 21.9306 25.9893 22.1016 25.8183Z" fill="white"></path><path d="M29.2516 24.2242L28.5459 23.5181L25.4992 26.5648C25.3281 26.7359 25.0516 26.7359 24.8806 26.5648L23.7374 25.4216L23.0312 26.1278L25.1899 28.2864L29.2516 24.2242Z" fill="white"></path><path d="M19.5036 25.9413C19.4961 25.8818 19.49 25.8262 19.4852 25.7772C19.4848 25.772 19.4839 25.7658 19.4834 25.761C19.4786 25.7063 19.4751 25.6613 19.4729 25.6215C19.4721 25.607 19.4716 25.597 19.4707 25.5847C19.4694 25.5589 19.4686 25.5383 19.4677 25.5213C19.4677 25.5125 19.4673 25.5073 19.4668 25.5011C19.4668 25.4841 19.4664 25.4723 19.4664 25.4701V24.0723H8.0625V25.9688H19.5066C19.5053 25.9588 19.5049 25.9518 19.5036 25.9421V25.9413Z" fill="white"></path><defs><linearGradient id="paint0_linear_2355_44044" x1="38.9781" y1="56.625" x2="-5.74477" y2="51.3473" gradientUnits="userSpaceOnUse"><stop stop-color="#2E96FF"></stop><stop offset="1" stop-color="#015CB8"></stop></linearGradient></defs></svg>