<svg width="50" height="50" viewBox="0 0 50 50" fill="none" xmlns="http://www.w3.org/2000/svg">
<rect width="50" height="50" rx="25" fill="url(#paint0_linear_3187_41116)"/>
<g clip-path="url(#clip0_3187_41116)">
<path d="M31 25.75C28.105 25.75 25.75 28.105 25.75 31C25.75 33.895 28.105 36.25 31 36.25C33.895 36.25 36.25 33.895 36.25 31C36.25 28.105 33.895 25.75 31 25.75ZM30.4525 30.25H31.555C32.575 30.25 33.4075 31.0825 33.4075 32.1025C33.4075 33.055 32.68 33.8275 31.7575 33.9325V34.3C31.7575 34.7125 31.42 35.05 31.0075 35.05C30.595 35.05 30.2575 34.7125 30.2575 34.3V33.9475H29.3575C28.945 33.9475 28.6075 33.61 28.6075 33.1975C28.6075 32.785 28.945 32.4475 29.3575 32.4475H31.555C31.75 32.4475 31.9075 32.29 31.9075 32.095C31.9075 31.9 31.75 31.7425 31.555 31.7425H30.4525C29.4325 31.7425 28.6 30.91 28.6 29.89C28.6 28.9375 29.3275 28.165 30.25 28.06V27.6925C30.25 27.28 30.5875 26.9425 31 26.9425C31.4125 26.9425 31.75 27.28 31.75 27.6925V28.045H32.65C33.0625 28.045 33.4 28.3825 33.4 28.795C33.4 29.2075 33.0625 29.545 32.65 29.545H30.4525C30.2575 29.545 30.1 29.7025 30.1 29.8975C30.1 30.0925 30.2575 30.25 30.4525 30.25Z" fill="white"/>
<path d="M30.28 24.2877L25.5925 15.4227C25.045 14.3877 23.98 13.7427 22.8025 13.7427H22.6975C21.5275 13.7427 20.4625 14.3877 19.9075 15.4227L14.1175 26.3727C13.8775 26.8227 13.75 27.3327 13.75 27.8502C13.75 29.5902 15.1675 31.0002 16.9 31.0002H24.25C24.25 27.5202 26.8975 24.6477 30.28 24.2877ZM23.5 26.5002C23.5 26.9127 23.1625 27.2502 22.75 27.2502C22.3375 27.2502 22 26.9127 22 26.5002V26.1252C22 25.7127 22.3375 25.3752 22.75 25.3752C23.1625 25.3752 23.5 25.7127 23.5 26.1252V26.5002ZM23.5 23.5002C23.5 23.9127 23.1625 24.2502 22.75 24.2502C22.3375 24.2502 22 23.9127 22 23.5002V17.5002C22 17.0877 22.3375 16.7502 22.75 16.7502C23.1625 16.7502 23.5 17.0877 23.5 17.5002V23.5002Z" fill="white"/>
</g>
<defs>
<linearGradient id="paint0_linear_3187_41116" x1="48.7226" y1="70.7813" x2="-7.18096" y2="64.1841" gradientUnits="userSpaceOnUse">
<stop stop-color="#2E96FF"/>
<stop offset="1" stop-color="#015CB8"/>
</linearGradient>
<clipPath id="clip0_3187_41116">
<rect width="24" height="24" fill="white" transform="translate(13 13)"/>
</clipPath>
</defs>
</svg>
