<svg width="25" height="24" viewBox="0 0 25 24" fill="none" xmlns="http://www.w3.org/2000/svg">
<path d="M7.03807 19.9999C7.16813 19.8699 7.16813 19.6591 7.03807 19.5291C6.90808 19.3991 6.69731 19.3991 6.56731 19.5291L3.17757 22.9189C3.04758 23.0489 3.04758 23.2596 3.17757 23.3896C3.30757 23.5196 3.5184 23.5196 3.64839 23.3896L7.03807 19.9999Z" fill="#085AAC"/>
<path d="M5.32329 18.2851C5.45328 18.1551 5.45328 17.9443 5.32329 17.8143C5.19324 17.6843 4.98246 17.6843 4.85247 17.8143L1.46273 21.204C1.33274 21.334 1.33274 21.5448 1.46273 21.6748C1.59273 21.8048 1.80355 21.8048 1.93355 21.6748L5.32329 18.2851Z" fill="#085AAC"/>
<path d="M4.80962 20.5136C4.93961 20.3836 4.93961 20.1728 4.80962 20.0428C4.67956 19.9128 4.46879 19.9128 4.3388 20.0428L0.949059 23.4325C0.819064 23.5625 0.819064 23.7733 0.949059 23.9033C1.07905 24.0333 1.28988 24.0333 1.41988 23.9033L4.80962 20.5136Z" fill="#085AAC"/>
<path fill-rule="evenodd" clip-rule="evenodd" d="M11.8603 6.13672C9.08381 6.62885 4.61818 7.37201 1.96484 13.0809C1.96484 13.0809 5.06126 12.9521 7.19384 13.4939C7.2972 13.1348 7.45073 12.7551 7.59601 12.4124C7.98372 11.4978 8.45808 10.6099 8.98554 9.76868L9.05043 9.6652L9.04738 9.66221L9.13358 9.5326L9.3407 9.2023L9.34845 9.21005C10.0878 8.11057 10.931 7.08118 11.8603 6.13672Z" fill="#085AAC"/>
<path fill-rule="evenodd" clip-rule="evenodd" d="M11.7704 22.8868C17.4799 20.2331 18.2137 15.7763 18.7039 13.002C17.7624 13.927 16.7365 14.7666 15.6412 15.5032L15.649 15.511L15.3182 15.7183L15.1891 15.8043L15.1861 15.8012L15.0826 15.8661C14.2414 16.3936 13.3535 16.8679 12.4389 17.2556C12.0962 17.4009 11.7165 17.5545 11.3574 17.6578C11.8993 19.7904 11.7704 22.8868 11.7704 22.8868Z" fill="#085AAC"/>
<path fill-rule="evenodd" clip-rule="evenodd" d="M7.66452 14.3574L6.95813 15.0638C6.74442 15.2775 6.74442 15.6272 6.95813 15.8409L6.99545 15.8782L7.9842 16.867L8.97301 17.8558L9.01032 17.8931C9.22403 18.1067 9.57371 18.1067 9.78736 17.8931L10.4938 17.1867L7.66452 14.3574Z" fill="#085AAC"/>
<path fill-rule="evenodd" clip-rule="evenodd" d="M6.6196 16.2539L5.91321 16.9603C5.6995 17.174 5.6995 17.5237 5.91321 17.7373L6.51347 18.3377L7.11373 18.9379C7.32744 19.1516 7.67712 19.1516 7.89082 18.9379L8.59716 18.2315L6.6196 16.2539Z" fill="#085AAC"/>
<path fill-rule="evenodd" clip-rule="evenodd" d="M23.4117 4.90423C23.9993 3.44012 24.4929 1.81097 24.8516 0C23.041 0.358706 21.4121 0.852168 19.9482 1.43964C20.0399 2.30194 20.4737 3.12022 21.101 3.74783C21.7297 4.37666 22.5497 4.81127 23.4117 4.90423Z" fill="#085AAC"/>
<path fill-rule="evenodd" clip-rule="evenodd" d="M18.8825 12.0587C20.4603 10.3889 22.0032 8.21605 23.201 5.41256C22.2721 5.27393 21.3991 4.79686 20.7256 4.12318C20.0532 3.45056 19.5769 2.57924 19.4396 1.65039C16.6425 2.84532 14.4731 4.38384 12.8049 5.95779C11.4901 7.1984 10.4865 8.46098 9.73242 9.59479L15.2568 15.1191C16.3871 14.3673 17.6455 13.3676 18.8825 12.0587ZM15.5139 5.6952C16.4195 4.7896 17.8878 4.7896 18.7934 5.6952C19.6989 6.60074 19.6989 8.069 18.7934 8.9746C17.8878 9.88019 16.4195 9.88019 15.514 8.9746C14.6084 8.069 14.6084 6.60074 15.5139 5.6952Z" fill="#085AAC"/>
<path fill-rule="evenodd" clip-rule="evenodd" d="M14.7993 15.415L9.43699 10.0527C8.14506 12.1131 7.70508 13.6449 7.70508 13.6449L8.04147 13.9813L9.45609 15.3959L10.8707 16.8106L11.2071 17.147C11.2071 17.147 12.7389 16.707 14.7993 15.415Z" fill="#085AAC"/>
</svg>
