<svg width="23" height="23" viewBox="0 0 23 23" fill="none" xmlns="http://www.w3.org/2000/svg">
<g clip-path="url(#clip0_7319_83646)">
<path d="M6.17016 18.8295C6.28937 18.7103 6.28937 18.5171 6.17016 18.398C6.05099 18.2788 5.85779 18.2788 5.73862 18.398L2.63136 21.5052C2.5122 21.6244 2.5122 21.8176 2.63136 21.9368C2.75053 22.0559 2.94379 22.0559 3.06295 21.9368L6.17016 18.8295Z" fill="#4976E7"/>
<path d="M4.59892 17.2592C4.71808 17.1401 4.71808 16.9468 4.59892 16.8277C4.4797 16.7085 4.2865 16.7085 4.16733 16.8277L1.06008 19.9349C0.940912 20.0541 0.940912 20.2473 1.06008 20.3664C1.17924 20.4856 1.3725 20.4856 1.49166 20.3664L4.59892 17.2592Z" fill="#4976E7"/>
<path d="M4.12821 19.3022C4.24738 19.183 4.24738 18.9898 4.12821 18.8706C4.009 18.7515 3.81579 18.7515 3.69663 18.8706L0.589372 21.9779C0.470209 22.097 0.470209 22.2903 0.589372 22.4094C0.708534 22.5286 0.901793 22.5286 1.02096 22.4094L4.12821 19.3022Z" fill="#4976E7"/>
<path fill-rule="evenodd" clip-rule="evenodd" d="M10.5913 6.125C8.04623 6.57612 3.95273 7.25735 1.52051 12.4905C1.52051 12.4905 4.35889 12.3724 6.31375 12.8691C6.40851 12.5399 6.54924 12.1918 6.68241 11.8777C7.03781 11.0393 7.47264 10.2254 7.95615 9.45429L8.01563 9.35944L8.01283 9.3567L8.09185 9.23789L8.28171 8.93511L8.28882 8.94222C8.96659 7.93436 9.73952 6.99076 10.5913 6.125Z" fill="#4976E7"/>
<path fill-rule="evenodd" clip-rule="evenodd" d="M10.5084 21.479C15.7422 19.0465 16.4148 14.9611 16.8641 12.418C16.0011 13.266 15.0607 14.0356 14.0567 14.7108L14.0638 14.7179L13.7606 14.908L13.6422 14.9868L13.6395 14.984L13.5446 15.0435C12.7735 15.527 11.9596 15.9618 11.1212 16.3171C10.8071 16.4503 10.4591 16.5911 10.1299 16.6858C10.6266 18.6407 10.5084 21.479 10.5084 21.479Z" fill="#4976E7"/>
<path fill-rule="evenodd" clip-rule="evenodd" d="M6.74562 13.6602L6.09809 14.3077C5.9022 14.5036 5.9022 14.8241 6.09809 15.02L6.1323 15.0542L7.03866 15.9606L7.94506 16.867L7.97927 16.9012C8.17517 17.097 8.49571 17.097 8.69155 16.9012L9.33913 16.2536L6.74562 13.6602Z" fill="#4976E7"/>
<path fill-rule="evenodd" clip-rule="evenodd" d="M5.78664 15.3984L5.13911 16.046C4.94321 16.2419 4.94321 16.5624 5.13911 16.7583L5.68935 17.3085L6.23959 17.8588C6.43549 18.0547 6.75603 18.0546 6.95192 17.8588L7.5994 17.2112L5.78664 15.3984Z" fill="#4976E7"/>
<path fill-rule="evenodd" clip-rule="evenodd" d="M21.1797 4.99554C21.7184 3.65344 22.1708 2.16005 22.4997 0.5C20.8399 0.828813 19.3468 1.28115 18.0049 1.81967C18.0889 2.61011 18.4865 3.36021 19.0616 3.93551C19.6379 4.51194 20.3896 4.91033 21.1797 4.99554Z" fill="#4976E7"/>
<path fill-rule="evenodd" clip-rule="evenodd" d="M17.0282 11.5526C18.4745 10.022 19.8888 8.03024 20.9868 5.46038C20.1353 5.3333 19.3351 4.89598 18.7177 4.27845C18.1014 3.66188 17.6648 2.86316 17.5388 2.01172C14.9749 3.10707 12.9862 4.51738 11.4571 5.96017C10.2518 7.09739 9.3319 8.25476 8.64062 9.29408L13.7046 14.358C14.7408 13.6689 15.8943 12.7525 17.0282 11.5526ZM13.9403 5.71946C14.7704 4.88933 16.1163 4.88933 16.9465 5.71946C17.7766 6.54954 17.7766 7.89544 16.9465 8.72557C16.1163 9.5557 14.7704 9.5557 13.9404 8.72557C13.1102 7.89544 13.1102 6.54954 13.9403 5.71946Z" fill="#4976E7"/>
<path fill-rule="evenodd" clip-rule="evenodd" d="M13.2853 14.6303L8.36981 9.71484C7.18554 11.6035 6.78223 13.0077 6.78223 13.0077L7.09059 13.3161L8.38732 14.6128L9.68405 15.9095L9.99241 16.2179C9.99241 16.2179 11.3966 15.8146 13.2853 14.6303Z" fill="#4976E7"/>
</g>
<defs>
<clipPath id="clip0_7319_83646">
<rect width="22" height="22" fill="white" transform="translate(0.5 0.5)"/>
</clipPath>
</defs>
</svg>
