<svg width="44" height="45" viewBox="0 0 44 45" fill="none" xmlns="http://www.w3.org/2000/svg">
<circle cx="22" cy="22.7188" r="22" transform="rotate(-90 22 22.7188)" fill="#04254F"/>
<path d="M23.0125 15.3685C23.2514 15.1251 23.5754 14.9883 23.9133 14.9883C24.2511 14.9883 24.5752 15.1251 24.8141 15.3685L30.5478 21.213C30.7867 21.4566 30.9208 21.7869 30.9208 22.1313C30.9208 22.4756 30.7867 22.8059 30.5478 23.0495L24.8141 28.894C24.5738 29.1306 24.252 29.2615 23.9179 29.2585C23.5838 29.2555 23.2642 29.119 23.028 28.8782C22.7917 28.6373 22.6577 28.3116 22.6548 27.9711C22.6519 27.6305 22.7804 27.3025 23.0125 27.0575L26.4616 23.43L14.3572 23.43C14.0192 23.43 13.6951 23.2932 13.4562 23.0496C13.2172 22.8061 13.083 22.4757 13.083 22.1313C13.083 21.7868 13.2172 21.4565 13.4562 21.2129C13.6951 20.9693 14.0192 20.8325 14.3572 20.8325L26.4616 20.8325L23.0125 17.205C22.7736 16.9615 22.6394 16.6312 22.6394 16.2868C22.6394 15.9424 22.7736 15.6121 23.0125 15.3685Z" fill="white"/>
</svg>
