<svg xmlns="http://www.w3.org/2000/svg" width="40" height="40" viewBox="0 0 40 40" fill="none"><rect width="40" height="40" rx="20" fill="url(#paint0_linear_2355_44014)"></rect><path d="M10.5645 32.5841L29.4289 32.5999C29.5917 32.6017 29.7519 32.5598 29.8929 32.4785C30.0339 32.3972 30.1505 32.2795 30.2304 32.1377C30.3079 32.0029 30.3477 31.8497 30.3457 31.6942C30.3436 31.5387 30.2998 31.3866 30.2187 31.2539L20.7993 15.4909C20.7179 15.355 20.6023 15.2427 20.4641 15.1654C20.3258 15.088 20.1698 15.0482 20.0113 15.0499C19.853 15.0482 19.6969 15.0882 19.5588 15.1656C19.4206 15.2431 19.3051 15.3554 19.2238 15.4913L9.777 31.2359C9.69537 31.3685 9.651 31.5207 9.64855 31.6763C9.64609 31.832 9.68564 31.9855 9.76305 32.1206C9.84282 32.2626 9.95931 32.3806 10.1003 32.4621C10.2413 32.5436 10.4016 32.5858 10.5645 32.5841ZM18.6474 20.4499C18.6474 20.0918 18.7896 19.7484 19.0428 19.4953C19.296 19.2421 19.6394 19.0999 19.9974 19.0999C20.3554 19.0999 20.6988 19.2421 20.952 19.4953C21.2052 19.7484 21.3474 20.0918 21.3474 20.4499V25.8499C21.3474 26.2079 21.2052 26.5513 20.952 26.8044C20.6988 27.0576 20.3554 27.1999 19.9974 27.1999C19.6394 27.1999 19.296 27.0576 19.0428 26.8044C18.7896 26.5513 18.6474 26.2079 18.6474 25.8499V20.4499ZM19.9974 28.0999C20.2644 28.0999 20.5254 28.179 20.7474 28.3274C20.9694 28.4757 21.1425 28.6866 21.2446 28.9332C21.3468 29.1799 21.3735 29.4514 21.3215 29.7132C21.2694 29.9751 21.1408 30.2156 20.952 30.4044C20.7632 30.5933 20.5226 30.7218 20.2608 30.7739C19.9989 30.826 19.7275 30.7993 19.4808 30.6971C19.2341 30.5949 19.0233 30.4219 18.8749 30.1999C18.7266 29.9779 18.6474 29.7169 18.6474 29.4499C18.6474 29.0918 18.7896 28.7484 19.0428 28.4953C19.296 28.2421 19.6394 28.0999 19.9974 28.0999Z" fill="white"></path><path d="M19.9969 26.3C20.1162 26.3 20.2307 26.2526 20.3151 26.1682C20.3995 26.0838 20.4469 25.9693 20.4469 25.85V20.45C20.4469 20.3307 20.3995 20.2162 20.3151 20.1318C20.2307 20.0474 20.1162 20 19.9969 20C19.8775 20 19.7631 20.0474 19.6787 20.1318C19.5943 20.2162 19.5469 20.3307 19.5469 20.45V25.85C19.5469 25.9693 19.5943 26.0838 19.6787 26.1682C19.7631 26.2526 19.8775 26.3 19.9969 26.3Z" fill="white"></path><path d="M12.142 17.6149C12.2898 17.6531 12.4235 17.7327 12.5276 17.8443C12.6317 17.9559 12.7018 18.0949 12.7297 18.2449C12.7997 18.6184 12.8984 18.9859 13.0249 19.3443C13.0752 19.486 13.0844 19.6391 13.0515 19.7858C13.0185 19.9326 12.9447 20.067 12.8386 20.1736L11.661 21.3049C11.751 21.4633 11.9111 21.7414 11.9957 21.8796L13.5618 21.4296C13.7055 21.3899 13.8574 21.3911 14.0005 21.433C14.1435 21.4749 14.2721 21.5558 14.3718 21.6667C14.392 21.691 14.41 21.7095 14.4298 21.7324L15.2848 20.3059C14.6446 19.4348 14.2583 18.4034 14.1687 17.3261C14.0792 16.2488 14.2899 15.1677 14.7775 14.2029C15.2651 13.2381 16.0105 12.4272 16.9309 11.8604C17.8514 11.2935 18.9109 10.9927 19.9919 10.9915C21.073 10.9902 22.1332 11.2886 23.055 11.8534C23.9767 12.4181 24.724 13.2273 25.2137 14.191C25.7035 15.1547 25.9167 16.2352 25.8296 17.3127C25.7425 18.3903 25.3586 19.4226 24.7204 20.2951L25.5804 21.7351C25.5966 21.7162 25.6123 21.7 25.629 21.6802C25.7278 21.5655 25.8572 21.481 26.002 21.4367C26.1469 21.3923 26.3013 21.3898 26.4475 21.4296L28.0171 21.8796C28.1125 21.7239 28.2709 21.4521 28.3524 21.3049L27.1824 20.1799C27.0744 20.0731 26.999 19.938 26.9647 19.7901C26.9305 19.6422 26.9388 19.4876 26.9888 19.3443C27.1166 18.9836 27.2159 18.6134 27.2859 18.2373C27.3137 18.0904 27.3823 17.9544 27.4839 17.8447C27.5854 17.7351 27.7158 17.6562 27.8601 17.6172L29.4549 17.2239C29.4549 17.1258 29.4549 16.9867 29.4549 16.8454C29.4549 16.7041 29.4549 16.5601 29.4549 16.4661L27.8767 16.0777C27.729 16.0394 27.5953 15.9597 27.4912 15.8482C27.3872 15.7366 27.317 15.5977 27.289 15.4477C27.2192 15.0742 27.1205 14.7066 26.9938 14.3484C26.9437 14.2066 26.9346 14.0536 26.9675 13.9069C27.0005 13.7602 27.0742 13.6257 27.1801 13.519L28.3577 12.3886C28.2677 12.2311 28.1085 11.953 28.023 11.8144L26.457 12.2644C26.3127 12.3041 26.1603 12.3029 26.0168 12.2609C25.8732 12.2188 25.7442 12.1376 25.6442 12.0264C25.3939 11.7316 25.1195 11.4581 24.8239 11.2087C24.7087 11.11 24.624 10.9806 24.5794 10.8357C24.5349 10.6907 24.5324 10.536 24.5724 10.3897L25.0224 8.8282C24.8752 8.7418 24.5953 8.57935 24.4446 8.49565L23.3133 9.66115C23.2086 9.76781 23.0762 9.84312 22.931 9.87858C22.7858 9.91404 22.6336 9.90825 22.4916 9.86185C22.1254 9.73129 21.7491 9.6309 21.3666 9.5617C21.22 9.53317 21.0842 9.46469 20.9742 9.36384C20.8641 9.26299 20.7841 9.13368 20.7429 8.9902L20.3442 7.3999C20.1682 7.3999 19.8491 7.3999 19.6727 7.3999L19.2817 8.9749C19.2433 9.11983 19.1654 9.25126 19.0567 9.35455C18.948 9.45783 18.8128 9.52892 18.6661 9.5599C18.2837 9.62901 17.9074 9.72894 17.5411 9.8587C17.3991 9.90699 17.2464 9.91462 17.1002 9.88075C16.9541 9.84688 16.8203 9.77285 16.714 9.667L15.5778 8.497C15.4216 8.5834 15.1512 8.74 14.9995 8.82955L15.4495 10.3897C15.4897 10.5334 15.4888 10.6855 15.4467 10.8287C15.4047 10.9719 15.3234 11.1005 15.2119 11.1997C14.9148 11.4493 14.6389 11.7231 14.3871 12.0183C14.2877 12.1318 14.1586 12.2154 14.0143 12.2595C13.87 12.3037 13.7162 12.3066 13.5703 12.268L11.9998 11.818C11.9049 11.9724 11.7464 12.2446 11.6645 12.3922L12.8345 13.5172C12.9427 13.6237 13.0183 13.7588 13.0525 13.9067C13.0868 14.0546 13.0783 14.2092 13.0281 14.3524C12.9006 14.7132 12.8013 15.0833 12.7311 15.4594C12.7034 15.6063 12.6349 15.7423 12.5334 15.852C12.4319 15.9617 12.3016 16.0405 12.1573 16.0795L10.5625 16.4728V16.8517C10.5625 16.8517 10.5625 17.1366 10.5625 17.2302L12.142 17.6149Z" fill="white"></path><path d="M19.9969 29.9C20.2454 29.9 20.4469 29.6985 20.4469 29.45C20.4469 29.2015 20.2454 29 19.9969 29C19.7483 29 19.5469 29.2015 19.5469 29.45C19.5469 29.6985 19.7483 29.9 19.9969 29.9Z" fill="white"></path><defs><linearGradient id="paint0_linear_2355_44014" x1="38.9781" y1="56.625" x2="-5.74477" y2="51.3473" gradientUnits="userSpaceOnUse"><stop stop-color="#2E96FF"></stop><stop offset="1" stop-color="#015CB8"></stop></linearGradient></defs></svg>