<svg width="35" height="36" viewBox="0 0 35 36" fill="none" xmlns="http://www.w3.org/2000/svg">
<path d="M25.0416 19.958C24.9776 19.958 24.9138 19.9593 24.8506 19.962C24.8452 19.9621 24.8399 19.9623 24.8345 19.9627C22.3485 20.0712 20.3594 22.128 20.3594 24.6403C20.3594 24.7723 20.3648 24.903 20.3758 25.0322C20.376 25.0373 20.3765 25.0421 20.3769 25.047C20.5836 27.4393 22.5969 29.3225 25.0416 29.3225C27.6235 29.3225 29.7239 27.2222 29.7239 24.6403C29.7239 22.0586 27.6236 19.958 25.0416 19.958ZM27.929 27.5276C27.1577 28.2987 26.1324 28.7235 25.0416 28.7235C23.9511 28.7235 22.9256 28.2987 22.1545 27.5276C21.3832 26.7563 20.9585 25.731 20.9585 24.6403C20.9585 23.5497 21.3832 22.5242 22.1545 21.7531C22.9256 20.9819 23.9511 20.5571 25.0416 20.5571C26.1324 20.5571 27.1577 20.9819 27.929 21.7531C28.7001 22.5242 29.1248 23.5497 29.1248 24.6403C29.1248 25.731 28.7001 26.7563 27.929 27.5276Z" fill="#0F1720"/>
<path d="M25.0375 21.1348C23.1043 21.1348 21.5312 22.7078 21.5312 24.641C21.5312 26.5744 23.1043 28.1473 25.0375 28.1473C26.9709 28.1473 28.5438 26.5744 28.5438 24.641C28.5438 22.7078 26.9709 21.1348 25.0375 21.1348ZM27.4155 23.3568L24.2275 26.5449C24.171 26.6013 24.0973 26.6294 24.0234 26.6294C23.9496 26.6294 23.8757 26.6013 23.8195 26.5449L22.2989 25.0245C22.1864 24.9118 22.1864 24.7292 22.2989 24.6165C22.4116 24.5038 22.5942 24.5038 22.7069 24.6165L24.0234 25.9329L27.0075 22.9488C27.1202 22.8363 27.3028 22.8363 27.4155 22.9488C27.5282 23.0615 27.5282 23.2441 27.4155 23.3568Z" fill="#0F1720"/>
<path d="M19.878 14.4957C19.8414 14.5375 19.7994 14.5759 19.7524 14.6107C19.544 14.7652 19.2346 14.8518 18.8295 14.8683C18.1692 14.8952 17.2743 14.7347 16.1693 14.3908C16.0458 14.3524 15.9113 14.4016 15.841 14.5103C15.8379 14.515 15.5866 14.8979 15.2249 15.0557C15.1512 14.61 14.9426 13.889 14.3594 13.7846C14.4075 13.7152 14.4969 13.6296 14.6112 13.5915C14.7434 13.5475 14.8586 13.5845 14.9727 13.7076C15.1006 13.8675 15.2361 13.8825 15.3284 13.8665C15.5437 13.8288 15.6072 13.6283 15.6632 13.4514C15.7429 13.2003 15.852 12.8561 16.2149 12.6942C16.6961 12.4797 17.5283 12.6279 18.6218 13.1228C19.0555 13.3191 19.5428 13.333 19.979 13.1709C20.0875 13.5214 20.2035 14.1248 19.878 14.4957Z" fill="#0F1720"/>
<path d="M30.625 16.3635V19.6365C30.625 19.7677 30.5183 19.8745 30.387 19.8745H28.5053C28.2443 19.8745 28.0079 19.998 27.8574 20.1963C27.0621 19.6899 26.1443 19.4077 25.1828 19.3826C25.2639 18.9285 25.305 18.465 25.305 18C25.305 16.9464 25.0986 15.9243 24.6915 14.9618C24.2985 14.0324 23.7356 13.1977 23.019 12.481C22.3023 11.7644 21.4676 11.2015 20.5382 10.8085C19.5756 10.4014 18.5536 10.195 17.5 10.195C16.4464 10.195 15.4243 10.4014 14.4618 10.8085C13.5324 11.2015 12.6977 11.7644 11.981 12.481C11.2644 13.1977 10.7015 14.0324 10.3085 14.9618C9.90139 15.9244 9.69497 16.9464 9.69497 18C9.69497 20.0261 10.4675 21.9456 11.8705 23.4059C11.8736 23.4094 11.8766 23.4126 11.8801 23.4159C12.5996 24.1628 13.4446 24.75 14.3918 25.1616C15.3744 25.5885 16.4201 25.805 17.5 25.805C18.3014 25.805 19.0878 25.6848 19.8434 25.4468C19.983 26.3594 20.3592 27.2131 20.9419 27.935C20.6334 28.042 20.3185 28.1351 20.0012 28.2124C19.6321 28.3024 19.3745 28.6283 19.3745 29.0053V30.887C19.3745 31.0182 19.2678 31.125 19.1365 31.125H15.8635C15.7323 31.125 15.6256 31.0182 15.6256 30.887V29.0053C15.6256 28.6284 15.3677 28.3024 14.9989 28.2126C13.9566 27.958 12.9614 27.5448 12.0411 26.9845C11.7212 26.7894 11.3114 26.8397 11.0442 27.1067L9.71317 28.438C9.6681 28.4829 9.60823 28.5078 9.54478 28.5078C9.48114 28.5078 9.42146 28.4829 9.37639 28.438L7.06204 26.1234C7.01714 26.0785 6.99226 26.0189 6.99226 25.9552C6.99226 25.8918 7.01714 25.8319 7.06204 25.7868L8.39347 24.4558C8.6603 24.1886 8.71059 23.7786 8.5157 23.4591C7.95519 22.5386 7.54195 21.5434 7.28757 20.5011C7.19761 20.1321 6.87164 19.8744 6.49467 19.8744H4.61298C4.48173 19.8744 4.375 19.7677 4.375 19.6365V16.3635C4.375 16.2323 4.48173 16.1256 4.61298 16.1256H6.49465C6.87164 16.1256 7.19759 15.8677 7.28738 15.4989C7.54195 14.4566 7.95517 13.4614 8.51551 12.5411C8.71059 12.2214 8.66028 11.8114 8.39328 11.5442L7.06204 10.2132C7.01714 10.1681 6.99226 10.1082 6.99226 10.0448C6.99226 9.98114 7.01714 9.92146 7.06204 9.87639L9.37658 7.56204C9.42148 7.51714 9.48115 7.49226 9.5448 7.49226C9.60825 7.49226 9.66812 7.51714 9.71318 7.56204L11.0443 8.89347C11.3114 9.1603 11.7214 9.21059 12.0409 9.0157C12.9615 8.45519 13.9566 8.04195 14.9989 7.78757C15.3678 7.69761 15.6256 7.37164 15.6256 6.99467V5.11298C15.6256 4.98173 15.7323 4.875 15.8635 4.875H19.1365C19.2678 4.875 19.3745 4.98173 19.3745 5.11298V6.99465C19.3745 7.37164 19.6321 7.69759 20.0012 7.78738C21.0434 8.04195 22.0386 8.45517 22.959 9.01551C23.2786 9.21059 23.6886 9.16028 23.9558 8.89328L25.2868 7.56204C25.3319 7.51714 25.3918 7.49226 25.4552 7.49226C25.5189 7.49226 25.5786 7.51714 25.6236 7.56204L27.938 9.87658C27.9829 9.92148 28.0078 9.98115 28.0078 10.0448C28.0078 10.1083 27.9829 10.1681 27.938 10.2132L26.6065 11.5443C26.3397 11.8114 26.2894 12.2212 26.4843 12.5409C27.0448 13.4615 27.4581 14.4566 27.7124 15.4989C27.8024 15.8678 28.1284 16.1256 28.5053 16.1256H30.387C30.5183 16.1255 30.625 16.2323 30.625 16.3635Z" fill="#0F1720"/>
<path d="M21.3251 20.9209C20.3318 21.9143 19.7847 23.2351 19.7847 24.6398C19.7847 24.7131 19.7861 24.7861 19.7892 24.859C19.0543 25.104 18.2861 25.228 17.5026 25.228C16.4351 25.228 15.4064 25 14.4694 24.5664V23.0877C14.4694 22.9283 14.3403 22.7992 14.181 22.7992C14.0216 22.7992 13.8925 22.9283 13.8925 23.0877V24.2667C13.3439 23.9494 12.834 23.5568 12.375 23.0941V22.364C12.375 21.3049 13.2364 20.4434 14.2954 20.4434H15.9947L17.1261 21.8584C17.1278 21.8606 17.1294 21.8628 17.1312 21.8649C17.2222 21.9765 17.3576 22.0405 17.5026 22.0405C17.6475 22.0405 17.7829 21.9765 17.874 21.8649C17.8758 21.8628 17.8774 21.8606 17.879 21.8584L19.0105 20.4434H20.7097C21.0265 20.4434 21.3298 20.5184 21.6025 20.6624C21.5075 20.745 21.415 20.8312 21.3251 20.9209Z" fill="#0F1720"/>
<path d="M24.7297 17.9971C24.7297 18.4686 24.6843 18.9384 24.5943 19.3965C23.6909 19.4724 22.8341 19.7768 22.0922 20.2817C21.6844 20.0108 21.2009 19.8637 20.7087 19.8637H19.2289V18.7477C19.3349 18.6422 19.4359 18.5261 19.5311 18.3999C20.0492 17.7134 20.3346 16.8051 20.3346 15.8421C20.3346 15.5373 20.306 15.236 20.249 14.944C20.2721 14.9214 20.2944 14.8976 20.3157 14.8733C21.0395 14.0454 20.4295 12.7075 20.4031 12.6509C20.3683 12.5764 20.3036 12.5202 20.2248 12.4964C20.146 12.4727 20.0609 12.4838 19.9908 12.5268C19.6501 12.7358 19.228 12.7618 18.8622 12.5963C17.5785 12.0154 16.6365 11.8747 15.9823 12.1664C15.4755 12.3924 15.273 12.8189 15.1661 13.1234C14.9009 12.9632 14.5921 12.9511 14.2978 13.0987C13.9785 13.259 13.6885 13.6264 13.7555 13.9639C13.7896 14.1354 13.9338 14.3265 14.236 14.3485C14.5109 14.3687 14.6642 15.0347 14.6885 15.4041C14.6752 15.5485 14.6683 15.696 14.6683 15.8422C14.6683 16.8051 14.9537 17.7134 15.4719 18.3999C15.5876 18.5534 15.7122 18.692 15.8438 18.815V19.8637H14.2944C12.9174 19.8637 11.797 20.984 11.797 22.3612V22.4368C10.8098 21.1722 10.2734 19.6216 10.2734 17.9972C10.2734 14.0115 13.5159 10.769 17.5016 10.769C21.4872 10.769 24.7297 14.0115 24.7297 17.9971Z" fill="#0F1720"/>
<path d="M18.6531 19.1909V19.9642C18.6508 19.9667 18.6486 19.9692 18.6466 19.9718L17.5027 21.4025L16.4219 20.0507V19.2295C16.7596 19.4082 17.125 19.5019 17.5027 19.5019C17.9067 19.5019 18.2965 19.3948 18.6531 19.1909Z" fill="#0F1720"/>
<path d="M19.717 15.2806C19.4732 15.376 19.1851 15.4308 18.8545 15.4447C18.1684 15.4732 17.2737 15.3239 16.1921 15.001C16.0191 15.2099 15.6879 15.5399 15.2463 15.6565C15.2436 15.7187 15.2422 15.7809 15.2422 15.8431C15.2422 16.6813 15.4863 17.4663 15.9295 18.0534C16.0465 18.2085 16.1734 18.3442 16.3084 18.4596C16.3133 18.464 16.3182 18.4681 16.3232 18.4721L16.3238 18.4726C16.6751 18.7681 17.0792 18.9262 17.4985 18.9262C17.9417 18.9262 18.3679 18.7495 18.7329 18.4207L18.7335 18.4201C18.7403 18.4142 18.747 18.4081 18.7539 18.4016C18.7542 18.4012 18.7546 18.4008 18.7549 18.4007C18.8653 18.2988 18.97 18.1829 19.0676 18.0534C19.5107 17.4662 19.7546 16.6812 19.7546 15.8431C19.7546 15.6533 19.742 15.4652 19.717 15.2806ZM16.0432 16.5001C15.8838 16.5001 15.7548 16.3708 15.7548 16.2116C15.7548 16.0522 15.8838 15.9232 16.0432 15.9232H16.574C16.7334 15.9232 16.8625 16.0522 16.8625 16.2116C16.8625 16.3708 16.7334 16.5001 16.574 16.5001H16.0432ZM18.308 18.0145C18.1553 18.2236 17.8256 18.3536 17.4475 18.3536C17.0694 18.3536 16.7398 18.2236 16.5871 18.0145C16.493 17.8858 16.5212 17.7053 16.6499 17.6114C16.7786 17.5174 16.9591 17.5456 17.053 17.6743C17.075 17.7012 17.2104 17.7767 17.4475 17.7767C17.6846 17.7767 17.82 17.7012 17.8425 17.6737C17.9364 17.545 18.1165 17.5173 18.2452 17.6112C18.374 17.7051 18.4019 17.8858 18.308 18.0145ZM18.9538 16.5001H18.423C18.2637 16.5001 18.1346 16.3708 18.1346 16.2116C18.1346 16.0522 18.2637 15.9232 18.423 15.9232H18.9538C19.113 15.9232 19.2423 16.0522 19.2423 16.2116C19.2423 16.3708 19.113 16.5001 18.9538 16.5001Z" fill="#0F1720"/>
</svg>
