<svg width="32" height="33" viewBox="0 0 32 33" fill="none" xmlns="http://www.w3.org/2000/svg">
<path d="M28.6095 26.3422L26.712 24.0105C28.2065 21.8833 29.0909 19.2971 29.0909 16.5C29.0909 9.27018 23.2298 3.40909 16 3.40909C8.77018 3.40909 2.90909 9.27018 2.90909 16.5C2.90909 23.7298 8.77018 29.5909 16 29.5909C17.6233 29.5909 19.1709 29.2818 20.6051 28.7415L22.5295 31.1058C20.5353 31.9989 18.3265 32.5 16 32.5C7.16364 32.5 0 25.3364 0 16.5C0 7.66364 7.16364 0.5 16 0.5C24.8364 0.5 32 7.66364 32 16.5C32 20.2127 30.7316 23.6273 28.6095 26.3422Z" fill="#FA6450"/>
<path d="M1.45455 16.5C1.45455 25.0556 8.16946 32.0425 16.6167 32.4782C16.4116 32.4862 16.2073 32.5 16 32.5C7.16364 32.5 0 25.3364 0 16.5C0 7.66364 7.16364 0.5 16 0.5C16.2436 0.5 16.4858 0.507272 16.7273 0.518182C8.22836 0.898545 1.45455 7.90727 1.45455 16.5Z" fill="#DC4632"/>
<path d="M28.2362 31.9781C27.2413 32.7861 25.7802 32.6356 24.9722 31.6407L15.5119 20.0174L11.0988 24.3745C10.1926 25.2807 8.72351 25.2807 7.81733 24.3745C6.91115 23.4683 6.91115 21.9992 7.81733 21.093L12.6217 16.4545L8.26897 11.1585C7.46097 10.1636 7.61224 8.70248 8.60642 7.89448C9.60133 7.08648 11.0624 7.23775 11.8704 8.23194L15.9628 13.2072L20.8195 8.45084C21.7257 7.54466 23.1948 7.54466 24.101 8.45084C25.0071 9.35703 25.0071 10.8261 24.101 11.7323L18.9453 16.8712L23.2311 22.1483L28.5744 28.7148C29.3824 29.709 29.2311 31.1701 28.2362 31.9781Z" fill="#FA6450"/>
<path d="M16.9137 20.0195L26.3741 31.6428C26.6701 32.0072 27.0548 32.2559 27.4708 32.3883C26.5894 32.6668 25.5894 32.4043 24.9712 31.6428L16.1406 20.7933L16.9137 20.0195Z" fill="#DC4632"/>
<path d="M10.0093 7.89641C9.01442 8.70441 8.86315 10.1662 9.67188 11.1604L14.0246 16.4564L9.22024 21.095C8.31406 22.0011 8.31406 23.4702 9.22024 24.3764C9.49224 24.6484 9.81733 24.8288 10.1599 24.9371C9.35988 25.191 8.45224 25.0106 7.81733 24.3764C6.91115 23.4702 6.91115 22.0011 7.81733 21.095L12.6217 16.4564L8.26897 11.1604C7.46097 10.1655 7.61224 8.70441 8.60642 7.89641C9.23697 7.38441 10.0537 7.26004 10.7737 7.48913C10.5039 7.57422 10.2435 7.70659 10.0093 7.89641Z" fill="#DC4632"/>
<path d="M22.2195 8.45278L17.3627 13.2091L16.7344 12.4506L20.8166 8.45278C21.4507 7.81859 22.3591 7.63823 23.1584 7.89205C22.8166 8.00041 22.4915 8.18078 22.2195 8.45278Z" fill="#DC4632"/>
</svg>
