<svg width="508" height="480" viewBox="0 0 508 480" fill="none" xmlns="http://www.w3.org/2000/svg">
<path d="M73.6934 361.316C74.1075 359.287 75.2602 357.484 76.9279 356.257C78.5956 355.03 80.6596 354.466 82.7197 354.674C84.7797 354.882 86.6891 355.848 88.0777 357.384C89.4663 358.919 90.2351 360.916 90.2351 362.987C90.2351 365.057 89.4663 367.054 88.0777 368.59C86.6891 370.126 84.7797 371.092 82.7197 371.3C80.6596 371.508 78.5956 370.944 76.9279 369.716C75.2602 368.489 74.1075 366.687 73.6934 364.658H0V361.316H73.6934ZM341.062 441.526C341.476 439.498 342.629 437.695 344.296 436.468C345.964 435.241 348.028 434.676 350.088 434.884C352.148 435.093 354.058 436.058 355.446 437.594C356.835 439.13 357.604 441.127 357.604 443.197C357.604 445.268 356.835 447.265 355.446 448.801C354.058 450.337 352.148 451.302 350.088 451.51C348.028 451.718 345.964 451.154 344.296 449.927C342.629 448.7 341.476 446.897 341.062 444.868H137.026V441.526H341.062ZM437.649 364.658C437.235 366.687 436.082 368.489 434.414 369.716C432.746 370.944 430.683 371.508 428.622 371.3C426.562 371.092 424.653 370.126 423.264 368.59C421.876 367.054 421.107 365.057 421.107 362.987C421.107 360.916 421.876 358.919 423.264 357.384C424.653 355.848 426.562 354.882 428.622 354.674C430.683 354.466 432.746 355.03 434.414 356.257C436.082 357.484 437.235 359.287 437.649 361.316H508V364.658H437.649ZM437.649 391.395C437.235 393.423 436.082 395.226 434.414 396.453C432.746 397.68 430.683 398.245 428.622 398.037C426.562 397.829 424.653 396.863 423.264 395.327C421.876 393.791 421.107 391.794 421.107 389.724C421.107 387.653 421.876 385.656 423.264 384.12C424.653 382.584 426.562 381.619 428.622 381.411C430.683 381.203 432.746 381.767 434.414 382.994C436.082 384.221 437.235 386.024 437.649 388.053H508V391.395H437.649ZM448.009 200.895C448.423 198.866 449.576 197.063 451.244 195.836C452.911 194.609 454.975 194.045 457.035 194.253C459.096 194.461 461.005 195.427 462.394 196.962C463.782 198.498 464.551 200.495 464.551 202.566C464.551 204.636 463.782 206.633 462.394 208.169C461.005 209.705 459.096 210.671 457.035 210.879C454.975 211.087 452.911 210.523 451.244 209.295C449.576 208.068 448.423 206.266 448.009 204.237H303.964C303.55 206.266 302.398 208.068 300.73 209.295C299.062 210.523 296.998 211.087 294.938 210.879C292.878 210.671 290.969 209.705 289.58 208.169C288.192 206.633 287.423 204.636 287.423 202.566C287.423 200.495 288.192 198.498 289.58 196.962C290.969 195.427 292.878 194.461 294.938 194.253C296.998 194.045 299.062 194.609 300.73 195.836C302.398 197.063 303.55 198.866 303.964 200.895H448.009ZM20.2197 120.684C20.6339 118.655 21.7865 116.853 23.4542 115.626C25.1219 114.398 27.1859 113.834 29.246 114.042C31.306 114.25 33.2155 115.216 34.6041 116.752C35.9926 118.288 36.7615 120.285 36.7615 122.355C36.7615 124.426 35.9926 126.423 34.6041 127.959C33.2155 129.494 31.306 130.46 29.246 130.668C27.1859 130.876 25.1219 130.312 23.4542 129.085C21.7865 127.858 20.6339 126.055 20.2197 124.026H0V120.684H20.2197ZM330.701 177.5C330.287 179.529 329.135 181.331 327.467 182.559C325.799 183.786 323.735 184.35 321.675 184.142C319.615 183.934 317.706 182.968 316.317 181.432C314.928 179.896 314.16 177.9 314.16 175.829C314.16 173.758 314.928 171.762 316.317 170.226C317.706 168.69 319.615 167.724 321.675 167.516C323.735 167.308 325.799 167.872 327.467 169.099C329.135 170.326 330.287 172.129 330.701 174.158H474.746C475.16 172.129 476.313 170.326 477.98 169.099C479.648 167.872 481.712 167.308 483.772 167.516C485.832 167.724 487.742 168.69 489.13 170.226C490.519 171.762 491.288 173.758 491.288 175.829C491.288 177.9 490.519 179.896 489.13 181.432C487.742 182.968 485.832 183.934 483.772 184.142C481.712 184.35 479.648 183.786 477.98 182.559C476.313 181.331 475.16 179.529 474.746 177.5H330.701ZM431.132 7.21974C433.16 7.63385 434.963 8.7865 436.19 10.4542C437.417 12.1219 437.982 14.1859 437.773 16.246C437.565 18.306 436.6 20.2155 435.064 21.6041C433.528 22.9926 431.531 23.7615 429.461 23.7615C427.39 23.7615 425.393 22.9926 423.857 21.6041C422.321 20.2155 421.356 18.306 421.148 16.246C420.939 14.1859 421.504 12.1219 422.731 10.4542C423.958 8.7865 425.761 7.63385 427.789 7.21974V-13H431.132V7.21974ZM324.184 354.799C326.213 355.213 328.016 356.365 329.243 358.033C330.47 359.701 331.034 361.765 330.826 363.825C330.618 365.885 329.652 367.794 328.116 369.183C326.581 370.572 324.584 371.34 322.513 371.34C320.443 371.34 318.446 370.572 316.91 369.183C315.374 367.794 314.408 365.885 314.2 363.825C313.992 361.765 314.556 359.701 315.784 358.033C317.011 356.365 318.813 355.213 320.842 354.799V264.228C318.813 263.814 317.011 262.661 315.784 260.993C314.556 259.325 313.992 257.261 314.2 255.201C314.408 253.141 315.374 251.232 316.91 249.843C318.446 248.455 320.443 247.686 322.513 247.686C324.584 247.686 326.581 248.455 328.116 249.843C329.652 251.232 330.618 253.141 330.826 255.201C331.034 257.261 330.47 259.325 329.243 260.993C328.016 262.661 326.213 263.814 324.184 264.228V354.799ZM404.395 23.5961V120.684H508V124.026H401.053V23.5961C399.024 23.1819 397.221 22.0293 395.994 20.3616C394.767 18.6939 394.203 16.6299 394.411 14.5698C394.619 12.5097 395.584 10.6003 397.12 9.21174C398.656 7.82315 400.653 7.05434 402.724 7.05434C404.794 7.05434 406.791 7.82315 408.327 9.21174C409.863 10.6003 410.829 12.5097 411.037 14.5698C411.245 16.6299 410.68 18.6939 409.453 20.3616C408.226 22.0293 406.423 23.1819 404.395 23.5961ZM431.132 50.3329V93.9474H508V97.2895H427.789V50.3329C425.761 49.9188 423.958 48.7661 422.731 47.0984C421.504 45.4307 420.939 43.3667 421.148 41.3067C421.356 39.2466 422.321 37.3372 423.857 35.9486C425.393 34.56 427.39 33.7912 429.461 33.7912C431.531 33.7912 433.528 34.56 435.064 35.9486C436.6 37.3372 437.565 39.2466 437.773 41.3067C437.982 43.3667 437.417 45.4307 436.19 47.0984C434.963 48.7661 433.16 49.9188 431.132 50.3329ZM217.237 210.754V334.579H243.974V354.799C246.002 355.213 247.805 356.365 249.032 358.033C250.259 359.701 250.824 361.765 250.616 363.825C250.407 365.885 249.442 367.794 247.906 369.183C246.37 370.572 244.373 371.34 242.303 371.34C240.232 371.34 238.235 370.572 236.699 369.183C235.163 367.794 234.198 365.885 233.99 363.825C233.782 361.765 234.346 359.701 235.573 358.033C236.8 356.365 238.603 355.213 240.632 354.799V337.921H213.895V210.754C211.866 210.34 210.063 209.187 208.836 207.519C207.609 205.852 207.045 203.788 207.253 201.728C207.461 199.668 208.427 197.758 209.962 196.37C211.498 194.981 213.495 194.212 215.566 194.212C217.636 194.212 219.633 194.981 221.169 196.37C222.705 197.758 223.671 199.668 223.879 201.728C224.087 203.788 223.523 205.852 222.295 207.519C221.068 209.187 219.266 210.34 217.237 210.754ZM207.378 174.158C207.792 172.129 208.944 170.326 210.612 169.099C212.28 167.872 214.344 167.308 216.404 167.516C218.464 167.724 220.373 168.69 221.762 170.226C223.151 171.762 223.919 173.758 223.919 175.829C223.919 177.9 223.151 179.896 221.762 181.432C220.373 182.968 218.464 183.934 216.404 184.142C214.344 184.35 212.28 183.786 210.612 182.559C208.944 181.331 207.792 179.529 207.378 177.5H190.5V257.711H143.543C143.129 259.739 141.977 261.542 140.309 262.769C138.641 263.996 136.577 264.561 134.517 264.352C132.457 264.144 130.548 263.179 129.159 261.643C127.771 260.107 127.002 258.11 127.002 256.039C127.002 253.969 127.771 251.972 129.159 250.436C130.548 248.9 132.457 247.935 134.517 247.727C136.577 247.518 138.641 248.083 140.309 249.31C141.977 250.537 143.129 252.34 143.543 254.368H187.158V174.158H207.378ZM197.017 391.395C196.603 393.423 195.45 395.226 193.783 396.453C192.115 397.68 190.051 398.245 187.991 398.037C185.931 397.829 184.021 396.863 182.633 395.327C181.244 393.791 180.475 391.794 180.475 389.724C180.475 387.653 181.244 385.656 182.633 384.12C184.021 382.584 185.931 381.619 187.991 381.411C190.051 381.203 192.115 381.767 193.783 382.994C195.45 384.221 196.603 386.024 197.017 388.053H294.105V264.228C292.077 263.814 290.274 262.661 289.047 260.993C287.819 259.325 287.255 257.261 287.463 255.201C287.671 253.141 288.637 251.232 290.173 249.843C291.709 248.455 293.706 247.686 295.776 247.686C297.847 247.686 299.844 248.455 301.38 249.843C302.916 251.232 303.881 253.141 304.089 255.201C304.297 257.261 303.733 259.325 302.506 260.993C301.279 262.661 299.476 263.814 297.447 264.228V391.395H197.017ZM170.28 284.447C169.866 286.476 168.714 288.279 167.046 289.506C165.378 290.733 163.314 291.297 161.254 291.089C159.194 290.881 157.285 289.916 155.896 288.38C154.507 286.844 153.739 284.847 153.739 282.776C153.739 280.706 154.507 278.709 155.896 277.173C157.285 275.637 159.194 274.671 161.254 274.463C163.314 274.255 165.378 274.819 167.046 276.047C168.714 277.274 169.866 279.077 170.28 281.105H190.5V361.316H207.378C207.792 359.287 208.944 357.484 210.612 356.257C212.28 355.03 214.344 354.466 216.404 354.674C218.464 354.882 220.373 355.848 221.762 357.384C223.151 358.919 223.919 360.916 223.919 362.987C223.919 365.057 223.151 367.054 221.762 368.59C220.373 370.126 218.464 371.092 216.404 371.3C214.344 371.508 212.28 370.944 210.612 369.716C208.944 368.489 207.792 366.687 207.378 364.658H187.158V284.447H170.28ZM110.289 461.746C112.318 462.16 114.121 463.313 115.348 464.98C116.575 466.648 117.139 468.712 116.931 470.772C116.723 472.832 115.758 474.742 114.222 476.13C112.686 477.519 110.689 478.288 108.618 478.288C106.548 478.288 104.551 477.519 103.015 476.13C101.479 474.742 100.514 472.832 100.305 470.772C100.097 468.712 100.662 466.648 101.889 464.98C103.116 463.313 104.919 462.16 106.947 461.746V444.868H83.5526V495H80.2105V441.526H110.289V461.746ZM394.536 281.105C394.95 279.077 396.102 277.274 397.77 276.047C399.438 274.819 401.502 274.255 403.562 274.463C405.622 274.671 407.531 275.637 408.92 277.173C410.308 278.709 411.077 280.706 411.077 282.776C411.077 284.847 410.308 286.844 408.92 288.38C407.531 289.916 405.622 290.881 403.562 291.089C401.502 291.297 399.438 290.733 397.77 289.506C396.102 288.279 394.95 286.476 394.536 284.447H377.658V441.526H457.868V495H454.526V444.868H374.316V281.105H394.536ZM437.649 230.974C437.235 233.002 436.082 234.805 434.414 236.032C432.746 237.259 430.683 237.824 428.622 237.616C426.562 237.407 424.653 236.442 423.264 234.906C421.876 233.37 421.107 231.373 421.107 229.303C421.107 227.232 421.876 225.235 423.264 223.699C424.653 222.163 426.562 221.198 428.622 220.99C430.683 220.782 432.746 221.346 434.414 222.573C436.082 223.8 437.235 225.603 437.649 227.632H457.868V301.325C459.897 301.739 461.7 302.892 462.927 304.559C464.154 306.227 464.718 308.291 464.51 310.351C464.302 312.411 463.337 314.321 461.801 315.709C460.265 317.098 458.268 317.867 456.197 317.867C454.127 317.867 452.13 317.098 450.594 315.709C449.058 314.321 448.093 312.411 447.884 310.351C447.676 308.291 448.241 306.227 449.468 304.559C450.695 302.892 452.498 301.739 454.526 301.325V230.974H437.649ZM330.701 391.395C330.287 393.423 329.135 395.226 327.467 396.453C325.799 397.68 323.735 398.245 321.675 398.037C319.615 397.829 317.706 396.863 316.317 395.327C314.928 393.791 314.16 391.794 314.16 389.724C314.16 387.653 314.928 385.656 316.317 384.12C317.706 382.584 319.615 381.619 321.675 381.411C323.735 381.203 325.799 381.767 327.467 382.994C329.135 384.221 330.287 386.024 330.701 388.053H347.579V254.368H374.316V230.974H303.964C303.55 233.002 302.398 234.805 300.73 236.032C299.062 237.259 296.998 237.824 294.938 237.616C292.878 237.407 290.969 236.442 289.58 234.906C288.192 233.37 287.423 231.373 287.423 229.303C287.423 227.232 288.192 225.235 289.58 223.699C290.969 222.163 292.878 221.198 294.938 220.99C296.998 220.782 299.062 221.346 300.73 222.573C302.398 223.8 303.55 225.603 303.964 227.632H377.658V257.711H350.921V391.395H330.701ZM474.746 40.4737C475.16 38.445 476.313 36.6423 477.98 35.4151C479.648 34.1879 481.712 33.6237 483.772 33.8318C485.832 34.0399 487.742 35.0055 489.13 36.5414C490.519 38.0774 491.288 40.0742 491.288 42.1447C491.288 44.2153 490.519 46.2121 489.13 47.748C487.742 49.284 485.832 50.2496 483.772 50.4577C481.712 50.6658 479.648 50.1016 477.98 48.8744C476.313 47.6472 475.16 45.8445 474.746 43.8158H454.526V-13H457.868V40.4737H474.746ZM163.763 157.28V230.974H90.0697C89.6556 233.002 88.503 234.805 86.8353 236.032C85.1675 237.259 83.1036 237.824 81.0435 237.616C78.9834 237.407 77.074 236.442 75.6854 234.906C74.2968 233.37 73.528 231.373 73.528 229.303C73.528 227.232 74.2968 225.235 75.6854 223.699C77.074 222.163 78.9834 221.198 81.0435 220.99C83.1036 220.782 85.1675 221.346 86.8353 222.573C88.503 223.8 89.6556 225.603 90.0697 227.632H160.421V157.28C158.392 156.866 156.59 155.714 155.362 154.046C154.135 152.378 153.571 150.314 153.779 148.254C153.987 146.194 154.953 144.285 156.489 142.896C158.025 141.507 160.022 140.739 162.092 140.739C164.163 140.739 166.159 141.507 167.695 142.896C169.231 144.285 170.197 146.194 170.405 148.254C170.613 150.314 170.049 152.378 168.822 154.046C167.595 155.714 165.792 156.866 163.763 157.28ZM90.0697 43.8158C89.6556 45.8445 88.503 47.6472 86.8353 48.8744C85.1675 50.1016 83.1036 50.6658 81.0435 50.4577C78.9834 50.2496 77.074 49.284 75.6854 47.748C74.2968 46.2121 73.528 44.2153 73.528 42.1447C73.528 40.0742 74.2968 38.0774 75.6854 36.5414C77.074 35.0055 78.9834 34.0399 81.0435 33.8318C83.1036 33.6237 85.1675 34.1879 86.8353 35.4151C88.503 36.6423 89.6556 38.445 90.0697 40.4737H133.684V-13H137.026V43.8158H90.0697ZM190.5 50.3329V97.2895H137.026V204.237H116.807C116.392 206.266 115.24 208.068 113.572 209.295C111.904 210.523 109.84 211.087 107.78 210.879C105.72 210.671 103.811 209.705 102.422 208.169C101.034 206.633 100.265 204.636 100.265 202.566C100.265 200.495 101.034 198.498 102.422 196.962C103.811 195.427 105.72 194.461 107.78 194.253C109.84 194.045 111.904 194.609 113.572 195.836C115.24 197.063 116.392 198.866 116.807 200.895H133.684V93.9474H187.158V50.3329C185.129 49.9188 183.326 48.7661 182.099 47.0984C180.872 45.4307 180.308 43.3667 180.516 41.3067C180.724 39.2466 181.69 37.3372 183.226 35.9486C184.762 34.56 186.758 33.7912 188.829 33.7912C190.9 33.7912 192.896 34.56 194.432 35.9486C195.968 37.3372 196.934 39.2466 197.142 41.3067C197.35 43.3667 196.786 45.4307 195.559 47.0984C194.331 48.7661 192.529 49.9188 190.5 50.3329ZM170.28 124.026C169.866 126.055 168.714 127.858 167.046 129.085C165.378 130.312 163.314 130.876 161.254 130.668C159.194 130.46 157.285 129.494 155.896 127.959C154.507 126.423 153.739 124.426 153.739 122.355C153.739 120.285 154.507 118.288 155.896 116.752C157.285 115.216 159.194 114.25 161.254 114.042C163.314 113.834 165.378 114.398 167.046 115.626C168.714 116.853 169.866 118.655 170.28 120.684H213.895V50.3329C211.866 49.9188 210.063 48.7661 208.836 47.0984C207.609 45.4307 207.045 43.3667 207.253 41.3067C207.461 39.2466 208.427 37.3372 209.962 35.9486C211.498 34.56 213.495 33.7912 215.566 33.7912C217.636 33.7912 219.633 34.56 221.169 35.9486C222.705 37.3372 223.671 39.2466 223.879 41.3067C224.087 43.3667 223.523 45.4307 222.295 47.0984C221.068 48.7661 219.266 49.9188 217.237 50.3329V124.026H170.28ZM197.017 17.0789C196.603 19.1077 195.45 20.9104 193.783 22.1376C192.115 23.3647 190.051 23.929 187.991 23.7208C185.931 23.5127 184.021 22.5471 182.633 21.0112C181.244 19.4753 180.475 17.4785 180.475 15.4079C180.475 13.3373 181.244 11.3405 182.633 9.8046C184.021 8.26867 185.931 7.30305 187.991 7.09494C190.051 6.88683 192.115 7.45106 193.783 8.67823C195.45 9.90541 196.603 11.7081 197.017 13.7368H243.974V87.4303C246.002 87.8444 247.805 88.997 249.032 90.6647C250.259 92.3325 250.824 94.3964 250.616 96.4565C250.407 98.5166 249.442 100.426 247.906 101.815C246.37 103.203 244.373 103.972 242.303 103.972C240.232 103.972 238.235 103.203 236.699 101.815C235.163 100.426 234.198 98.5166 233.99 96.4565C233.782 94.3964 234.346 92.3325 235.573 90.6647C236.8 88.997 238.603 87.8444 240.632 87.4303V17.0789H197.017ZM367.799 468.263C368.213 466.234 369.365 464.432 371.033 463.205C372.701 461.977 374.765 461.413 376.825 461.621C378.885 461.829 380.794 462.795 382.183 464.331C383.572 465.867 384.34 467.864 384.34 469.934C384.34 472.005 383.572 474.002 382.183 475.537C380.794 477.073 378.885 478.039 376.825 478.247C374.765 478.455 372.701 477.891 371.033 476.664C369.365 475.437 368.213 473.634 367.799 471.605H163.763V495H160.421V468.263H367.799ZM404.395 237.491V254.368H431.132V311.184H404.395V414.789H484.605V495H481.263V418.132H401.053V307.842H427.789V257.711H401.053V237.491C399.024 237.077 397.221 235.924 395.994 234.256C394.767 232.589 394.203 230.525 394.411 228.465C394.619 226.404 395.584 224.495 397.12 223.106C398.656 221.718 400.653 220.949 402.724 220.949C404.794 220.949 406.791 221.718 408.327 223.106C409.863 224.495 410.829 226.404 411.037 228.465C411.245 230.525 410.68 232.589 409.453 234.256C408.226 235.924 406.423 237.077 404.395 237.491ZM90.0697 17.0789C89.6556 19.1077 88.503 20.9104 86.8353 22.1376C85.1675 23.3647 83.1036 23.929 81.0435 23.7208C78.9834 23.5127 77.074 22.5471 75.6854 21.0112C74.2968 19.4753 73.528 17.4785 73.528 15.4079C73.528 13.3373 74.2968 11.3405 75.6854 9.8046C77.074 8.26867 78.9834 7.30305 81.0435 7.09494C83.1036 6.88683 85.1675 7.45106 86.8353 8.67823C88.503 9.90541 89.6556 11.7081 90.0697 13.7368H106.947V-9.65789H80.2105V-13H110.289V17.0789H90.0697ZM277.228 70.5526C276.814 72.5814 275.661 74.3841 273.993 75.6112C272.325 76.8384 270.261 77.4026 268.201 77.1945C266.141 76.9864 264.232 76.0208 262.843 74.4849C261.455 72.9489 260.686 70.9521 260.686 68.8816C260.686 66.811 261.455 64.8142 262.843 63.2783C264.232 61.7424 266.141 60.7767 268.201 60.5686C270.261 60.3605 272.325 60.9247 273.993 62.1519C275.661 63.3791 276.814 65.1818 277.228 67.2105H320.842V-13H404.395V-9.65789H324.184V70.5526H277.228ZM197.017 -9.65789C196.798 -8.58261 196.369 -7.56108 195.754 -6.65162C195.14 -5.74217 194.353 -4.9626 193.437 -4.35743C192.522 -3.75226 191.496 -3.33334 190.419 -3.12459C189.341 -2.91584 188.233 -2.92134 187.158 -3.14079C186.083 -3.36024 185.061 -3.78933 184.152 -4.40356C183.242 -5.0178 182.463 -5.80515 181.857 -6.72066C180.635 -8.56962 180.198 -10.8284 180.641 -13H184.1C183.834 -12.2441 183.753 -11.4354 183.864 -10.6418C183.975 -9.84818 184.275 -9.09275 184.738 -8.43883C185.201 -7.7849 185.814 -7.25153 186.526 -6.88344C187.238 -6.51534 188.028 -6.32324 188.829 -6.32324C189.63 -6.32324 190.42 -6.51534 191.132 -6.88344C191.844 -7.25153 192.457 -7.7849 192.92 -8.43883C193.383 -9.09275 193.683 -9.84818 193.794 -10.6418C193.905 -11.4354 193.824 -12.2441 193.558 -13L297.447 -13V43.8158H267.368V23.5961C265.34 23.1819 263.537 22.0293 262.31 20.3616C261.083 18.6939 260.518 16.6299 260.727 14.5698C260.935 12.5097 261.9 10.6003 263.436 9.21174C264.972 7.82315 266.969 7.05434 269.039 7.05434C271.11 7.05434 273.107 7.82315 274.643 9.21174C276.179 10.6003 277.144 12.5097 277.352 14.5698C277.561 16.6299 276.996 18.6939 275.769 20.3616C274.542 22.0293 272.739 23.1819 270.711 23.5961V40.4737H294.105V-9.65789H197.017ZM197.017 150.763C196.603 152.792 195.45 154.595 193.783 155.822C192.115 157.049 190.051 157.613 187.991 157.405C185.931 157.197 184.021 156.231 182.633 154.695C181.244 153.159 180.475 151.163 180.475 149.092C180.475 147.022 181.244 145.025 182.633 143.489C184.021 141.953 185.931 140.987 187.991 140.779C190.051 140.571 192.115 141.135 193.783 142.362C195.45 143.59 196.603 145.392 197.017 147.421H228.934L282.408 93.9474H347.579V23.5961C345.55 23.1819 343.748 22.0293 342.52 20.3616C341.293 18.6939 340.729 16.6299 340.937 14.5698C341.145 12.5097 342.111 10.6003 343.647 9.21174C345.183 7.82315 347.179 7.05434 349.25 7.05434C351.321 7.05434 353.317 7.82315 354.853 9.21174C356.389 10.6003 357.355 12.5097 357.563 14.5698C357.771 16.6299 357.207 18.6939 355.98 20.3616C354.752 22.0293 352.95 23.1819 350.921 23.5961V97.2895H283.795L230.321 150.763H197.017ZM243.974 301.325C246.002 301.739 247.805 302.892 249.032 304.559C250.259 306.227 250.824 308.291 250.616 310.351C250.407 312.411 249.442 314.321 247.906 315.709C246.37 317.098 244.373 317.867 242.303 317.867C240.232 317.867 238.235 317.098 236.699 315.709C235.163 314.321 234.198 312.411 233.99 310.351C233.782 308.291 234.346 306.227 235.573 304.559C236.8 302.892 238.603 301.739 240.632 301.325V173.473L293.42 120.684H374.316V23.5961C372.287 23.1819 370.484 22.0293 369.257 20.3616C368.03 18.6939 367.466 16.6299 367.674 14.5698C367.882 12.5097 368.848 10.6003 370.384 9.21174C371.919 7.82315 373.916 7.05434 375.987 7.05434C378.057 7.05434 380.054 7.82315 381.59 9.21174C383.126 10.6003 384.092 12.5097 384.3 14.5698C384.508 16.6299 383.944 18.6939 382.716 20.3616C381.489 22.0293 379.687 23.1819 377.658 23.5961V124.026H294.79L243.974 174.843V301.325ZM270.711 354.799C272.739 355.213 274.542 356.365 275.769 358.033C276.996 359.701 277.561 361.765 277.352 363.825C277.144 365.885 276.179 367.794 274.643 369.183C273.107 370.572 271.11 371.34 269.039 371.34C266.969 371.34 264.972 370.572 263.436 369.183C261.9 367.794 260.935 365.885 260.727 363.825C260.518 361.765 261.083 359.701 262.31 358.033C263.537 356.365 265.34 355.213 267.368 354.799V188.512L308.46 147.421H501.483C501.81 145.815 502.603 144.341 503.762 143.183C504.92 142.024 506.394 141.231 508 140.904V144.363C507.021 144.707 506.173 145.347 505.573 146.195C504.973 147.042 504.65 148.054 504.65 149.092C504.65 150.13 504.973 151.143 505.573 151.99C506.173 152.837 507.021 153.477 508 153.821V157.28C506.394 156.953 504.92 156.16 503.762 155.002C502.603 153.843 501.81 152.369 501.483 150.763H309.83L270.711 189.882V354.799ZM30.0789 247.851C32.1077 248.265 33.9104 249.418 35.1376 251.086C36.3647 252.753 36.929 254.817 36.7208 256.878C36.5127 258.938 35.5471 260.847 34.0112 262.236C32.4753 263.624 30.4785 264.393 28.4079 264.393C26.3373 264.393 24.3405 263.624 22.8046 262.236C21.2687 260.847 20.3031 258.938 20.0949 256.878C19.8868 254.817 20.4511 252.753 21.6782 251.086C22.9054 249.418 24.7081 248.265 26.7368 247.851V241.986L106.947 161.775V67.2105H160.421V-13H163.763V70.5526H110.289V163.146L30.0789 243.356V247.851ZM83.5526 77.0697V149.777L3.34211 229.988V334.579H46.9566C47.3707 332.55 48.5233 330.748 50.191 329.52C51.8588 328.293 53.9227 327.729 55.9828 327.937C58.0429 328.145 59.9523 329.111 61.3409 330.647C62.7295 332.183 63.4983 334.179 63.4983 336.25C63.4983 338.321 62.7295 340.317 61.3409 341.853C59.9523 343.389 58.0429 344.355 55.9828 344.563C53.9227 344.771 51.8588 344.207 50.191 342.98C48.5233 341.752 47.3707 339.95 46.9566 337.921H0V228.617L80.2105 148.407V77.0697C78.1818 76.6556 76.3791 75.503 75.1519 73.8353C73.9247 72.1675 73.3605 70.1036 73.5686 68.0435C73.7767 65.9834 74.7424 64.074 76.2783 62.6854C77.8142 61.2968 79.811 60.528 81.8816 60.528C83.9521 60.528 85.9489 61.2968 87.4849 62.6854C89.0208 64.074 89.9864 65.9834 90.1945 68.0435C90.4026 70.1036 89.8384 72.1675 88.6112 73.8353C87.3841 75.503 85.5814 76.6556 83.5526 77.0697ZM56.8158 103.807V136.409L0 193.225V188.512L53.4737 135.039V103.807C51.445 103.392 49.6423 102.24 48.4151 100.572C47.1879 98.9044 46.6237 96.8404 46.8318 94.7803C47.0399 92.7203 48.0055 90.8108 49.5414 89.4223C51.0774 88.0337 53.0742 87.2649 55.1447 87.2649C57.2153 87.2649 59.2121 88.0337 60.748 89.4223C62.284 90.8108 63.2496 92.7203 63.4577 94.7803C63.6658 96.8404 63.1016 98.9044 61.8744 100.572C60.6472 102.24 58.8445 103.392 56.8158 103.807ZM20.2197 40.4737C20.6339 38.445 21.7865 36.6423 23.4542 35.4151C25.1219 34.1879 27.1859 33.6237 29.246 33.8318C31.306 34.0399 33.2155 35.0055 34.6041 36.5414C35.9926 38.0774 36.7615 40.0742 36.7615 42.1447C36.7615 44.2153 35.9926 46.2121 34.6041 47.748C33.2155 49.284 31.306 50.2496 29.246 50.4577C27.1859 50.6658 25.1219 50.1016 23.4542 48.8744C21.7865 47.6472 20.6339 45.8445 20.2197 43.8158H15.7246L0 59.5404V54.8447L14.3543 40.4737H20.2197ZM464.385 70.5526C463.971 72.5814 462.819 74.3841 461.151 75.6112C459.483 76.8384 457.419 77.4026 455.359 77.1945C453.299 76.9864 451.39 76.0208 450.001 74.4849C448.613 72.9489 447.844 70.9521 447.844 68.8816C447.844 66.811 448.613 64.8142 450.001 63.2783C451.39 61.7424 453.299 60.7767 455.359 60.5686C457.419 60.3605 459.483 60.9247 461.151 62.1519C462.819 63.3791 463.971 65.1818 464.385 67.2105H495.617L508 54.828V59.5404L496.988 70.5526H464.385ZM437.649 337.921C437.235 339.95 436.082 341.752 434.414 342.98C432.746 344.207 430.683 344.771 428.622 344.563C426.562 344.355 424.653 343.389 423.264 341.853C421.876 340.317 421.107 338.321 421.107 336.25C421.107 334.179 421.876 332.183 423.264 330.647C424.653 329.111 426.562 328.145 428.622 327.937C430.683 327.729 432.746 328.293 434.414 329.52C436.082 330.748 437.235 332.55 437.649 334.579H481.263V215.249L508 188.512V193.225L484.605 216.619V337.921H437.649ZM90.0697 391.395C89.6556 393.423 88.503 395.226 86.8353 396.453C85.1675 397.68 83.1036 398.245 81.0435 398.037C78.9834 397.829 77.074 396.863 75.6854 395.327C74.2968 393.791 73.528 391.794 73.528 389.724C73.528 387.653 74.2968 385.656 75.6854 384.12C77.074 382.584 78.9834 381.619 81.0435 381.411C83.1036 381.203 85.1675 381.767 86.8353 382.994C88.503 384.221 89.6556 386.024 90.0697 388.053H106.947V350.304L67.828 311.184H36.5961C36.1819 313.213 35.0293 315.016 33.3616 316.243C31.6939 317.47 29.6299 318.034 27.5698 317.826C25.5097 317.618 23.6003 316.652 22.2117 315.116C20.8232 313.581 20.0543 311.584 20.0543 309.513C20.0543 307.443 20.8232 305.446 22.2117 303.91C23.6003 302.374 25.5097 301.408 27.5698 301.2C29.6299 300.992 31.6939 301.556 33.3616 302.784C35.0293 304.011 36.1819 305.813 36.5961 307.842H69.1983L110.289 348.933V391.395H90.0697ZM341.062 414.789C341.476 412.761 342.629 410.958 344.296 409.731C345.964 408.504 348.028 407.939 350.088 408.148C352.148 408.356 354.058 409.321 355.446 410.857C356.835 412.393 357.604 414.39 357.604 416.461C357.604 418.531 356.835 420.528 355.446 422.064C354.058 423.6 352.148 424.565 350.088 424.773C348.028 424.982 345.964 424.417 344.296 423.19C342.629 421.963 341.476 420.16 341.062 418.132H160.421V323.55L94.5816 257.711H63.3329C62.9188 259.739 61.7661 261.542 60.0984 262.769C58.4307 263.996 56.3667 264.561 54.3067 264.352C52.2466 264.144 50.3372 263.179 48.9486 261.643C47.56 260.107 46.7912 258.11 46.7912 256.039C46.7912 253.969 47.56 251.972 48.9486 250.436C50.3372 248.9 52.2466 247.935 54.3067 247.727C56.3667 247.518 58.4307 248.083 60.0984 249.31C61.7661 250.537 62.9188 252.34 63.3329 254.368H95.9184L163.763 322.213V414.789H341.062ZM90.0697 418.132C89.6556 420.16 88.503 421.963 86.8353 423.19C85.1675 424.417 83.1036 424.982 81.0435 424.773C78.9834 424.565 77.074 423.6 75.6854 422.064C74.2968 420.528 73.528 418.531 73.528 416.461C73.528 414.39 74.2968 412.393 75.6854 410.857C77.074 409.321 78.9834 408.356 81.0435 408.148C83.1036 407.939 85.1675 408.504 86.8353 409.731C88.503 410.958 89.6556 412.761 90.0697 414.789H133.684V336.935L81.1964 284.447H36.5961C36.1819 286.476 35.0293 288.279 33.3616 289.506C31.6939 290.733 29.6299 291.297 27.5698 291.089C25.5097 290.881 23.6003 289.916 22.2117 288.38C20.8232 286.844 20.0543 284.847 20.0543 282.776C20.0543 280.706 20.8232 278.709 22.2117 277.173C23.6003 275.637 25.5097 274.671 27.5698 274.463C29.6299 274.255 31.6939 274.819 33.3616 276.047C35.0293 277.274 36.1819 279.077 36.5961 281.105H82.5667L137.026 335.565V418.132H90.0697ZM56.8158 53.5079V56.1983L15.7246 97.2895H0V93.9474H14.3543L53.4737 54.828V-13H56.8158V53.5079ZM3.34211 488.483C4.94781 488.81 6.42176 489.603 7.58053 490.762C8.73931 491.92 9.53174 493.394 9.85921 495H6.40013C6.18096 494.379 5.84151 493.807 5.40117 493.317C4.96082 492.827 4.42824 492.429 3.83385 492.145C3.23946 491.861 2.59492 491.696 1.93708 491.662C1.27925 491.627 0.621009 491.722 0 491.942L0 414.789H30.0789V495H26.7368V418.132H3.34211V488.483ZM56.8158 389.724V495H53.4737V391.395H0V388.053H56.8158V389.724ZM28.4079 17.0789H0V13.7368H26.7368V-13H30.0789V17.0789H28.4079ZM484.605 13.7368H508V17.0789H481.263V-13H484.605V13.7368ZM431.132 469.934V495H427.789V471.605H404.395V495H401.053V468.263H431.132V469.934ZM0 140.904C1.21338 140.662 2.46516 140.692 3.66565 140.991C4.86614 141.29 5.98562 141.851 6.94385 142.634C7.90209 143.416 8.67538 144.401 9.20829 145.518C9.7412 146.634 10.0205 147.855 10.0263 149.092C10.0266 150.331 9.75121 151.555 9.22019 152.674C8.68917 153.794 7.91578 154.781 6.95605 155.565C5.99631 156.349 4.87426 156.91 3.67117 157.206C2.46808 157.503 1.21408 157.528 0 157.28L0 153.821C0.755931 154.087 1.56459 154.168 2.35821 154.057C3.15182 153.946 3.90725 153.646 4.56117 153.183C5.2151 152.72 5.74847 152.107 6.11656 151.395C6.48466 150.683 6.67676 149.893 6.67676 149.092C6.67676 148.291 6.48466 147.501 6.11656 146.789C5.74847 146.078 5.2151 145.464 4.56117 145.001C3.90725 144.538 3.15182 144.238 2.35821 144.127C1.56459 144.016 0.755931 144.097 0 144.363L0 140.904ZM133.684 441.526H137.026V495H133.684V441.526ZM197.017 495H193.558C193.214 494.021 192.574 493.173 191.727 492.573C190.879 491.973 189.867 491.65 188.829 491.65C187.791 491.65 186.778 491.973 185.931 492.573C185.084 493.173 184.444 494.021 184.1 495H180.641C181.024 493.111 182.049 491.413 183.541 490.193C185.034 488.974 186.902 488.307 188.829 488.307C190.756 488.307 192.624 488.974 194.117 490.193C195.609 491.413 196.634 493.111 197.017 495ZM9.85921 -13C10.1271 -11.6478 10.0577 -10.2504 9.65709 -8.93144C9.25645 -7.61245 8.53695 -6.41253 7.56221 -5.43779C6.58747 -4.46305 5.38755 -3.74355 4.06856 -3.34291C2.74958 -2.94227 1.3522 -2.87285 0 -3.14079L0 -6.59987C0.892706 -6.28338 1.85681 -6.22627 2.78064 -6.43514C3.70447 -6.644 4.55023 -7.11031 5.21996 -7.78004C5.88969 -8.44977 6.356 -9.29553 6.56486 -10.2194C6.77373 -11.1432 6.71662 -12.1073 6.40013 -13L9.85921 -13ZM501.483 -13H504.942C504.722 -12.379 504.627 -11.7208 504.662 -11.0629C504.696 -10.4051 504.861 -9.76054 505.145 -9.16615C505.429 -8.57176 505.827 -8.03918 506.317 -7.59883C506.807 -7.15849 507.379 -6.81904 508 -6.59987V-3.14079C506.925 -3.36003 505.903 -3.789 504.993 -4.40317C504.084 -5.01735 503.304 -5.80471 502.699 -6.72028C502.094 -7.63584 501.675 -8.66167 501.466 -9.73916C501.258 -10.8167 501.263 -11.9247 501.483 -13ZM508 488.483V491.942C507.294 492.191 506.653 492.595 506.124 493.124C505.595 493.653 505.191 494.294 504.942 495H501.483C501.81 493.394 502.603 491.92 503.762 490.762C504.92 489.603 506.394 488.81 508 488.483ZM162.092 154.105C162.75 154.105 163.402 153.976 164.011 153.724C164.619 153.472 165.171 153.102 165.637 152.637C166.102 152.171 166.472 151.619 166.724 151.011C166.976 150.402 167.105 149.75 167.105 149.092C167.105 148.434 166.976 147.782 166.724 147.174C166.472 146.565 166.102 146.013 165.637 145.547C165.171 145.082 164.619 144.712 164.011 144.461C163.402 144.209 162.75 144.079 162.092 144.079C160.763 144.079 159.487 144.607 158.547 145.547C157.607 146.487 157.079 147.763 157.079 149.092C157.079 150.422 157.607 151.697 158.547 152.637C159.487 153.577 160.763 154.105 162.092 154.105ZM162.092 127.368C163.422 127.368 164.697 126.84 165.637 125.9C166.577 124.96 167.105 123.685 167.105 122.355C167.105 121.026 166.577 119.751 165.637 118.81C164.697 117.87 163.422 117.342 162.092 117.342C160.763 117.342 159.487 117.87 158.547 118.81C157.607 119.751 157.079 121.026 157.079 122.355C157.079 123.685 157.607 124.96 158.547 125.9C159.487 126.84 160.763 127.368 162.092 127.368ZM188.829 154.105C189.487 154.105 190.139 153.976 190.747 153.724C191.356 153.472 191.908 153.102 192.374 152.637C192.839 152.171 193.209 151.619 193.46 151.011C193.712 150.402 193.842 149.75 193.842 149.092C193.842 148.434 193.712 147.782 193.46 147.174C193.209 146.565 192.839 146.013 192.374 145.547C191.908 145.082 191.356 144.712 190.747 144.461C190.139 144.209 189.487 144.079 188.829 144.079C187.499 144.079 186.224 144.607 185.284 145.547C184.344 146.487 183.816 147.763 183.816 149.092C183.816 150.422 184.344 151.697 185.284 152.637C186.224 153.577 187.499 154.105 188.829 154.105ZM215.566 180.842C216.895 180.842 218.17 180.314 219.111 179.374C220.051 178.434 220.579 177.159 220.579 175.829C220.579 174.499 220.051 173.224 219.111 172.284C218.17 171.344 216.895 170.816 215.566 170.816C214.236 170.816 212.961 171.344 212.021 172.284C211.081 173.224 210.553 174.499 210.553 175.829C210.553 177.159 211.081 178.434 212.021 179.374C212.961 180.314 214.236 180.842 215.566 180.842ZM215.566 207.579C216.895 207.579 218.17 207.051 219.111 206.111C220.051 205.17 220.579 203.895 220.579 202.566C220.579 201.236 220.051 199.961 219.111 199.021C218.17 198.081 216.895 197.553 215.566 197.553C214.236 197.553 212.961 198.081 212.021 199.021C211.081 199.961 210.553 201.236 210.553 202.566C210.553 203.895 211.081 205.17 212.021 206.111C212.961 207.051 214.236 207.579 215.566 207.579ZM135.355 261.053C136.685 261.053 137.96 260.524 138.9 259.584C139.84 258.644 140.368 257.369 140.368 256.039C140.368 254.71 139.84 253.435 138.9 252.495C137.96 251.554 136.685 251.026 135.355 251.026C134.026 251.026 132.751 251.554 131.81 252.495C130.87 253.435 130.342 254.71 130.342 256.039C130.342 257.369 130.87 258.644 131.81 259.584C132.751 260.524 134.026 261.053 135.355 261.053ZM162.092 287.789C163.422 287.789 164.697 287.261 165.637 286.321C166.577 285.381 167.105 284.106 167.105 282.776C167.105 281.447 166.577 280.172 165.637 279.231C164.697 278.291 163.422 277.763 162.092 277.763C160.763 277.763 159.487 278.291 158.547 279.231C157.607 280.172 157.079 281.447 157.079 282.776C157.079 284.106 157.607 285.381 158.547 286.321C159.487 287.261 160.763 287.789 162.092 287.789ZM215.566 368C216.895 368 218.17 367.472 219.111 366.532C220.051 365.592 220.579 364.316 220.579 362.987C220.579 361.657 220.051 360.382 219.111 359.442C218.17 358.502 216.895 357.974 215.566 357.974C214.236 357.974 212.961 358.502 212.021 359.442C211.081 360.382 210.553 361.657 210.553 362.987C210.553 364.316 211.081 365.592 212.021 366.532C212.961 367.472 214.236 368 215.566 368ZM188.829 394.737C190.159 394.737 191.434 394.209 192.374 393.269C193.314 392.328 193.842 391.053 193.842 389.724C193.842 388.394 193.314 387.119 192.374 386.179C191.434 385.239 190.159 384.711 188.829 384.711C187.499 384.711 186.224 385.239 185.284 386.179C184.344 387.119 183.816 388.394 183.816 389.724C183.816 391.053 184.344 392.328 185.284 393.269C186.224 394.209 187.499 394.737 188.829 394.737ZM242.303 368C243.632 368 244.907 367.472 245.847 366.532C246.788 365.592 247.316 364.316 247.316 362.987C247.316 361.657 246.788 360.382 245.847 359.442C244.907 358.502 243.632 357.974 242.303 357.974C240.973 357.974 239.698 358.502 238.758 359.442C237.818 360.382 237.289 361.657 237.289 362.987C237.289 364.316 237.818 365.592 238.758 366.532C239.698 367.472 240.973 368 242.303 368ZM242.303 314.526C243.632 314.526 244.907 313.998 245.847 313.058C246.788 312.118 247.316 310.843 247.316 309.513C247.316 308.184 246.788 306.908 245.847 305.968C244.907 305.028 243.632 304.5 242.303 304.5C240.973 304.5 239.698 305.028 238.758 305.968C237.818 306.908 237.289 308.184 237.289 309.513C237.289 310.843 237.818 312.118 238.758 313.058C239.698 313.998 240.973 314.526 242.303 314.526ZM269.039 368C270.369 368 271.644 367.472 272.584 366.532C273.524 365.592 274.053 364.316 274.053 362.987C274.053 361.657 273.524 360.382 272.584 359.442C271.644 358.502 270.369 357.974 269.039 357.974C267.71 357.974 266.435 358.502 265.495 359.442C264.554 360.382 264.026 361.657 264.026 362.987C264.026 364.316 264.554 365.592 265.495 366.532C266.435 367.472 267.71 368 269.039 368ZM322.513 394.737C323.843 394.737 325.118 394.209 326.058 393.269C326.998 392.328 327.526 391.053 327.526 389.724C327.526 388.394 326.998 387.119 326.058 386.179C325.118 385.239 323.843 384.711 322.513 384.711C321.184 384.711 319.908 385.239 318.968 386.179C318.028 387.119 317.5 388.394 317.5 389.724C317.5 391.053 318.028 392.328 318.968 393.269C319.908 394.209 321.184 394.737 322.513 394.737ZM322.513 368C323.843 368 325.118 367.472 326.058 366.532C326.998 365.592 327.526 364.316 327.526 362.987C327.526 361.657 326.998 360.382 326.058 359.442C325.118 358.502 323.843 357.974 322.513 357.974C321.184 357.974 319.908 358.502 318.968 359.442C318.028 360.382 317.5 361.657 317.5 362.987C317.5 364.316 318.028 365.592 318.968 366.532C319.908 367.472 321.184 368 322.513 368ZM295.776 261.053C297.106 261.053 298.381 260.524 299.321 259.584C300.261 258.644 300.789 257.369 300.789 256.039C300.789 254.71 300.261 253.435 299.321 252.495C298.381 251.554 297.106 251.026 295.776 251.026C294.447 251.026 293.172 251.554 292.231 252.495C291.291 253.435 290.763 254.71 290.763 256.039C290.763 257.369 291.291 258.644 292.231 259.584C293.172 260.524 294.447 261.053 295.776 261.053ZM322.513 261.053C323.843 261.053 325.118 260.524 326.058 259.584C326.998 258.644 327.526 257.369 327.526 256.039C327.526 254.71 326.998 253.435 326.058 252.495C325.118 251.554 323.843 251.026 322.513 251.026C321.184 251.026 319.908 251.554 318.968 252.495C318.028 253.435 317.5 254.71 317.5 256.039C317.5 257.369 318.028 258.644 318.968 259.584C319.908 260.524 321.184 261.053 322.513 261.053ZM349.25 421.474C350.58 421.474 351.855 420.945 352.795 420.005C353.735 419.065 354.263 417.79 354.263 416.461C354.263 415.131 353.735 413.856 352.795 412.916C351.855 411.976 350.58 411.447 349.25 411.447C347.92 411.447 346.645 411.976 345.705 412.916C344.765 413.856 344.237 415.131 344.237 416.461C344.237 417.79 344.765 419.065 345.705 420.005C346.645 420.945 347.92 421.474 349.25 421.474ZM349.25 448.211C350.58 448.211 351.855 447.682 352.795 446.742C353.735 445.802 354.263 444.527 354.263 443.197C354.263 441.868 353.735 440.593 352.795 439.653C351.855 438.712 350.58 438.184 349.25 438.184C347.92 438.184 346.645 438.712 345.705 439.653C344.765 440.593 344.237 441.868 344.237 443.197C344.237 444.527 344.765 445.802 345.705 446.742C346.645 447.682 347.92 448.211 349.25 448.211ZM375.987 474.947C377.316 474.947 378.592 474.419 379.532 473.479C380.472 472.539 381 471.264 381 469.934C381 468.605 380.472 467.33 379.532 466.389C378.592 465.449 377.316 464.921 375.987 464.921C374.657 464.921 373.382 465.449 372.442 466.389C371.502 467.33 370.974 468.605 370.974 469.934C370.974 471.264 371.502 472.539 372.442 473.479C373.382 474.419 374.657 474.947 375.987 474.947ZM402.724 234.316C404.053 234.316 405.328 233.788 406.269 232.847C407.209 231.907 407.737 230.632 407.737 229.303C407.737 227.973 407.209 226.698 406.269 225.758C405.328 224.818 404.053 224.289 402.724 224.289C401.394 224.289 400.119 224.818 399.179 225.758C398.239 226.698 397.711 227.973 397.711 229.303C397.711 230.632 398.239 231.907 399.179 232.847C400.119 233.788 401.394 234.316 402.724 234.316ZM402.724 287.789C404.053 287.789 405.328 287.261 406.269 286.321C407.209 285.381 407.737 284.106 407.737 282.776C407.737 281.447 407.209 280.172 406.269 279.231C405.328 278.291 404.053 277.763 402.724 277.763C401.394 277.763 400.119 278.291 399.179 279.231C398.239 280.172 397.711 281.447 397.711 282.776C397.711 284.106 398.239 285.381 399.179 286.321C400.119 287.261 401.394 287.789 402.724 287.789ZM429.461 234.316C430.79 234.316 432.065 233.788 433.005 232.847C433.945 231.907 434.474 230.632 434.474 229.303C434.474 227.973 433.945 226.698 433.005 225.758C432.065 224.818 430.79 224.289 429.461 224.289C428.131 224.289 426.856 224.818 425.916 225.758C424.976 226.698 424.447 227.973 424.447 229.303C424.447 230.632 424.976 231.907 425.916 232.847C426.856 233.788 428.131 234.316 429.461 234.316ZM456.197 207.579C457.527 207.579 458.802 207.051 459.742 206.111C460.682 205.17 461.211 203.895 461.211 202.566C461.211 201.236 460.682 199.961 459.742 199.021C458.802 198.081 457.527 197.553 456.197 197.553C454.868 197.553 453.593 198.081 452.653 199.021C451.712 199.961 451.184 201.236 451.184 202.566C451.184 203.895 451.712 205.17 452.653 206.111C453.593 207.051 454.868 207.579 456.197 207.579ZM295.776 207.579C297.106 207.579 298.381 207.051 299.321 206.111C300.261 205.17 300.789 203.895 300.789 202.566C300.789 201.236 300.261 199.961 299.321 199.021C298.381 198.081 297.106 197.553 295.776 197.553C294.447 197.553 293.172 198.081 292.231 199.021C291.291 199.961 290.763 201.236 290.763 202.566C290.763 203.895 291.291 205.17 292.231 206.111C293.172 207.051 294.447 207.579 295.776 207.579ZM295.776 234.316C297.106 234.316 298.381 233.788 299.321 232.847C300.261 231.907 300.789 230.632 300.789 229.303C300.789 227.973 300.261 226.698 299.321 225.758C298.381 224.818 297.106 224.289 295.776 224.289C294.447 224.289 293.172 224.818 292.231 225.758C291.291 226.698 290.763 227.973 290.763 229.303C290.763 230.632 291.291 231.907 292.231 232.847C293.172 233.788 294.447 234.316 295.776 234.316ZM322.513 180.842C323.843 180.842 325.118 180.314 326.058 179.374C326.998 178.434 327.526 177.159 327.526 175.829C327.526 174.499 326.998 173.224 326.058 172.284C325.118 171.344 323.843 170.816 322.513 170.816C321.184 170.816 319.908 171.344 318.968 172.284C318.028 173.224 317.5 174.499 317.5 175.829C317.5 177.159 318.028 178.434 318.968 179.374C319.908 180.314 321.184 180.842 322.513 180.842ZM482.934 180.842C484.264 180.842 485.539 180.314 486.479 179.374C487.419 178.434 487.947 177.159 487.947 175.829C487.947 174.499 487.419 173.224 486.479 172.284C485.539 171.344 484.264 170.816 482.934 170.816C481.605 170.816 480.33 171.344 479.389 172.284C478.449 173.224 477.921 174.499 477.921 175.829C477.921 177.159 478.449 178.434 479.389 179.374C480.33 180.314 481.605 180.842 482.934 180.842ZM456.197 73.8947C457.527 73.8947 458.802 73.3666 459.742 72.4264C460.682 71.4863 461.211 70.2112 461.211 68.8816C461.211 67.552 460.682 66.2769 459.742 65.3367C458.802 64.3966 457.527 63.8684 456.197 63.8684C454.868 63.8684 453.593 64.3966 452.653 65.3367C451.712 66.2769 451.184 67.552 451.184 68.8816C451.184 70.2112 451.712 71.4863 452.653 72.4264C453.593 73.3666 454.868 73.8947 456.197 73.8947ZM482.934 47.1579C484.264 47.1579 485.539 46.6297 486.479 45.6896C487.419 44.7494 487.947 43.4743 487.947 42.1447C487.947 40.8152 487.419 39.54 486.479 38.5999C485.539 37.6597 484.264 37.1316 482.934 37.1316C481.605 37.1316 480.33 37.6597 479.389 38.5999C478.449 39.54 477.921 40.8152 477.921 42.1447C477.921 43.4743 478.449 44.7494 479.389 45.6896C480.33 46.6297 481.605 47.1579 482.934 47.1579ZM429.461 47.1579C430.79 47.1579 432.065 46.6297 433.005 45.6896C433.945 44.7494 434.474 43.4743 434.474 42.1447C434.474 40.8152 433.945 39.54 433.005 38.5999C432.065 37.6597 430.79 37.1316 429.461 37.1316C428.131 37.1316 426.856 37.6597 425.916 38.5999C424.976 39.54 424.447 40.8152 424.447 42.1447C424.447 43.4743 424.976 44.7494 425.916 45.6896C426.856 46.6297 428.131 47.1579 429.461 47.1579ZM429.461 20.4211C430.79 20.4211 432.065 19.8929 433.005 18.9527C433.945 18.0126 434.474 16.7375 434.474 15.4079C434.474 14.0783 433.945 12.8032 433.005 11.8631C432.065 10.9229 430.79 10.3947 429.461 10.3947C428.131 10.3947 426.856 10.9229 425.916 11.8631C424.976 12.8032 424.447 14.0783 424.447 15.4079C424.447 16.7375 424.976 18.0126 425.916 18.9527C426.856 19.8929 428.131 20.4211 429.461 20.4211ZM402.724 20.4211C404.053 20.4211 405.328 19.8929 406.269 18.9527C407.209 18.0126 407.737 16.7375 407.737 15.4079C407.737 14.0783 407.209 12.8032 406.269 11.8631C405.328 10.9229 404.053 10.3947 402.724 10.3947C401.394 10.3947 400.119 10.9229 399.179 11.8631C398.239 12.8032 397.711 14.0783 397.711 15.4079C397.711 16.7375 398.239 18.0126 399.179 18.9527C400.119 19.8929 401.394 20.4211 402.724 20.4211ZM375.987 20.4211C377.316 20.4211 378.592 19.8929 379.532 18.9527C380.472 18.0126 381 16.7375 381 15.4079C381 14.0783 380.472 12.8032 379.532 11.8631C378.592 10.9229 377.316 10.3947 375.987 10.3947C374.657 10.3947 373.382 10.9229 372.442 11.8631C371.502 12.8032 370.974 14.0783 370.974 15.4079C370.974 16.7375 371.502 18.0126 372.442 18.9527C373.382 19.8929 374.657 20.4211 375.987 20.4211ZM349.25 20.4211C350.58 20.4211 351.855 19.8929 352.795 18.9527C353.735 18.0126 354.263 16.7375 354.263 15.4079C354.263 14.0783 353.735 12.8032 352.795 11.8631C351.855 10.9229 350.58 10.3947 349.25 10.3947C347.92 10.3947 346.645 10.9229 345.705 11.8631C344.765 12.8032 344.237 14.0783 344.237 15.4079C344.237 16.7375 344.765 18.0126 345.705 18.9527C346.645 19.8929 347.92 20.4211 349.25 20.4211ZM81.8816 47.1579C83.2112 47.1579 84.4863 46.6297 85.4264 45.6896C86.3666 44.7494 86.8947 43.4743 86.8947 42.1447C86.8947 40.8152 86.3666 39.54 85.4264 38.5999C84.4863 37.6597 83.2112 37.1316 81.8816 37.1316C80.552 37.1316 79.2769 37.6597 78.3367 38.5999C77.3966 39.54 76.8684 40.8152 76.8684 42.1447C76.8684 43.4743 77.3966 44.7494 78.3367 45.6896C79.2769 46.6297 80.552 47.1579 81.8816 47.1579ZM28.4079 47.1579C29.7375 47.1579 31.0126 46.6297 31.9527 45.6896C32.8929 44.7494 33.4211 43.4743 33.4211 42.1447C33.4211 40.8152 32.8929 39.54 31.9527 38.5999C31.0126 37.6597 29.7375 37.1316 28.4079 37.1316C27.0783 37.1316 25.8032 37.6597 24.8631 38.5999C23.9229 39.54 23.3947 40.8152 23.3947 42.1447C23.3947 43.4743 23.9229 44.7494 24.8631 45.6896C25.8032 46.6297 27.0783 47.1579 28.4079 47.1579ZM81.8816 73.8947C83.2112 73.8947 84.4863 73.3666 85.4264 72.4264C86.3666 71.4863 86.8947 70.2112 86.8947 68.8816C86.8947 67.552 86.3666 66.2769 85.4264 65.3367C84.4863 64.3966 83.2112 63.8684 81.8816 63.8684C80.552 63.8684 79.2769 64.3966 78.3367 65.3367C77.3966 66.2769 76.8684 67.552 76.8684 68.8816C76.8684 70.2112 77.3966 71.4863 78.3367 72.4264C79.2769 73.3666 80.552 73.8947 81.8816 73.8947ZM55.1447 100.632C56.4743 100.632 57.7494 100.103 58.6896 99.1633C59.6297 98.2231 60.1579 96.948 60.1579 95.6184C60.1579 94.2888 59.6297 93.0137 58.6896 92.0736C57.7494 91.1334 56.4743 90.6053 55.1447 90.6053C53.8152 90.6053 52.54 91.1334 51.5999 92.0736C50.6597 93.0137 50.1316 94.2888 50.1316 95.6184C50.1316 96.948 50.6597 98.2231 51.5999 99.1633C52.54 100.103 53.8152 100.632 55.1447 100.632ZM81.8816 20.4211C83.2112 20.4211 84.4863 19.8929 85.4264 18.9527C86.3666 18.0126 86.8947 16.7375 86.8947 15.4079C86.8947 14.0783 86.3666 12.8032 85.4264 11.8631C84.4863 10.9229 83.2112 10.3947 81.8816 10.3947C80.552 10.3947 79.2769 10.9229 78.3367 11.8631C77.3966 12.8032 76.8684 14.0783 76.8684 15.4079C76.8684 16.7375 77.3966 18.0126 78.3367 18.9527C79.2769 19.8929 80.552 20.4211 81.8816 20.4211ZM81.8816 421.474C83.2112 421.474 84.4863 420.945 85.4264 420.005C86.3666 419.065 86.8947 417.79 86.8947 416.461C86.8947 415.131 86.3666 413.856 85.4264 412.916C84.4863 411.976 83.2112 411.447 81.8816 411.447C80.552 411.447 79.2769 411.976 78.3367 412.916C77.3966 413.856 76.8684 415.131 76.8684 416.461C76.8684 417.79 77.3966 419.065 78.3367 420.005C79.2769 420.945 80.552 421.474 81.8816 421.474ZM108.618 474.947C109.948 474.947 111.223 474.419 112.163 473.479C113.103 472.539 113.632 471.264 113.632 469.934C113.632 468.605 113.103 467.33 112.163 466.389C111.223 465.449 109.948 464.921 108.618 464.921C107.289 464.921 106.014 465.449 105.074 466.389C104.133 467.33 103.605 468.605 103.605 469.934C103.605 471.264 104.133 472.539 105.074 473.479C106.014 474.419 107.289 474.947 108.618 474.947ZM81.8816 368C83.2112 368 84.4863 367.472 85.4264 366.532C86.3666 365.592 86.8947 364.316 86.8947 362.987C86.8947 361.657 86.3666 360.382 85.4264 359.442C84.4863 358.502 83.2112 357.974 81.8816 357.974C80.552 357.974 79.2769 358.502 78.3367 359.442C77.3966 360.382 76.8684 361.657 76.8684 362.987C76.8684 364.316 77.3966 365.592 78.3367 366.532C79.2769 367.472 80.552 368 81.8816 368ZM81.8816 394.737C83.2112 394.737 84.4863 394.209 85.4264 393.269C86.3666 392.328 86.8947 391.053 86.8947 389.724C86.8947 388.394 86.3666 387.119 85.4264 386.179C84.4863 385.239 83.2112 384.711 81.8816 384.711C80.552 384.711 79.2769 385.239 78.3367 386.179C77.3966 387.119 76.8684 388.394 76.8684 389.724C76.8684 391.053 77.3966 392.328 78.3367 393.269C79.2769 394.209 80.552 394.737 81.8816 394.737ZM55.1447 341.263C56.4743 341.263 57.7494 340.735 58.6896 339.795C59.6297 338.855 60.1579 337.58 60.1579 336.25C60.1579 334.92 59.6297 333.645 58.6896 332.705C57.7494 331.765 56.4743 331.237 55.1447 331.237C53.8152 331.237 52.54 331.765 51.5999 332.705C50.6597 333.645 50.1316 334.92 50.1316 336.25C50.1316 337.58 50.6597 338.855 51.5999 339.795C52.54 340.735 53.8152 341.263 55.1447 341.263ZM188.829 47.1579C190.159 47.1579 191.434 46.6297 192.374 45.6896C193.314 44.7494 193.842 43.4743 193.842 42.1447C193.842 40.8152 193.314 39.54 192.374 38.5999C191.434 37.6597 190.159 37.1316 188.829 37.1316C187.499 37.1316 186.224 37.6597 185.284 38.5999C184.344 39.54 183.816 40.8152 183.816 42.1447C183.816 43.4743 184.344 44.7494 185.284 45.6896C186.224 46.6297 187.499 47.1579 188.829 47.1579ZM215.566 47.1579C216.895 47.1579 218.17 46.6297 219.111 45.6896C220.051 44.7494 220.579 43.4743 220.579 42.1447C220.579 40.8152 220.051 39.54 219.111 38.5999C218.17 37.6597 216.895 37.1316 215.566 37.1316C214.236 37.1316 212.961 37.6597 212.021 38.5999C211.081 39.54 210.553 40.8152 210.553 42.1447C210.553 43.4743 211.081 44.7494 212.021 45.6896C212.961 46.6297 214.236 47.1579 215.566 47.1579ZM188.829 20.4211C190.159 20.4211 191.434 19.8929 192.374 18.9527C193.314 18.0126 193.842 16.7375 193.842 15.4079C193.842 14.0783 193.314 12.8032 192.374 11.8631C191.434 10.9229 190.159 10.3947 188.829 10.3947C187.499 10.3947 186.224 10.9229 185.284 11.8631C184.344 12.8032 183.816 14.0783 183.816 15.4079C183.816 16.7375 184.344 18.0126 185.284 18.9527C186.224 19.8929 187.499 20.4211 188.829 20.4211ZM242.303 100.632C243.632 100.632 244.907 100.103 245.847 99.1633C246.788 98.2231 247.316 96.948 247.316 95.6184C247.316 94.2888 246.788 93.0137 245.847 92.0736C244.907 91.1334 243.632 90.6053 242.303 90.6053C240.973 90.6053 239.698 91.1334 238.758 92.0736C237.818 93.0137 237.289 94.2888 237.289 95.6184C237.289 96.948 237.818 98.2231 238.758 99.1633C239.698 100.103 240.973 100.632 242.303 100.632ZM269.039 73.8947C270.369 73.8947 271.644 73.3666 272.584 72.4264C273.524 71.4863 274.053 70.2112 274.053 68.8816C274.053 67.552 273.524 66.2769 272.584 65.3367C271.644 64.3966 270.369 63.8684 269.039 63.8684C267.71 63.8684 266.435 64.3966 265.495 65.3367C264.554 66.2769 264.026 67.552 264.026 68.8816C264.026 70.2112 264.554 71.4863 265.495 72.4264C266.435 73.3666 267.71 73.8947 269.039 73.8947ZM269.039 20.4211C270.369 20.4211 271.644 19.8929 272.584 18.9527C273.524 18.0126 274.053 16.7375 274.053 15.4079C274.053 14.0783 273.524 12.8032 272.584 11.8631C271.644 10.9229 270.369 10.3947 269.039 10.3947C267.71 10.3947 266.435 10.9229 265.495 11.8631C264.554 12.8032 264.026 14.0783 264.026 15.4079C264.026 16.7375 264.554 18.0126 265.495 18.9527C266.435 19.8929 267.71 20.4211 269.039 20.4211ZM456.197 314.526C457.527 314.526 458.802 313.998 459.742 313.058C460.682 312.118 461.211 310.843 461.211 309.513C461.211 308.184 460.682 306.908 459.742 305.968C458.802 305.028 457.527 304.5 456.197 304.5C454.868 304.5 453.593 305.028 452.653 305.968C451.712 306.908 451.184 308.184 451.184 309.513C451.184 310.843 451.712 312.118 452.653 313.058C453.593 313.998 454.868 314.526 456.197 314.526ZM429.461 341.263C430.79 341.263 432.065 340.735 433.005 339.795C433.945 338.855 434.474 337.58 434.474 336.25C434.474 334.92 433.945 333.645 433.005 332.705C432.065 331.765 430.79 331.237 429.461 331.237C428.131 331.237 426.856 331.765 425.916 332.705C424.976 333.645 424.447 334.92 424.447 336.25C424.447 337.58 424.976 338.855 425.916 339.795C426.856 340.735 428.131 341.263 429.461 341.263ZM429.461 368C430.79 368 432.065 367.472 433.005 366.532C433.945 365.592 434.474 364.316 434.474 362.987C434.474 361.657 433.945 360.382 433.005 359.442C432.065 358.502 430.79 357.974 429.461 357.974C428.131 357.974 426.856 358.502 425.916 359.442C424.976 360.382 424.447 361.657 424.447 362.987C424.447 364.316 424.976 365.592 425.916 366.532C426.856 367.472 428.131 368 429.461 368ZM429.461 394.737C430.79 394.737 432.065 394.209 433.005 393.269C433.945 392.328 434.474 391.053 434.474 389.724C434.474 388.394 433.945 387.119 433.005 386.179C432.065 385.239 430.79 384.711 429.461 384.711C428.131 384.711 426.856 385.239 425.916 386.179C424.976 387.119 424.447 388.394 424.447 389.724C424.447 391.053 424.976 392.328 425.916 393.269C426.856 394.209 428.131 394.737 429.461 394.737ZM28.4079 287.789C29.7375 287.789 31.0126 287.261 31.9527 286.321C32.8929 285.381 33.4211 284.106 33.4211 282.776C33.4211 281.447 32.8929 280.172 31.9527 279.231C31.0126 278.291 29.7375 277.763 28.4079 277.763C27.0783 277.763 25.8032 278.291 24.8631 279.231C23.9229 280.172 23.3947 281.447 23.3947 282.776C23.3947 284.106 23.9229 285.381 24.8631 286.321C25.8032 287.261 27.0783 287.789 28.4079 287.789ZM28.4079 314.526C29.7375 314.526 31.0126 313.998 31.9527 313.058C32.8929 312.118 33.4211 310.843 33.4211 309.513C33.4211 308.184 32.8929 306.908 31.9527 305.968C31.0126 305.028 29.7375 304.5 28.4079 304.5C27.0783 304.5 25.8032 305.028 24.8631 305.968C23.9229 306.908 23.3947 308.184 23.3947 309.513C23.3947 310.843 23.9229 312.118 24.8631 313.058C25.8032 313.998 27.0783 314.526 28.4079 314.526ZM28.4079 261.053C29.7375 261.053 31.0126 260.524 31.9527 259.584C32.8929 258.644 33.4211 257.369 33.4211 256.039C33.4211 254.71 32.8929 253.435 31.9527 252.495C31.0126 251.554 29.7375 251.026 28.4079 251.026C27.0783 251.026 25.8032 251.554 24.8631 252.495C23.9229 253.435 23.3947 254.71 23.3947 256.039C23.3947 257.369 23.9229 258.644 24.8631 259.584C25.8032 260.524 27.0783 261.053 28.4079 261.053ZM55.1447 261.053C56.4743 261.053 57.7494 260.524 58.6896 259.584C59.6297 258.644 60.1579 257.369 60.1579 256.039C60.1579 254.71 59.6297 253.435 58.6896 252.495C57.7494 251.554 56.4743 251.026 55.1447 251.026C53.8152 251.026 52.54 251.554 51.5999 252.495C50.6597 253.435 50.1316 254.71 50.1316 256.039C50.1316 257.369 50.6597 258.644 51.5999 259.584C52.54 260.524 53.8152 261.053 55.1447 261.053ZM28.4079 127.368C29.7375 127.368 31.0126 126.84 31.9527 125.9C32.8929 124.96 33.4211 123.685 33.4211 122.355C33.4211 121.026 32.8929 119.751 31.9527 118.81C31.0126 117.87 29.7375 117.342 28.4079 117.342C27.0783 117.342 25.8032 117.87 24.8631 118.81C23.9229 119.751 23.3947 121.026 23.3947 122.355C23.3947 123.685 23.9229 124.96 24.8631 125.9C25.8032 126.84 27.0783 127.368 28.4079 127.368ZM81.8816 234.316C83.2112 234.316 84.4863 233.788 85.4264 232.847C86.3666 231.907 86.8947 230.632 86.8947 229.303C86.8947 227.973 86.3666 226.698 85.4264 225.758C84.4863 224.818 83.2112 224.289 81.8816 224.289C80.552 224.289 79.2769 224.818 78.3367 225.758C77.3966 226.698 76.8684 227.973 76.8684 229.303C76.8684 230.632 77.3966 231.907 78.3367 232.847C79.2769 233.788 80.552 234.316 81.8816 234.316ZM108.618 207.579C109.948 207.579 111.223 207.051 112.163 206.111C113.103 205.17 113.632 203.895 113.632 202.566C113.632 201.236 113.103 199.961 112.163 199.021C111.223 198.081 109.948 197.553 108.618 197.553C107.289 197.553 106.014 198.081 105.074 199.021C104.133 199.961 103.605 201.236 103.605 202.566C103.605 203.895 104.133 205.17 105.074 206.111C106.014 207.051 107.289 207.579 108.618 207.579Z" fill="white" fill-opacity="0.2"/>
</svg>
