<svg width="41" height="40" viewBox="0 0 41 40" fill="none" xmlns="http://www.w3.org/2000/svg">
<g clip-path="url(#clip0_9766_42563)">
<path d="M39.1448 22.973C35.0414 16.4752 35.5903 9.88635 33.6126 6.75524C31.6348 3.62413 25.6814 -1.81587 11.2759 7.2808C-3.12966 16.3775 0.342558 26.5586 2.51811 30.003C12.7026 46.1319 46.4114 34.4819 39.1448 22.973Z" fill="#EFEFEF"/>
<path d="M30.9696 24.5897L28.7362 21.4675L28.5362 20.9119C28.5251 20.6675 28.5918 20.4119 28.7362 20.2008L30.9696 17.0786C31.4362 16.4341 31.0473 15.5119 30.2585 15.3786L26.5585 14.7675L26.4807 14.7564C26.4362 14.7452 26.4029 14.7341 26.3585 14.723C25.9585 14.6119 25.6473 14.2675 25.5807 13.8564L25.1696 11.3452L24.9585 10.0786C24.8251 9.27858 23.9029 8.9008 23.2585 9.36747L20.1362 11.6008C20.0473 11.6675 19.9362 11.7119 19.8362 11.7564C19.614 11.823 19.3918 11.823 19.1696 11.7564C19.0696 11.7119 18.9585 11.6675 18.8696 11.6008L15.7473 9.36747C15.1029 8.9008 14.1807 9.27858 14.0473 10.0786L13.4251 13.8564C13.3918 14.023 13.3251 14.1897 13.2251 14.323C13.1696 14.4119 13.0807 14.5008 12.9918 14.5564C12.8585 14.6564 12.6918 14.723 12.5251 14.7564L8.74735 15.3786C8.46957 15.423 8.24735 15.5675 8.08068 15.7675C8.0029 15.8564 7.94735 15.9675 7.9029 16.0897C7.83623 16.2675 7.81401 16.4452 7.84735 16.623C7.86957 16.7341 7.9029 16.8341 7.94735 16.9341C7.96957 16.9786 8.0029 17.0341 8.03623 17.0786L8.82512 18.1786L10.2696 20.2008C10.5362 20.5786 10.5362 21.0897 10.2696 21.4675L8.03623 24.5897C7.56957 25.2341 7.94735 26.1564 8.74735 26.2897L12.5251 26.9119H12.5362L13.0807 27.1786C13.2585 27.3341 13.3807 27.5564 13.4251 27.8008L14.0473 31.5897C14.1807 32.3897 15.0918 32.7675 15.7585 32.3008L18.8696 30.0675C18.9029 30.0452 18.9473 30.023 18.9807 30.0008C19.3473 29.8008 19.7918 29.823 20.1362 30.0675L22.1807 31.5341L22.2029 31.5452L23.2585 32.3008C23.3029 32.3341 23.3585 32.3675 23.4029 32.3897C23.5029 32.4341 23.6029 32.4675 23.714 32.4897C23.8918 32.523 24.0696 32.5008 24.2473 32.4341C24.3696 32.3897 24.4807 32.3341 24.5696 32.2564C24.7696 32.0897 24.914 31.8675 24.9585 31.5897L25.5807 27.8119C25.6585 27.3452 26.014 26.9897 26.4807 26.9119L30.2585 26.2897C31.0585 26.1564 31.4362 25.2341 30.9696 24.5897Z" fill="#0BD76D"/>
<path d="M16.5473 31.5897L15.9251 27.8008C15.8807 27.5564 15.7585 27.3341 15.5807 27.1786L15.0362 26.9119H15.0251L11.2473 26.2897C10.4473 26.1564 10.0696 25.2341 10.5362 24.5897L12.7696 21.4675C13.0362 21.0897 13.0362 20.5786 12.7696 20.2008L11.3251 18.1786L10.5362 17.0786C10.5029 17.0341 10.4696 16.9786 10.4473 16.9341C10.4029 16.8341 10.3696 16.7341 10.3473 16.623C10.314 16.4452 10.3362 16.2675 10.4029 16.0897C10.4473 15.9675 10.5029 15.8564 10.5807 15.7675C10.7473 15.5675 10.9696 15.423 11.2473 15.3786L15.0251 14.7564C15.1918 14.723 15.3585 14.6564 15.4918 14.5564C15.5807 14.5008 15.6696 14.4119 15.7251 14.323C15.8251 14.1897 15.8918 14.023 15.9251 13.8564L16.5473 10.0786C16.554 10.0375 16.5707 10.003 16.5818 9.96413L15.7473 9.36747C15.1029 8.9008 14.1807 9.27858 14.0473 10.0786L13.4251 13.8564C13.3918 14.023 13.3251 14.1897 13.2251 14.323C13.1696 14.4119 13.0807 14.5008 12.9918 14.5564C12.8585 14.6564 12.6918 14.723 12.5251 14.7564L8.74735 15.3786C8.46957 15.423 8.24735 15.5675 8.08068 15.7675C8.0029 15.8564 7.94735 15.9675 7.9029 16.0897C7.83623 16.2675 7.81401 16.4452 7.84735 16.623C7.86957 16.7341 7.9029 16.8341 7.94735 16.9341C7.96957 16.9786 8.0029 17.0341 8.03623 17.0786L8.82512 18.1786L10.2696 20.2008C10.5362 20.5786 10.5362 21.0897 10.2696 21.4675L8.03623 24.5897C7.56957 25.2341 7.94735 26.1564 8.74735 26.2897L12.5251 26.9119H12.5362L13.0807 27.1786C13.2585 27.3341 13.3807 27.5564 13.4251 27.8008L14.0473 31.5897C14.1807 32.3897 15.0918 32.7675 15.7585 32.3008L16.5829 31.7086C16.5718 31.6686 16.554 31.6319 16.5473 31.5897Z" fill="#00B871"/>
<path d="M24.7029 31.5466L24.6807 31.5355L22.6363 30.0689C22.2918 29.8244 21.8474 29.8022 21.4807 30.0022C21.4474 30.0244 21.4029 30.0466 21.3696 30.0689L20.7529 30.5111L22.1807 31.5355L22.2029 31.5466L23.2585 32.3022C23.3029 32.3355 23.3585 32.3689 23.4029 32.3911C23.5029 32.4355 23.6029 32.4689 23.714 32.4911C23.8918 32.5244 24.0696 32.5022 24.2474 32.4355C24.3696 32.3911 24.4807 32.3355 24.5696 32.2577C24.7407 32.1155 24.8563 31.9244 24.9185 31.7011L24.7029 31.5466Z" fill="#00B871"/>
<path d="M33.6696 8.33333C32.7507 8.33333 32.0029 7.58556 32.0029 6.66667C32.0029 5.74778 32.7507 5 33.6696 5C34.5885 5 35.3363 5.74778 35.3363 6.66667C35.3363 7.58556 34.5885 8.33333 33.6696 8.33333ZM33.6696 6.11111C33.3629 6.11111 33.114 6.36111 33.114 6.66667C33.114 6.97222 33.3629 7.22222 33.6696 7.22222C33.9763 7.22222 34.2252 6.97222 34.2252 6.66667C34.2252 6.36111 33.9763 6.11111 33.6696 6.11111Z" fill="#A4AFC1"/>
<path d="M23.8793 33.3347C23.486 33.3347 23.0982 33.2125 22.766 32.9747L19.6516 30.7391C19.5704 30.6836 19.4349 30.6858 19.3393 30.7491L16.2393 32.9747C15.6838 33.3647 14.9904 33.4425 14.376 33.1836C13.7649 32.928 13.3349 32.3825 13.2271 31.7269L12.5982 27.9414C12.5804 27.8369 12.4982 27.7547 12.3927 27.7369L8.606 27.108C7.95156 27.0003 7.40711 26.5714 7.15044 25.9591C6.89267 25.3436 6.96933 24.6503 7.356 24.1025L9.59489 20.9814C9.65044 20.9003 9.65044 20.7658 9.58489 20.6691L7.36044 17.5703C6.97044 17.028 6.89267 16.3347 7.14822 15.7169C7.40378 15.0991 7.94933 14.6669 8.60711 14.558L12.3927 13.9291C12.4971 13.9114 12.5793 13.8291 12.5971 13.7247L13.226 9.93803C13.3338 9.28359 13.7627 8.73914 14.3749 8.48248C14.9893 8.2247 15.6838 8.30136 16.2316 8.68803L19.3516 10.928C19.4404 10.9925 19.5616 10.9925 19.6504 10.9269L22.7627 8.69248C23.306 8.30359 23.9993 8.22359 24.616 8.48136C25.2338 8.73692 25.666 9.28248 25.7749 9.93914L25.986 11.2114L24.3427 11.4847L24.1316 10.2114C24.1138 10.0925 24.0293 10.0403 23.9804 10.0214C23.9316 10.0025 23.8349 9.97692 23.7371 10.0469L20.6238 12.2825C19.9527 12.7625 19.0538 12.7614 18.3838 12.2836L15.2682 10.0469C15.1693 9.97581 15.0704 9.99914 15.0216 10.0214C14.9638 10.0447 14.8916 10.0969 14.8727 10.2103L14.2427 13.998C14.1082 14.8058 13.476 15.4391 12.6682 15.5736L8.88044 16.2036C8.76044 16.2236 8.70933 16.3069 8.68933 16.3558C8.66822 16.4047 8.64489 16.5014 8.71489 16.6003L10.906 19.648C11.4138 20.3891 11.4138 21.2791 10.9604 21.9391L8.71489 25.068C8.64489 25.168 8.66822 25.2658 8.68822 25.3147C8.71267 25.3725 8.76489 25.4447 8.87822 25.4636L12.6671 26.0925C13.4749 26.2269 14.1071 26.8603 14.2416 27.668L14.8704 31.4547C14.8893 31.5703 14.9627 31.6214 15.0193 31.6458C15.0671 31.6658 15.1649 31.6903 15.2716 31.6158L18.3793 29.3847C19.056 28.9214 19.9449 28.9214 20.606 29.3747L23.7349 31.6203C23.8316 31.6903 23.9282 31.6669 23.9782 31.6458C24.026 31.6258 24.1116 31.5747 24.1304 31.4558L24.7604 27.668C24.8949 26.8603 25.5271 26.2269 26.3349 26.0925L30.1227 25.4636C30.2371 25.4447 30.2893 25.3725 30.3138 25.3147C30.3338 25.2658 30.3582 25.168 30.2838 25.0614L28.0527 21.9536L29.4071 20.9814L31.6427 24.0958C32.0327 24.6503 32.1093 25.3436 31.8516 25.9591C31.5949 26.5714 31.0504 27.0014 30.3949 27.108L26.6093 27.7369C26.5049 27.7547 26.4227 27.8369 26.4049 27.9414L25.776 31.728C25.6682 32.3847 25.2349 32.9291 24.6182 33.1858C24.3793 33.2858 24.1282 33.3347 23.8793 33.3347Z" fill="black"/>
<path d="M20.6133 23.8905C20.4 23.8905 20.1866 23.8094 20.0244 23.6461L15.0244 18.6461L16.2033 17.4672L20.6144 21.8783L32.2466 10.2461L33.4255 11.425L21.2033 23.6472C21.04 23.8094 20.8266 23.8905 20.6133 23.8905Z" fill="black"/>
</g>
<defs>
<clipPath id="clip0_9766_42563">
<rect width="40" height="40" fill="white" transform="translate(0.335938)"/>
</clipPath>
</defs>
</svg>
