<svg xmlns="http://www.w3.org/2000/svg" width="40" height="40" viewBox="0 0 40 40" fill="none"><rect width="40" height="40" rx="10" fill="url(#paint0_linear_3237_17083)" fill-opacity="0.4"></rect><g clip-path="url(#clip0_3237_17083)"><path d="M8.26562 32.2383C8.26562 32.6587 8.60688 33 9.02734 33H24.668C25.0884 33 25.4297 32.6587 25.4297 32.2383V30.4609H8.26562V32.2383Z" fill="#B892FF"></path><path d="M13.6919 14.6893C14.0387 16.8328 14.1271 19.2718 14.1184 21.3203H19.5825C19.5739 19.3079 19.6592 16.913 19.9923 14.7949C20.1096 14.0469 20.3071 13.3604 20.5788 12.7545C20.8343 12.1863 20.9536 11.58 20.9333 10.9528C20.8998 9.88793 20.4549 8.8916 19.6815 8.14664C18.9137 7.40676 17.9067 7 16.8505 7H16.8312C14.5892 7.01066 12.7656 8.84285 12.7656 11.0848C12.7656 11.6368 12.8738 12.1721 13.0876 12.6763C13.3902 13.3898 13.5883 14.0484 13.6919 14.6893Z" fill="#B892FF"></path><path d="M27.1309 12.1289C23.8966 12.1289 21.2656 14.7599 21.2656 17.9941C21.2656 21.2284 23.8966 23.8594 27.1309 23.8594C30.3651 23.8594 32.9961 21.2284 32.9961 17.9941C32.9961 14.7599 30.3651 12.1289 27.1309 12.1289ZM29.4358 17.6514L27.1309 19.9563C26.8332 20.2504 26.3529 20.2496 26.0573 19.9528L24.7121 18.6081C24.4146 18.3105 24.4146 17.8286 24.7121 17.531C25.0097 17.2334 25.4921 17.2334 25.7892 17.531L26.5956 18.3369L28.3506 16.5819L28.3587 16.5738C28.6563 16.2767 29.1388 16.2767 29.4358 16.5738C29.7334 16.8714 29.7334 17.3538 29.4358 17.6514Z" fill="#B892FF"></path><path d="M24.3961 25.3828H21.6238L20.9511 23.3648C20.8475 23.0535 20.5565 22.8438 20.2285 22.8438H13.4746C13.1465 22.8438 12.8555 23.0535 12.7519 23.3648L12.0793 25.3828H9.30699C8.03492 25.3828 7 26.4177 7 27.6898V28.1758C7 28.5962 7.34125 28.9375 7.76172 28.9375H25.9414C26.3619 28.9375 26.7031 28.5962 26.7031 28.1758V27.6898C26.7031 26.4177 25.6682 25.3828 24.3961 25.3828Z" fill="#B892FF"></path></g><defs><linearGradient id="paint0_linear_3237_17083" x1="-28" y1="-115" x2="14" y2="18.5" gradientUnits="userSpaceOnUse"><stop stop-color="white" stop-opacity="0.06"></stop><stop offset="1" stop-color="#B892FF" stop-opacity="0.5"></stop></linearGradient><clipPath id="clip0_3237_17083"><rect width="26" height="26" fill="white" transform="translate(7 7)"></rect></clipPath></defs></svg>