<svg width="25" height="24" viewBox="0 0 25 24" fill="none" xmlns="http://www.w3.org/2000/svg">
<path d="M16.9766 7.5C16.9766 6.40598 16.542 5.35677 15.7684 4.58318C14.9948 3.8096 13.9456 3.375 12.8516 3.375C11.7575 3.375 10.7083 3.8096 9.93475 4.58318C9.16116 5.35677 8.72656 6.40598 8.72656 7.5V8.34375H9.17281C10.9115 8.34251 12.595 7.73306 13.9316 6.621C14.043 6.52811 14.1821 6.47478 14.3271 6.46935C14.4721 6.46393 14.6148 6.5067 14.7329 6.591L16.9766 8.19375V7.5Z" fill="white"/>
<path d="M18.9453 7.5V7.59375H20.2578V7.5C20.2578 5.53574 19.4775 3.65193 18.0886 2.26299C16.6996 0.874049 14.8158 0.09375 12.8516 0.09375C10.8873 0.09375 9.00349 0.874049 7.61455 2.26299C6.22561 3.65193 5.44531 5.53574 5.44531 7.5V7.59375H6.75781V7.5C6.75781 5.88384 7.39983 4.33387 8.54263 3.19107C9.68543 2.04827 11.2354 1.40625 12.8516 1.40625C14.4677 1.40625 16.0177 2.04827 17.1605 3.19107C18.3033 4.33387 18.9453 5.88384 18.9453 7.5Z" fill="white"/>
<path d="M3.19531 23.2494C3.19541 23.4234 3.26458 23.5903 3.38763 23.7133C3.51068 23.8364 3.67754 23.9055 3.85156 23.9056H21.8516C22.0256 23.9055 22.1924 23.8364 22.3155 23.7133C22.4385 23.5903 22.5077 23.4234 22.5078 23.2494V21.8041C22.5074 21.0794 22.2672 20.3752 21.8248 19.8012C21.3823 19.2273 20.7624 18.8158 20.0617 18.6309L16.0391 17.5723V18.2806C16.0391 19.126 15.7032 19.9368 15.1055 20.5345C14.5077 21.1323 13.6969 21.4681 12.8516 21.4681C12.0062 21.4681 11.1954 21.1323 10.5977 20.5345C9.99989 19.9368 9.66406 19.126 9.66406 18.2806V17.5723L5.64144 18.6309C4.9407 18.8158 4.32081 19.2273 3.87836 19.8012C3.4359 20.3752 3.19575 21.0794 3.19531 21.8041V23.2494Z" fill="white"/>
<path d="M10.9766 17.1035V18.2806C10.9766 18.7779 11.1741 19.2548 11.5257 19.6065C11.8774 19.9581 12.3543 20.1556 12.8516 20.1556C13.3488 20.1556 13.8258 19.9581 14.1774 19.6065C14.529 19.2548 14.7266 18.7779 14.7266 18.2806V17.1035C13.5161 17.548 12.187 17.548 10.9766 17.1035Z" fill="white"/>
<path d="M5.44531 8.90625V11.1562C5.44531 11.4546 5.56384 11.7408 5.77482 11.9517C5.9858 12.1627 6.27194 12.2812 6.57031 12.2812H7.41406V8.90625H5.44531Z" fill="white"/>
<path d="M13.3203 14.2506C13.3204 14.0765 13.3896 13.9097 13.5126 13.7866C13.6357 13.6636 13.8025 13.5944 13.9766 13.5943H16.6571C16.8687 13.0897 16.9773 12.5478 16.9766 12.0006V9.80719L14.3699 7.94531C12.8646 9.05574 11.0434 9.65547 9.17281 9.65681H8.72656V12.0006C8.72658 12.8177 8.96927 13.6163 9.42384 14.2953C9.87842 14.9743 10.5244 15.503 11.2799 15.8143C12.0353 16.1256 12.8662 16.2056 13.6672 16.044C14.4682 15.8825 15.2031 15.4867 15.7788 14.9068H13.9766C13.8025 14.9067 13.6357 14.8375 13.5126 14.7145C13.3896 14.5914 13.3204 14.4246 13.3203 14.2506Z" fill="white"/>
<path d="M18.2895 8.90625V12.2812H18.9458V12.75C18.9456 12.9737 18.8566 13.1882 18.6984 13.3464C18.5403 13.5046 18.3258 13.5936 18.102 13.5938H16.6575C16.4521 14.0837 16.1538 14.5294 15.7793 14.9062H18.102C18.6737 14.9056 19.2218 14.6782 19.626 14.2739C20.0302 13.8697 20.2576 13.3217 20.2583 12.75V8.90625H18.2895Z" fill="white"/>
</svg>
