<svg xmlns="http://www.w3.org/2000/svg" width="40" height="40" viewBox="0 0 40 40" fill="none"><rect width="40" height="40" rx="10" fill="url(#paint0_linear_3237_17049)" fill-opacity="0.4"></rect><g clip-path="url(#clip0_3237_17049)"><path d="M20.0257 31.3207L9.48874 25.2164L7.85938 25.9516L20.0257 32.9998L32.18 25.9585L30.5651 25.2148L20.0257 31.3207Z" fill="#FF8A7A"></path><path d="M20.0334 29.6184L32.186 22.5781L30.5733 21.8332L20.0334 27.9393L9.49313 21.833L7.88281 22.5793L20.0334 29.6184Z" fill="#FF8A7A"></path><path d="M24.3438 20.4745L27.1746 22.1001L32.0534 19.2736L27.0873 16.3965C26.5357 17.6672 25.6627 18.9822 24.4713 20.3314C24.4288 20.3796 24.3864 20.4272 24.3438 20.4745Z" fill="#FF8A7A"></path><path d="M25.6567 22.9786L23.2609 21.6027C22.2496 22.5936 21.4474 23.2188 21.4016 23.2543L20.049 24.3031L18.683 23.271C18.5668 23.1831 17.77 22.5723 16.7716 21.6025L14.3906 22.9699L20.0313 26.2377L25.6567 22.9786Z" fill="#FF8A7A"></path><path d="M12.8713 22.0912L15.6833 20.4765C15.6544 20.4444 15.6254 20.4124 15.5964 20.3799C14.391 19.0265 13.5106 17.698 12.959 16.4053L8.00781 19.2736L12.8713 22.0912Z" fill="#FF8A7A"></path><path d="M16.6972 19.4001C18.1125 20.9888 19.5112 22.0517 19.5701 22.0963L20.0367 22.4488L20.4989 22.0904C20.5576 22.0449 21.9535 20.9569 23.3664 19.3565C25.3259 17.1374 26.3193 15.0857 26.3193 13.2584C26.3193 9.80745 23.4983 7 20.0307 7C16.5631 7 13.7422 9.80745 13.7422 13.2584C13.7422 15.1323 14.7364 17.1985 16.6972 19.4001ZM17.4034 13.6438C18.0667 12.9253 19.0018 12.5165 19.9772 12.5165C19.9964 12.5165 20.0157 12.5167 20.0349 12.5171C21.0311 12.5336 21.9759 12.9757 22.6275 13.7305L21.472 14.7186C21.1039 14.2921 20.5709 14.0423 20.0095 14.033C19.4465 14.0231 18.9072 14.2558 18.5251 14.6696L17.4034 13.6438ZM19.9768 15.9954L18.9502 15.057C19.2198 14.7648 19.6031 14.6033 20 14.6077C20.3975 14.6142 20.7744 14.7908 21.0341 15.0917L19.9768 15.9954ZM20.0694 10.4599C21.6549 10.4863 23.1587 11.19 24.1956 12.3907L23.0401 13.379C22.2867 12.5064 21.1947 11.995 20.044 11.9758C18.8919 11.9557 17.7849 12.4316 17.0025 13.2788L15.8808 12.2529C16.9573 11.0871 18.4849 10.4345 20.0694 10.4599Z" fill="#FF8A7A"></path></g><defs><linearGradient id="paint0_linear_3237_17049" x1="-32.5" y1="-71" x2="20" y2="40" gradientUnits="userSpaceOnUse"><stop stop-color="white" stop-opacity="0.06"></stop><stop offset="1" stop-color="#FF8A7A" stop-opacity="0.5"></stop></linearGradient><clipPath id="clip0_3237_17049"><rect width="26" height="26" fill="white" transform="translate(7 7)"></rect></clipPath></defs></svg>