<svg width="40" height="40" viewBox="0 0 40 40" fill="none" xmlns="http://www.w3.org/2000/svg">
<rect width="40" height="40" rx="20" fill="url(#paint0_linear_1835_27786)"/>
<path d="M24.8866 30.4332C24.8866 30.6723 24.691 30.8679 24.4519 30.8679H15.5402C15.2967 30.8679 15.1055 30.6723 15.1055 30.4332C15.1055 30.1941 15.2967 29.9985 15.5402 29.9985H16.2792C17.8703 28.8247 18.1224 28.2379 17.8529 27.5728H22.1305C21.8653 28.2379 22.1218 28.8247 23.7085 29.9985H24.4519C24.691 29.9985 24.8866 30.1941 24.8866 30.4332Z" fill="white"/>
<path d="M9.62891 23.9768V24.6689C9.62891 25.7904 10.5418 26.7033 11.6677 26.7033H28.3348C29.4607 26.7033 30.3736 25.7904 30.3736 24.6645V23.9741L9.62891 23.9768ZM18.0838 25.7734C17.8437 25.7734 17.6469 25.5788 17.6469 25.3387C17.6469 25.0986 17.8393 24.904 18.0793 24.904H18.0838C18.3239 24.904 18.5185 25.0986 18.5185 25.3387C18.5185 25.5788 18.3239 25.7734 18.0838 25.7734ZM19.9986 25.7734C19.7585 25.7734 19.5616 25.5788 19.5616 25.3387C19.5616 25.0986 19.7539 24.904 19.994 24.904H19.9986C20.2387 24.904 20.4333 25.0986 20.4333 25.3387C20.4333 25.5788 20.2387 25.7734 19.9986 25.7734ZM21.9132 25.7734C21.6732 25.7734 21.4762 25.5788 21.4762 25.3387C21.4762 25.0986 21.6687 24.904 21.9088 24.904H21.9132C22.1533 24.904 22.348 25.0986 22.348 25.3387C22.348 25.5788 22.1533 25.7734 21.9132 25.7734Z" fill="white"/>
<path d="M28.3348 9.13208H11.6721C10.5462 9.13208 9.62891 10.0494 9.62891 11.1709V23.1082L30.3736 23.1039V11.1709C30.3736 10.0494 29.4607 9.13208 28.3348 9.13208ZM25.996 17.2265L24.8266 18.1786C24.6484 18.322 24.3571 18.2916 24.2137 18.1177L23.2616 16.944C23.1138 16.757 23.1399 16.4832 23.3268 16.3353C23.5138 16.1832 23.7876 16.2093 23.9398 16.3962L24.2658 16.8005C24.2702 16.7179 24.2788 16.6353 24.2788 16.5527C24.2788 15.392 23.8615 14.3226 23.1703 13.4967L23.0269 13.6401C22.8573 13.8096 22.5791 13.8096 22.4096 13.6401C22.24 13.4706 22.24 13.1967 22.4096 13.0272L22.5574 12.8794C21.8314 12.2751 20.9228 11.8838 19.9317 11.7926V11.9969C19.9317 12.2403 19.7361 12.4316 19.497 12.4316C19.2579 12.4316 19.0623 12.2403 19.0623 11.9969V11.7926C18.0711 11.8838 17.1626 12.2751 16.4409 12.8794L16.5844 13.0272C16.7539 13.1967 16.7539 13.4706 16.5844 13.6401C16.4148 13.8096 16.141 13.8096 15.9714 13.6401L15.8236 13.4967C15.2194 14.2183 14.8281 15.1268 14.7368 16.118H14.9455C15.1846 16.118 15.3802 16.3136 15.3802 16.5527C15.3802 16.7918 15.1846 16.9874 14.9455 16.9874H14.7368C14.8281 17.9786 15.2194 18.8871 15.8236 19.6131L15.9714 19.4653C16.141 19.2958 16.4148 19.2958 16.5844 19.4653C16.7539 19.6349 16.7539 19.9131 16.5844 20.0826L16.4409 20.2261C17.1626 20.8303 18.0711 21.2259 19.0623 21.3129V21.1086C19.0623 20.8694 19.2579 20.6738 19.497 20.6738C19.7361 20.6738 19.9317 20.8694 19.9317 21.1086V21.3085C20.9011 21.2216 21.814 20.839 22.553 20.2217L22.4096 20.0826C22.24 19.9131 22.24 19.6349 22.4096 19.4653C22.5791 19.2958 22.8573 19.2958 23.0269 19.4653L23.166 19.6088C23.2616 19.4957 23.3572 19.3784 23.4442 19.2567C23.579 19.0567 23.8485 19.0045 24.0485 19.1436C24.2441 19.2784 24.2963 19.5479 24.1615 19.7479C23.1356 21.239 21.3793 22.204 19.497 22.204C16.3975 22.204 13.8457 19.6827 13.8457 16.5527C13.8457 13.4532 16.367 10.9014 19.497 10.9014C22.6008 10.9014 25.1483 13.4228 25.1483 16.5527C25.1483 16.6397 25.1396 16.7222 25.1353 16.8092L25.4482 16.5527C25.6352 16.4006 25.909 16.4266 26.0612 16.6136C26.2133 16.8005 26.1829 17.0744 25.996 17.2265ZM21.8357 14.9704V18.1351C21.8357 18.3785 21.6401 18.5698 21.401 18.5698C21.1619 18.5698 20.9663 18.3785 20.9663 18.1351V14.9704C20.9663 14.7312 21.1619 14.5356 21.401 14.5356C21.6401 14.5356 21.8357 14.7312 21.8357 14.9704ZM19.9317 15.9398V18.1351C19.9317 18.3785 19.7361 18.5698 19.497 18.5698C19.2579 18.5698 19.0623 18.3785 19.0623 18.1351V15.9398C19.0623 15.7007 19.2579 15.505 19.497 15.505C19.7361 15.505 19.9317 15.7007 19.9317 15.9398ZM18.0276 16.9135V18.1351C18.0276 18.3785 17.832 18.5698 17.5929 18.5698C17.3538 18.5698 17.1582 18.3785 17.1582 18.1351V16.9135C17.1582 16.6701 17.3538 16.4788 17.5929 16.4788C17.832 16.4788 18.0276 16.6701 18.0276 16.9135Z" fill="white"/>
<defs>
<linearGradient id="paint0_linear_1835_27786" x1="38.9781" y1="56.625" x2="-5.74477" y2="51.3473" gradientUnits="userSpaceOnUse">
<stop stop-color="#2E96FF"/>
<stop offset="1" stop-color="#015CB8"/>
</linearGradient>
</defs>
</svg>
