<svg width="40" height="40" viewBox="0 0 40 40" fill="none" xmlns="http://www.w3.org/2000/svg">
<rect width="40" height="40" rx="20" fill="url(#paint0_linear_1835_27748)"/>
<path d="M17.7485 15.1328C17.7485 13.6833 16.571 12.5042 15.1235 12.5042C11.6459 12.6362 11.6468 17.6299 15.1235 17.7615C16.571 17.7615 17.7485 16.5823 17.7485 15.1328ZM14.7485 15.1328V13.8185C14.758 13.3256 15.489 13.3248 15.4985 13.8185C15.4985 13.8185 15.4985 14.7573 15.4985 14.7573H16.061C16.2672 14.7573 16.436 14.9263 16.436 15.1328C16.436 15.3393 16.2672 15.5083 16.061 15.5083H15.1235C14.9173 15.5083 14.7485 15.3393 14.7485 15.1328Z" fill="white"/>
<path d="M14.06 20.7656H16.19C16.37 20.7656 16.5275 20.6342 16.5575 20.4502C16.6327 19.8739 17.3974 19.5443 17.8663 19.9094C18.0163 20.0146 18.2225 19.9995 18.35 19.8681L19.8538 18.3623C19.985 18.2346 20 18.0281 19.895 17.8779C19.7263 17.645 19.6963 17.3484 19.8125 17.0667C19.9213 16.8001 20.1537 16.6161 20.435 16.5673C20.6188 16.5373 20.75 16.3795 20.75 16.1993V14.0663C20.75 13.8861 20.6188 13.7284 20.435 13.6983C20.1537 13.6495 19.9212 13.4655 19.805 13.1839C19.6963 12.9172 19.7263 12.6206 19.895 12.3878C20 12.2375 19.985 12.031 19.8538 11.9033L18.35 10.3975C18.2225 10.2661 18.0163 10.251 17.8663 10.3562C17.6338 10.5252 17.3375 10.5552 17.0563 10.4388C16.79 10.3299 16.6063 10.0971 16.5575 9.81542C16.5275 9.63142 16.37 9.5 16.19 9.5H14.06C13.88 9.5 13.7225 9.63142 13.6925 9.81542C13.6438 10.0971 13.46 10.3299 13.1788 10.4463C12.9125 10.5552 12.6163 10.5252 12.3838 10.3562C12.2337 10.251 12.0275 10.2661 11.9 10.3975L10.3963 11.9033C10.265 12.031 10.25 12.2375 10.355 12.3878C10.7121 12.8468 10.4017 13.6209 9.81499 13.6983C9.63124 13.7284 9.5 13.8861 9.5 14.0663V16.1993C9.5 16.3796 9.63124 16.5373 9.81501 16.5673C10.0963 16.6161 10.3288 16.8001 10.445 17.0818C10.5538 17.3484 10.5237 17.6451 10.355 17.8779C10.25 18.0281 10.265 18.2346 10.3963 18.3623L11.9 19.8681C12.0275 19.9996 12.2337 20.0146 12.3838 19.9094C12.6163 19.7404 12.9162 19.7104 13.1937 19.8268C13.46 19.9357 13.6437 20.1685 13.6925 20.4502C13.7225 20.6342 13.88 20.7656 14.06 20.7656ZM11.75 15.1328C11.75 13.2702 13.265 11.7531 15.125 11.7531C19.603 11.9424 19.6017 18.3239 15.125 18.5125C13.265 18.5125 11.75 16.9954 11.75 15.1328Z" fill="white"/>
<path d="M27.2681 22.5382C25.2246 20.3559 21.4722 21.9193 21.5006 24.8965C21.4638 26.7099 23.0646 28.3132 24.8756 28.2762C27.8253 28.3071 29.3959 24.5899 27.2681 22.5382ZM24.6468 24.521H25.1043C26.4094 24.5449 26.5361 26.4296 25.2506 26.6276C25.34 27.3111 24.4263 27.3295 24.5006 26.6426H23.9643C23.7543 26.6426 23.5893 26.4737 23.5893 26.2671C23.5893 26.0606 23.7543 25.8916 23.9643 25.8916H25.1043C25.5101 25.8833 25.5064 25.2793 25.1043 25.272H24.6469C23.3419 25.2481 23.215 23.3634 24.5006 23.1653C24.4112 22.4819 25.3249 22.4635 25.2506 23.1503H25.7868C25.9968 23.1503 26.1618 23.3193 26.1618 23.5258C26.1618 23.7324 25.9968 23.9013 25.7868 23.9013H24.6468C24.241 23.9097 24.2448 24.5137 24.6468 24.521Z" fill="white"/>
<path d="M24.875 19.2637C21.7737 19.2637 19.25 21.7909 19.25 24.8965C19.5595 32.3691 30.1916 32.3669 30.5 24.8964C30.5 21.7909 27.9763 19.2637 24.875 19.2637ZM24.875 29.0272C22.6573 29.0741 20.7029 27.1175 20.75 24.8965C20.7183 21.2455 25.2925 19.3623 27.8 22.0088C30.3942 24.5173 28.4891 29.0664 24.875 29.0272Z" fill="white"/>
<path d="M19.0686 28.6516H16.9986C16.1715 28.6516 15.4986 27.9778 15.4986 27.1496V23.1743L15.9834 23.6599C16.3315 24.0062 16.859 23.4769 16.5137 23.1288C16.5137 23.1288 15.3888 22.0024 15.3888 22.0024C15.2496 21.8578 14.9976 21.8574 14.8583 22.0024C14.8583 22.0024 13.7334 23.1288 13.7334 23.1288C13.3889 23.4785 13.9149 24.0052 14.2637 23.6598C14.2637 23.6599 14.7486 23.1743 14.7486 23.1743V27.1496C14.7486 28.392 15.7578 29.4027 16.9986 29.4027H19.0686C19.5603 29.3929 19.5629 28.6613 19.0686 28.6516Z" fill="white"/>
<path d="M21.0573 11.3775H22.9999C23.8269 11.3775 24.4999 12.0514 24.4999 12.8796V16.8548L24.015 16.3693C23.667 16.023 23.1394 16.5522 23.4847 16.9003C23.4847 16.9003 24.6096 18.0268 24.6096 18.0268C24.749 18.1716 25.0007 18.1721 25.1401 18.0268C25.1401 18.0268 26.265 16.9003 26.265 16.9003C26.6096 16.5507 26.0835 16.0239 25.7347 16.3693C25.7347 16.3693 25.2499 16.8548 25.2499 16.8548V12.8796C25.2499 11.6371 24.2406 10.6265 22.9999 10.6265H21.0573C20.5655 10.6363 20.563 11.3678 21.0573 11.3775Z" fill="white"/>
<defs>
<linearGradient id="paint0_linear_1835_27748" x1="38.9781" y1="56.625" x2="-5.74477" y2="51.3473" gradientUnits="userSpaceOnUse">
<stop stop-color="#2E96FF"/>
<stop offset="1" stop-color="#015CB8"/>
</linearGradient>
</defs>
</svg>
