<svg width="40" height="40" viewBox="0 0 40 40" fill="none" xmlns="http://www.w3.org/2000/svg">
<rect width="40" height="40" rx="20" fill="url(#paint0_linear_1835_27768)"/>
<path fill-rule="evenodd" clip-rule="evenodd" d="M20.4036 18.8921V10.684C20.4036 9.90828 20.0782 9.15787 19.5113 8.62525C18.9988 8.14379 18.3501 7.90174 17.6841 7.94392C16.5967 8.01195 15.7329 8.66533 15.3464 9.68047C15.6965 9.67678 16.052 9.72002 16.4027 9.81283C16.5719 9.85765 16.6727 10.0306 16.6278 10.1994C16.5835 10.3687 16.4106 10.4694 16.2413 10.4245C15.2035 10.1509 14.1251 10.3892 13.3557 11.0626C12.6511 11.6802 12.3089 12.5693 12.4112 13.4842C13.0324 13.3102 13.7981 13.2485 14.6898 13.4631C14.8596 13.5042 14.9646 13.6746 14.9235 13.8449C14.8828 14.0147 14.712 14.1196 14.5417 14.0785C12.1238 13.4974 10.5449 15.1453 10.1183 16.3208C9.77552 17.2642 9.9063 18.4449 10.459 19.4026C10.951 20.2542 11.7045 20.809 12.5799 20.9635C12.7519 20.9941 12.8668 21.1581 12.8362 21.33C12.8093 21.4835 12.6759 21.5916 12.5251 21.5916C12.5066 21.5916 12.4882 21.59 12.4697 21.5868C12.2894 21.5552 12.1138 21.5083 11.9429 21.4492C11.2336 22.1063 10.9673 22.9247 11.057 24.1476C11.1123 24.9075 11.8343 26.0318 12.4908 26.2633C12.7508 25.813 13.1605 25.3953 13.719 25.0161C13.8635 24.9181 14.0602 24.9555 14.1583 25.1C14.2569 25.2445 14.2189 25.4412 14.0744 25.5393C13.2919 26.0714 12.8615 26.6662 12.7961 27.3069C12.7028 28.2124 13.3456 28.9544 13.545 29.16C13.7649 29.3878 14.5448 29.8603 15.4265 29.7818C16.1316 29.7195 16.7344 29.3235 17.2185 28.6047C17.316 28.4597 17.5127 28.4212 17.6577 28.5188C17.8022 28.6163 17.8407 28.813 17.7432 28.958C17.403 29.4632 16.997 29.844 16.5429 30.0908C16.6052 30.9414 16.9922 31.9043 18.3807 32.0799C18.8295 32.1363 19.2841 31.9845 19.6611 31.6522C20.1262 31.2425 20.4036 30.6303 20.4036 30.0143V19.5291C19.2819 19.6689 18.3986 20.134 17.7105 20.9466C17.6482 21.0205 17.5586 21.0584 17.4689 21.0584C17.3967 21.0584 17.3239 21.0336 17.2649 20.9836C17.1314 20.8707 17.1146 20.6714 17.2274 20.5374C18.0279 19.5924 19.0968 19.0398 20.4036 18.8921ZM25.2103 28.0199L23.2586 25.9548C23.1985 25.8915 23.1157 25.8557 23.0287 25.8557H21.047V26.4885H22.8921L24.8797 28.5926L24.2622 29.662C24.2058 29.7601 24.2058 29.8804 24.2622 29.9785L25.232 31.6575C25.2884 31.7551 25.3928 31.8157 25.5057 31.8157H27.4442C27.5576 31.8157 27.662 31.7551 27.7184 31.6575L28.6876 29.9785C28.7441 29.8804 28.7441 29.7601 28.6876 29.662L27.7184 27.983C27.662 27.8854 27.5576 27.8248 27.4442 27.8248H25.5057C25.3928 27.8248 25.2884 27.8854 25.232 27.983L25.2103 28.0199ZM25.9291 25.2767H26.9316L27.8012 23.7706C27.8581 23.673 27.9626 23.6124 28.0754 23.6124H30.0139C30.1268 23.6124 30.2312 23.6725 30.2881 23.7706L31.2574 25.4496C31.3138 25.5477 31.3138 25.6679 31.2574 25.766L30.2881 27.4451C30.2312 27.5432 30.1268 27.6033 30.0139 27.6033H28.0754C27.9626 27.6033 27.8581 27.5432 27.8012 27.4451L26.9147 25.91H25.8015C25.7198 25.91 25.6412 25.8784 25.5821 25.8214L22.7028 23.0502H21.047V22.4174H22.8304C22.9122 22.4174 22.9913 22.449 23.0498 22.506L25.9291 25.2767ZM24.8728 18.196C24.7748 18.1433 24.6561 18.1454 24.5601 18.2029C24.4647 18.2598 24.4061 18.3632 24.4061 18.4745V20.0333H21.0475V20.6661H24.4061V22.2249C24.4061 22.3362 24.4647 22.4395 24.5601 22.4965C24.6102 22.526 24.6661 22.5413 24.7226 22.5413C24.7737 22.5413 24.8259 22.5287 24.8728 22.5034L28.3449 20.6281C28.4472 20.5728 28.511 20.4662 28.511 20.3497C28.511 20.2331 28.4472 20.1266 28.3449 20.0712L24.8728 18.196ZM25.5821 14.0495L22.7034 16.8207H21.047V17.4535H22.8304C22.9122 17.4535 22.9913 17.4219 23.0498 17.3649L25.9291 14.5937H26.9316L27.8012 16.0998C27.8581 16.1979 27.9626 16.258 28.0754 16.258H30.0139C30.1268 16.258 30.2312 16.1979 30.2881 16.0998L31.2574 14.4208C31.3138 14.3232 31.3138 14.2024 31.2574 14.1044L30.2881 12.4253C30.2312 12.3272 30.1268 12.2671 30.0139 12.2671H28.0754C27.9626 12.2671 27.8581 12.3272 27.8012 12.4253L26.9147 13.9604H25.8015C25.7198 13.9609 25.6412 13.9926 25.5821 14.0495ZM21.047 14.0147V13.3819H22.8921L24.8797 11.2783L24.2622 10.2089C24.2058 10.1108 24.2058 9.99054 24.2622 9.89246L25.232 8.21392C25.2884 8.11584 25.3928 8.05572 25.5057 8.05572H27.4442C27.5576 8.05572 27.662 8.11584 27.7184 8.21392L28.6876 9.89246C28.7441 9.99054 28.7441 10.1108 28.6876 10.2089L27.7184 11.8879C27.662 11.986 27.5576 12.0461 27.4442 12.0461H25.5057C25.3928 12.0461 25.2884 11.986 25.232 11.8879L25.2103 11.8505L23.2586 13.9161C23.1985 13.9794 23.1157 14.0152 23.0287 14.0152H21.047V14.0147ZM15.29 26.5354C16.4876 25.2308 17.8687 25.1902 19.2846 26.4178C19.4169 26.5323 19.4312 26.7321 19.3168 26.864C19.2023 26.9958 19.0025 27.01 18.8701 26.8956C17.7105 25.89 16.7212 25.9116 15.7567 26.9626C15.6939 27.0306 15.6085 27.0649 15.523 27.0649C15.4466 27.0649 15.3701 27.0375 15.3095 26.9816C15.1808 26.8645 15.1724 26.6641 15.29 26.5354ZM17.8191 13.268C18.0411 15.0246 17.1794 16.1051 15.3274 16.3925C15.311 16.3946 15.2947 16.3962 15.2789 16.3962C15.1254 16.3962 14.9904 16.2844 14.9662 16.1283C14.9398 15.9559 15.0579 15.794 15.2304 15.7671C16.747 15.5319 17.3703 14.763 17.1916 13.3476C17.1694 13.1741 17.2923 13.0159 17.4658 12.9943C17.6382 12.9721 17.7969 13.095 17.8191 13.268ZM13.5692 19.1168C15.2446 19.6905 15.8358 20.9398 15.2789 22.7291C15.2367 22.8646 15.1117 22.9516 14.9767 22.9516C14.9456 22.9516 14.914 22.9469 14.8823 22.9374C14.7157 22.8857 14.6223 22.708 14.6745 22.5413C15.1307 21.0758 14.7141 20.1778 13.3646 19.7158C13.199 19.6594 13.111 19.4796 13.1674 19.314C13.2243 19.1484 13.4042 19.0603 13.5692 19.1168Z" fill="white"/>
<defs>
<linearGradient id="paint0_linear_1835_27768" x1="38.9781" y1="56.625" x2="-5.74477" y2="51.3473" gradientUnits="userSpaceOnUse">
<stop stop-color="#2E96FF"/>
<stop offset="1" stop-color="#015CB8"/>
</linearGradient>
</defs>
</svg>
