<svg width="40" height="40" viewBox="0 0 40 40" fill="none" xmlns="http://www.w3.org/2000/svg">
<rect width="40" height="40" rx="20" fill="url(#paint0_linear_1835_27760)"/>
<path d="M9.25 13.25V13C9.25 10.9326 10.9326 9.25 13 9.25H27C29.0674 9.25 30.75 10.9326 30.75 13V13.25H9.25ZM9.25 14.75V23C9.25 24.79 10.51 26.29 12.19 26.66C11.91 25.83 11.75 24.93 11.75 24C11.75 19.45 15.45 15.75 20 15.75C24.55 15.75 28.25 19.45 28.25 24C28.25 24.93 28.09 25.83 27.81 26.66C29.49 26.29 30.75 24.79 30.75 23V14.75H9.25ZM26.75 24C26.75 27.7217 23.7217 30.75 20 30.75C16.2783 30.75 13.25 27.7217 13.25 24C13.25 20.2783 16.2783 17.25 20 17.25C23.7217 17.25 26.75 20.2783 26.75 24ZM22.5303 22.2197C22.2373 21.9267 21.7627 21.9267 21.4698 22.2197L19.5001 24.1894L18.5304 23.2197C18.2374 22.9267 17.7628 22.9267 17.4699 23.2197C17.177 23.5127 17.1769 23.9873 17.4699 24.2802L18.9699 25.7802C19.1164 25.9267 19.3078 25.9999 19.5002 25.9999C19.6926 25.9999 19.884 25.9267 20.0305 25.7802L22.5305 23.2802C22.8235 22.9872 22.8233 22.5126 22.5303 22.2197Z" fill="white"/>
<defs>
<linearGradient id="paint0_linear_1835_27760" x1="38.9781" y1="56.625" x2="-5.74477" y2="51.3473" gradientUnits="userSpaceOnUse">
<stop stop-color="#2E96FF"/>
<stop offset="1" stop-color="#015CB8"/>
</linearGradient>
</defs>
</svg>
