<svg width="40" height="40" viewBox="0 0 40 40" fill="none" xmlns="http://www.w3.org/2000/svg">
<rect width="40" height="40" rx="20" fill="url(#paint0_linear_1835_27775)"/>
<path d="M16.4406 26.6857H14.0781L19.9998 32.9136L25.9216 26.6857H23.5591C23.3373 26.6857 23.1466 26.5306 23.1002 26.3145L20.3134 13.1796L19.9998 11.7021L19.6862 13.1796L16.8995 26.3145C16.8531 26.5311 16.6623 26.6857 16.4406 26.6857ZM19.1833 25.7478H20.8164C21.0756 25.7478 21.2852 25.9578 21.2852 26.2165C21.2852 26.4753 21.0756 26.6853 20.8164 26.6853H19.1833C18.9241 26.6853 18.7145 26.4753 18.7145 26.2165C18.7145 25.9578 18.9241 25.7478 19.1833 25.7478Z" fill="white"/>
<path d="M27.35 12.9819H26.3202C26.1092 12.9819 25.9241 12.8408 25.8683 12.6374C25.7309 12.1372 25.5303 11.6558 25.2725 11.2063C25.167 11.0225 25.198 10.7914 25.3475 10.6414L26.0778 9.91111L24.3172 8.14768L23.5836 8.88174C23.4327 9.03314 23.1983 9.06268 23.0145 8.95439C22.5861 8.70221 22.107 8.50299 21.5923 8.36143C21.3884 8.30564 21.2478 8.12049 21.2478 7.90955V6.87549H18.7508V7.90955C18.7508 8.12143 18.6083 8.30705 18.4039 8.36189C18.117 8.43971 17.8231 8.54564 17.5306 8.67783C17.3131 8.77533 17.1397 8.86346 16.9841 8.95486C16.7994 9.06268 16.565 9.03314 16.4145 8.88127L15.6842 8.14861L13.9203 9.91205L14.6506 10.6424C14.7992 10.791 14.8311 11.0211 14.7275 11.2044C14.4631 11.6722 14.2639 12.1536 14.135 12.635C14.0806 12.8403 13.8945 12.9828 13.6822 12.9828H12.6523V15.4714H13.6822C13.8945 15.4714 14.0806 15.6139 14.135 15.8192C14.2634 16.3011 14.4631 16.7825 14.727 17.2494C14.8311 17.4327 14.7992 17.6628 14.6506 17.8114L13.9203 18.5417L15.6847 20.3061L16.415 19.5758C16.5636 19.4263 16.7952 19.3958 16.9784 19.4999C17.0998 19.5692 17.2227 19.6339 17.3469 19.6939L17.7664 17.7181C17.7336 17.6971 17.7055 17.6717 17.6736 17.6497C17.6075 17.6042 17.5438 17.5564 17.4809 17.5081C17.3994 17.4453 17.3202 17.3806 17.2442 17.3127C17.1852 17.2597 17.1284 17.2058 17.0727 17.1496C17.0009 17.0774 16.9325 17.0028 16.8664 16.926C16.8153 16.8664 16.7652 16.8069 16.7178 16.745C16.6559 16.6639 16.5987 16.58 16.5425 16.4947C16.5003 16.4305 16.4581 16.3667 16.4197 16.3002C16.3677 16.2102 16.3222 16.1169 16.2767 16.0231C16.2444 15.9556 16.2102 15.8896 16.1816 15.8206C16.1398 15.7203 16.1066 15.6172 16.0728 15.5136C16.0508 15.4461 16.0255 15.3805 16.0072 15.3116C15.9758 15.1953 15.9547 15.0758 15.9331 14.9563C15.9228 14.8972 15.9073 14.8396 15.8994 14.7796C15.8755 14.5986 15.8619 14.4153 15.8619 14.2297C15.8619 12.0477 17.5634 10.2313 19.7361 10.0944H19.7398H19.7408C19.9147 10.085 20.0905 10.085 20.2644 10.0944H20.2681H20.2691C22.1698 10.2139 23.7102 11.6197 24.0659 13.4314C24.1166 13.6902 24.1433 13.9574 24.1433 14.2302C24.1433 14.4158 24.1297 14.5991 24.1058 14.78C24.0978 14.8396 24.0823 14.8972 24.072 14.9558C24.0509 15.0758 24.0294 15.1953 23.998 15.3121C23.9797 15.3805 23.9544 15.4461 23.9323 15.5136C23.8986 15.6172 23.8648 15.7208 23.8231 15.8211C23.7945 15.8905 23.7603 15.9566 23.728 16.0236C23.683 16.1174 23.637 16.2106 23.585 16.3006C23.5466 16.3672 23.5044 16.431 23.4622 16.4952C23.4064 16.5805 23.3492 16.6644 23.2869 16.7455C23.2395 16.8074 23.1894 16.8669 23.1388 16.9264C23.0727 17.0033 23.0042 17.0783 22.932 17.1505C22.8762 17.2063 22.8195 17.2602 22.7605 17.3131C22.6845 17.3816 22.6053 17.4458 22.5238 17.5091C22.4605 17.5578 22.3972 17.6056 22.3311 17.6506C22.2992 17.6722 22.2706 17.698 22.2383 17.7191L22.6578 19.6949C22.7797 19.6358 22.9002 19.5711 23.0197 19.5022C23.0928 19.46 23.1734 19.4394 23.2541 19.4394C23.375 19.4394 23.495 19.4863 23.585 19.5763L24.3186 20.3075L26.0797 18.5431L25.3494 17.8128C25.2003 17.6633 25.1689 17.4327 25.2739 17.2489C25.4295 16.9761 25.5486 16.7296 25.6381 16.4942C25.6395 16.4905 25.6409 16.4867 25.6428 16.4835C25.7225 16.2889 25.797 16.0696 25.8711 15.8122C25.9287 15.6111 26.1125 15.4728 26.3216 15.4728H27.3514V12.9842L27.35 12.9819Z" fill="white"/>
<path d="M19.1622 11.1321C19.1622 11.1321 19.1608 11.1325 19.1598 11.133C18.9986 11.1766 18.8439 11.2343 18.6939 11.3013C18.6813 11.3069 18.6681 11.3116 18.6559 11.3177C18.5134 11.3838 18.3775 11.4616 18.2472 11.5474C18.228 11.56 18.2088 11.5727 18.19 11.5854C18.0634 11.6725 17.9434 11.7677 17.8309 11.8718C17.8159 11.8858 17.8014 11.9008 17.7869 11.9149C17.6725 12.0246 17.5647 12.1408 17.4677 12.266C17.4662 12.2674 17.4653 12.2693 17.4644 12.2707C17.3687 12.3949 17.2844 12.5275 17.2075 12.6649C17.1972 12.6832 17.1859 12.7005 17.1761 12.7193C17.1048 12.8529 17.0439 12.9921 16.9919 13.136C16.982 13.1627 16.9727 13.1894 16.9638 13.2166C16.9155 13.3615 16.8766 13.51 16.8489 13.6624C16.8447 13.6863 16.8419 13.7107 16.8386 13.7346C16.8133 13.8958 16.7969 14.0604 16.7969 14.2286C16.7969 14.366 16.8077 14.5015 16.825 14.6355C16.8306 14.6782 16.8395 14.7199 16.8466 14.7621C16.862 14.8535 16.8798 14.9444 16.9033 15.0335C16.9155 15.0799 16.9291 15.1258 16.9431 15.1718C16.9694 15.2566 16.9989 15.34 17.0322 15.4221C17.0495 15.4647 17.0659 15.5079 17.0847 15.5496C17.1259 15.641 17.1728 15.7296 17.2225 15.8168C17.2384 15.8449 17.252 15.8744 17.2689 15.9016C17.3373 16.0141 17.4133 16.1219 17.4953 16.225C17.5159 16.2508 17.5389 16.2738 17.5605 16.2991C17.6247 16.375 17.6917 16.4491 17.7634 16.5194C17.7977 16.5532 17.8342 16.5846 17.8698 16.6165C17.9055 16.6483 17.943 16.6774 17.98 16.7074L19.1467 11.209L19.1631 11.1325L19.1622 11.1321Z" fill="white"/>
<path d="M22.1317 16.616C22.1673 16.5842 22.2039 16.5523 22.2381 16.519C22.3098 16.4487 22.3769 16.3751 22.4411 16.2987C22.4622 16.2738 22.4856 16.2504 22.5063 16.2246C22.5883 16.1215 22.6637 16.0132 22.7327 15.9012C22.7495 15.8735 22.7631 15.8445 22.7791 15.8163C22.8287 15.7292 22.8756 15.6406 22.9169 15.5492C22.9356 15.5074 22.9525 15.4643 22.9694 15.4217C23.0022 15.3396 23.0322 15.2562 23.0584 15.1713C23.0725 15.1254 23.0861 15.0795 23.0983 15.0331C23.1213 14.944 23.1395 14.8531 23.155 14.7617C23.162 14.7195 23.1709 14.6777 23.1766 14.6351C23.1934 14.501 23.2047 14.3656 23.2047 14.2282C23.2047 14.0604 23.1883 13.8959 23.163 13.7346C23.1592 13.7107 23.1564 13.6859 23.1522 13.662C23.125 13.5096 23.0856 13.361 23.0378 13.2167C23.0289 13.1895 23.0191 13.1623 23.0092 13.1351C22.9572 12.9921 22.8967 12.8529 22.8259 12.7202C22.8156 12.7006 22.8034 12.6818 22.7927 12.6626C22.7172 12.5285 22.6347 12.3987 22.5414 12.2773C22.5381 12.2731 22.5353 12.2684 22.5325 12.2646C22.4373 12.1418 22.3314 12.0284 22.2203 11.921C22.2025 11.9037 22.1852 11.8859 22.1669 11.869C22.0577 11.7682 21.9405 11.6754 21.8177 11.5906C21.7942 11.5746 21.7708 11.5587 21.7469 11.5432C21.6208 11.4607 21.4891 11.3852 21.3512 11.321C21.333 11.3126 21.3138 11.3056 21.295 11.2971C21.1544 11.2348 21.0095 11.1809 20.8591 11.1392C20.8525 11.1373 20.8464 11.1349 20.8398 11.1331L20.8558 11.2085L22.0225 16.707C22.0595 16.677 22.097 16.6474 22.1327 16.616H22.1317Z" fill="white"/>
<defs>
<linearGradient id="paint0_linear_1835_27775" x1="38.9781" y1="56.625" x2="-5.74477" y2="51.3473" gradientUnits="userSpaceOnUse">
<stop stop-color="#2E96FF"/>
<stop offset="1" stop-color="#015CB8"/>
</linearGradient>
</defs>
</svg>
