<svg xmlns="http://www.w3.org/2000/svg" width="25" height="25" viewBox="0 0 25 25" fill="none"><g clip-path="url(#clip0_3187_41875)"><path d="M16.9375 7.98438C16.9375 6.89036 16.5029 5.84115 15.7293 5.06756C14.9557 4.29397 13.9065 3.85938 12.8125 3.85938C11.7185 3.85938 10.6693 4.29397 9.89568 5.06756C9.1221 5.84115 8.6875 6.89036 8.6875 7.98438V8.82812H9.13375C10.8724 8.82688 12.5559 8.21743 13.8925 7.10538C14.004 7.01249 14.1431 6.95916 14.2881 6.95373C14.4331 6.9483 14.5758 6.99108 14.6939 7.07538L16.9375 8.67813V7.98438Z" fill="#085AAC"></path><path d="M18.9062 7.98438V8.07812H20.2188V7.98438C20.2188 6.02012 19.4385 4.13631 18.0495 2.74737C16.6606 1.35842 14.7768 0.578125 12.8125 0.578125C10.8482 0.578125 8.96443 1.35842 7.57549 2.74737C6.18655 4.13631 5.40625 6.02012 5.40625 7.98438V8.07812H6.71875V7.98438C6.71875 6.36821 7.36077 4.81824 8.50357 3.67544C9.64637 2.53264 11.1963 1.89062 12.8125 1.89062C14.4287 1.89062 15.9786 2.53264 17.1214 3.67544C18.2642 4.81824 18.9062 6.36821 18.9062 7.98438Z" fill="#085AAC"></path><path d="M3.15625 23.7347C3.15635 23.9088 3.22552 24.0756 3.34857 24.1987C3.47162 24.3217 3.63848 24.3909 3.8125 24.391H21.8125C21.9865 24.3909 22.1534 24.3217 22.2764 24.1987C22.3995 24.0756 22.4687 23.9088 22.4688 23.7347V22.2895C22.4683 21.5648 22.2282 20.8606 21.7857 20.2866C21.3433 19.7126 20.7234 19.3011 20.0226 19.1162L16 18.0576V18.766C16 19.6114 15.6642 20.4221 15.0664 21.0199C14.4686 21.6177 13.6579 21.9535 12.8125 21.9535C11.9671 21.9535 11.1564 21.6177 10.5586 21.0199C9.96082 20.4221 9.625 19.6114 9.625 18.766V18.0576L5.60238 19.1162C4.90164 19.3011 4.28175 19.7126 3.83929 20.2866C3.39684 20.8606 3.15668 21.5648 3.15625 22.2895V23.7347Z" fill="#085AAC"></path><path d="M10.9375 17.5889V18.766C10.9375 19.2633 11.135 19.7402 11.4867 20.0918C11.8383 20.4434 12.3152 20.641 12.8125 20.641C13.3098 20.641 13.7867 20.4434 14.1383 20.0918C14.49 19.7402 14.6875 19.2633 14.6875 18.766V17.5889C13.477 18.0334 12.148 18.0334 10.9375 17.5889Z" fill="#085AAC"></path><path d="M5.40625 9.39062V11.6406C5.40625 11.939 5.52478 12.2251 5.73575 12.4361C5.94673 12.6471 6.23288 12.7656 6.53125 12.7656H7.375V9.39062H5.40625Z" fill="#085AAC"></path><path d="M13.2812 14.734C13.2813 14.5599 13.3505 14.3931 13.4736 14.27C13.5966 14.147 13.7635 14.0778 13.9375 14.0777H16.618C16.8296 13.5731 16.9382 13.0312 16.9375 12.484V10.2906L14.3309 8.42871C12.8255 9.53914 11.0044 10.1389 9.13375 10.1402H8.6875V12.484C8.68752 13.3011 8.93021 14.0997 9.38478 14.7787C9.83936 15.4577 10.4853 15.9864 11.2408 16.2977C11.9963 16.609 12.8272 16.689 13.6281 16.5274C14.4291 16.3659 15.164 15.9701 15.7397 15.3902H13.9375C13.7635 15.3901 13.5966 15.3209 13.4736 15.1979C13.3505 15.0748 13.2813 14.908 13.2812 14.734Z" fill="#085AAC"></path><path d="M18.2524 9.39062V12.7656H18.9087V13.2344C18.9085 13.4581 18.8195 13.6726 18.6613 13.8308C18.5031 13.989 18.2887 14.0779 18.0649 14.0781H16.6204C16.4149 14.5681 16.1167 15.0138 15.7422 15.3906H18.0649C18.6366 15.3899 19.1846 15.1625 19.5889 14.7583C19.9931 14.3541 20.2205 13.806 20.2212 13.2344V9.39062H18.2524Z" fill="#085AAC"></path></g><defs><clipPath id="clip0_3187_41875"><rect width="24" height="24" fill="white" transform="translate(0.8125 0.484375)"></rect></clipPath></defs></svg>