<svg width="71" height="71" viewBox="0 0 71 71" fill="none" xmlns="http://www.w3.org/2000/svg">
<path fill-rule="evenodd" clip-rule="evenodd" d="M10.6711 38.3243C12.4102 38.3221 14.0774 37.6302 15.3071 36.4003C16.5367 35.1705 17.2283 33.5031 17.2303 31.764C17.2314 30.8042 17.02 29.8561 16.6114 28.9878L23.1043 24.4789C23.83 25.2185 24.7208 25.7755 25.7036 26.104C26.6864 26.4325 27.7331 26.5231 28.7577 26.3685C29.7824 26.2138 30.7557 25.8183 31.5978 25.2144C32.4398 24.6105 33.1266 23.8154 33.6017 22.8945L38.3885 24.4134C38.2408 25.4775 38.3567 26.5616 38.7261 27.5704C39.0954 28.5792 39.7069 29.4819 40.5068 30.199C41.3067 30.9162 42.2705 31.4259 43.3135 31.6833C44.3565 31.9408 45.4467 31.9381 46.4885 31.6756C47.5302 31.413 48.4915 30.8986 49.2878 30.1776C50.0842 29.4565 50.6913 28.5509 51.0557 27.5403C51.4201 26.5297 51.5307 25.445 51.3778 24.3817C51.2249 23.3183 50.8131 22.3088 50.1787 21.4418L58.295 13.0603C59.6539 13.9892 61.312 14.3742 62.9412 14.139C64.5703 13.9038 66.0519 13.0657 67.0926 11.7904C68.1334 10.5152 68.6575 8.89568 68.5613 7.25244C68.4651 5.60921 67.7556 4.06195 66.5732 2.91683C65.3907 1.77171 63.8215 1.11216 62.176 1.0687C60.5305 1.02524 58.9287 1.60103 57.6875 2.68213C56.4462 3.76324 55.656 5.27089 55.4732 6.90676C55.2904 8.54262 55.7283 10.1875 56.7003 11.5159L48.5838 19.8974C47.8175 19.3728 46.9484 19.0171 46.0341 18.8539C45.1198 18.6907 44.1813 18.7238 43.2808 18.9509C42.3803 19.178 41.5384 19.5941 40.8109 20.1713C40.0834 20.7486 39.4869 21.474 39.0611 22.2993L34.2754 20.7805C34.4155 19.7698 34.3179 18.7403 33.9903 17.774C33.6627 16.8076 33.1142 15.931 32.3884 15.2139C31.6625 14.4967 30.7794 13.9588 29.8092 13.6429C28.839 13.327 27.8084 13.2418 26.7995 13.394C25.7905 13.5463 24.831 13.9319 23.9973 14.5201C23.1635 15.1083 22.4785 15.8829 21.9966 16.7823C21.5148 17.6817 21.2494 18.6811 21.2216 19.7011C21.1938 20.7211 21.4044 21.7335 21.8365 22.6578L15.3442 27.1667C14.5862 26.3962 13.6495 25.8249 12.6174 25.5037C11.5853 25.1826 10.4898 25.1215 9.42844 25.3259C8.36705 25.5304 7.37264 25.9939 6.53367 26.6755C5.69469 27.357 5.03718 28.2353 4.6196 29.2323C4.20202 30.2293 4.03733 31.314 4.14019 32.39C4.24304 33.466 4.61024 34.4999 5.20913 35.3997C5.80802 36.2995 6.62003 37.0373 7.57292 37.5476C8.52581 38.0578 9.59004 38.3246 10.6709 38.3243H10.6711ZM18.5763 38.1404C18.665 38.0565 18.7693 37.991 18.8834 37.9476C18.9974 37.9041 19.1189 37.8837 19.2409 37.8873H45.1987C45.9304 37.8873 46.6321 38.178 47.1494 38.6953C47.6668 39.2127 47.9574 39.9144 47.9574 40.6461C47.9574 41.3777 47.6668 42.0794 47.1494 42.5968C46.6321 43.1141 45.9304 43.4048 45.1987 43.4048H28.744C28.4498 43.4048 28.1676 43.5217 27.9596 43.7297C27.7515 43.9378 27.6347 44.2199 27.6347 44.5142C27.6347 44.8084 27.7515 45.0906 27.9596 45.2986C28.1676 45.5067 28.4498 45.6235 28.744 45.6235H45.1987C46.1878 45.6223 47.1541 45.3267 47.9748 44.7746C48.7954 44.2225 49.4332 43.4387 49.807 42.523L61.7933 30.5026C62.5574 29.7319 63.594 29.2924 64.6793 29.2792C65.7646 29.266 66.8115 29.6801 67.5942 30.432C69.1569 31.962 69.1694 34.5229 67.6203 36.2629L51.7132 54.1398C51.4931 54.3993 51.2177 54.6062 50.9073 54.7456C50.5968 54.8849 50.2591 54.9531 49.919 54.9451H29.5965C28.5288 54.9357 27.4925 55.3053 26.6719 55.9883L26.5835 56.0616L14.1419 42.0985L18.5763 38.1404ZM0.815385 51.4121C0.533592 51.0956 0.317099 50.7266 0.178341 50.3262C0.0395829 49.9258 -0.0187071 49.5019 0.00681885 49.0789C0.0323448 48.656 0.141184 48.2422 0.327085 47.8614C0.512986 47.4806 0.772287 47.1402 1.09009 46.8599L8.37841 40.4378C8.97013 39.9195 9.73084 39.6353 10.5174 39.6387C11.304 39.6421 12.0622 39.9328 12.6495 40.4561L17.0989 36.4848C17.6839 35.9516 18.4491 35.6599 19.2406 35.6684H45.1987C46.2695 35.6699 47.3113 36.0161 48.1699 36.6558C49.0286 37.2956 49.6584 38.1948 49.9661 39.2204L60.2228 28.9362C62.6773 26.4746 66.6804 26.4341 69.1458 28.8465C71.5576 31.2067 71.6158 35.1118 69.278 37.7381L53.3708 55.6149C52.9422 56.1079 52.4114 56.5018 51.8154 56.7693C51.2193 57.0368 50.5722 57.1714 49.919 57.1638H29.5965C29.0408 57.1533 28.5004 57.3462 28.0769 57.7062L28.0605 57.7192L28.4334 58.1372C28.7153 58.4536 28.9318 58.8227 29.0706 59.2232C29.2093 59.6237 29.2675 60.0476 29.2419 60.4707C29.2162 60.8937 29.1072 61.3075 28.9211 61.6883C28.7349 62.069 28.4754 62.4092 28.1573 62.6893L20.8701 69.1115C20.2317 69.6719 19.3978 69.9575 18.5499 69.9063C17.702 69.8551 16.9086 69.4713 16.3422 68.8382L0.815385 51.4121ZM12.4294 47.3813C12.4293 46.8709 12.2779 46.372 11.9942 45.9476C11.7106 45.5233 11.3074 45.1925 10.8358 44.9973C10.3642 44.802 9.84533 44.7509 9.34471 44.8506C8.8441 44.9502 8.38427 45.196 8.02336 45.557C7.66245 45.9179 7.41667 46.3778 7.3171 46.8784C7.21752 47.379 7.26863 47.8979 7.46395 48.3695C7.65927 48.8411 7.99003 49.2442 8.41442 49.5278C8.83881 49.8114 9.33776 49.9628 9.84819 49.9629C10.5325 49.9621 11.1886 49.69 11.6725 49.2061C12.1565 48.7222 12.4287 48.0661 12.4294 47.3818V47.3813ZM9.84819 47.0189C9.77649 47.0188 9.7064 47.0401 9.64677 47.0799C9.58714 47.1197 9.54066 47.1763 9.5132 47.2425C9.48574 47.3088 9.47854 47.3817 9.49251 47.452C9.50649 47.5223 9.541 47.5869 9.59169 47.6376C9.64238 47.6883 9.70697 47.7229 9.77729 47.7369C9.84761 47.7509 9.9205 47.7437 9.98674 47.7163C10.053 47.6888 10.1096 47.6424 10.1494 47.5827C10.1893 47.5231 10.2105 47.453 10.2105 47.3813C10.2095 47.2856 10.171 47.194 10.1033 47.1262C10.0355 47.0585 9.94398 47.0199 9.84819 47.0189Z" fill="white"/>
</svg>
