<svg xmlns="http://www.w3.org/2000/svg" width="40" height="40" viewBox="0 0 40 40" fill="none"><rect width="40" height="40" rx="20" fill="url(#paint0_linear_2355_44035)"></rect><g clip-path="url(#clip0_2355_44035)"><path d="M33.0537 26.5259H32.2627V15.2697C32.2627 13.1892 30.5701 11.4966 28.4896 11.4966H26.3301V9.12354C26.3301 8.90506 26.153 8.72803 25.9346 8.72803H14.0693C13.8509 8.72803 13.6738 8.90506 13.6738 9.12354V11.4966H11.5144C9.43383 11.4966 7.74121 13.1892 7.74121 15.2697V26.5259H6.9502C6.73172 26.5259 6.55469 26.7029 6.55469 26.9214V29.0202C6.55469 30.2618 7.56481 31.272 8.80645 31.272H31.1975C32.4391 31.272 33.4492 30.2618 33.4492 29.0202V26.9214C33.4492 26.7029 33.2722 26.5259 33.0537 26.5259ZM28.4896 12.2876C30.1339 12.2876 31.4717 13.6254 31.4717 15.2697V26.5259H30.2852V15.4174C30.2852 14.3459 29.4135 13.4741 28.3419 13.4741H26.3301V12.2876H28.4896ZM18.0244 27.3169H21.9795V27.6333C21.9795 28.1131 21.5892 28.5034 21.1094 28.5034H18.8945C18.4148 28.5034 18.0244 28.1131 18.0244 27.6333V27.3169ZM14.4648 9.51904H25.5391V23.7573H14.4648V9.51904ZM8.53223 15.2697C8.53223 13.6254 9.86999 12.2876 11.5144 12.2876H13.6738V13.4741H11.662C10.5904 13.4741 9.71875 14.3458 9.71875 15.4174V26.5259H8.53223V15.2697ZM32.6582 29.0202C32.6582 29.8257 32.0029 30.481 31.1975 30.481H8.80645C8.00098 30.481 7.3457 29.8257 7.3457 29.0202V27.3169H17.2334V27.6333C17.2334 28.5492 17.9786 29.2944 18.8945 29.2944H21.1094C22.0253 29.2944 22.7705 28.5492 22.7705 27.6333V27.3169H32.6582V29.0202Z" fill="white"></path><path d="M20 17.0337C21.7447 17.0337 23.1641 15.6143 23.1641 13.8696C23.1641 12.125 21.7447 10.7056 20 10.7056C18.2553 10.7056 16.8359 12.125 16.8359 13.8696C16.8359 15.6143 18.2553 17.0337 20 17.0337ZM22.373 13.8696C22.373 15.1781 21.3085 16.2427 20 16.2427C18.8263 16.2427 17.8494 15.386 17.6605 14.2651H20C20.2185 14.2651 20.3955 14.0881 20.3955 13.8696V11.5302C21.5163 11.7191 22.373 12.6959 22.373 13.8696Z" fill="white"></path><path d="M16.8408 22.5708H18.4229H23.1689C23.3874 22.5708 23.5645 22.3938 23.5645 22.1753V18.2202C23.5645 18.0017 23.3874 17.8247 23.1689 17.8247H21.5869C21.3684 17.8247 21.1914 18.0017 21.1914 18.2202V18.6157H20.0049C19.7864 18.6157 19.6094 18.7928 19.6094 19.0112V19.4067H18.4229C18.2044 19.4067 18.0273 19.5838 18.0273 19.8022V20.1978H16.8408C16.6223 20.1978 16.4453 20.3748 16.4453 20.5933V22.1753C16.4453 22.3938 16.6223 22.5708 16.8408 22.5708ZM21.9824 18.6157H22.7734V21.7798H21.9824C21.9824 20.9425 21.9824 19.3989 21.9824 18.6157ZM20.4004 19.4067H21.1914V21.7798H20.4004C20.4004 20.938 20.4004 19.8579 20.4004 19.4067ZM18.8184 20.1978H19.6094V21.7798H18.8184C18.8184 21.2992 18.8184 20.6683 18.8184 20.1978ZM17.2363 20.9888H18.0273V21.7798H17.2363V20.9888Z" fill="white"></path></g><defs><linearGradient id="paint0_linear_2355_44035" x1="38.9781" y1="56.625" x2="-5.74477" y2="51.3473" gradientUnits="userSpaceOnUse"><stop stop-color="#2E96FF"></stop><stop offset="1" stop-color="#015CB8"></stop></linearGradient><clipPath id="clip0_2355_44035"><rect width="27" height="27" fill="white" transform="translate(6.5 6.5)"></rect></clipPath></defs></svg>