<svg xmlns="http://www.w3.org/2000/svg" width="50" height="50" viewBox="0 0 50 50" fill="none"><rect y="0.000976562" width="50" height="50" rx="25" fill="white" fill-opacity="0.04"></rect><rect x="0.5" y="0.500977" width="49" height="49" rx="24.5" stroke="white" stroke-opacity="0.1"></rect><path d="M16.3037 14.791C13.9357 14.791 12 16.7267 12 19.0947V30.9073C12 33.2753 13.9357 35.211 16.3037 35.211H33.6981C36.0661 35.211 38 33.2753 38 30.9073V19.0948C38 16.7267 36.0661 14.7911 33.6981 14.7911L16.3037 14.791ZM17.3334 19.7238L23.5606 26.3298C24.3135 27.0479 25.5212 27.0702 26.2327 26.348L32.6883 19.7129C33.0458 19.3455 33.6334 19.3374 34.0008 19.6948C34.3683 20.0523 34.3764 20.6398 34.019 21.0073C31.8641 23.2213 29.709 25.436 27.5543 27.6496C26.1083 29.1174 23.7393 29.0658 22.2789 27.6732C20.1814 25.4525 18.0805 23.2216 15.9828 20.9964C15.6324 20.6232 15.6503 20.0368 16.0227 19.6857C16.4332 19.3016 17.0421 19.4267 17.3334 19.7238Z" fill="url(#paint0_linear_3187_41212)"></path><defs><linearGradient id="paint0_linear_3187_41212" x1="44.303" y1="82.9069" x2="49.4493" y2="1.08458" gradientUnits="userSpaceOnUse"><stop stop-color="#0B2D58"></stop><stop offset="1" stop-color="#F4F6FA"></stop></linearGradient></defs></svg>