<svg xmlns="http://www.w3.org/2000/svg" width="40" height="40" viewBox="0 0 40 40" fill="none"><rect width="40" height="40" rx="10" fill="url(#paint0_linear_2789_14922)" fill-opacity="0.4"></rect><path d="M24.9817 18.4712C25.3179 18.4712 25.593 18.7463 25.593 19.0825C25.593 19.4187 25.3179 19.6938 24.9817 19.6938C24.7983 19.6938 24.6251 19.6123 24.5079 19.4747C24.3296 19.2557 24.0087 19.2302 23.7897 19.4085C23.5757 19.5868 23.5451 19.9078 23.7234 20.1268C23.9374 20.3866 24.2278 20.5598 24.5436 20.6515V21.1253C24.5436 21.4054 24.7728 21.6347 25.053 21.6347C25.3332 21.6347 25.5624 21.4054 25.5624 21.1253V20.6006C26.1737 20.3662 26.6068 19.7753 26.6068 19.0825C26.6068 18.1859 25.8732 17.4523 24.9766 17.4523C24.6404 17.4523 24.3653 17.1773 24.3653 16.841C24.3653 16.5048 24.6404 16.2297 24.9766 16.2297C25.16 16.2297 25.3332 16.3112 25.4504 16.4539C25.6287 16.6678 25.9496 16.6984 26.1687 16.5201C26.3826 16.3418 26.4132 16.0209 26.2349 15.8018C26.0566 15.5828 25.8222 15.43 25.5675 15.3281V14.8034C25.5675 14.5232 25.3383 14.2939 25.0581 14.2939C24.7779 14.2939 24.5487 14.5232 24.5487 14.8034V15.2771C23.861 15.4707 23.3516 16.0922 23.3516 16.841C23.3516 17.7376 24.08 18.4712 24.9817 18.4712Z" fill="#F5C84D"></path><path d="M30.7903 28.7148L28.1821 26.295C27.9936 26.1116 27.7185 26.0607 27.4791 26.1626C27.2193 26.2746 27.0512 26.5395 27.0512 26.8401V27.4922H24.718C24.9116 27.0744 25.0797 26.6414 25.2071 26.1931C25.4821 25.1896 25.5484 24.1504 25.4261 23.1468C28.0853 22.9176 30.1841 20.6863 30.1841 17.966C30.1841 15.6838 28.7017 13.7429 26.6538 13.045V11.5371H27.4128C27.7134 11.5371 27.9783 11.369 28.0904 11.1092C28.1923 10.8647 28.1464 10.5947 27.963 10.4062L25.5331 7.79289C25.258 7.49742 24.718 7.49742 24.4327 7.79289L22.013 10.4011C21.8296 10.5947 21.7787 10.8647 21.8805 11.1092C21.9926 11.369 22.2575 11.5371 22.5581 11.5371H23.2101V13.0807C21.6462 13.6512 20.4287 14.9451 19.9753 16.56C19.8887 16.5345 19.797 16.504 19.7053 16.4785C17.6727 15.913 15.5485 16.1728 13.7145 17.2121C13.6178 17.2681 13.5261 17.3292 13.4344 17.3904V15.7653H14.1934C14.494 15.7653 14.7589 15.5972 14.8709 15.3374C14.9779 15.0929 14.927 14.8229 14.7436 14.6344L12.3187 12.0211C12.1812 11.8733 11.9774 11.7918 11.7686 11.7918C11.5597 11.7918 11.3559 11.8733 11.2133 12.0262L8.79355 14.6293C8.61016 14.8229 8.55921 15.0929 8.6611 15.3374C8.77317 15.5972 9.03807 15.7653 9.34372 15.7653H9.99068V21.9599C9.99068 21.9649 9.99068 21.97 9.99578 21.9751C9.99068 21.9751 9.99068 21.9802 9.99068 21.9802C9.42523 24.0128 9.68503 26.1371 10.7242 27.971C11.7635 29.81 13.4547 31.1294 15.4924 31.6949C16.1954 31.8884 16.9086 31.9852 17.6167 31.9852C18.9565 31.9852 20.2861 31.6388 21.4832 30.9613C21.4985 30.9511 21.5087 30.9409 21.524 30.9358H27.0512V31.6949C27.0512 31.9954 27.2193 32.2603 27.4791 32.3724C27.5606 32.4081 27.6472 32.4284 27.7338 32.4284C27.8968 32.4284 28.0547 32.3622 28.1821 32.245L30.7954 29.8202C30.938 29.6776 31.0246 29.4789 31.0246 29.27C31.0246 29.0561 30.938 28.8574 30.7903 28.7148ZM24.9829 13.7837C27.2855 13.7837 29.1652 15.6583 29.1652 17.966C29.1652 20.2737 27.2855 22.1483 24.9829 22.1483C22.6752 22.1483 20.7955 20.2737 20.7955 17.966C20.7955 15.6583 22.6752 13.7837 24.9829 13.7837ZM24.2239 25.918C23.7348 27.6959 22.5835 29.1681 20.984 30.0749C19.3844 30.9766 17.5352 31.2058 15.7675 30.7117C13.9896 30.2226 12.5174 29.0714 11.6106 27.4718C10.709 25.8722 10.4797 24.023 10.9739 22.2553C11.4629 20.4774 12.6142 19.0052 14.2138 18.0985C15.8134 17.1968 17.6676 16.9675 19.4302 17.4617C19.5576 17.4973 19.6799 17.533 19.797 17.5737C19.7868 17.7011 19.7766 17.8336 19.7766 17.966C19.7766 18.2615 19.8072 18.5467 19.8581 18.8269C19.6187 18.725 19.3793 18.6333 19.1297 18.562C17.6524 18.1545 16.1037 18.343 14.769 19.102C13.4395 19.856 12.4817 21.0837 12.0742 22.5559C11.6667 24.0332 11.8552 25.5818 12.6142 26.9165C13.3681 28.2461 14.5958 29.2038 16.0681 29.6113C16.5775 29.7489 17.0971 29.8202 17.6116 29.8202C18.5897 29.8202 19.5525 29.5655 20.4287 29.0714C21.7583 28.3174 22.716 27.0897 23.1235 25.6175C23.3782 24.7056 23.3935 23.753 23.1898 22.8412C23.5718 22.9838 23.9743 23.0857 24.3971 23.1315C24.5295 24.0485 24.4786 25.0011 24.2239 25.918ZM18.2586 21.1142V24.186C18.2586 24.3236 18.2076 24.4509 18.1108 24.5477L16.2667 26.3918C16.1649 26.4937 16.0375 26.5395 15.905 26.5395C15.7777 26.5395 15.6452 26.4937 15.5485 26.3918C15.3498 26.1931 15.3498 25.8722 15.5485 25.6735L17.2397 23.9772V21.1142C17.2397 20.834 17.469 20.6048 17.7491 20.6048C18.0344 20.6048 18.2586 20.834 18.2586 21.1142Z" fill="#F5C84D"></path><defs><linearGradient id="paint0_linear_2789_14922" x1="11.5" y1="-41.3333" x2="20" y2="40" gradientUnits="userSpaceOnUse"><stop stop-color="white" stop-opacity="0.06"></stop><stop offset="1" stop-color="#F5C84D" stop-opacity="0.5"></stop></linearGradient></defs></svg>