<svg xmlns="http://www.w3.org/2000/svg" width="32" height="31" viewBox="0 0 32 31" fill="none"><path d="M29.0165 19.78L26.312 15.999L26.0698 15.3262C26.0563 15.0302 26.137 14.7207 26.312 14.465L29.0165 10.684C29.5816 9.90363 29.1107 8.78682 28.1554 8.62536L23.6747 7.8853L23.5805 7.87185C23.5267 7.85839 23.4863 7.84494 23.4325 7.83148C22.9481 7.69693 22.5713 7.27981 22.4906 6.78195L21.9927 3.74101L21.7371 2.20708C21.5756 1.23829 20.4588 0.7808 19.6784 1.34593L15.8974 4.05049C15.7898 4.13122 15.6552 4.18504 15.5341 4.23886C15.265 4.3196 14.9959 4.3196 14.7268 4.23886C14.6057 4.18504 14.4711 4.13122 14.3635 4.05049L10.5825 1.34593C9.80206 0.7808 8.68525 1.23829 8.52379 2.20708L7.77028 6.78195C7.72991 6.98379 7.64918 7.18562 7.52808 7.34708C7.4608 7.45473 7.35316 7.56237 7.24551 7.62965C7.08405 7.75075 6.88222 7.83148 6.68038 7.87185L2.10551 8.62536C1.76912 8.67918 1.50001 8.8541 1.29818 9.0963C1.20399 9.20394 1.13672 9.3385 1.08289 9.48651C1.00216 9.7018 0.97525 9.91709 1.01562 10.1324C1.04253 10.2669 1.08289 10.388 1.13672 10.5091C1.16363 10.5629 1.20399 10.6302 1.24436 10.684L2.1997 12.0161L3.94891 14.465C4.27185 14.9225 4.27185 15.5415 3.94891 15.999L1.24436 19.78C0.679228 20.5604 1.13672 21.6772 2.10551 21.8387L6.68038 22.5922H6.69384L7.35316 22.9151C7.56845 23.1035 7.71646 23.3726 7.77028 23.6686L8.52379 28.2569C8.68525 29.2257 9.7886 29.6832 10.5959 29.1181L14.3635 26.4135C14.4038 26.3866 14.4577 26.3597 14.498 26.3328C14.9421 26.0906 15.4803 26.1175 15.8974 26.4135L18.3732 28.1897L18.4001 28.2031L19.6784 29.1181C19.7322 29.1585 19.7995 29.1988 19.8533 29.2257C19.9744 29.2796 20.0955 29.3199 20.2301 29.3468C20.4454 29.3872 20.6607 29.3603 20.8759 29.2796C21.0239 29.2257 21.1585 29.1585 21.2661 29.0643C21.5083 28.8624 21.6833 28.5933 21.7371 28.2569L22.4906 23.6821C22.5848 23.1169 23.0154 22.6864 23.5805 22.5922L28.1554 21.8387C29.1242 21.6772 29.5816 20.5604 29.0165 19.78Z" fill="#0BD76D"></path><path d="M11.5476 28.2569L10.7941 23.6686C10.7403 23.3726 10.5923 23.1035 10.377 22.9151L9.71766 22.5922H9.70421L5.12934 21.8387C4.16054 21.6772 3.70305 20.5604 4.26819 19.78L6.97274 15.999C7.29567 15.5415 7.29567 14.9225 6.97274 14.465L5.22353 12.0161L4.26819 10.684C4.22782 10.6302 4.18745 10.5629 4.16054 10.5091C4.10672 10.388 4.06635 10.2669 4.03944 10.1324C3.99908 9.91709 4.02599 9.7018 4.10672 9.48651C4.16054 9.3385 4.22782 9.20394 4.32201 9.0963C4.52384 8.8541 4.79295 8.67918 5.12934 8.62536L9.70421 7.87185C9.90604 7.83148 10.1079 7.75075 10.2693 7.62965C10.377 7.56237 10.4846 7.45473 10.5519 7.34708C10.673 7.18562 10.7537 6.98379 10.7941 6.78195L11.5476 2.20708C11.5557 2.1573 11.5759 2.11559 11.5893 2.06849L10.5788 1.34593C9.7984 0.7808 8.68159 1.23829 8.52012 2.20708L7.76661 6.78195C7.72625 6.98379 7.64552 7.18562 7.52442 7.34708C7.45714 7.45473 7.3495 7.56237 7.24185 7.62965C7.08039 7.75075 6.87855 7.83148 6.67672 7.87185L2.10185 8.62536C1.76546 8.67918 1.49635 8.8541 1.29452 9.0963C1.20033 9.20394 1.13305 9.3385 1.07923 9.48651C0.998498 9.7018 0.971587 9.91709 1.01195 10.1324C1.03886 10.2669 1.07923 10.388 1.13305 10.5091C1.15996 10.5629 1.20033 10.6302 1.2407 10.684L2.19604 12.0161L3.94525 14.465C4.26818 14.9225 4.26818 15.5415 3.94525 15.999L1.2407 19.78C0.675566 20.5604 1.13305 21.6772 2.10185 21.8387L6.67672 22.5922H6.69017L7.3495 22.9151C7.56478 23.1035 7.71279 23.3726 7.76661 23.6686L8.52012 28.2569C8.68159 29.2257 9.78494 29.6832 10.5923 29.1181L11.5907 28.4009C11.5772 28.3525 11.5557 28.3081 11.5476 28.2569Z" fill="#00B871"></path><path d="M21.425 28.2057L21.3981 28.1922L18.9223 26.4161C18.5052 26.1201 17.967 26.0932 17.5229 26.3354C17.4826 26.3623 17.4287 26.3892 17.3884 26.4161L16.6416 26.9516L18.3706 28.1922L18.3975 28.2057L19.6758 29.1206C19.7296 29.161 19.7969 29.2014 19.8507 29.2283C19.9718 29.2821 20.0929 29.3225 20.2275 29.3494C20.4428 29.3898 20.6581 29.3628 20.8734 29.2821C21.0214 29.2283 21.1559 29.161 21.2636 29.0668C21.4708 28.8946 21.6107 28.6632 21.6861 28.3927L21.425 28.2057Z" fill="#00B871"></path><path d="M20.4447 30.3709C19.9684 30.3709 19.4988 30.2229 19.0965 29.9349L15.3249 27.2277C15.2267 27.1604 15.0625 27.1631 14.9468 27.2398L11.1927 29.9349C10.5199 30.4072 9.68029 30.5014 8.9362 30.1879C8.19615 29.8784 7.67543 29.2177 7.54491 28.4239L6.78333 23.8396C6.7618 23.7131 6.66223 23.6135 6.5344 23.592L1.94876 22.8304C1.15623 22.6999 0.496915 22.1805 0.186093 21.4391C-0.126074 20.6937 -0.0332316 19.8541 0.43502 19.1907L3.1463 15.4111C3.21358 15.3128 3.21358 15.15 3.13419 15.033L0.440402 11.2802C-0.0318858 10.6236 -0.126074 9.78396 0.183402 9.03584C0.492879 8.28771 1.15354 7.76429 1.95011 7.63243L6.5344 6.87085C6.66088 6.84932 6.76045 6.74975 6.78198 6.62327L7.54356 2.03763C7.67408 1.2451 8.19346 0.585782 8.93486 0.27496C9.67895 -0.0372073 10.5199 0.0556356 11.1833 0.523887L14.9616 3.23652C15.0692 3.31456 15.2159 3.31456 15.3235 3.23517L19.0924 0.529269C19.7504 0.0583269 20.59 -0.0385528 21.3368 0.273615C22.0849 0.583091 22.6083 1.24376 22.7402 2.03898L22.9959 3.57963L21.0058 3.91064L20.7501 2.36864C20.7286 2.22466 20.6263 2.16142 20.5671 2.13855C20.5079 2.11567 20.3909 2.08473 20.2725 2.1695L16.5022 4.87674C15.6895 5.45802 14.601 5.45667 13.7896 4.87809L10.0167 2.1695C9.89693 2.08338 9.77717 2.11164 9.71797 2.13855C9.648 2.1668 9.56054 2.23005 9.53767 2.36729L8.77474 6.95427C8.61193 7.93249 7.84631 8.69945 6.86809 8.86226L2.28112 9.62519C2.1358 9.64941 2.0739 9.75033 2.04968 9.80953C2.02412 9.86873 1.99586 9.9858 2.08063 10.1055L4.73405 13.7964C5.34897 14.6939 5.34897 15.7717 4.79999 16.5709L2.08063 20.36C1.99586 20.4811 2.02412 20.5995 2.04834 20.6587C2.07794 20.7287 2.14118 20.8161 2.27842 20.839L6.86675 21.6006C7.84496 21.7634 8.61058 22.5304 8.77339 23.5086L9.53498 28.0942C9.55785 28.2341 9.64666 28.296 9.71528 28.3256C9.77314 28.3499 9.89155 28.3795 10.0207 28.2893L13.7842 25.5875C14.6037 25.0264 15.6801 25.0264 16.4807 25.5753L20.2698 28.2947C20.3868 28.3795 20.5039 28.3512 20.5645 28.3256C20.6223 28.3014 20.7259 28.2395 20.7488 28.0956L21.5117 23.5086C21.6745 22.5304 22.4401 21.7634 23.4184 21.6006L28.0053 20.839C28.1439 20.8161 28.2072 20.7287 28.2368 20.6587C28.261 20.5995 28.2906 20.4811 28.2004 20.3519L25.4986 16.5884L27.1388 15.4111L29.8461 19.1826C30.3183 19.8541 30.4112 20.6937 30.099 21.4391C29.7882 22.1805 29.1289 22.7012 28.335 22.8304L23.7507 23.592C23.6242 23.6135 23.5247 23.7131 23.5031 23.8396L22.7416 28.4252C22.611 29.2204 22.0863 29.8798 21.3395 30.1906C21.0502 30.3117 20.7461 30.3709 20.4447 30.3709Z" fill="black"></path><path d="M16.4859 18.9325C16.2275 18.9325 15.9692 18.8343 15.7727 18.6365L9.71777 12.5815L11.1454 11.1539L16.4872 16.4957L30.5738 2.40918L32.0014 3.83681L17.2004 18.6379C17.0026 18.8343 16.7442 18.9325 16.4859 18.9325Z" fill="black"></path></svg>