<svg width="32" height="31" viewBox="0 0 32 31" fill="none" xmlns="http://www.w3.org/2000/svg">
<path d="M29.0165 19.778L26.312 15.997L26.0698 15.3242C26.0563 15.0282 26.137 14.7187 26.312 14.4631L29.0165 10.6821C29.5816 9.90168 29.1107 8.78487 28.1554 8.6234L23.6747 7.88335L23.5805 7.8699C23.5267 7.85644 23.4863 7.84299 23.4325 7.82953C22.9481 7.69497 22.5713 7.27785 22.4906 6.78L21.9927 3.73906L21.7371 2.20513C21.5756 1.23633 20.4588 0.778847 19.6784 1.34398L15.8974 4.04853C15.7898 4.12927 15.6552 4.18309 15.5341 4.23691C15.265 4.31764 14.9959 4.31764 14.7268 4.23691C14.6057 4.18309 14.4711 4.12927 14.3635 4.04853L10.5825 1.34398C9.80206 0.778847 8.68525 1.23633 8.52379 2.20513L7.77028 6.78C7.72991 6.98183 7.64918 7.18367 7.52808 7.34513C7.4608 7.45278 7.35316 7.56042 7.24551 7.6277C7.08405 7.7488 6.88222 7.82953 6.68038 7.8699L2.10551 8.6234C1.76912 8.67723 1.50001 8.85215 1.29818 9.09435C1.20399 9.20199 1.13672 9.33654 1.08289 9.48456C1.00216 9.69984 0.97525 9.91513 1.01562 10.1304C1.04253 10.265 1.08289 10.3861 1.13672 10.5072C1.16363 10.561 1.20399 10.6283 1.24436 10.6821L2.1997 12.0142L3.94891 14.4631C4.27185 14.9206 4.27185 15.5395 3.94891 15.997L1.24436 19.778C0.679228 20.5584 1.13672 21.6752 2.10551 21.8367L6.68038 22.5902H6.69384L7.35316 22.9131C7.56845 23.1015 7.71646 23.3706 7.77028 23.6667L8.52379 28.255C8.68525 29.2238 9.7886 29.6813 10.5959 29.1161L14.3635 26.4116C14.4038 26.3847 14.4577 26.3578 14.498 26.3308C14.9421 26.0886 15.4803 26.1156 15.8974 26.4116L18.3732 28.1877L18.4001 28.2012L19.6784 29.1161C19.7322 29.1565 19.7995 29.1969 19.8533 29.2238C19.9744 29.2776 20.0955 29.318 20.2301 29.3449C20.4454 29.3852 20.6607 29.3583 20.8759 29.2776C21.0239 29.2238 21.1585 29.1565 21.2661 29.0623C21.5083 28.8605 21.6833 28.5914 21.7371 28.255L22.4906 23.6801C22.5848 23.115 23.0154 22.6844 23.5805 22.5902L28.1554 21.8367C29.1242 21.6752 29.5816 20.5584 29.0165 19.778Z" fill="#0BD76D"/>
<path d="M11.5474 28.255L10.7939 23.6667C10.74 23.3706 10.592 23.1015 10.3767 22.9131L9.71742 22.5902H9.70396L5.12909 21.8367C4.1603 21.6752 3.70281 20.5584 4.26794 19.778L6.9725 15.997C7.29543 15.5395 7.29543 14.9206 6.9725 14.4631L5.22328 12.0142L4.26794 10.6821C4.22757 10.6283 4.18721 10.561 4.1603 10.5072C4.10648 10.3861 4.06611 10.265 4.0392 10.1304C3.99883 9.91513 4.02574 9.69984 4.10648 9.48456C4.1603 9.33654 4.22757 9.20199 4.32176 9.09435C4.5236 8.85215 4.79271 8.67723 5.12909 8.6234L9.70396 7.8699C9.9058 7.82953 10.1076 7.7488 10.2691 7.6277C10.3767 7.56042 10.4844 7.45278 10.5517 7.34513C10.6728 7.18367 10.7535 6.98183 10.7939 6.78L11.5474 2.20513C11.5554 2.15534 11.5756 2.11363 11.5891 2.06654L10.5786 1.34398C9.79815 0.778847 8.68135 1.23633 8.51988 2.20513L7.76637 6.78C7.726 6.98183 7.64527 7.18367 7.52417 7.34513C7.4569 7.45278 7.34925 7.56042 7.24161 7.6277C7.08014 7.7488 6.87831 7.82953 6.67648 7.8699L2.10161 8.6234C1.76522 8.67723 1.49611 8.85215 1.29427 9.09435C1.20009 9.20199 1.13281 9.33654 1.07899 9.48456C0.998254 9.69984 0.971343 9.91513 1.01171 10.1304C1.03862 10.265 1.07899 10.3861 1.13281 10.5072C1.15972 10.561 1.20009 10.6283 1.24045 10.6821L2.19579 12.0142L3.94501 14.4631C4.26794 14.9206 4.26794 15.5395 3.94501 15.997L1.24045 19.778C0.675322 20.5584 1.13281 21.6752 2.10161 21.8367L6.67648 22.5902H6.68993L7.34925 22.9131C7.56454 23.1015 7.71255 23.3706 7.76637 23.6667L8.51988 28.255C8.68135 29.2238 9.7847 29.6813 10.592 29.1161L11.5904 28.399C11.577 28.3505 11.5554 28.3061 11.5474 28.255Z" fill="#00B871"/>
<path d="M21.425 28.2018L21.3981 28.1883L18.9223 26.4122C18.5052 26.1162 17.967 26.0893 17.5229 26.3315C17.4826 26.3584 17.4287 26.3853 17.3884 26.4122L16.6416 26.9477L18.3706 28.1883L18.3975 28.2018L19.6758 29.1167C19.7296 29.1571 19.7969 29.1975 19.8507 29.2244C19.9718 29.2782 20.0929 29.3186 20.2275 29.3455C20.4428 29.3859 20.6581 29.3589 20.8734 29.2782C21.0214 29.2244 21.1559 29.1571 21.2636 29.0629C21.4708 28.8907 21.6107 28.6593 21.6861 28.3888L21.425 28.2018Z" fill="#00B871"/>
<path d="M20.4447 30.368C19.9684 30.368 19.4988 30.2199 19.0965 29.932L15.3249 27.2247C15.2267 27.1575 15.0625 27.1602 14.9468 27.2369L11.1927 29.932C10.5199 30.4043 9.68029 30.4985 8.9362 30.185C8.19615 29.8755 7.67543 29.2148 7.54491 28.4209L6.78333 23.8367C6.7618 23.7102 6.66223 23.6106 6.5344 23.5891L1.94876 22.8275C1.15623 22.697 0.496915 22.1776 0.186093 21.4362C-0.126074 20.6908 -0.0332316 19.8511 0.43502 19.1878L3.1463 15.4081C3.21358 15.3099 3.21358 15.1471 3.13419 15.03L0.440402 11.2773C-0.0318858 10.6207 -0.126074 9.78103 0.183402 9.03291C0.492879 8.28478 1.15354 7.76136 1.95011 7.6295L6.5344 6.86792C6.66088 6.84639 6.76045 6.74682 6.78198 6.62034L7.54356 2.0347C7.67408 1.24217 8.19346 0.582853 8.93486 0.272031C9.67895 -0.040137 10.5199 0.0527059 11.1833 0.520957L14.9616 3.23359C15.0692 3.31163 15.2159 3.31163 15.3235 3.23224L19.0924 0.52634C19.7504 0.0553972 20.59 -0.0414824 21.3368 0.270685C22.0849 0.580162 22.6083 1.24083 22.7402 2.03605L22.9959 3.5767L21.0058 3.90771L20.7501 2.36571C20.7286 2.22173 20.6263 2.15849 20.5671 2.13562C20.5079 2.11274 20.3909 2.0818 20.2725 2.16657L16.5022 4.87381C15.6895 5.45509 14.601 5.45374 13.7896 4.87516L10.0167 2.16657C9.89693 2.08045 9.77717 2.10871 9.71797 2.13562C9.648 2.16387 9.56054 2.22712 9.53767 2.36436L8.77474 6.95134C8.61193 7.92956 7.84631 8.69652 6.86809 8.85933L2.28112 9.62226C2.1358 9.64648 2.0739 9.7474 2.04968 9.8066C2.02412 9.8658 1.99586 9.98287 2.08063 10.1026L4.73405 13.7935C5.34897 14.6909 5.34897 15.7687 4.79999 16.568L2.08063 20.3571C1.99586 20.4782 2.02412 20.5966 2.04834 20.6558C2.07794 20.7257 2.14118 20.8132 2.27842 20.8361L6.86675 21.5977C7.84496 21.7605 8.61058 22.5274 8.77339 23.5056L9.53498 28.0913C9.55785 28.2312 9.64666 28.2931 9.71528 28.3227C9.77314 28.3469 9.89155 28.3765 10.0207 28.2864L13.7842 25.5845C14.6037 25.0234 15.6801 25.0234 16.4807 25.5724L20.2698 28.2918C20.3868 28.3765 20.5039 28.3483 20.5645 28.3227C20.6223 28.2985 20.7259 28.2366 20.7488 28.0926L21.5117 23.5056C21.6745 22.5274 22.4401 21.7605 23.4184 21.5977L28.0053 20.8361C28.1439 20.8132 28.2072 20.7257 28.2368 20.6558C28.261 20.5966 28.2906 20.4782 28.2004 20.349L25.4986 16.5855L27.1388 15.4081L29.8461 19.1797C30.3183 19.8511 30.4112 20.6908 30.099 21.4362C29.7882 22.1776 29.1289 22.6983 28.335 22.8275L23.7507 23.5891C23.6242 23.6106 23.5247 23.7102 23.5031 23.8367L22.7416 28.4223C22.611 29.2175 22.0863 29.8768 21.3395 30.1876C21.0502 30.3087 20.7461 30.368 20.4447 30.368Z" fill="black"/>
<path d="M16.4859 18.9296C16.2275 18.9296 15.9692 18.8314 15.7727 18.6336L9.71777 12.5786L11.1454 11.151L16.4872 16.4928L30.5738 2.40625L32.0014 3.83388L17.2004 18.6349C17.0026 18.8314 16.7442 18.9296 16.4859 18.9296Z" fill="black"/>
</svg>
