<svg width="30" height="30" viewBox="0 0 30 30" fill="none" xmlns="http://www.w3.org/2000/svg">
<path d="M15.0015 28.1539C12.3999 28.1539 9.85674 27.3824 7.6936 25.937C5.53047 24.4917 3.84452 22.4373 2.84894 20.0338C1.85336 17.6302 1.59287 14.9854 2.10041 12.4338C2.60795 9.88225 3.86072 7.53847 5.70031 5.69887C6.92085 4.47327 8.37112 3.50042 9.9681 2.83602C11.5651 2.17162 13.2774 1.8287 15.0071 1.82691C16.7368 1.82512 18.4498 2.16448 20.0482 2.82558C21.6466 3.48667 23.0988 4.45651 24.3219 5.67958C25.545 6.90265 26.5148 8.35493 27.1759 9.95329C27.837 11.5516 28.1764 13.2647 28.1746 14.9944C28.1728 16.7241 27.8299 18.4364 27.1655 20.0334C26.5011 21.6304 25.5282 23.0806 24.3026 24.3012C23.084 25.5265 21.6345 26.4979 20.038 27.1592C18.4414 27.8205 16.7296 28.1586 15.0015 28.1539Z" fill="url(#paint0_linear_1835_27803)"/>
<path d="M13.082 21.6649C12.6915 22.0554 12.0584 22.0554 11.6679 21.665L6.33223 16.3302C5.94165 15.9396 5.94163 15.3064 6.33218 14.9159L7.6618 13.5863C8.05232 13.1958 8.68548 13.1958 9.076 13.5863L11.6673 16.1776C12.0578 16.5681 12.6909 16.5681 13.0815 16.1776L20.924 8.33503C21.3145 7.94451 21.9477 7.9445 22.3382 8.33502L23.6679 9.66467C24.0584 10.0552 24.0584 10.6884 23.6679 11.0789L13.082 21.6649Z" fill="#017B4B"/>
<defs>
<linearGradient id="paint0_linear_1835_27803" x1="15.0111" y1="1.8269" x2="15.0039" y2="39.9988" gradientUnits="userSpaceOnUse">
<stop stop-color="#D5FDDC"/>
<stop offset="1" stop-color="#00C377"/>
</linearGradient>
</defs>
</svg>
