<svg width="40" height="41" viewBox="0 0 40 41" fill="none" xmlns="http://www.w3.org/2000/svg">
<rect y="0.564453" width="40" height="40" rx="20" fill="url(#paint0_linear_2735_35825)"/>
<path d="M10.6392 26.4446C10.5559 26.3634 10.4442 26.3179 10.3278 26.3179C10.2114 26.3179 10.0997 26.3634 10.0164 26.4446L8.68299 27.7824C8.64232 27.823 8.61005 27.8712 8.58804 27.9242C8.56602 27.9773 8.55469 28.0342 8.55469 28.0916C8.55469 28.149 8.56602 28.2059 8.58804 28.259C8.61005 28.3121 8.64232 28.3602 8.68299 28.4008L12.5296 32.2519C12.6135 32.3321 12.725 32.3769 12.8411 32.3769C12.9571 32.3769 13.0687 32.3321 13.1525 32.2519L14.4859 30.9141C14.5271 30.8739 14.5598 30.8258 14.5822 30.7726C14.6046 30.7195 14.6161 30.6625 14.6161 30.6049C14.6161 30.5473 14.6046 30.4902 14.5822 30.4371C14.5598 30.384 14.5271 30.3359 14.4859 30.2957L10.6392 26.4446Z" fill="white"/>
<path d="M29.0258 20.3959C28.8364 20.366 28.6426 20.4025 28.4771 20.4993C28.3116 20.596 28.1847 20.747 28.1178 20.9267C27.4423 22.6723 25.5256 24.4882 24.9817 24.9795C24.9283 25.3942 24.7265 25.7755 24.4136 26.0529C24.1007 26.3302 23.698 26.4849 23.2799 26.4883H19.056C18.9412 26.486 18.8319 26.4387 18.7515 26.3567C18.6711 26.2747 18.6261 26.1645 18.6261 26.0497C18.6261 25.9348 18.6711 25.8246 18.7515 25.7426C18.8319 25.6606 18.9412 25.6134 19.056 25.611H23.2799C23.3908 25.611 23.5006 25.589 23.603 25.5462C23.7053 25.5034 23.7982 25.4406 23.8761 25.3617C23.954 25.2827 24.0155 25.1891 24.0569 25.0861C24.0984 24.9832 24.119 24.8731 24.1175 24.7622C24.1161 24.6512 24.0926 24.5417 24.0485 24.4399C24.0043 24.3381 23.9404 24.2461 23.8605 24.1692C23.7805 24.0923 23.6861 24.0321 23.5826 23.9919C23.4792 23.9518 23.3688 23.9327 23.2579 23.9355C22.053 23.9103 19.9069 24.2495 18.8499 23.5276L17.4945 22.7513C17.1287 22.5434 16.7073 22.4541 16.2886 22.4957C15.8699 22.5374 15.4744 22.7079 15.1567 22.9838L11.5469 26.1155L15.0076 29.5761C15.2163 29.364 15.4678 29.1987 15.7453 29.0913C16.0229 28.9839 16.3201 28.9369 16.6173 28.9533L20.8806 29.2121C21.6918 29.2616 22.5029 29.1141 23.2448 28.7822C27.0914 27.0409 28.9643 23.4311 29.7407 21.4354C29.7843 21.3194 29.7992 21.1947 29.7842 21.0717C29.7692 20.9487 29.7247 20.8312 29.6545 20.7291C29.5843 20.627 29.4905 20.5434 29.381 20.4854C29.2715 20.4274 29.1496 20.3967 29.0258 20.3959Z" fill="white"/>
<path d="M20.6473 21.1243C22.2918 21.1229 23.8685 20.469 25.0313 19.3062C26.1941 18.1434 26.848 16.5667 26.8494 14.9222C26.5107 6.69401 14.7827 6.69638 14.4453 14.9223C14.4467 16.5667 15.1006 18.1434 16.2634 19.3062C17.4262 20.469 19.0029 21.1229 20.6473 21.1243ZM16.1471 13.4002C16.5008 12.5505 17.0745 11.8105 17.8092 11.2562C18.5439 10.7019 19.413 10.3534 20.3272 10.2466C20.4429 10.2332 20.5592 10.2663 20.6505 10.3387C20.7418 10.4111 20.8006 10.5168 20.814 10.6326C20.8274 10.7483 20.7942 10.8646 20.7219 10.9559C20.6495 11.0472 20.5438 11.1061 20.428 11.1194C19.6687 11.2068 18.9466 11.4956 18.3366 11.9561C17.7266 12.4165 17.2508 13.0317 16.9586 13.738C16.912 13.8428 16.8262 13.9253 16.7196 13.9677C16.6129 14.0102 16.494 14.0093 16.388 13.9652C16.2821 13.9211 16.1976 13.8373 16.1526 13.7317C16.1075 13.6262 16.1056 13.5072 16.1471 13.4002ZM24.9633 16.1109C25.0708 16.1559 25.156 16.2416 25.2004 16.3493C25.2448 16.457 25.2447 16.5778 25.2002 16.6855C24.8465 17.5351 24.2728 18.2752 23.5381 18.8295C22.8034 19.3838 21.9343 19.7323 21.0202 19.8391C20.9053 19.8508 20.7905 19.8167 20.7005 19.7443C20.6105 19.672 20.5527 19.5671 20.5394 19.4524C20.5262 19.3377 20.5586 19.2224 20.6297 19.1314C20.7008 19.0405 20.8048 18.9811 20.9193 18.9663C21.6786 18.8789 22.4007 18.59 23.0107 18.1296C23.6208 17.6692 24.0966 17.054 24.3888 16.3477C24.4338 16.2403 24.5195 16.1551 24.6272 16.1107C24.7348 16.0663 24.8557 16.0664 24.9633 16.1109ZM17.4718 14.9222C17.473 14.0804 17.808 13.2734 18.4033 12.6781C18.9985 12.0829 19.8055 11.7479 20.6473 11.7466C24.85 11.8971 24.8489 17.948 20.6473 18.0978C19.8055 18.0965 18.9985 17.7615 18.4032 17.1663C17.808 16.571 17.473 15.764 17.4718 14.9222Z" fill="white"/>
<path d="M22.9404 14.9224C22.8443 11.8849 18.4395 11.8856 18.3438 14.9224C18.4399 17.9598 22.8447 17.9591 22.9404 14.9224Z" fill="white"/>
<path d="M31.3319 11.3463L29.6441 9.29289C29.6016 9.24501 29.5494 9.20669 29.491 9.18044C29.4326 9.15419 29.3693 9.14062 29.3053 9.14062C29.2412 9.14062 29.1779 9.15419 29.1195 9.18044C29.0611 9.20669 29.009 9.24501 28.9664 9.29289L27.2788 11.3463C27.2053 11.4362 27.1704 11.5516 27.1818 11.6672C27.1933 11.7828 27.2501 11.8891 27.3398 11.9628C27.4295 12.0366 27.5449 12.0717 27.6605 12.0605C27.7761 12.0493 27.8825 11.9927 27.9564 11.9032L28.8666 10.7958V15.7248C28.8689 15.8396 28.9161 15.949 28.9981 16.0294C29.0801 16.1098 29.1904 16.1549 29.3053 16.1549C29.4201 16.1549 29.5304 16.1098 29.6124 16.0294C29.6944 15.949 29.7416 15.8396 29.7439 15.7248V10.7957L30.6543 11.9032C30.7289 11.9906 30.8348 12.0452 30.9493 12.0554C31.0637 12.0655 31.1776 12.0303 31.2664 11.9573C31.3552 11.8844 31.4118 11.7795 31.4241 11.6652C31.4363 11.551 31.4032 11.4365 31.3319 11.3463Z" fill="white"/>
<defs>
<linearGradient id="paint0_linear_2735_35825" x1="38.9781" y1="57.1895" x2="-5.74477" y2="51.9117" gradientUnits="userSpaceOnUse">
<stop stop-color="#2E96FF"/>
<stop offset="1" stop-color="#015CB8"/>
</linearGradient>
</defs>
</svg>
