<svg width="40" height="41" viewBox="0 0 40 41" fill="none" xmlns="http://www.w3.org/2000/svg">
<rect y="0.564453" width="40" height="40" rx="20" fill="url(#paint0_linear_2735_35810)"/>
<path d="M18.5938 26.6108V27.4639L18.949 27.3755C19.0231 27.3563 19.1019 27.3563 19.176 27.3755L19.5312 27.4639V26.6108C19.3797 26.6417 19.223 26.6582 19.0625 26.6582C18.902 26.6582 18.7453 26.6417 18.5938 26.6108Z" fill="#FFFEFE"/>
<path d="M19.0625 22.9082C18.287 22.9082 17.6562 23.539 17.6562 24.3145C17.6562 25.0899 18.287 25.7207 19.0625 25.7207C19.838 25.7207 20.4688 25.0899 20.4688 24.3145C20.4688 23.539 19.838 22.9082 19.0625 22.9082ZM19.0625 24.7832C18.8036 24.7832 18.5938 24.5733 18.5938 24.3145C18.5938 24.0556 18.8036 23.8457 19.0625 23.8457C19.3214 23.8457 19.5312 24.0556 19.5312 24.3145C19.5312 24.5733 19.3214 24.7832 19.0625 24.7832Z" fill="#FFFEFE"/>
<path d="M21.4062 15.877C21.4062 14.5847 20.3548 13.5332 19.0625 13.5332C17.7702 13.5332 16.7188 14.5847 16.7188 15.877V17.2832H21.4062V15.877Z" fill="#FFFEFE"/>
<path d="M22.3438 18.6895C22.3438 18.4308 22.1336 18.2207 21.875 18.2207H16.25C15.9914 18.2207 15.7812 18.4308 15.7812 18.6895V19.1582H22.3438V18.6895Z" fill="#FFFEFE"/>
<path d="M22.3438 22.4395V20.0957H15.7812V22.4395C15.7812 22.6981 15.9914 22.9082 16.25 22.9082H17.1995C17.6278 22.3424 18.2999 21.9707 19.0625 21.9707C19.8251 21.9707 20.4972 22.3424 20.9255 22.9082H21.875C22.1336 22.9082 22.3438 22.6981 22.3438 22.4395Z" fill="#FFFEFE"/>
<path d="M27.0312 23.8457V11.6582C27.0312 11.1426 26.6094 10.7207 26.0938 10.7207H14.4219C14.3891 10.8754 14.375 11.0301 14.375 11.1895V12.5957C14.375 13.3691 13.7422 14.002 12.9688 14.002H11.5625C11.4031 14.002 11.2484 14.016 11.0938 14.0535V29.4707C11.0938 29.9863 11.5156 30.4082 12.0312 30.4082H22.7379C22.4859 29.8334 22.3438 29.1999 22.3438 28.5332C22.3438 25.9484 24.4467 23.8457 27.0312 23.8457ZM21.4062 24.3145C21.4062 25.0771 21.0345 25.7492 20.4688 26.1775V28.0645C20.4688 28.2087 20.4024 28.3451 20.2884 28.4339C20.1738 28.5232 20.0172 28.5516 19.8865 28.519L19.0625 28.3135L18.2385 28.519C18.098 28.5547 17.9501 28.5227 17.8366 28.4339C17.7226 28.3451 17.6562 28.2087 17.6562 28.0645V26.1775C17.0905 25.7492 16.7188 25.0771 16.7188 24.3145C16.7188 24.1539 16.7352 23.9972 16.7661 23.8457H16.25C15.4745 23.8457 14.8438 23.2149 14.8438 22.4395V18.6895C14.8438 18.0792 15.2368 17.5637 15.7812 17.3696V15.877C15.7812 14.0679 17.2534 12.5957 19.0625 12.5957C20.8716 12.5957 22.3438 14.0679 22.3438 15.877V17.3696C22.8882 17.5637 23.2812 18.0792 23.2812 18.6895V22.4395C23.2812 23.2149 22.6505 23.8457 21.875 23.8457H21.3589C21.3898 23.9972 21.4062 24.1539 21.4062 24.3145Z" fill="#FFFEFE"/>
<path d="M27.0312 24.7832C24.9635 24.7832 23.2812 26.4655 23.2812 28.5332C23.2812 30.6009 24.9635 32.2832 27.0312 32.2832C29.099 32.2832 30.7812 30.6009 30.7812 28.5332C30.7812 26.4655 29.099 24.7832 27.0312 24.7832ZM29.0033 27.7708L26.8159 29.9585C26.6392 30.1351 26.331 30.1364 26.153 29.9584C26.144 29.9494 25.0592 28.8646 25.0592 28.8646C24.8761 28.6815 24.8761 28.3849 25.0592 28.2018C25.2423 28.0187 25.5389 28.0187 25.722 28.2018L26.4845 28.9642L28.3405 27.108C28.5236 26.9249 28.8202 26.9249 29.0033 27.108C29.1864 27.2911 29.1864 27.5877 29.0033 27.7708Z" fill="#FFFEFE"/>
<path d="M12.9689 13.0646C13.2273 13.0646 13.4377 12.8543 13.4377 12.5959V11.1896C13.4377 10.3639 13.7466 9.61056 14.2519 9.0332C11.8616 9.60698 9.98003 11.4886 9.40625 13.8789C9.9836 13.3736 10.7369 13.0646 11.5627 13.0646H12.9689Z" fill="#FFFEFE"/>
<path d="M24.2188 8.8457H16.7188C15.9547 8.8457 15.2703 9.21601 14.8438 9.7832H25.1562C25.1562 9.26756 24.7344 8.8457 24.2188 8.8457Z" fill="#FFFEFE"/>
<path d="M9.21875 16.3457V27.5957C9.21875 28.1113 9.64063 28.5332 10.1562 28.5332V14.4707C9.58905 14.8973 9.21875 15.5816 9.21875 16.3457Z" fill="#FFFEFE"/>
<defs>
<linearGradient id="paint0_linear_2735_35810" x1="38.9781" y1="57.1895" x2="-5.74477" y2="51.9117" gradientUnits="userSpaceOnUse">
<stop stop-color="#2E96FF"/>
<stop offset="1" stop-color="#015CB8"/>
</linearGradient>
</defs>
</svg>
