<svg width="40" height="41" viewBox="0 0 40 41" fill="none" xmlns="http://www.w3.org/2000/svg">
<rect y="0.564453" width="40" height="40" rx="20" fill="url(#paint0_linear_2735_35854)"/>
<path d="M31.3722 23.1895V10.502C31.3722 10.3859 31.3261 10.2746 31.244 10.1926C31.162 10.1105 31.0507 10.0645 30.9347 10.0645H23.3047L24.3547 10.9395H30.0597C30.1757 10.9395 30.287 10.9855 30.369 11.0676C30.4511 11.1496 30.4972 11.2609 30.4972 11.377V23.1895H31.3722Z" fill="white"/>
<path d="M9.5 11.377C9.5 11.2609 9.54609 11.1496 9.62814 11.0676C9.71019 10.9855 9.82147 10.9395 9.9375 10.9395H15.6425L16.6925 10.0645H9.0625C8.94647 10.0645 8.83519 10.1105 8.75314 10.1926C8.67109 10.2746 8.625 10.3859 8.625 10.502V23.1895H9.5V11.377Z" fill="white"/>
<path d="M20 13.5645C19.3943 13.5645 18.8022 13.7441 18.2986 14.0806C17.7949 14.4171 17.4024 14.8954 17.1706 15.455C16.9388 16.0146 16.8782 16.6304 16.9963 17.2244C17.1145 17.8185 17.4062 18.3642 17.8345 18.7925C18.2628 19.2208 18.8085 19.5124 19.4025 19.6306C19.9966 19.7488 20.6124 19.6881 21.172 19.4563C21.7316 19.2245 22.2099 18.832 22.5464 18.3284C22.8829 17.8248 23.0625 17.2327 23.0625 16.627C23.0616 15.815 22.7386 15.0366 22.1645 14.4625C21.5904 13.8883 20.8119 13.5654 20 13.5645ZM21.3125 15.752H20.4375V15.3145H19.5625V16.1895H20.875C20.991 16.1895 21.1023 16.2355 21.1844 16.3176C21.2664 16.3996 21.3125 16.5109 21.3125 16.627V18.377C21.3125 18.493 21.2664 18.6043 21.1844 18.6863C21.1023 18.7684 20.991 18.8145 20.875 18.8145H20.4375V19.252H19.5625V18.8145H19.125C19.009 18.8145 18.8977 18.7684 18.8156 18.6863C18.7336 18.6043 18.6875 18.493 18.6875 18.377V17.502H19.5625V17.9395H20.4375V17.0645H19.125C19.009 17.0645 18.8977 17.0184 18.8156 16.9363C18.7336 16.8543 18.6875 16.743 18.6875 16.627V14.877C18.6875 14.7609 18.7336 14.6496 18.8156 14.5676C18.8977 14.4855 19.009 14.4395 19.125 14.4395H19.5625V14.002H20.4375V14.4395H20.875C20.991 14.4395 21.1023 14.4855 21.1844 14.5676C21.2664 14.6496 21.3125 14.7609 21.3125 14.877V15.752Z" fill="white"/>
<path d="M18.6891 30.1895V31.0645C18.6887 31.1365 18.6705 31.2074 18.6362 31.2707C18.6018 31.3341 18.5524 31.3879 18.4922 31.4276L18.3828 31.502H21.6203L21.5109 31.4276C21.4508 31.3879 21.4013 31.3341 21.3669 31.2707C21.3326 31.2074 21.3144 31.1365 21.3141 31.0645V30.1895H18.6891Z" fill="white"/>
<path d="M22.6219 27.1488V26.0332C22.6219 25.7431 22.7371 25.4649 22.9422 25.2598C23.1473 25.0547 23.4255 24.9395 23.7156 24.9395C23.8489 24.9396 23.981 24.9648 24.105 25.0138C24.222 24.8269 24.393 24.6798 24.5954 24.5919C24.7977 24.5041 25.0219 24.4796 25.2384 24.5218C25.4549 24.564 25.6536 24.6708 25.8082 24.8281C25.9628 24.9855 26.066 25.186 26.1044 25.4032C26.1818 25.3854 26.2611 25.3765 26.3406 25.377C26.5972 25.3771 26.8457 25.4674 27.0424 25.6321C27.2392 25.7969 27.3717 26.0256 27.4169 26.2782C27.4943 26.2604 27.5736 26.2515 27.6531 26.252C27.9432 26.252 28.2214 26.3672 28.4265 26.5723C28.6316 26.7774 28.7469 27.0556 28.7469 27.3457V29.3145H32.1812L31.4287 24.0645H8.565L7.8125 29.3145H11.2469V27.3457C11.2469 27.0556 11.3621 26.7774 11.5672 26.5723C11.7723 26.3672 12.0505 26.252 12.3406 26.252C12.4201 26.2515 12.4994 26.2604 12.5769 26.2782C12.622 26.0256 12.7546 25.7969 12.9513 25.6321C13.1481 25.4674 13.3965 25.3771 13.6531 25.377C13.7326 25.3765 13.8119 25.3854 13.8894 25.4032C13.9277 25.186 14.031 24.9855 14.1856 24.8281C14.3402 24.6708 14.5388 24.564 14.7553 24.5218C14.9718 24.4796 15.1961 24.5041 15.3984 24.5919C15.6007 24.6798 15.7717 24.8269 15.8888 25.0138C16.0127 24.9648 16.1448 24.9396 16.2781 24.9395C16.5682 24.9395 16.8464 25.0547 17.0515 25.2598C17.2566 25.4649 17.3719 25.7431 17.3719 26.0332V27.1488C17.444 27.1348 17.5172 27.1275 17.5906 27.127C17.8807 27.127 18.1589 27.2422 18.364 27.4473C18.5691 27.6524 18.6844 27.9306 18.6844 28.2207V29.3145H21.3094V28.2207C21.3094 27.9306 21.4246 27.6524 21.6297 27.4473C21.8348 27.2422 22.113 27.127 22.4031 27.127C22.4766 27.1275 22.5498 27.1348 22.6219 27.1488Z" fill="white"/>
<path d="M11.25 30.627V30.1895H7.75V31.502H11.7444L11.3244 30.8676C11.2757 30.7968 11.2498 30.7129 11.25 30.627Z" fill="white"/>
<path d="M32.2522 30.1895H28.7522V30.627C28.7524 30.7129 28.7265 30.7968 28.6778 30.8676L28.2578 31.502H32.2522V30.1895Z" fill="white"/>
<path d="M16.6969 31.5763L17.8125 30.8282V28.2207C17.8125 28.1627 17.7895 28.107 17.7484 28.066C17.7074 28.025 17.6518 28.002 17.5938 28.002C17.5357 28.002 17.4801 28.025 17.4391 28.066C17.398 28.107 17.375 28.1627 17.375 28.2207V29.3145H16.5V26.0332C16.5 25.9752 16.477 25.9195 16.4359 25.8785C16.3949 25.8375 16.3393 25.8145 16.2812 25.8145C16.2232 25.8145 16.1676 25.8375 16.1266 25.8785C16.0855 25.9195 16.0625 25.9752 16.0625 26.0332V28.002H15.1875V25.5957C15.1875 25.5377 15.1645 25.482 15.1234 25.441C15.0824 25.4 15.0268 25.377 14.9688 25.377C14.9107 25.377 14.8551 25.4 14.8141 25.441C14.773 25.482 14.75 25.5377 14.75 25.5957V28.002H13.875V26.4707C13.875 26.4127 13.852 26.357 13.8109 26.316C13.7699 26.275 13.7143 26.252 13.6562 26.252C13.5982 26.252 13.5426 26.275 13.5016 26.316C13.4605 26.357 13.4375 26.4127 13.4375 26.4707V28.4395H12.5625V27.3457C12.5625 27.2877 12.5395 27.232 12.4984 27.191C12.4574 27.15 12.4018 27.127 12.3438 27.127C12.2857 27.127 12.2301 27.15 12.1891 27.191C12.148 27.232 12.125 27.2877 12.125 27.3457V30.4957L12.9256 31.6988C12.9743 31.7696 13.0002 31.8536 13 31.9395V33.6895H16.5V31.9395C16.5004 31.8674 16.5185 31.7965 16.5529 31.7332C16.5872 31.6698 16.6367 31.616 16.6969 31.5763Z" fill="white"/>
<path d="M29.625 11.8145H25.4075L28.155 14.1026C28.2236 14.1606 28.2729 14.2382 28.2963 14.3249C28.3197 14.4117 28.3162 14.5035 28.2862 14.5882C28.2561 14.673 28.2003 14.7464 28.1267 14.7982C28.053 14.8499 27.965 14.8774 27.875 14.877H24.9262L26.5494 21.7763C26.5645 21.8406 26.5648 21.9074 26.5504 21.9718C26.536 22.0362 26.5073 22.0965 26.4662 22.1482C26.4258 22.2001 26.374 22.2421 26.3149 22.2709C26.2557 22.2997 26.1908 22.3146 26.125 22.3145H13.875C13.8092 22.3146 13.7443 22.2997 13.6851 22.2709C13.626 22.2421 13.5742 22.2001 13.5337 22.1482C13.4927 22.0965 13.464 22.0362 13.4496 21.9718C13.4352 21.9074 13.4355 21.8406 13.4506 21.7763L15.0738 14.877H12.125C12.035 14.8774 11.947 14.8499 11.8733 14.7982C11.7997 14.7464 11.7439 14.673 11.7138 14.5882C11.6838 14.5035 11.6803 14.4117 11.7037 14.3249C11.7271 14.2382 11.7764 14.1606 11.845 14.1026L14.5925 11.8145H10.375V23.1895H29.625V11.8145Z" fill="white"/>
<path d="M27.0744 31.6988L27.875 30.4957V27.3457C27.875 27.2877 27.852 27.232 27.8109 27.191C27.7699 27.15 27.7143 27.127 27.6562 27.127C27.5982 27.127 27.5426 27.15 27.5016 27.191C27.4605 27.232 27.4375 27.2877 27.4375 27.3457V28.4395H26.5625V26.4707C26.5625 26.4127 26.5395 26.357 26.4984 26.316C26.4574 26.275 26.4018 26.252 26.3438 26.252C26.2857 26.252 26.2301 26.275 26.1891 26.316C26.148 26.357 26.125 26.4127 26.125 26.4707V28.002H25.25V25.5957C25.25 25.5377 25.227 25.482 25.1859 25.441C25.1449 25.4 25.0893 25.377 25.0312 25.377C24.9732 25.377 24.9176 25.4 24.8766 25.441C24.8355 25.482 24.8125 25.5377 24.8125 25.5957V28.002H23.9375V26.0332C23.9375 25.9752 23.9145 25.9195 23.8734 25.8785C23.8324 25.8375 23.7768 25.8145 23.7188 25.8145C23.6607 25.8145 23.6051 25.8375 23.5641 25.8785C23.523 25.9195 23.5 25.9752 23.5 26.0332V29.3145H22.625V28.2207C22.625 28.1627 22.602 28.107 22.5609 28.066C22.5199 28.025 22.4643 28.002 22.4062 28.002C22.3482 28.002 22.2926 28.025 22.2516 28.066C22.2105 28.107 22.1875 28.1627 22.1875 28.2207V30.8282L23.3031 31.5763C23.3633 31.616 23.4128 31.6698 23.4471 31.7332C23.4815 31.7965 23.4996 31.8674 23.5 31.9395V33.6895H27V31.9395C26.9998 31.8536 27.0257 31.7696 27.0744 31.6988Z" fill="white"/>
<path d="M24.3784 14.0021H26.6709L20.0034 8.4458L13.3359 14.0021H15.6284C15.6942 14.0019 15.7592 14.0168 15.8183 14.0456C15.8775 14.0744 15.9293 14.1164 15.9697 14.1683C16.0107 14.22 16.0395 14.2803 16.0539 14.3447C16.0683 14.4091 16.0679 14.4759 16.0528 14.5402L14.4297 21.4396H25.5772L23.9541 14.5402C23.939 14.4759 23.9386 14.4091 23.953 14.3447C23.9674 14.2803 23.9962 14.22 24.0372 14.1683C24.0776 14.1164 24.1294 14.0744 24.1885 14.0456C24.2477 14.0168 24.3126 14.0019 24.3784 14.0021ZM20.0034 20.5646C19.2247 20.5646 18.4634 20.3336 17.8159 19.901C17.1684 19.4683 16.6637 18.8534 16.3657 18.1339C16.0676 17.4144 15.9897 16.6227 16.1416 15.8589C16.2935 15.0951 16.6685 14.3935 17.2192 13.8428C17.7699 13.2921 18.4715 12.9171 19.2353 12.7652C19.9991 12.6133 20.7908 12.6913 21.5103 12.9893C22.2297 13.2873 22.8447 13.792 23.2773 14.4395C23.71 15.087 23.9409 15.8483 23.9409 16.6271C23.9393 17.6708 23.524 18.6714 22.7859 19.4095C22.0478 20.1476 21.0472 20.5629 20.0034 20.5646Z" fill="white"/>
<defs>
<linearGradient id="paint0_linear_2735_35854" x1="38.9781" y1="57.1895" x2="-5.74477" y2="51.9117" gradientUnits="userSpaceOnUse">
<stop stop-color="#2E96FF"/>
<stop offset="1" stop-color="#015CB8"/>
</linearGradient>
</defs>
</svg>
