<svg width="40" height="41" viewBox="0 0 40 41" fill="none" xmlns="http://www.w3.org/2000/svg">
<rect y="0.564453" width="40" height="40" rx="20" fill="url(#paint0_linear_2735_35900)"/>
<path fill-rule="evenodd" clip-rule="evenodd" d="M24.6016 14.7666H25.9794V15.7301H24.6016V14.7666Z" fill="#FFFBFB"/>
<path fill-rule="evenodd" clip-rule="evenodd" d="M19.9127 20.3066C19.6679 20.3066 19.4688 20.5058 19.4688 20.7505C19.4688 20.9953 19.6679 21.1944 19.9127 21.1944C20.1574 21.1944 20.3566 20.9953 20.3566 20.7505C20.3566 20.5058 20.1574 20.3066 19.9127 20.3066Z" fill="#FFFBFB"/>
<path fill-rule="evenodd" clip-rule="evenodd" d="M15.9205 16.9507C15.6757 16.9507 15.4766 17.1499 15.4766 17.3946C15.4766 17.6393 15.6757 17.8385 15.9205 17.8385C16.0468 17.8385 16.1606 17.7856 16.2414 17.7008C16.2454 17.6962 16.2494 17.6917 16.2534 17.6877C16.3223 17.6091 16.3644 17.5067 16.3644 17.3946C16.3649 17.1499 16.1652 16.9507 15.9205 16.9507Z" fill="#FFFBFB"/>
<path fill-rule="evenodd" clip-rule="evenodd" d="M11.3189 20.4575C11.0742 20.4575 10.875 20.6567 10.875 20.9014C10.875 21.1461 11.0742 21.3453 11.3189 21.3453C11.5636 21.3453 11.7628 21.1461 11.7628 20.9014C11.7628 20.6567 11.5642 20.4575 11.3189 20.4575Z" fill="#FFFBFB"/>
<path fill-rule="evenodd" clip-rule="evenodd" d="M29.5311 17.8335C28.0019 17.8335 26.7578 19.0776 26.7578 20.6067C26.7578 22.1359 28.0019 23.38 29.5311 23.38C31.0603 23.38 32.3043 22.1359 32.3043 20.6067C32.3043 19.0776 31.0603 17.8335 29.5311 17.8335ZM28.0855 21.6397L29.1185 20.6067L28.0855 19.5738C27.9717 19.46 27.9717 19.2756 28.0855 19.1618C28.1994 19.048 28.3837 19.048 28.4976 19.1618L29.5305 20.1947L30.5634 19.1618C30.6772 19.048 30.8616 19.048 30.9755 19.1618C31.0893 19.2756 31.0893 19.46 30.9755 19.5738L29.9425 20.6067L30.9755 21.6397C31.0893 21.7535 31.0893 21.9379 30.9755 22.0517C30.9191 22.1086 30.8446 22.1365 30.77 22.1365C30.6955 22.1365 30.6209 22.108 30.564 22.0517L29.5311 21.0188L28.4981 22.0517C28.4418 22.1086 28.3672 22.1365 28.2927 22.1365C28.2181 22.1365 28.1436 22.108 28.0867 22.0517C27.9723 21.9379 27.9723 21.7535 28.0855 21.6397Z" fill="#FFFBFB"/>
<path fill-rule="evenodd" clip-rule="evenodd" d="M24.4112 17.8579L20.8788 20.4018C20.918 20.5105 20.9396 20.6283 20.9396 20.7506C20.9396 21.3163 20.4787 21.7773 19.913 21.7773C19.3467 21.7773 18.8863 21.3169 18.8863 20.7506C18.8863 20.6032 18.9176 20.4632 18.974 20.3363L16.4574 18.267C16.3003 18.3649 16.1148 18.4213 15.9167 18.4213C15.7187 18.4213 15.5337 18.3649 15.3772 18.2676L12.2801 20.5463C12.3211 20.6567 12.3433 20.7762 12.3433 20.9009C12.3433 21.4666 11.8829 21.9275 11.3166 21.9275C10.7504 21.9275 10.29 21.4671 10.29 20.9009C10.29 20.3346 10.7504 19.8742 11.3166 19.8742C11.5471 19.8742 11.76 19.9505 11.9318 20.0791L14.9879 17.8305C14.9253 17.6979 14.8906 17.55 14.8906 17.394C14.8906 16.8278 15.351 16.3674 15.9173 16.3674C16.4835 16.3674 16.944 16.8278 16.944 17.394C16.944 17.55 16.9087 17.6985 16.8461 17.8311L19.3518 19.8913C19.5135 19.7854 19.7064 19.7234 19.9135 19.7234C20.1463 19.7234 20.3609 19.8014 20.5333 19.9317L23.4141 17.8573H22.7517C22.5906 17.8573 22.4603 17.727 22.4603 17.5659C22.4603 17.4049 22.5906 17.2745 22.7517 17.2745H24.0225V16.0214V16.0202V14.4757V14.4745V14.4671L24.0231 14.4597L24.0236 14.4523L24.0242 14.4449L24.0253 14.4375L24.0265 14.4301L24.0276 14.4227L24.0287 14.4153L24.0305 14.4085L24.0322 14.4017L24.0339 14.3949L24.0361 14.388L24.0384 14.3812L24.0407 14.3744L24.043 14.3675L24.0458 14.3607L24.0487 14.3544L24.0515 14.3482L24.0549 14.3419L24.0583 14.3357L24.0618 14.3294L24.0652 14.3231L24.0692 14.3175L24.0731 14.3118L24.0771 14.3061L24.0811 14.3004L24.0851 14.2947L24.0896 14.289L24.0942 14.2839L24.0987 14.2788L24.1033 14.2736L24.1084 14.2685L24.1135 14.2634L24.1187 14.2588L24.1238 14.2543L24.1289 14.2497L24.1346 14.2452L24.1403 14.2412L24.146 14.2372L24.1517 14.2332L24.1574 14.2292L24.1631 14.2253L24.1693 14.2218L24.1756 14.2184L24.1818 14.215L24.1881 14.2116L24.1944 14.2088L24.2006 14.2059L24.2074 14.2031L24.2143 14.2008L24.2211 14.1985L24.2279 14.1962L24.2348 14.194L24.2416 14.1923L24.2484 14.1905L24.2553 14.1888L24.2627 14.1877L24.2701 14.1866L24.2774 14.1854L24.2848 14.1849L24.2922 14.1843L24.2996 14.1837L24.307 14.1831H24.3144H26.275C26.4361 14.1831 26.5664 14.3135 26.5664 14.4745V16.0202C26.5664 16.1818 26.4361 16.3122 26.275 16.3122H24.6058V17.2745H25.8766C26.0377 17.2745 26.168 17.4049 26.168 17.5659C26.168 17.727 26.0377 17.8573 25.8766 17.8573H24.4112V17.8579ZM12.2135 15.2024L11.4868 15.9292L10.7595 15.2024C10.6457 15.0886 10.4613 15.0886 10.3474 15.2024C10.2336 15.3162 10.2336 15.5006 10.3474 15.6144L11.0748 16.3418L10.3474 17.0691C10.2336 17.1829 10.2336 17.3673 10.3474 17.4811C10.4044 17.5375 10.4789 17.5659 10.5535 17.5659C10.628 17.5659 10.7026 17.5375 10.7589 17.4811L11.4862 16.7538L12.2135 17.4811C12.2705 17.5375 12.345 17.5659 12.4196 17.5659C12.4941 17.5659 12.5687 17.5375 12.6256 17.4805C12.7394 17.3667 12.7394 17.1823 12.6256 17.0685L11.8983 16.3418L12.625 15.615C12.7388 15.5012 12.7388 15.3168 12.625 15.203C12.5118 15.0892 12.3268 15.0892 12.2135 15.2024ZM27.7052 13.7256H9.12273C8.34875 13.7256 7.71875 14.3556 7.71875 15.1296V26.0837C7.71875 26.8577 8.34875 27.4877 9.12273 27.4877H27.7052C28.4792 27.4877 29.1092 26.8577 29.1092 26.0837V23.9359C27.457 23.7276 26.1754 22.314 26.1754 20.6066C26.1754 18.8993 27.4576 17.4857 29.1092 17.2774V15.1296C29.1092 14.3556 28.4792 13.7256 27.7052 13.7256ZM24.7208 25.3934L25.4481 24.6661C25.5619 24.5523 25.7463 24.5523 25.8601 24.6661C25.974 24.7799 25.974 24.9643 25.8601 25.0781L25.1328 25.8054L25.8601 26.5327C25.974 26.6466 25.974 26.831 25.8601 26.9448C25.8038 27.0011 25.7292 27.0296 25.6547 27.0296C25.5801 27.0296 25.5056 27.0011 25.4487 26.9448L24.7214 26.2175L23.994 26.9448C23.9377 27.0011 23.8631 27.0296 23.7886 27.0296C23.714 27.0296 23.6395 27.0011 23.5826 26.9448C23.4688 26.831 23.4688 26.6466 23.5826 26.5327L24.3099 25.8054L23.5826 25.0781C23.4688 24.9643 23.4688 24.7799 23.5826 24.6661C23.6964 24.5523 23.8808 24.5523 23.9946 24.6661L24.7208 25.3934ZM19.4042 25.3388C19.5653 25.3388 19.6956 25.4691 19.6956 25.6301C19.6956 25.7912 19.5653 25.9215 19.4042 25.9215C19.2124 25.9215 19.0422 25.851 18.892 25.7895C18.7822 25.744 18.678 25.7007 18.6018 25.7007C18.5255 25.7007 18.4219 25.744 18.3115 25.7895C18.1613 25.8515 17.9911 25.9215 17.7993 25.9215C17.6075 25.9215 17.4374 25.851 17.2871 25.7895C17.1773 25.744 17.0731 25.7007 16.9969 25.7007C16.9206 25.7007 16.817 25.744 16.7066 25.7895C16.5564 25.8515 16.3862 25.9215 16.1944 25.9215C16.0027 25.9215 15.8325 25.851 15.6822 25.7895C15.5724 25.744 15.4683 25.7007 15.392 25.7007C15.3157 25.7007 15.2122 25.744 15.1018 25.7895C14.9515 25.8515 14.7814 25.9215 14.5896 25.9215C14.3978 25.9215 14.2276 25.851 14.0774 25.7895C13.9675 25.744 13.8634 25.7007 13.7871 25.7007C13.7109 25.7007 13.6073 25.744 13.4969 25.7895C13.3466 25.8515 13.1765 25.9215 12.9847 25.9215C12.7929 25.9215 12.6227 25.851 12.4725 25.7895C12.3627 25.744 12.2585 25.7007 12.1822 25.7007C12.106 25.7007 12.0024 25.744 11.892 25.7895C11.7418 25.8515 11.5716 25.9215 11.3798 25.9215C11.188 25.9215 11.0179 25.851 10.8676 25.7895C10.7578 25.744 10.6536 25.7007 10.5774 25.7007C10.4163 25.7007 10.286 25.5704 10.286 25.4093C10.286 25.2483 10.4163 25.1179 10.5774 25.1179C10.7692 25.1179 10.9393 25.1885 11.0896 25.25C11.1994 25.2955 11.3035 25.3388 11.3798 25.3388C11.4555 25.3388 11.5596 25.2955 11.6701 25.25C11.8203 25.1879 11.9905 25.1179 12.1822 25.1179C12.374 25.1179 12.5442 25.1885 12.6944 25.25C12.8043 25.2955 12.9084 25.3388 12.9847 25.3388C13.0609 25.3388 13.1645 25.2955 13.2749 25.25C13.4252 25.1879 13.5953 25.1179 13.7871 25.1179C13.9789 25.1179 14.1491 25.1885 14.2993 25.25C14.4092 25.2955 14.5133 25.3388 14.5896 25.3388C14.6658 25.3388 14.7694 25.2955 14.8798 25.25C15.0301 25.1879 15.2002 25.1179 15.392 25.1179C15.5838 25.1179 15.754 25.1885 15.9042 25.25C16.014 25.2955 16.1182 25.3388 16.1944 25.3388C16.2707 25.3388 16.3743 25.2955 16.4847 25.25C16.6349 25.1879 16.8051 25.1179 16.9969 25.1179C17.1887 25.1179 17.3588 25.1885 17.5091 25.25C17.6189 25.2955 17.7231 25.3388 17.7993 25.3388C17.8756 25.3388 17.9792 25.2955 18.0896 25.25C18.2398 25.1879 18.41 25.1179 18.6018 25.1179C18.7935 25.1179 18.9637 25.1885 19.114 25.25C19.2244 25.2961 19.3279 25.3388 19.4042 25.3388ZM19.4042 23.3788C19.5653 23.3788 19.6956 23.5091 19.6956 23.6701C19.6956 23.8312 19.5653 23.9615 19.4042 23.9615C19.2124 23.9615 19.0422 23.891 18.892 23.8295C18.7822 23.784 18.678 23.7407 18.6018 23.7407C18.5255 23.7407 18.4219 23.784 18.3115 23.8295C18.1613 23.8915 17.9911 23.9615 17.7993 23.9615C17.6075 23.9615 17.4374 23.891 17.2871 23.8295C17.1773 23.784 17.0731 23.7407 16.9969 23.7407C16.9206 23.7407 16.817 23.784 16.7066 23.8295C16.5564 23.8915 16.3862 23.9615 16.1944 23.9615C16.0027 23.9615 15.8325 23.891 15.6822 23.8295C15.5724 23.784 15.4683 23.7407 15.392 23.7407C15.3157 23.7407 15.2122 23.784 15.1018 23.8295C14.9515 23.8915 14.7814 23.9615 14.5896 23.9615C14.3978 23.9615 14.2276 23.891 14.0774 23.8295C13.9675 23.784 13.8634 23.7407 13.7871 23.7407C13.7109 23.7407 13.6073 23.784 13.4969 23.8295C13.3466 23.8915 13.1765 23.9615 12.9847 23.9615C12.7929 23.9615 12.6227 23.891 12.4725 23.8295C12.3627 23.784 12.2585 23.7407 12.1822 23.7407C12.106 23.7407 12.0024 23.784 11.892 23.8295C11.7418 23.8915 11.5716 23.9615 11.3798 23.9615C11.188 23.9615 11.0179 23.891 10.8676 23.8295C10.7578 23.784 10.6536 23.7407 10.5774 23.7407C10.4163 23.7407 10.286 23.6104 10.286 23.4493C10.286 23.2883 10.4163 23.1579 10.5774 23.1579C10.7692 23.1579 10.9393 23.2285 11.0896 23.29C11.1994 23.3355 11.3035 23.3788 11.3798 23.3788C11.4555 23.3788 11.5596 23.3355 11.6701 23.29C11.8203 23.2279 11.9905 23.1579 12.1822 23.1579C12.374 23.1579 12.5442 23.2285 12.6944 23.29C12.8043 23.3355 12.9084 23.3788 12.9847 23.3788C13.0609 23.3788 13.1645 23.3355 13.2749 23.29C13.4252 23.2279 13.5953 23.1579 13.7871 23.1579C13.9789 23.1579 14.1491 23.2285 14.2993 23.29C14.4092 23.3355 14.5133 23.3788 14.5896 23.3788C14.6658 23.3788 14.7694 23.3355 14.8798 23.29C15.0301 23.2279 15.2002 23.1579 15.392 23.1579C15.5838 23.1579 15.754 23.2285 15.9042 23.29C16.014 23.3355 16.1182 23.3788 16.1944 23.3788C16.2707 23.3788 16.3743 23.3355 16.4847 23.29C16.6349 23.2279 16.8051 23.1579 16.9969 23.1579C17.1887 23.1579 17.3588 23.2285 17.5091 23.29C17.6189 23.3355 17.7231 23.3788 17.7993 23.3788C17.8756 23.3788 17.9792 23.3355 18.0896 23.29C18.2398 23.2279 18.41 23.1579 18.6018 23.1579C18.7935 23.1579 18.9637 23.2285 19.114 23.29C19.2244 23.3355 19.3279 23.3788 19.4042 23.3788Z" fill="#FFFBFB"/>
<defs>
<linearGradient id="paint0_linear_2735_35900" x1="38.9781" y1="57.1895" x2="-5.74477" y2="51.9117" gradientUnits="userSpaceOnUse">
<stop stop-color="#2E96FF"/>
<stop offset="1" stop-color="#015CB8"/>
</linearGradient>
</defs>
</svg>
