<svg width="40" height="41" viewBox="0 0 40 41" fill="none" xmlns="http://www.w3.org/2000/svg">
<rect y="0.564453" width="40" height="40" rx="20" fill="url(#paint0_linear_2735_35845)"/>
<path d="M14.75 23.627H9.5C9.1519 23.627 8.81806 23.4887 8.57192 23.2425C8.32578 22.9964 8.1875 22.6625 8.1875 22.3145V10.9395C8.1875 10.5914 8.32578 10.2575 8.57192 10.0114C8.81806 9.76523 9.1519 9.62695 9.5 9.62695H16.6094C16.7254 9.62695 16.8367 9.67305 16.9187 9.75509C17.0008 9.83714 17.0469 9.94842 17.0469 10.0645C17.0469 10.1805 17.0008 10.2918 16.9187 10.3738C16.8367 10.4559 16.7254 10.502 16.6094 10.502H9.5C9.38397 10.502 9.27269 10.548 9.19064 10.6301C9.10859 10.7121 9.0625 10.8234 9.0625 10.9395V22.3145C9.0625 22.4305 9.10859 22.5418 9.19064 22.6238C9.27269 22.7059 9.38397 22.752 9.5 22.752H14.75C14.866 22.752 14.9773 22.798 15.0594 22.8801C15.1414 22.9621 15.1875 23.0734 15.1875 23.1895C15.1875 23.3055 15.1414 23.4168 15.0594 23.4988C14.9773 23.5809 14.866 23.627 14.75 23.627Z" fill="white"/>
<path d="M30.5 23.627H25.25C25.134 23.627 25.0227 23.5809 24.9406 23.4988C24.8586 23.4168 24.8125 23.3055 24.8125 23.1895C24.8125 23.0734 24.8586 22.9621 24.9406 22.8801C25.0227 22.798 25.134 22.752 25.25 22.752H30.5C30.616 22.752 30.7273 22.7059 30.8094 22.6238C30.8914 22.5418 30.9375 22.4305 30.9375 22.3145V10.9395C30.9375 10.8234 30.8914 10.7121 30.8094 10.6301C30.7273 10.548 30.616 10.502 30.5 10.502H23.3906C23.2746 10.502 23.1633 10.4559 23.0813 10.3738C22.9992 10.2918 22.9531 10.1805 22.9531 10.0645C22.9531 9.94842 22.9992 9.83714 23.0813 9.75509C23.1633 9.67305 23.2746 9.62695 23.3906 9.62695H30.5C30.8481 9.62695 31.1819 9.76523 31.4281 10.0114C31.6742 10.2575 31.8125 10.5914 31.8125 10.9395V22.3145C31.8125 22.6625 31.6742 22.9964 31.4281 23.2425C31.1819 23.4887 30.8481 23.627 30.5 23.627Z" fill="white"/>
<path d="M20 8.75195C18.529 8.75195 17.091 9.18815 15.8679 10.0054C14.6449 10.8226 13.6916 11.9842 13.1286 13.3432C12.5657 14.7023 12.4184 16.1977 12.7054 17.6404C12.9924 19.0832 13.7007 20.4084 14.7409 21.4486C15.781 22.4887 17.1063 23.1971 18.549 23.484C19.9918 23.771 21.4872 23.6237 22.8462 23.0608C24.2052 22.4979 25.3668 21.5446 26.1841 20.3215C27.0013 19.0984 27.4375 17.6605 27.4375 16.1895C27.4353 14.2176 26.651 12.3271 25.2567 10.9328C23.8624 9.53845 21.9719 8.75415 20 8.75195ZM15.835 14.8376C15.8065 14.9254 15.7509 15.0019 15.6763 15.0562C15.6016 15.1105 15.5117 15.1398 15.4194 15.1399C15.3733 15.1396 15.3276 15.1323 15.2838 15.118C15.1735 15.082 15.082 15.0036 15.0295 14.9002C14.977 14.7967 14.9677 14.6766 15.0038 14.5663C15.2621 13.779 15.702 13.0634 16.2879 12.4774C16.8737 11.8914 17.5892 11.4513 18.3764 11.1928C18.4855 11.1611 18.6025 11.173 18.7029 11.226C18.8033 11.2791 18.8791 11.369 18.9144 11.477C18.9497 11.5849 18.9416 11.7023 18.8919 11.8044C18.8422 11.9064 18.7548 11.9852 18.6481 12.024C17.9916 12.2398 17.3949 12.6068 16.9062 13.0955C16.4176 13.5842 16.0506 14.181 15.835 14.8376ZM20 20.127C19.884 20.127 19.7727 20.0809 19.6906 19.9988C19.6086 19.9168 19.5625 19.8055 19.5625 19.6895V19.1898C19.1879 19.0931 18.856 18.875 18.6185 18.5696C18.381 18.2643 18.2515 17.8888 18.25 17.502C18.25 17.3859 18.2961 17.2746 18.3781 17.1926C18.4602 17.1105 18.5715 17.0645 18.6875 17.0645C18.8035 17.0645 18.9148 17.1105 18.9969 17.1926C19.0789 17.2746 19.125 17.3859 19.125 17.502C19.125 17.675 19.1763 17.8442 19.2725 17.9881C19.3686 18.132 19.5053 18.2441 19.6652 18.3103C19.825 18.3766 20.001 18.3939 20.1707 18.3601C20.3404 18.3264 20.4964 18.243 20.6187 18.1207C20.7411 17.9983 20.8244 17.8424 20.8582 17.6727C20.892 17.5029 20.8746 17.327 20.8084 17.1671C20.7422 17.0072 20.63 16.8706 20.4861 16.7744C20.3422 16.6783 20.1731 16.627 20 16.627C19.5746 16.6275 19.1637 16.4727 18.8443 16.1918C18.5249 15.9108 18.319 15.5229 18.2653 15.1009C18.2116 14.6789 18.3138 14.2519 18.5526 13.8999C18.7914 13.5478 19.1505 13.2951 19.5625 13.1891V12.6895C19.5625 12.5734 19.6086 12.4621 19.6906 12.3801C19.7727 12.298 19.884 12.252 20 12.252C20.116 12.252 20.2273 12.298 20.3094 12.3801C20.3914 12.4621 20.4375 12.5734 20.4375 12.6895V13.1891C20.8121 13.2858 21.144 13.5039 21.3815 13.8093C21.619 14.1146 21.7486 14.4901 21.75 14.877C21.75 14.993 21.7039 15.1043 21.6219 15.1863C21.5398 15.2684 21.4285 15.3145 21.3125 15.3145C21.1965 15.3145 21.0852 15.2684 21.0031 15.1863C20.9211 15.1043 20.875 14.993 20.875 14.877C20.875 14.7039 20.8237 14.5347 20.7275 14.3908C20.6314 14.2469 20.4947 14.1348 20.3349 14.0686C20.175 14.0023 19.999 13.985 19.8293 14.0188C19.6596 14.0525 19.5037 14.1359 19.3813 14.2582C19.2589 14.3806 19.1756 14.5365 19.1418 14.7062C19.1081 14.876 19.1254 15.0519 19.1916 15.2118C19.2578 15.3717 19.37 15.5083 19.5139 15.6045C19.6578 15.7006 19.8269 15.752 20 15.752C20.4254 15.7514 20.8364 15.9062 21.1557 16.1871C21.4751 16.4681 21.681 16.856 21.7347 17.278C21.7884 17.7 21.6862 18.127 21.4474 18.479C21.2086 18.8311 20.8495 19.0838 20.4375 19.1898V19.6895C20.4375 19.8055 20.3914 19.9168 20.3094 19.9988C20.2273 20.0809 20.116 20.127 20 20.127ZM24.9963 17.8126C24.7379 18.5999 24.298 19.3155 23.7121 19.9015C23.1263 20.4875 22.4108 20.9276 21.6236 21.1861C21.5145 21.2178 21.3975 21.2059 21.2971 21.1529C21.1967 21.0998 21.1209 21.0099 21.0856 20.9019C21.0503 20.794 21.0584 20.6766 21.1081 20.5746C21.1578 20.4725 21.2452 20.3937 21.3519 20.3549C22.0084 20.1392 22.605 19.7722 23.0937 19.2836C23.5823 18.7949 23.9493 18.1983 24.165 17.5418C24.1811 17.4852 24.2085 17.4325 24.2455 17.3867C24.2825 17.341 24.3284 17.3032 24.3803 17.2755C24.4323 17.2479 24.4892 17.2311 24.5479 17.226C24.6065 17.2209 24.6655 17.2277 24.7214 17.2459C24.7774 17.2642 24.829 17.2935 24.8734 17.3322C24.9177 17.3709 24.9538 17.4181 24.9794 17.471C25.0051 17.524 25.0198 17.5815 25.0227 17.6403C25.0256 17.6991 25.0166 17.7578 24.9963 17.813V17.8126Z" fill="white"/>
<path d="M22.1875 24.502H17.8125C17.6965 24.502 17.5852 24.548 17.5031 24.6301C17.4211 24.7121 17.375 24.8234 17.375 24.9395V29.752C17.375 30.4481 17.6516 31.1158 18.1438 31.6081C18.6361 32.1004 19.3038 32.377 20 32.377C20.6962 32.377 21.3639 32.1004 21.8562 31.6081C22.3484 31.1158 22.625 30.4481 22.625 29.752V24.9395C22.625 24.8234 22.5789 24.7121 22.4969 24.6301C22.4148 24.548 22.3035 24.502 22.1875 24.502Z" fill="white"/>
<path d="M23.5 25.377H16.5C16.384 25.377 16.2727 25.3309 16.1906 25.2488C16.1086 25.1668 16.0625 25.0555 16.0625 24.9395C16.0625 24.8234 16.1086 24.7121 16.1906 24.6301C16.2727 24.548 16.384 24.502 16.5 24.502H23.5C23.616 24.502 23.7273 24.548 23.8094 24.6301C23.8914 24.7121 23.9375 24.8234 23.9375 24.9395C23.9375 25.0555 23.8914 25.1668 23.8094 25.2488C23.7273 25.3309 23.616 25.377 23.5 25.377Z" fill="white"/>
<defs>
<linearGradient id="paint0_linear_2735_35845" x1="38.9781" y1="57.1895" x2="-5.74477" y2="51.9117" gradientUnits="userSpaceOnUse">
<stop stop-color="#2E96FF"/>
<stop offset="1" stop-color="#015CB8"/>
</linearGradient>
</defs>
</svg>
