<svg width="40" height="41" viewBox="0 0 40 41" fill="none" xmlns="http://www.w3.org/2000/svg">
<rect y="0.564453" width="40" height="40" rx="20" fill="url(#paint0_linear_2735_35890)"/>
<path d="M12.5625 24.9395C12.3207 24.9395 12.125 24.7438 12.125 24.502C12.125 23.7782 11.5363 23.1895 10.8125 23.1895C10.5707 23.1895 10.375 22.9938 10.375 22.752V15.752C10.375 15.5101 10.5707 15.3145 10.8125 15.3145C11.5363 15.3145 12.125 14.7257 12.125 14.002C12.125 13.7601 12.3207 13.5645 12.5625 13.5645H24.8125C25.0543 13.5645 25.25 13.7601 25.25 14.002C25.25 14.7257 25.8387 15.3145 26.5625 15.3145C26.8043 15.3145 27 15.5101 27 15.752V18.7121C27.4633 18.8107 27.9029 18.9725 28.3125 19.1848V13.5645C28.3125 12.8407 27.7238 12.252 27 12.252H10.375C9.65124 12.252 9.0625 12.8407 9.0625 13.5645V24.9395C9.0625 25.6632 9.65124 26.252 10.375 26.252H21.2453C21.033 25.8424 20.8713 25.4028 20.7726 24.9395H12.5625ZM26.5625 13.5645C26.8041 13.5645 27 13.7603 27 14.002C27 14.2436 26.8041 14.4395 26.5625 14.4395C26.3209 14.4395 26.125 14.2436 26.125 14.002C26.125 13.7603 26.3209 13.5645 26.5625 13.5645ZM10.8125 13.5645C11.0541 13.5645 11.25 13.7603 11.25 14.002C11.25 14.2436 11.0541 14.4395 10.8125 14.4395C10.5709 14.4395 10.375 14.2436 10.375 14.002C10.375 13.7603 10.5709 13.5645 10.8125 13.5645ZM10.8125 24.9395C10.5709 24.9395 10.375 24.7436 10.375 24.502C10.375 24.2603 10.5709 24.0645 10.8125 24.0645C11.0541 24.0645 11.25 24.2603 11.25 24.502C11.25 24.7436 11.0541 24.9395 10.8125 24.9395Z" fill="#FFFBFB"/>
<path d="M15.625 17.0645H21.75V17.9395H15.625V17.0645Z" fill="#FFFBFB"/>
<path d="M25.9062 18.5957C25.9801 18.5957 26.0519 18.6037 26.125 18.6068V16.1454C25.2692 15.9711 24.5933 15.2952 24.419 14.4395H12.956C12.7817 15.2952 12.1058 15.9711 11.25 16.1454V22.3585C12.1058 22.5328 12.7817 23.2087 12.956 24.0644H20.6673C20.6643 23.9913 20.6562 23.9195 20.6562 23.8457C20.6562 23.3131 20.7372 22.7992 20.8854 22.3145H14.3125C14.0707 22.3145 13.875 22.1188 13.875 21.877C13.875 21.6351 14.0707 21.4395 14.3125 21.4395H21.2453C22.1196 19.7528 23.8788 18.5957 25.9062 18.5957ZM16.9375 20.5645C16.6959 20.5645 16.5 20.3686 16.5 20.127C16.5 19.8853 16.6959 19.6895 16.9375 19.6895C17.1791 19.6895 17.375 19.8853 17.375 20.127C17.375 20.3686 17.1791 20.5645 16.9375 20.5645ZM18.6875 20.5645C18.4459 20.5645 18.25 20.3686 18.25 20.127C18.25 19.8853 18.4459 19.6895 18.6875 19.6895C18.9291 19.6895 19.125 19.8853 19.125 20.127C19.125 20.3686 18.9291 20.5645 18.6875 20.5645ZM20.4375 20.5645C20.1959 20.5645 20 20.3686 20 20.127C20 19.8853 20.1959 19.6895 20.4375 19.6895C20.6791 19.6895 20.875 19.8853 20.875 20.127C20.875 20.3686 20.6791 20.5645 20.4375 20.5645ZM15.1875 18.8145C14.9457 18.8145 14.75 18.6188 14.75 18.377V16.627C14.75 16.3851 14.9457 16.1895 15.1875 16.1895H22.1875C22.4293 16.1895 22.625 16.3851 22.625 16.627V18.377C22.625 18.6188 22.4293 18.8145 22.1875 18.8145H15.1875Z" fill="#FFFBFB"/>
<path d="M25.9062 21.4395C24.5796 21.4395 23.5 22.5191 23.5 23.8457C23.5 25.1723 24.5796 26.252 25.9062 26.252C27.2329 26.252 28.3125 25.1723 28.3125 23.8457C28.3125 22.5191 27.2329 21.4395 25.9062 21.4395ZM26.8718 23.7175L25.9968 24.5925C25.8276 24.7617 25.5484 24.7628 25.3782 24.5925C25.3777 24.592 24.9407 24.155 24.9407 24.155C24.7698 23.9841 24.7698 23.7073 24.9407 23.5364C25.1116 23.3655 25.3884 23.3655 25.5593 23.5364L25.6875 23.6646L26.2532 23.0989C26.4241 22.928 26.7009 22.928 26.8718 23.0989C27.0427 23.2698 27.0427 23.5466 26.8718 23.7175Z" fill="#FFFBFB"/>
<path d="M30.8093 28.1301L29.2917 26.6125C29.9095 25.858 30.2812 24.8946 30.2812 23.8457C30.2812 21.4335 28.3185 19.4707 25.9062 19.4707C23.494 19.4707 21.5312 21.4335 21.5312 23.8457C21.5312 26.2579 23.494 28.2207 25.9062 28.2207C26.9551 28.2207 27.9185 27.8489 28.673 27.2311L30.1907 28.7488C30.3616 28.9197 30.6384 28.9197 30.8093 28.7488C30.9802 28.5779 30.9802 28.301 30.8093 28.1301ZM25.9062 27.127C24.0969 27.127 22.625 25.6551 22.625 23.8457C22.625 22.0363 24.0969 20.5645 25.9062 20.5645C27.7156 20.5645 29.1875 22.0363 29.1875 23.8457C29.1875 25.6551 27.7156 27.127 25.9062 27.127Z" fill="#FFFBFB"/>
<defs>
<linearGradient id="paint0_linear_2735_35890" x1="38.9781" y1="57.1895" x2="-5.74477" y2="51.9117" gradientUnits="userSpaceOnUse">
<stop stop-color="#2E96FF"/>
<stop offset="1" stop-color="#015CB8"/>
</linearGradient>
</defs>
</svg>
