<svg width="40" height="41" viewBox="0 0 40 41" fill="none" xmlns="http://www.w3.org/2000/svg">
<rect y="0.564453" width="40" height="40" rx="20" fill="url(#paint0_linear_2735_35870)"/>
<path d="M21.3125 21.002H7.3125V26.252H21.3125V21.002ZM9.9375 22.3145H17.8125V23.1895H9.9375V22.3145ZM20.4375 24.9395H8.1875V24.0645H20.4375V24.9395ZM20.4375 23.1895H18.6875V22.3145H20.4375V23.1895Z" fill="white"/>
<path d="M28.0021 28.3116C27.9614 28.2709 27.929 28.2226 27.907 28.1695C27.8849 28.1163 27.8735 28.0594 27.8735 28.0018V20.0616C26.9576 20.1926 26.0242 20.1268 25.1357 19.8687C24.2472 19.6105 23.4239 19.1659 22.7208 18.5645C22.0176 17.963 21.4508 17.2186 21.058 16.3809C20.6652 15.5431 20.4556 14.6312 20.443 13.7061C19.0789 14.0064 17.858 14.7629 16.9818 15.8507C16.1056 16.9385 15.6265 18.2925 15.6235 19.6893V20.1268H21.7485C21.8645 20.1268 21.9758 20.1729 22.0579 20.2549C22.1399 20.337 22.186 20.4483 22.186 20.5643V26.6893C22.186 26.8053 22.1399 26.9166 22.0579 26.9987C21.9758 27.0807 21.8645 27.1268 21.7485 27.1268H15.6235V28.0018C15.6235 28.0594 15.6121 28.1163 15.59 28.1695C15.568 28.2226 15.5356 28.2709 15.4949 28.3116L15.4196 28.3864C14.8145 28.9885 14.4324 29.7786 14.3359 30.6268H29.1611C29.0647 29.7784 28.6823 28.9881 28.0769 28.3859L28.0021 28.3116Z" fill="white"/>
<path d="M21.7531 33.252C22.2572 33.2513 22.7457 33.0769 23.1362 32.7581C23.5267 32.4394 23.7953 31.9957 23.8969 31.502H19.6094C19.7109 31.9957 19.9796 32.4394 20.3701 32.7581C20.7606 33.0769 21.249 33.2513 21.7531 33.252Z" fill="white"/>
<path d="M26.4329 14.7488C26.3508 14.8308 26.2396 14.8769 26.1236 14.8769C26.0076 14.8769 25.8963 14.8308 25.8142 14.7488L24.3736 13.3081L23.6797 14.002L26.1236 16.4459L30.3174 12.252L29.6236 11.5581L26.4329 14.7488Z" fill="white"/>
<path d="M27 7.87695C25.8751 7.87695 24.7755 8.21052 23.8402 8.83547C22.9049 9.46042 22.1759 10.3487 21.7454 11.3879C21.315 12.4272 21.2023 13.5708 21.4218 14.674C21.6412 15.7773 22.1829 16.7907 22.9783 17.5861C23.7737 18.3815 24.7872 18.9232 25.8904 19.1427C26.9937 19.3621 28.1373 19.2495 29.1765 18.819C30.2158 18.3885 31.104 17.6596 31.729 16.7243C32.3539 15.789 32.6875 14.6893 32.6875 13.5645C32.6858 12.0566 32.086 10.6109 31.0198 9.5447C29.9535 8.47846 28.5079 7.87869 27 7.87695ZM26.4343 17.3738C26.3523 17.4558 26.241 17.5019 26.125 17.5019C26.009 17.5019 25.8977 17.4558 25.8157 17.3738L22.7532 14.3113C22.6712 14.2292 22.6251 14.118 22.6251 14.002C22.6251 13.8859 22.6712 13.7747 22.7532 13.6926L24.0657 12.3801C24.1477 12.2981 24.259 12.252 24.375 12.252C24.491 12.252 24.6023 12.2981 24.6843 12.3801L26.125 13.8208L29.3157 10.6301C29.3977 10.5481 29.509 10.502 29.625 10.502C29.741 10.502 29.8523 10.5481 29.9343 10.6301L31.2468 11.9426C31.3288 12.0247 31.3749 12.1359 31.3749 12.252C31.3749 12.368 31.3288 12.4792 31.2468 12.5613L26.4343 17.3738Z" fill="white"/>
<defs>
<linearGradient id="paint0_linear_2735_35870" x1="38.9781" y1="57.1895" x2="-5.74477" y2="51.9117" gradientUnits="userSpaceOnUse">
<stop stop-color="#2E96FF"/>
<stop offset="1" stop-color="#015CB8"/>
</linearGradient>
</defs>
</svg>
