<svg width="40" height="41" viewBox="0 0 40 41" fill="none" xmlns="http://www.w3.org/2000/svg">
<rect y="0.564453" width="40" height="40" rx="20" fill="url(#paint0_linear_2735_35805)"/>
<path fill-rule="evenodd" clip-rule="evenodd" d="M26.1936 13.7903C26.2988 13.9719 26.2368 14.2045 26.0552 14.3097C25.8735 14.4149 25.6409 14.3529 25.5357 14.1713L24.7418 12.7977C24.6159 12.5801 24.7279 12.2939 24.9971 12.2342C24.9975 12.2341 24.9978 12.234 24.9982 12.234L26.5224 11.8605C26.7263 11.8112 26.9315 11.9365 26.9808 12.1403C27.0301 12.3442 26.9049 12.5494 26.701 12.5987L26.4545 12.6591C26.4336 12.6643 26.4188 12.681 26.4162 12.7024C26.4137 12.724 26.4244 12.7438 26.4438 12.7536C30.4565 14.7863 31.9847 19.7901 29.6451 23.712C29.3102 24.2735 28.9098 24.7831 28.4574 25.2336C28.3086 25.3815 28.0681 25.3808 27.9201 25.232C27.7721 25.0833 27.7728 24.8427 27.9216 24.6947C30.1176 22.5097 30.6207 19.1263 29.1423 16.3923C28.4675 15.1442 27.4165 14.0965 26.0914 13.4268C26.071 13.4165 26.0472 13.4207 26.0316 13.4373C26.0158 13.4539 26.0131 13.4778 26.0245 13.4976L26.1936 13.7903ZM14.4683 14.1713C14.3631 14.3529 14.1305 14.4149 13.9488 14.3097C13.7672 14.2045 13.7052 13.9719 13.8104 13.7902L13.9796 13.4975C13.991 13.4778 13.9882 13.4538 13.9725 13.4372C13.9569 13.4206 13.9331 13.4165 13.9127 13.4267C10.8964 14.9506 9.32408 18.4139 10.3103 21.7224C10.649 22.8587 11.2552 23.8715 12.0824 24.6946C12.2312 24.8426 12.2318 25.0832 12.0839 25.2319C11.936 25.3807 11.6954 25.3813 11.5466 25.2334C9.11093 22.8099 8.55337 19.0624 10.192 16.032C10.9376 14.653 12.0978 13.4948 13.5602 12.7535C13.5795 12.7437 13.5902 12.7239 13.5877 12.7024C13.5852 12.6809 13.5703 12.6641 13.5493 12.6589L13.303 12.5985C13.0991 12.5492 12.9738 12.344 13.0232 12.1401C13.0725 11.9362 13.2778 11.811 13.4816 11.8603L15.0059 12.2338C15.0063 12.2339 15.0066 12.234 15.007 12.234C15.2761 12.2937 15.3882 12.58 15.2623 12.7975L14.4683 14.1713ZM22.6387 14.6107C21.1826 16.0668 18.8213 16.0668 17.3653 14.6107C15.9091 13.1545 15.9091 10.7933 17.3653 9.33721C18.8214 7.88112 21.1826 7.88106 22.6387 9.33721C24.0949 10.7934 24.0949 13.1546 22.6387 14.6107ZM19.4843 11.5446L19.4815 11.5511C19.311 11.4684 19.0073 11.3208 19.0065 11.0857C19.0059 10.9045 19.162 10.7684 19.3132 10.6904L19.3118 10.687C19.5548 10.5837 19.7585 10.5191 20.0324 10.5289C20.4345 10.5433 20.8386 10.6238 21.2019 10.8007C21.371 10.883 21.575 10.8126 21.6573 10.6435C21.7397 10.4745 21.6693 10.2704 21.5002 10.1881C21.1208 10.0034 20.7907 9.92527 20.3875 9.8744C20.3619 9.87115 20.343 9.84975 20.343 9.824V9.64136C20.343 9.45303 20.1904 9.30038 20.0021 9.30038C19.8137 9.30038 19.6611 9.45303 19.6611 9.64136V9.83212C19.6611 9.85665 19.6441 9.87724 19.6201 9.882C19.3985 9.92538 19.2924 9.95328 19.0658 10.0562C18.3662 10.3741 18.0903 11.132 18.5587 11.7129C18.9001 12.1363 19.4883 12.3113 20.0142 12.3132C20.3521 12.3145 20.9593 12.4558 21.0149 12.8518C21.0239 12.916 20.9713 13.0287 20.9276 13.0832C20.7282 13.332 20.2995 13.4182 20.0021 13.4182C19.5805 13.4182 19.1721 13.3223 18.7901 13.1446C18.6197 13.0653 18.4166 13.1393 18.3373 13.3097C18.258 13.4801 18.332 13.6832 18.5024 13.7625C18.8838 13.94 19.215 14.0226 19.6168 14.0748C19.6422 14.0781 19.661 14.0995 19.661 14.1252V14.3065C19.661 14.4949 19.8137 14.6475 20.002 14.6475C20.1903 14.6475 20.343 14.4949 20.343 14.3065V14.1184C20.343 14.0937 20.3601 14.073 20.3843 14.0684C20.7884 13.9921 21.1895 13.8432 21.4571 13.5093C22.1098 12.6947 21.376 11.6464 20.0087 11.6346C19.8258 11.633 19.656 11.6073 19.4843 11.5446ZM17.1543 25.4107L17.1353 25.4062C17.1216 25.403 17.1086 25.4052 17.0967 25.4127C17.0847 25.4203 17.0772 25.431 17.0742 25.4449C16.9774 25.8872 16.8242 26.0161 16.5161 26.3242C16.0155 26.8248 15.215 26.8243 14.7006 26.3242L14.0572 25.6987C14.0464 25.6882 14.033 25.6833 14.0181 25.6844C14.0031 25.6856 13.9906 25.6923 13.9815 25.7042L12.8241 27.213C12.8085 27.2334 12.8104 27.2618 12.8286 27.2799L16.2185 30.6698C16.2358 30.6871 16.2623 30.6897 16.2826 30.6762L17.5433 29.8357C18.1956 29.4009 19.3109 29.4561 20.0514 29.4817C20.5177 29.4978 20.5316 29.4886 21.0568 29.4079C21.0571 29.4078 21.0573 29.4078 21.0575 29.4078L21.6905 29.3204C21.6953 29.3197 21.6992 29.3186 21.7037 29.3167C21.9688 29.2026 22.2025 29.034 22.4062 28.8303L26.2491 24.9832C26.2528 24.9795 26.2555 24.9759 26.2579 24.9713C26.4405 24.6306 26.6626 24.0947 26.3684 23.7521C26.1981 23.5538 25.923 23.493 25.6761 23.4578C25.3918 23.4171 25.3382 23.1405 25.5012 22.8695C25.7178 22.5096 25.8027 21.9759 25.476 21.6492C25.2801 21.4533 25.0955 21.4169 24.8391 21.3628C24.6474 21.3223 24.4894 21.1878 24.4316 20.9987C24.393 20.8727 24.4518 20.7539 24.4935 20.6322C24.6009 20.3191 24.5955 19.9949 24.3457 19.7451C23.8639 19.2633 23.6983 19.7333 23.273 19.3079C23.0493 19.0843 23.1677 18.8646 23.1589 18.5908C23.1384 17.9573 22.3463 17.6021 21.8757 18.0728L20.8163 19.1322C20.7965 19.152 20.7965 19.1843 20.8163 19.2041L21.448 19.8358C21.9765 20.3643 21.9765 21.2251 21.448 21.7536C21.2085 21.993 21.1203 22.0668 20.8269 22.1789C20.8106 22.1851 20.7996 22.198 20.7956 22.2149C20.7917 22.2318 20.7961 22.2482 20.808 22.261L20.8273 22.2817C21.6688 23.184 21.0372 24.6823 19.7825 24.6823C19.4382 24.6823 19.1938 24.5809 18.9296 24.4003C18.9158 24.3909 18.9 24.3888 18.8843 24.3943C18.8686 24.3997 18.8574 24.4112 18.8524 24.4271L18.8446 24.4521C18.6208 25.1656 17.883 25.5817 17.1543 25.4107ZM26.4694 25.8076L27.5227 26.8609C27.5425 26.8806 27.5425 26.9129 27.5227 26.9327L24.0232 30.4321C24.004 30.4514 23.9729 30.452 23.9529 30.4335L23.068 29.6172C23.0001 29.5545 22.9179 29.509 22.8354 29.4657C22.8205 29.4579 22.8111 29.4446 22.8087 29.4279C22.8064 29.4112 22.8116 29.3959 22.8237 29.3842L22.8927 29.3175L22.8933 29.3169L26.3975 25.8075C26.4173 25.7878 26.4496 25.7878 26.4694 25.8076ZM19.2971 18.7337C19.1314 18.568 19.0005 18.4377 19.0005 18.1598C19.0005 17.9826 19.0696 17.8133 19.1952 17.6879L20.3151 16.568C20.5746 16.3085 20.9995 16.3085 21.259 16.568C21.4246 16.7337 21.5555 16.8641 21.5555 17.1419C21.5555 17.3191 21.4864 17.4883 21.3609 17.6138L20.241 18.7337C19.9815 18.9932 19.5566 18.993 19.2971 18.7337ZM17.1186 18.5669C16.905 18.3034 16.9236 17.9158 17.1649 17.6744C17.3306 17.5088 17.461 17.3779 17.7388 17.3779C18.0389 17.3779 18.1766 17.5364 18.3566 17.7183C18.3698 17.7315 18.3745 17.7494 18.3695 17.7674C18.2355 18.2595 18.3401 18.7506 18.7082 19.1186L18.8102 19.2205C19.178 19.5884 19.6694 19.6933 20.1613 19.5592C20.1794 19.5543 20.1973 19.5591 20.2106 19.5723L20.961 20.3227C21.2204 20.5821 21.2205 21.0071 20.961 21.2666C20.7953 21.4322 20.6649 21.5631 20.3871 21.5631C20.2112 21.5631 20.0424 21.4957 19.9177 21.371L17.2165 18.6699C17.2161 18.6694 17.2157 18.6691 17.2152 18.6686L17.1124 18.573L17.1186 18.5669ZM15.4711 19.7483H15.4663C15.4663 19.5161 15.5068 19.3327 15.6831 19.1563C15.9701 18.8693 16.4419 18.8693 16.7289 19.1563L20.3053 22.7327C20.7628 23.1902 20.4478 23.9936 19.7824 23.9936C19.5861 23.9936 19.3985 23.9174 19.2595 23.7784L15.6831 20.202C15.5606 20.0794 15.4868 19.919 15.4711 19.7483ZM15.3256 22.91L16.7202 24.3045C16.9536 24.5367 17.1162 24.76 17.4833 24.76C18.1487 24.76 18.4638 23.9566 18.0062 23.4991L15.7044 21.1972C15.5663 21.0591 15.379 20.9847 15.1842 20.9847C14.5187 20.9847 14.2038 21.7882 14.6613 22.2457L15.3256 22.91ZM13.7929 24.4427L15.1874 25.8372C15.2993 25.9491 15.4502 26.0108 15.6083 26.0108C15.9041 26.0108 16.0379 25.8285 16.2332 25.6332C16.4639 25.4025 16.4641 25.0239 16.2361 24.7943L14.8364 23.3947C14.7249 23.2839 14.5748 23.2234 14.4178 23.2234C14.122 23.2234 13.9882 23.4057 13.7929 23.601C13.5616 23.8323 13.5615 24.2113 13.7929 24.4427ZM10.356 28.2638C10.3203 28.2281 10.3203 28.167 10.356 28.1314L11.413 27.0743C11.4487 27.0386 11.5097 27.0386 11.5454 27.0743L16.1372 31.666C16.155 31.6839 16.164 31.7079 16.164 31.7323H16.1656C16.1656 31.7556 16.1561 31.7796 16.1372 31.7985L15.0802 32.8555C15.0613 32.8744 15.0373 32.8839 15.014 32.8839V32.8822C14.9896 32.8822 14.9656 32.8733 14.9478 32.8555L10.356 28.2638ZM28.4586 27.0743C28.4943 27.0386 28.5553 27.0386 28.591 27.0744L29.648 28.1314C29.6838 28.167 29.6838 28.228 29.648 28.2638L25.0563 32.8556C25.0385 32.8734 25.0144 32.8823 24.9901 32.8823V32.8839C24.9667 32.8839 24.9427 32.8745 24.9238 32.8556L23.8668 31.7986C23.8479 31.7797 23.8384 31.7557 23.8384 31.7323H23.84C23.84 31.708 23.849 31.684 23.8668 31.6661L28.4586 27.0743Z" fill="white"/>
<defs>
<linearGradient id="paint0_linear_2735_35805" x1="38.9781" y1="57.1895" x2="-5.74477" y2="51.9117" gradientUnits="userSpaceOnUse">
<stop stop-color="#2E96FF"/>
<stop offset="1" stop-color="#015CB8"/>
</linearGradient>
</defs>
</svg>
