<svg xmlns="http://www.w3.org/2000/svg" width="32" height="33" viewBox="0 0 32 33" fill="none"><path d="M28.6095 26.3422L26.712 24.0105C28.2065 21.8833 29.0909 19.2971 29.0909 16.5C29.0909 9.27018 23.2298 3.40909 16 3.40909C8.77018 3.40909 2.90909 9.27018 2.90909 16.5C2.90909 23.7298 8.77018 29.5909 16 29.5909C17.6233 29.5909 19.1709 29.2818 20.6051 28.7415L22.5295 31.1058C20.5353 31.9989 18.3265 32.5 16 32.5C7.16364 32.5 0 25.3364 0 16.5C0 7.66364 7.16364 0.5 16 0.5C24.8364 0.5 32 7.66364 32 16.5C32 20.2127 30.7316 23.6273 28.6095 26.3422Z" fill="#FA6450"></path><path d="M1.45455 16.5C1.45455 25.0556 8.16946 32.0425 16.6167 32.4782C16.4116 32.4862 16.2073 32.5 16 32.5C7.16364 32.5 0 25.3364 0 16.5C0 7.66364 7.16364 0.5 16 0.5C16.2436 0.5 16.4858 0.507272 16.7273 0.518182C8.22836 0.898545 1.45455 7.90727 1.45455 16.5Z" fill="#DC4632"></path><path d="M28.2366 31.9781C27.2417 32.7861 25.7806 32.6356 24.9726 31.6407L15.5122 20.0174L11.0992 24.3745C10.193 25.2807 8.72388 25.2807 7.8177 24.3745C6.91152 23.4683 6.91152 21.9992 7.8177 21.093L12.6221 16.4545L8.26933 11.1585C7.46133 10.1636 7.61261 8.70248 8.60679 7.89448C9.6017 7.08648 11.0628 7.23775 11.8708 8.23194L15.9632 13.2072L20.8199 8.45084C21.7261 7.54466 23.1952 7.54466 24.1013 8.45084C25.0075 9.35703 25.0075 10.8261 24.1013 11.7323L18.9457 16.8712L23.2315 22.1483L28.5748 28.7148C29.3828 29.709 29.2315 31.1701 28.2366 31.9781Z" fill="#FA6450"></path><path d="M16.9137 20.0176L26.3741 31.6409C26.6701 32.0052 27.0548 32.2539 27.4708 32.3863C26.5894 32.6649 25.5894 32.4023 24.9712 31.6409L16.1406 20.7914L16.9137 20.0176Z" fill="#DC4632"></path><path d="M10.0097 7.89445C9.01479 8.70245 8.86352 10.1643 9.67224 11.1585L14.025 16.4545L9.22061 21.093C8.31443 21.9992 8.31443 23.4683 9.22061 24.3745C9.49261 24.6465 9.8177 24.8268 10.1602 24.9352C9.36024 25.189 8.45261 25.0086 7.8177 24.3745C6.91152 23.4683 6.91152 21.9992 7.8177 21.093L12.6221 16.4545L8.26933 11.1585C7.46133 10.1635 7.61261 8.70245 8.60679 7.89445C9.23733 7.38245 10.0541 7.25809 10.7741 7.48718C10.5042 7.57227 10.2439 7.70463 10.0097 7.89445Z" fill="#DC4632"></path><path d="M22.2195 8.45278L17.3627 13.2091L16.7344 12.4506L20.8166 8.45278C21.4507 7.81859 22.3591 7.63823 23.1584 7.89205C22.8166 8.00041 22.4915 8.18078 22.2195 8.45278Z" fill="#DC4632"></path></svg>