<svg width="40" height="41" viewBox="0 0 40 41" fill="none" xmlns="http://www.w3.org/2000/svg">
<rect y="0.564453" width="40" height="40" rx="20" fill="url(#paint0_linear_2735_35911)"/>
<path fill-rule="evenodd" clip-rule="evenodd" d="M23.74 10.456C24.8554 8.76729 27.3889 8.76728 28.5043 10.456L31.7912 15.4322C33.0382 17.3202 31.5906 19.6895 29.4091 19.6895H22.8352C20.6536 19.6895 19.206 17.3202 20.453 15.4322L23.74 10.456ZM26.9969 12.6895C26.9969 12.2062 26.6052 11.8145 26.1222 11.8145C25.639 11.8145 25.2473 12.2062 25.2473 12.6895V13.5645C25.2473 14.0477 25.639 14.4395 26.1222 14.4395C26.6052 14.4395 26.9969 14.0477 26.9969 13.5645V12.6895ZM26.9969 16.1895C26.9969 16.6727 26.6052 17.0645 26.1222 17.0645C25.639 17.0645 25.2473 16.6727 25.2473 16.1895C25.2473 15.7062 25.639 15.3145 26.1222 15.3145C26.6052 15.3145 26.9969 15.7062 26.9969 16.1895Z" fill="#FFFBFB"/>
<path fill-rule="evenodd" clip-rule="evenodd" d="M11.6296 13.6516L18.2259 16.8391C18.1752 19.2702 20.2451 21.4395 22.8332 21.4395H27.8696V27.2601C27.8696 27.5959 27.6776 27.9019 27.3754 28.048L22.9437 30.1895H28.7444V21.4395H29.407C29.7818 21.4395 30.1457 21.394 30.4939 21.3087V31.0645C30.4939 31.5477 30.1022 31.9395 29.6191 31.9395H8.62476C8.14165 31.9395 7.75 31.5477 7.75 31.0645V17.9395C7.75 17.4562 8.14165 17.0645 8.62476 17.0645H10.3743V14.4395C10.3743 14.1383 10.5291 13.8583 10.7841 13.6983C11.0391 13.5382 11.3585 13.5206 11.6296 13.6516ZM9.49953 18.8145H10.3743V27.2601C10.3743 27.5959 10.5663 27.9019 10.8685 28.048L15.3002 30.1895H9.49953V18.8145Z" fill="#FFFBFB"/>
<defs>
<linearGradient id="paint0_linear_2735_35911" x1="38.9781" y1="57.1895" x2="-5.74477" y2="51.9117" gradientUnits="userSpaceOnUse">
<stop stop-color="#2E96FF"/>
<stop offset="1" stop-color="#015CB8"/>
</linearGradient>
</defs>
</svg>
