<svg xmlns="http://www.w3.org/2000/svg" width="40" height="40" viewBox="0 0 40 40" fill="none"><rect width="40" height="40" rx="10" fill="url(#paint0_linear_3237_17058)" fill-opacity="0.4"></rect><g clip-path="url(#clip0_3237_17058)"><path d="M27.668 20C24.1485 20 21.2741 17.3246 20.8895 13.9062H9.28516C8.02507 13.9062 7 14.9313 7 16.1914V29.9023C7 31.1624 8.02507 32.1875 9.28516 32.1875H29.1914C30.4515 32.1875 31.4766 31.1624 31.4766 29.9023V18.8395C30.3862 19.571 29.0767 20 27.668 20ZM24.6211 21.5234C25.0418 21.5234 25.3828 21.8645 25.3828 22.2852C25.3828 22.7058 25.0418 23.0469 24.6211 23.0469C24.2004 23.0469 23.8594 22.7058 23.8594 22.2852C23.8594 21.8645 24.2004 21.5234 24.6211 21.5234ZM21.5742 21.5234C21.9949 21.5234 22.3359 21.8645 22.3359 22.2852C22.3359 22.7058 21.9949 23.0469 21.5742 23.0469C21.1535 23.0469 20.8125 22.7058 20.8125 22.2852C20.8125 21.8645 21.1535 21.5234 21.5742 21.5234ZM17.6641 28.3789C17.6641 28.7999 17.3234 29.1406 16.9023 29.1406H10.8086C10.3876 29.1406 10.0469 28.7999 10.0469 28.3789V26.8555C10.0469 25.543 10.7142 24.3834 11.7275 23.6982C11.162 23.1448 10.8086 22.3756 10.8086 21.5234C10.8086 19.843 12.1751 18.4766 13.8555 18.4766C15.5359 18.4766 16.9023 19.843 16.9023 21.5234C16.9023 22.3756 16.5489 23.1448 15.9834 23.6982C16.9967 24.3834 17.6641 25.543 17.6641 26.8555V28.3789ZM27.668 29.1406H21.5742C21.1532 29.1406 20.8125 28.7999 20.8125 28.3789C20.8125 27.9579 21.1532 27.6172 21.5742 27.6172H27.668C28.089 27.6172 28.4297 27.9579 28.4297 28.3789C28.4297 28.7999 28.089 29.1406 27.668 29.1406ZM27.668 26.0938H21.5742C21.1532 26.0938 20.8125 25.7531 20.8125 25.332C20.8125 24.911 21.1532 24.5703 21.5742 24.5703H27.668C28.089 24.5703 28.4297 24.911 28.4297 25.332C28.4297 25.7531 28.089 26.0938 27.668 26.0938ZM27.668 23.0469C27.2473 23.0469 26.9062 22.7058 26.9062 22.2852C26.9062 21.8645 27.2473 21.5234 27.668 21.5234C28.0886 21.5234 28.4297 21.8645 28.4297 22.2852C28.4297 22.7058 28.0886 23.0469 27.668 23.0469Z" fill="#B892FF"></path><path d="M13.8516 20C13.0117 20 12.3281 20.6836 12.3281 21.5234C12.3281 22.3633 13.0117 23.0469 13.8516 23.0469C14.6914 23.0469 15.375 22.3633 15.375 21.5234C15.375 20.6836 14.6914 20 13.8516 20Z" fill="#B892FF"></path><path d="M13.8555 24.5703C12.5954 24.5703 11.5703 25.5954 11.5703 26.8555V27.6172H16.1406V26.8555C16.1406 25.5954 15.1156 24.5703 13.8555 24.5703Z" fill="#B892FF"></path><path d="M27.6172 7.8125C24.6774 7.8125 22.3359 10.2048 22.3359 13.1445C22.3359 16.0843 24.7282 18.4766 27.668 18.4766C30.6077 18.4766 33 16.0843 33 13.1445C33 10.2048 30.557 7.8125 27.6172 7.8125ZM30.4917 12.1596L27.4448 15.2065C27.1473 15.504 26.6652 15.504 26.3677 15.2065L24.8442 13.6831C24.5467 13.3855 24.5467 12.9035 24.8442 12.6059C25.1418 12.3084 25.6238 12.3084 25.9213 12.6059L26.9062 13.5908L29.4146 11.0825C29.7121 10.785 30.1942 10.785 30.4917 11.0825C30.7892 11.38 30.7892 11.8621 30.4917 12.1596Z" fill="#B892FF"></path></g><defs><linearGradient id="paint0_linear_3237_17058" x1="-28" y1="-115" x2="14" y2="18.5" gradientUnits="userSpaceOnUse"><stop stop-color="white" stop-opacity="0.06"></stop><stop offset="1" stop-color="#B892FF" stop-opacity="0.5"></stop></linearGradient><clipPath id="clip0_3237_17058"><rect width="26" height="26" fill="white" transform="translate(7 7)"></rect></clipPath></defs></svg>