<svg width="66" height="75" viewBox="0 0 66 75" fill="none" xmlns="http://www.w3.org/2000/svg">
<g clip-path="url(#clip0_7319_82275)">
<path d="M50.5848 50.0687C51.2333 51.1917 50.8423 52.6656 49.718 53.3146C42.2283 57.6988 34.6635 62.0043 27.1436 66.3461C25.9042 67.0617 24.6202 67.2288 23.2382 66.8584C22.533 66.6694 21.8258 66.4678 21.1467 66.274C17.6847 65.2867 14.9333 64.5021 11.0534 65.0364L6.78005 49.0888C7.96958 48.7462 9.03652 48.3457 10.0144 47.9788C12.1937 47.1607 13.8602 46.5353 15.2303 47.3263L20.6832 50.4744C21.6073 51.0081 22.5665 51.3402 23.5564 51.4705C24.5502 51.6013 25.5626 51.5295 26.5893 51.2543L30.6797 50.1583C32.2538 49.7366 33.8919 50.6802 34.314 52.2554C34.7337 53.822 33.7788 55.4711 32.217 55.8896L26.2354 57.4922C25.2542 57.7551 24.3036 57.7852 23.3193 57.5197C22.7652 57.3716 22.1958 57.7008 22.0477 58.2551C21.8996 58.8092 22.2289 59.3786 22.7831 59.5267C24.091 59.8795 25.4666 59.8489 26.7717 59.4992L32.7533 57.8966C33.8833 57.5937 34.8231 56.9224 35.4781 56.0456L47.3392 49.1973C48.4647 48.5457 49.935 48.9434 50.5848 50.0687ZM4.29436 47.8484C4.19229 47.4676 3.79736 47.2395 3.41656 47.3416L0.531078 48.1147C0.150285 48.2167 -0.0776912 48.6117 0.0243713 48.9926L5.19531 68.291C5.29737 68.6718 5.69231 68.8999 6.0731 68.7979L8.95845 68.0248C9.33924 67.9227 9.56721 67.5278 9.46515 67.147L4.29436 47.8484ZM52.5176 6.78643L52.7058 0.179688L46.0124 6.87296L45.8675 11.9658L34.4637 23.3695C33.9893 23.1228 33.4503 22.9833 32.8785 22.9833C30.9776 22.9833 29.4365 24.5244 29.4365 26.4253C29.4365 28.3262 30.9776 29.8674 32.8785 29.8674C34.7796 29.8674 36.3205 28.3263 36.3205 26.4253C36.3205 25.8535 36.181 25.3145 35.9344 24.8401L47.3381 13.4364L52.431 13.2915L59.1242 6.59812L52.5176 6.78643ZM32.8787 44.4443C42.8302 44.4443 50.8975 36.3769 50.8975 26.4254C50.8975 22.5764 49.6901 19.0097 47.634 16.0823L43.7121 20.0042C44.829 21.8843 45.4703 24.0801 45.4703 26.4254C45.4703 33.3794 39.8325 39.0172 32.8785 39.0172C25.9245 39.0172 20.2867 33.3794 20.2867 26.4254C20.2867 19.4714 25.9245 13.8336 32.8785 13.8336C35.2239 13.8336 37.4196 14.4751 39.2997 15.592L43.2216 11.67C40.2941 9.61409 36.7275 8.40653 32.8785 8.40653C22.9269 8.40653 14.8596 16.4739 14.8596 26.4254C14.8596 36.3771 22.927 44.4443 32.8787 44.4443ZM32.8785 20.9034C33.2209 20.9034 33.5608 20.9348 33.8946 20.9971L37.772 17.1197C36.3104 16.3497 34.6453 15.9137 32.8785 15.9137C27.0729 15.9137 22.3668 20.6198 22.3668 26.4254C22.3668 32.2311 27.0729 36.9372 32.8785 36.9372C38.6842 36.9372 43.3901 32.2311 43.3901 26.4254C43.3901 24.6586 42.9541 22.9936 42.1841 21.532L38.3067 25.4094C38.3689 25.743 38.4004 26.083 38.4004 26.4253C38.4004 29.4744 35.9275 31.9473 32.8784 31.9473C29.8293 31.9473 27.3563 29.4743 27.3563 26.4253C27.3563 23.3763 29.8295 20.9034 32.8785 20.9034Z" fill="url(#paint0_linear_7319_82275)"/>
</g>
<defs>
<linearGradient id="paint0_linear_7319_82275" x1="-1.25229e-06" y1="8.80338e-07" x2="43.5" y2="61.5" gradientUnits="userSpaceOnUse">
<stop stop-color="#605EDA"/>
<stop offset="1" stop-color="#2498E4"/>
</linearGradient>
<clipPath id="clip0_7319_82275">
<rect width="65.1242" height="74.6425" fill="white" transform="translate(0 0.179688)"/>
</clipPath>
</defs>
</svg>
