<svg width="34" height="34" viewBox="0 0 34 34" fill="none" xmlns="http://www.w3.org/2000/svg">
<g clip-path="url(#clip0_3187_41140)">
<path d="M6.30469 5.97656H10.9654C11.8883 5.97656 12.7473 5.50501 13.2428 4.7264C13.4188 4.44982 13.8181 4.4374 14.0109 4.70256C14.5931 5.50302 15.5231 5.97656 16.5128 5.97656H16.9297V3.32031C16.9297 1.48657 15.4431 0 13.6094 0H8.29688C6.09637 0 4.3125 1.78387 4.3125 3.98438C4.3125 5.08466 5.2044 5.97656 6.30469 5.97656Z" fill="#0F1720"/>
<path d="M16.9375 10.293V7.96877H16.5207C15.5026 7.96877 14.5177 7.66018 13.6895 7.10596C12.9094 7.66065 11.9666 7.96877 10.9732 7.96877H6.3125V10.293C6.3125 13.227 8.69097 15.6055 11.625 15.6055C14.559 15.6055 16.9375 13.227 16.9375 10.293Z" fill="#0F1720"/>
<path d="M7.3637 19.7849C7.12391 20.0727 7.0658 20.4707 7.21335 20.815L8.38549 23.55C8.66307 24.1978 9.50709 24.3603 10.0054 23.862L11.6213 22.2461L8.63305 18.2617L7.3637 19.7849Z" fill="#0F1720"/>
<path d="M6.55416 24.3349L5.38203 21.5998C5.06759 20.8661 5.06593 20.0516 5.34843 19.3315C2.32395 19.7955 0 22.4144 0 25.5665V29.5509C0 30.101 0.445984 30.547 0.996094 30.547H10.625V25.8389C9.14972 26.571 7.25329 25.9662 6.55416 24.3349Z" fill="#0F1720"/>
<path d="M10.5703 17.5215L11.6236 18.9258L12.6769 17.5215C12.3328 17.5714 11.9812 17.5977 11.6236 17.5977C11.2659 17.5977 10.9144 17.5714 10.5703 17.5215Z" fill="#0F1720"/>
<path d="M14.8608 23.55L16.033 20.815C16.1805 20.4707 16.1224 20.0727 15.8826 19.7849L14.6133 18.2617L11.625 22.2461L13.2409 23.862C13.7392 24.3603 14.5832 24.1978 14.8608 23.55Z" fill="#0F1720"/>
<path d="M20.722 20.5263C19.9089 19.9137 18.9437 19.4926 17.8938 19.3315C18.1763 20.0516 18.1746 20.8661 17.8602 21.5998L16.688 24.3349C15.9889 25.9662 14.0925 26.571 12.6172 25.839V30.5469H17.6036C17.4733 29.9904 17.3984 29.3733 17.3984 28.6875C17.3984 26.5561 18.0298 24.3548 19.1761 22.4892C19.6277 21.7541 20.1485 21.0966 20.722 20.5263Z" fill="#0F1720"/>
<path d="M28.5616 20.2822H24.8291C21.5319 21.2496 19.3906 25.1801 19.3906 28.6877C19.3906 32.722 22.6611 34.0002 26.6953 34.0002C30.7296 34.0002 34 32.722 34 28.6877C34 25.1801 31.8587 21.2496 28.5616 20.2822Z" fill="#0F1720"/>
<path d="M24.832 18.2898H28.5645L30.1657 14.1018C30.4151 13.4497 29.9335 12.75 29.2353 12.75H24.1611C23.4629 12.75 22.9813 13.4497 23.2307 14.1018L24.832 18.2898Z" fill="#0F1720"/>
</g>
<defs>
<clipPath id="clip0_3187_41140">
<rect width="34" height="34" fill="white"/>
</clipPath>
</defs>
</svg>
