<svg width="70" height="70" viewBox="0 0 70 70" fill="none" xmlns="http://www.w3.org/2000/svg">
<g filter="url(#filter0_d_1412_24837)">
<circle cx="34.7999" cy="21.7999" r="16.7999" fill="white"/>
</g>
<g clip-path="url(#clip0_1412_24837)">
<path d="M40.8438 10.5996H29.1562C26.3085 10.5996 24 12.9081 24 15.7559V27.4434C24 30.2911 26.3085 32.5996 29.1562 32.5996H40.8438C43.6915 32.5996 46 30.2911 46 27.4434V15.7559C46 12.9081 43.6915 10.5996 40.8438 10.5996Z" fill="white"/>
<path d="M40.8438 10.5996H29.1562C26.3085 10.5996 24 12.9081 24 15.7559V27.4434C24 30.2911 26.3085 32.5996 29.1562 32.5996H40.8438C43.6915 32.5996 46 30.2911 46 27.4434V15.7559C46 12.9081 43.6915 10.5996 40.8438 10.5996Z" fill="#0A66C2"/>
<path d="M39.8739 29.3069H42.3893C42.4805 29.3069 42.5679 29.2707 42.6324 29.2063C42.6968 29.1418 42.7331 29.0544 42.7331 28.9633L42.7344 23.6487C42.7344 20.8709 42.1358 18.7358 38.8897 18.7358C37.6557 18.6899 36.492 19.326 35.8641 20.3882C35.861 20.3934 35.8564 20.3974 35.8508 20.3997C35.8452 20.4019 35.8391 20.4023 35.8333 20.4007C35.8275 20.3992 35.8224 20.3957 35.8187 20.391C35.815 20.3862 35.813 20.3804 35.813 20.3744V19.336C35.813 19.2448 35.7768 19.1574 35.7123 19.0929C35.6478 19.0285 35.5604 18.9923 35.4692 18.9923H33.0821C32.991 18.9923 32.9035 19.0285 32.8391 19.0929C32.7746 19.1574 32.7384 19.2448 32.7384 19.336V28.9627C32.7384 29.0539 32.7746 29.1413 32.8391 29.2058C32.9035 29.2703 32.991 29.3065 33.0821 29.3065H35.5974C35.6885 29.3065 35.776 29.2703 35.8404 29.2058C35.9049 29.1413 35.9411 29.0539 35.9411 28.9627V24.2041C35.9411 22.8586 36.1963 21.5555 37.8645 21.5555C39.5089 21.5555 39.5302 23.0952 39.5302 24.2913V28.9632C39.5302 29.0543 39.5664 29.1418 39.6309 29.2062C39.6953 29.2707 39.7828 29.3069 39.8739 29.3069ZM27.2656 15.7239C27.2656 16.7435 28.105 17.5824 29.1246 17.5824C30.144 17.5823 30.9829 16.7429 30.9829 15.7235C30.9827 14.7041 30.1438 13.8652 29.1243 13.8652C28.1045 13.8652 27.2656 14.7043 27.2656 15.7239ZM27.8637 29.3069H30.3822C30.4734 29.3069 30.5608 29.2707 30.6253 29.2062C30.6898 29.1418 30.726 29.0543 30.726 28.9632V19.336C30.726 19.2448 30.6898 19.1574 30.6253 19.0929C30.5608 19.0285 30.4734 18.9923 30.3822 18.9923H27.8637C27.7725 18.9923 27.6851 19.0285 27.6206 19.0929C27.5561 19.1574 27.5199 19.2448 27.5199 19.336V28.9632C27.5199 29.0543 27.5561 29.1418 27.6206 29.2062C27.6851 29.2707 27.7725 29.3069 27.8637 29.3069Z" fill="white"/>
</g>
<defs>
<filter id="filter0_d_1412_24837" x="0" y="0" width="69.5999" height="69.5996" filterUnits="userSpaceOnUse" color-interpolation-filters="sRGB">
<feFlood flood-opacity="0" result="BackgroundImageFix"/>
<feColorMatrix in="SourceAlpha" type="matrix" values="0 0 0 0 0 0 0 0 0 0 0 0 0 0 0 0 0 0 127 0" result="hardAlpha"/>
<feOffset dy="13"/>
<feGaussianBlur stdDeviation="9"/>
<feColorMatrix type="matrix" values="0 0 0 0 0.0658854 0 0 0 0 0.0730469 0 0 0 0 0.1375 0 0 0 0.08 0"/>
<feBlend mode="normal" in2="BackgroundImageFix" result="effect1_dropShadow_1412_24837"/>
<feBlend mode="normal" in="SourceGraphic" in2="effect1_dropShadow_1412_24837" result="shape"/>
</filter>
<clipPath id="clip0_1412_24837">
<rect width="22" height="22" fill="white" transform="translate(24 10.5996)"/>
</clipPath>
</defs>
</svg>
