<svg width="78" height="78" viewBox="0 0 78 78" fill="none" xmlns="http://www.w3.org/2000/svg">
<rect x="0.5" y="0.5" width="77" height="77" rx="19.5" fill="white"/>
<rect x="0.5" y="0.5" width="77" height="77" rx="19.5" stroke="#EEEEEE"/>
<path fill-rule="evenodd" clip-rule="evenodd" d="M32.2754 33.1395C32.2754 28.0005 35.8251 23.5871 40.9035 21.6641H48.4867C53.5651 23.5871 57.1178 28.0005 57.1178 33.1395C57.1178 48.631 32.2754 48.631 32.2754 33.1395Z" fill="#C97629"/>
<path fill-rule="evenodd" clip-rule="evenodd" d="M43.9523 21.6641H48.4866C53.5651 23.5871 57.1177 28.0005 57.1177 33.1395C57.1177 40.2505 51.881 44.0938 46.218 44.6783C40.5551 44.0939 35.3213 40.2505 35.3213 33.1395C35.3213 28.0005 38.8738 23.5871 43.9524 21.6641H43.9523Z" fill="#D6853A"/>
<path fill-rule="evenodd" clip-rule="evenodd" d="M52.272 14.9082L48.4862 21.665H40.903L37.1172 14.9082C37.6325 14.3756 38.5739 14.0156 39.6449 14.0156C40.7159 14.0156 41.6544 14.3755 42.1697 14.9082C42.685 14.3756 43.6236 14.0156 44.6946 14.0156C45.7655 14.0156 46.7069 14.3755 47.2194 14.9082C47.7347 14.3756 48.6761 14.0156 49.7471 14.0156C50.8181 14.0156 51.7566 14.3755 52.2719 14.9082H52.272Z" fill="#C97629"/>
<path fill-rule="evenodd" clip-rule="evenodd" d="M52.272 14.9081L48.4861 21.6649H43.9518L41.1275 16.6268L39.665 14.0156C40.7274 14.0214 41.6573 14.3784 42.1697 14.9082C42.685 14.3756 43.6235 14.0156 44.6945 14.0156C45.7655 14.0156 46.7069 14.3755 47.2194 14.9082C47.7347 14.3756 48.6761 14.0156 49.747 14.0156C50.818 14.0156 51.7566 14.3755 52.2719 14.9082L52.272 14.9081Z" fill="#D6853A"/>
<path d="M45.3053 39.6674C45.3053 40.0043 45.0318 40.2778 44.6949 40.2778C44.3581 40.2778 44.0846 40.0043 44.0846 39.6674V38.6771C43.3765 38.5649 42.7402 38.2653 42.245 37.8393C41.5915 37.2722 41.1855 36.4805 41.1855 35.6052C41.1855 35.2683 41.4562 34.9948 41.793 34.9948C42.1298 34.9948 42.4033 35.2683 42.4033 35.6052C42.4033 36.1119 42.6479 36.5783 43.0424 36.918C43.4598 37.2808 44.0443 37.5054 44.6949 37.5054C45.3455 37.5054 45.9329 37.2808 46.3503 36.918C46.7447 36.5783 46.9866 36.1119 46.9866 35.6052C46.9866 34.2234 45.8091 33.9613 44.6576 33.708C43.0914 33.3625 41.5598 33.0229 41.5598 30.9126C41.5598 30.1238 41.9254 29.4156 42.5128 28.9089C42.9388 28.5404 43.48 28.2784 44.0846 28.1719V27.1729C44.0846 26.836 44.3582 26.5625 44.6949 26.5625C45.0317 26.5625 45.3053 26.836 45.3053 27.1729V28.1719C45.9099 28.2784 46.454 28.5403 46.8772 28.9089C47.4674 29.4156 47.8302 30.1238 47.8302 30.9126C47.8302 31.2466 47.5567 31.5201 47.2198 31.5201C46.8829 31.5201 46.6123 31.2466 46.6123 30.9126C46.6123 30.4923 46.4108 30.1094 46.0826 29.8272C45.7342 29.525 45.242 29.3378 44.6949 29.3378C44.1479 29.3378 43.6585 29.525 43.3073 29.8272C42.982 30.1094 42.7805 30.4923 42.7805 30.9126C42.7805 32.0498 43.837 32.283 44.9195 32.5219C46.5432 32.8817 48.2073 33.2474 48.2073 35.6052C48.2073 36.4804 47.8013 37.2722 47.1449 37.8393C46.6497 38.2653 46.0135 38.5649 45.3053 38.6771V39.6674Z" fill="#FFCB5B"/>
<path d="M37.4405 22.2745C37.1036 22.2745 36.833 22.001 36.833 21.6641C36.833 21.3301 37.1037 21.0566 37.4405 21.0566H51.9503C52.2872 21.0566 52.5607 21.3301 52.5607 21.6641C52.5607 22.001 52.2872 22.2745 51.9503 22.2745H37.4405Z" fill="#F7B84E"/>
<path d="M39.8037 21.0566H51.95C52.2869 21.0566 52.5604 21.3301 52.5604 21.6641C52.5604 22.001 52.2869 22.2745 51.95 22.2745H39.8037C39.4669 22.2745 39.1934 22.001 39.1934 21.6641C39.1934 21.3301 39.4669 21.0566 39.8037 21.0566Z" fill="#FFCB5B"/>
<path fill-rule="evenodd" clip-rule="evenodd" d="M16.0869 51.4992L28.5729 63.9852L32.5487 60.0093L20.0599 47.5234L16.0869 51.4992Z" fill="#3589C9"/>
<path fill-rule="evenodd" clip-rule="evenodd" d="M25.5449 60.9534L28.5735 63.9849L32.5493 60.0091L29.5178 56.9805L25.5449 60.9534Z" fill="#1B6FAB"/>
<path fill-rule="evenodd" clip-rule="evenodd" d="M51.4209 48.0988L58.5347 40.4149C60.121 38.702 62.9164 41.0339 61.546 42.9283L54.4322 52.7339C53.0273 54.6744 51.0149 55.7942 48.6196 55.7942H34.8611C33.7066 55.7942 32.7135 56.2463 31.9592 57.1156L30.8853 58.3478L21.7246 49.1871L27.042 43.9935C28.3692 42.6979 29.9497 42.0214 31.8038 42.0214H35.6097C36.8448 42.0214 37.9042 42.3064 38.9752 42.9226L40.1411 43.5991H49.4084C50.894 43.5991 52.1117 44.814 52.1117 46.2995C52.1117 46.9905 51.8498 47.621 51.4208 48.0988H51.4209Z" fill="#E2B698"/>
<path fill-rule="evenodd" clip-rule="evenodd" d="M51.4209 48.0993L58.5347 40.4154C59.3322 39.5517 60.4377 39.7159 61.1632 40.3319C61.1114 40.5709 61.0048 40.8127 60.8349 41.0488L53.7211 50.8544C52.3161 52.7948 50.3038 53.9147 47.9085 53.9147H34.1501C32.9956 53.9147 32.0542 54.4157 31.2481 55.2361L29.5265 56.9894L21.7246 49.1875L27.042 43.9939C28.3692 42.6983 29.9497 42.0218 31.8038 42.0218H35.6097C36.8448 42.0218 37.9042 42.3068 38.9752 42.923L40.1411 43.5995H49.4084C50.894 43.5995 52.1117 44.8144 52.1117 46.3C52.1117 46.9909 51.8498 47.6214 51.4208 48.0992L51.4209 48.0993Z" fill="#EFC9AE"/>
<path d="M49.4086 49.003H41.5087C41.1718 49.003 40.8984 48.7295 40.8984 48.3926C40.8984 48.0557 41.1719 47.7852 41.5087 47.7852H51.6656C51.179 48.5164 50.347 49.003 49.4085 49.003H49.4086Z" fill="#E2B698"/>
<path fill-rule="evenodd" clip-rule="evenodd" d="M24.5087 31.2116C29.0286 31.2116 32.7136 27.5266 32.7136 23.0067C32.7136 18.4868 29.0286 14.7988 24.5087 14.7988C19.9887 14.7988 16.3008 18.4867 16.3008 23.0066C16.3008 27.5265 19.9887 31.2115 24.5087 31.2115V31.2116Z" fill="#1B6FAB"/>
<path fill-rule="evenodd" clip-rule="evenodd" d="M25.4471 14.8535C29.538 15.3199 32.7135 18.7919 32.7135 23.0066C32.7135 27.2214 29.5381 30.6905 25.4471 31.1569C21.359 30.6906 18.1807 27.2214 18.1807 23.0066C18.1807 18.7919 21.359 15.3199 25.4471 14.8535Z" fill="#3589C9"/>
<path fill-rule="evenodd" clip-rule="evenodd" d="M25.1187 17C27.9631 17.285 30.226 19.5507 30.511 22.3951H29.5091C29.1722 22.3951 28.8987 22.6686 28.8987 23.0055C28.8987 23.3424 29.1722 23.6129 29.5091 23.6129H30.511C30.226 26.4602 27.9631 28.7231 25.1159 29.008H25.1187V28.0061C25.1187 27.6692 24.8452 27.3957 24.5084 27.3957C24.1716 27.3957 23.898 27.6692 23.898 28.0061V29.008C21.0507 28.7231 18.7879 26.4602 18.5029 23.6129H19.5077C19.8446 23.6129 20.118 23.3423 20.118 23.0055C20.118 22.6687 19.8445 22.3951 19.5077 22.3951H18.5029C18.7879 19.5478 21.0537 17.285 23.901 17H23.8981V18.0048C23.8981 18.3416 24.1716 18.6122 24.5085 18.6122C24.8454 18.6122 25.1188 18.3415 25.1188 18.0048L25.1187 17Z" fill="#CAD1D8"/>
<path fill-rule="evenodd" clip-rule="evenodd" d="M25.5825 17.0664C28.2081 17.5357 30.2435 19.7064 30.5112 22.3953H29.5093C29.1724 22.3953 28.8989 22.6688 28.8989 23.0057C28.8989 23.3426 29.1724 23.6131 29.5093 23.6131H30.5112C30.2435 26.3021 28.2081 28.4728 25.5825 28.945C25.4241 28.9161 25.2716 28.8816 25.119 28.8413V28.0064C25.119 27.6695 24.8454 27.396 24.5087 27.396C24.1719 27.396 23.8983 27.6695 23.8983 28.0064V28.372C21.9521 27.3731 20.6221 25.3434 20.6221 23.0057C20.6221 20.6679 21.9521 18.6383 23.8983 17.6365V18.0049C23.8983 18.3418 24.1718 18.6124 24.5087 18.6124C24.8455 18.6124 25.119 18.3417 25.119 18.0049V17.1672C25.2715 17.1297 25.4241 17.0923 25.5825 17.0664Z" fill="#E2E5E7"/>
<path d="M26.2901 20.3609C26.529 20.1219 26.9148 20.1219 27.1537 20.3609C27.3898 20.5998 27.3898 20.9856 27.1537 21.2217L24.9399 23.4356C24.7009 23.6746 24.3152 23.6746 24.0762 23.4356L23.1089 22.4683C22.8699 22.2293 22.8699 21.8436 23.1089 21.6046C23.345 21.3686 23.7308 21.3686 23.9698 21.6046L24.5081 22.143L26.2902 20.361L26.2901 20.3609Z" fill="#3589C9"/>
</svg>
