<svg width="78" height="78" viewBox="0 0 78 78" fill="none" xmlns="http://www.w3.org/2000/svg">
<rect x="0.5" y="0.5" width="77" height="77" rx="19.5" fill="white"/>
<rect x="0.5" y="0.5" width="77" height="77" rx="19.5" stroke="#EEEEEE"/>
<g clip-path="url(#clip0_7319_82359)">
<path d="M35.0654 13L43.936 42.346L35.0654 65H15.3428V13H35.0654Z" fill="#E7F1FF"/>
<path d="M45.6326 13L47.1053 20.668L54.5108 22.1406V53.6571L48.6795 65H35.0654V13H45.6326Z" fill="#C1DDFF"/>
<path d="M45.6328 13L54.511 22.1406H45.6328V13Z" fill="#B4C5F2"/>
<path d="M23.0364 22.996C23.8328 22.996 24.5957 22.2957 24.5588 21.4736C24.5219 20.6487 23.8898 19.9512 23.0364 19.9512C22.2401 19.9512 21.4771 20.6514 21.514 21.4736C21.5508 22.2985 22.1829 22.996 23.0364 22.996Z" fill="#32E25B"/>
<path d="M30.3284 30.289C31.1247 30.289 31.8877 29.5887 31.8508 28.7666C31.8138 27.9417 31.1818 27.2441 30.3284 27.2441C29.532 27.2441 28.7691 27.9444 28.806 28.7666C28.8428 29.5914 29.4749 30.289 30.3284 30.289Z" fill="#32E25B"/>
<path d="M21.4141 28.2422L29.7102 19.946L31.8629 22.0987L23.5668 30.3949L21.4141 28.2422Z" fill="#32E25B"/>
<path d="M20.3457 55.168H30.3359V58.2129H20.3457V55.168Z" fill="#D0E4FC"/>
<path d="M20.3457 36.8984V39.9434H35.065L37.8474 38.4209L35.065 36.8984H20.3457Z" fill="#D0E4FC"/>
<path d="M20.3457 42.9883V46.0332H35.065L37.5789 44.5107L35.065 42.9883H20.3457Z" fill="#D0E4FC"/>
<path d="M20.3457 49.0781V52.1231H35.065L37.8474 50.8245L35.065 49.0781H20.3457Z" fill="#D0E4FC"/>
<path d="M35.0654 36.8984H49.6862V39.9434H35.0654V36.8984Z" fill="#B4C5F2"/>
<path d="M47.0844 42.9883H35.0654V46.0332H42.3733L47.0844 42.9883Z" fill="#B4C5F2"/>
<path d="M35.0654 49.0781H49.6862V52.1231H35.0654V49.0781Z" fill="#B4C5F2"/>
<path d="M48.6793 65.0008V46.0343H42.373L54.5106 32.8555L57.308 45.2406L54.5106 65.0008H48.6793Z" fill="#FF6A6D"/>
<path d="M60.3445 46.0343V65.0008H54.5107V32.8555L66.658 46.0343H60.3445Z" fill="#EC2176"/>
</g>
<defs>
<clipPath id="clip0_7319_82359">
<rect width="52" height="52" fill="white" transform="translate(15 13)"/>
</clipPath>
</defs>
</svg>
