<svg width="78" height="78" viewBox="0 0 78 78" fill="none" xmlns="http://www.w3.org/2000/svg">
<rect x="0.5" y="0.5" width="77" height="77" rx="19.5" fill="white"/>
<rect x="0.5" y="0.5" width="77" height="77" rx="19.5" stroke="#EEEEEE"/>
<g clip-path="url(#clip0_7319_82305)">
<path d="M16.834 21.95L17.6088 23.3314L30.155 16.274L29.3801 14.8926L16.834 21.95Z" fill="#954C35"/>
<path d="M30.852 14.8926L30.0771 16.274L43.2037 23.6135L43.9785 22.2321L30.852 14.8926Z" fill="#954C35"/>
<path d="M64.6945 53.3928V55.1738C64.6945 58.0421 63.4619 60.7728 61.31 62.67L61.2152 62.7529C60.002 63.8221 58.4401 64.4128 56.8226 64.4128H50.1393C49.3058 64.4128 48.4865 64.2557 47.7228 63.9577C46.9591 63.6598 46.251 63.2194 45.6372 62.6545C43.585 60.7621 42.417 58.0977 42.417 55.3059V53.3385C42.417 47.2951 45.5067 43.1279 50.6071 39.8858L50.7055 39.8235V37.4213L48.971 27.6475C48.8952 27.2857 49.1717 26.9453 49.5422 26.9453H57.4625C57.8319 26.9453 58.1084 27.2849 58.0338 27.6467L56.3184 37.4186V39.8235L56.4338 39.8957C61.575 43.1295 64.6945 47.3197 64.6945 53.3928Z" fill="#20B7A1"/>
<path d="M64.6943 53.3928V55.1738C64.6943 58.0421 63.4616 60.7728 61.3098 62.67L61.215 62.7529C60.0018 63.8221 58.4398 64.4128 56.8224 64.4128H52.8337C51.9997 64.4128 51.1809 64.2557 50.4172 63.9577C49.6535 63.6598 48.9453 63.2194 48.3316 62.6545C46.2789 60.7621 45.1113 58.0977 45.1113 55.3059V53.3385C45.1113 47.2951 48.2007 43.1279 53.301 39.8858L53.3998 39.8235V37.4213L51.6649 27.6475C51.5895 27.2857 51.866 26.9453 52.2362 26.9453H57.4623C57.8316 26.9453 58.1082 27.2849 58.0332 27.6467L56.3181 37.4186V39.8235L56.4336 39.8957C61.5748 43.1295 64.6943 47.3197 64.6943 53.3928Z" fill="#24D3B5"/>
<path d="M50.7051 37.4238H56.3184V39.8232H50.7051V37.4238Z" fill="#FFDE91"/>
<path d="M50.7051 37.4238H53.3993V39.8232H50.7051V37.4238Z" fill="#EDC472"/>
<path d="M46.0777 61.3941C44.2659 63.3674 41.9085 64.5382 39.4484 64.8877C36.2599 65.342 32.9004 64.4148 30.3431 62.0666C25.8116 57.908 25.5105 50.8625 29.6706 46.3319C32.2509 43.5203 35.9429 42.338 39.4555 42.8383C41.6042 43.1446 43.6863 44.0801 45.4053 45.6594C49.9367 49.8183 50.2374 56.8639 46.0777 61.3941Z" fill="#FFDE91"/>
<path d="M46.0773 61.3937C44.2654 63.367 41.9081 64.5378 39.4479 64.8873C37.2993 64.581 35.2172 63.6455 33.4982 62.0662C28.9668 57.9076 28.666 50.8621 32.8257 46.3315C34.6376 44.3582 36.9954 43.1874 39.4551 42.8379C41.6038 43.1442 43.6858 44.0797 45.4048 45.659C49.9363 49.8179 50.237 56.8634 46.0773 61.3937Z" fill="#FFE89C"/>
<path d="M45.7183 55.3525C45.3465 57.3203 44.2559 59.0647 42.65 60.264C41.6724 60.9936 40.5806 61.4645 39.4583 61.6894C36.5276 62.2774 33.38 61.19 31.4777 58.6402C30.1439 56.8529 29.6174 54.5713 30.032 52.3794C30.4037 50.4104 31.4943 48.666 33.1003 47.4675C34.8094 46.1924 36.9129 45.6592 39.0235 45.9651C39.1639 45.9853 39.3044 46.0095 39.4424 46.0369C41.38 46.4233 43.084 47.4961 44.273 49.0913C45.6064 50.8778 46.1332 53.1606 45.7183 55.3525Z" fill="#DBAD5C"/>
<path d="M45.7189 55.3527C45.3472 57.3205 44.2566 59.0649 42.6506 60.2642C41.6731 60.9938 40.5813 61.4647 39.459 61.6897C37.5935 61.3159 35.8547 60.2813 34.6308 58.6404C33.2974 56.8531 32.7705 54.5715 33.1855 52.3796C33.558 50.4106 34.6478 48.6662 36.2546 47.4677C37.2167 46.7508 38.3017 46.2684 39.4431 46.0371C41.3807 46.4235 43.0847 47.4963 44.2737 49.0915C45.6071 50.878 46.1339 53.1608 45.7189 55.3527Z" fill="#EDC472"/>
<path d="M40.6557 55.9969C40.6557 52.47 36.4944 53.4809 36.4944 51.5317C36.4944 50.5756 37.3438 50.3749 38.0564 50.3749C38.7447 50.3749 39.1196 50.5681 39.3937 50.7093C39.552 50.791 39.6774 50.8553 39.8147 50.8553C40.2233 50.8553 40.428 50.3808 40.428 50.1154C40.428 49.539 39.5048 49.2506 38.6657 49.1573V47.7469C38.6657 47.3098 38.3111 46.9551 37.8739 46.9551C37.4367 46.9551 37.082 47.3098 37.082 47.7469V49.2236C35.8343 49.5056 35.1154 50.3622 35.1154 51.6329C35.1154 54.8182 39.2767 53.7213 39.2767 56.0977C39.2767 57.3248 38.2746 57.5077 37.6771 57.5077C36.7495 57.5077 36.331 57.0971 36.0255 56.7967C35.8541 56.6285 35.7061 56.4833 35.5141 56.4833C35.1769 56.4833 34.8877 56.8904 34.8877 57.2236C34.8877 57.7866 35.7244 58.5701 37.082 58.7657V59.8932C37.082 60.3308 37.4367 60.6851 37.8739 60.6851C38.3111 60.6851 38.6657 60.3304 38.6657 59.8932V58.7054C39.9281 58.3979 40.6557 57.4335 40.6557 55.9969Z" fill="#FFE89C"/>
<path d="M32.7468 61.3941C30.935 63.3674 28.5772 64.5382 26.1175 64.8877C22.929 65.342 19.5691 64.4148 17.0122 62.0666C12.4803 57.908 12.1796 50.8625 16.3397 46.3319C18.92 43.5203 22.612 42.338 26.1246 42.8383C28.2733 43.1446 30.3553 44.0801 32.0744 45.6594C36.6058 49.8183 36.9065 56.8639 32.7468 61.3941Z" fill="#FFE89C"/>
<path d="M32.7464 61.3937C30.9345 63.367 28.5768 64.5378 26.117 64.8873C23.9684 64.581 21.8863 63.6455 20.1673 62.0662C15.6359 57.9076 15.3347 50.8621 19.4948 46.3315C21.3067 44.3582 23.6641 43.1874 26.1242 42.8379C28.2729 43.1442 30.3549 44.0797 32.0739 45.659C36.6054 49.8179 36.9061 56.8634 32.7464 61.3937Z" fill="#FCF2B6"/>
<path d="M32.3882 55.3525C32.0165 57.3203 30.9258 59.0647 29.3199 60.264C28.3423 60.9936 27.2506 61.4645 26.1282 61.6894C23.1976 62.2774 20.0499 61.19 18.1476 58.6402C16.8138 56.8529 16.2873 54.5713 16.7019 52.3794C17.0737 50.4104 18.1643 48.666 19.7702 47.4675C21.4793 46.1924 23.5828 45.6592 25.6934 45.9651C25.8338 45.9853 25.9743 46.0095 26.1123 46.0369C28.05 46.4233 29.7539 47.4961 30.9429 49.0913C32.2763 50.8778 32.8032 53.1606 32.3882 55.3525Z" fill="#DBAD5C"/>
<path d="M32.3879 55.3527C32.0162 57.3205 30.9256 59.0649 29.3196 60.2642C28.3421 60.9938 27.2503 61.4647 26.1279 61.6897C24.2625 61.3159 22.5236 60.2813 21.2997 58.6404C19.9663 56.8531 19.4395 54.5715 19.8544 52.3796C20.227 50.4106 21.3168 48.6662 22.9235 47.4677C23.8852 46.7508 24.9706 46.2684 26.112 46.0371C28.0493 46.4235 29.7536 47.4963 30.9426 49.0915C32.276 50.878 32.8029 53.1608 32.3879 55.3527Z" fill="#EDC472"/>
<path d="M27.3247 55.9969C27.3247 52.47 23.1634 53.4809 23.1634 51.5317C23.1634 50.5756 24.0128 50.3749 24.7253 50.3749C25.4136 50.3749 25.7885 50.5681 26.0627 50.7093C26.221 50.791 26.3463 50.8553 26.4832 50.8553C26.8919 50.8553 27.097 50.3808 27.097 50.1154C27.097 49.539 26.1738 49.2506 25.3347 49.1573V47.7469C25.3347 47.3098 24.98 46.9551 24.5428 46.9551C24.1052 46.9551 23.7509 47.3098 23.7509 47.7469V49.2236C22.5032 49.5056 21.7844 50.3622 21.7844 51.6329C21.7844 54.8182 25.9457 53.7213 25.9457 56.0977C25.9457 57.3248 24.9435 57.5077 24.346 57.5077C23.4185 57.5077 22.9999 57.0971 22.6945 56.7967C22.5231 56.6285 22.3751 56.4833 22.1831 56.4833C21.8455 56.4833 21.5566 56.8904 21.5566 57.2236C21.5566 57.7866 22.3929 58.5701 23.7509 58.7657V59.8932C23.7509 60.3308 24.1052 60.6851 24.5428 60.6851C24.98 60.6851 25.3343 60.3304 25.3343 59.8932V58.7054C26.5971 58.3979 27.3247 57.4335 27.3247 55.9969Z" fill="#FFE89C"/>
<path d="M46.4831 22.5036V38.2652C46.4831 39.0531 45.8456 39.6907 45.0576 39.6907H15.2526C14.4659 39.6907 13.8271 39.0531 13.8271 38.2652V22.5036C13.8271 21.7173 14.4659 21.0781 15.2526 21.0781H45.0576C45.8456 21.0781 46.4831 21.7173 46.4831 22.5036Z" fill="#C0694E"/>
<path d="M46.4823 22.5036V35.9075H18.1364C17.3497 35.9075 16.7109 35.2695 16.7109 34.482V21.0781H45.0568C45.8447 21.0781 46.4823 21.7173 46.4823 22.5036Z" fill="#C97E67"/>
<path d="M21.4958 32.9433H18.3791V25.5737C18.3791 25.0405 17.4583 24.9544 16.9742 25.1841C16.804 25.2654 16.7188 25.3951 16.7188 25.5737V33.8756C16.7188 34.0458 16.7933 34.1755 16.9425 34.2648C17.2408 34.4441 17.0568 34.3993 21.4954 34.3993C22.1476 34.3993 22.1722 32.9433 21.4958 32.9433Z" fill="#FFDE91"/>
<path d="M27.767 25.7269C26.4915 24.6517 22.6452 24.5026 22.6452 27.9874C22.6452 31.7718 22.5778 32.1927 22.8753 32.9112C23.1701 33.623 23.6978 34.0943 24.4523 34.316C25.5231 34.6306 27.6896 34.6402 28.4053 32.9112C28.7017 32.1951 28.6354 31.7817 28.6354 27.9874C28.6354 27.1257 28.4287 26.2858 27.767 25.7269ZM26.9751 31.5512C26.9751 32.0622 26.8557 32.4348 26.6173 32.6688C26.1317 33.1461 25.1101 33.1374 24.6507 32.6688C24.4206 32.4348 24.3055 32.0622 24.3055 31.5512C24.3055 27.7514 24.2044 27.3249 24.6507 26.8702C25.1077 26.4045 26.1273 26.389 26.6173 26.8702C27.0803 27.3253 26.9751 27.7533 26.9751 31.5512Z" fill="#FFDE91"/>
<path d="M31.8916 25.5475C29.2113 34.283 29.2946 33.7296 29.5033 33.9895C29.8468 34.4199 30.8549 34.6092 31.0104 34.0664L31.4956 32.3676H34.4207C34.9452 34.2045 34.9079 34.2196 35.1039 34.3219C35.4351 34.4945 36.0858 34.3711 36.4131 33.9835C36.6226 33.7348 36.7229 34.3418 34.0248 25.5475C33.7931 24.7877 32.1185 24.8004 31.8916 25.5475ZM31.8408 31.0648L32.9516 27.1439L34.0629 31.0648H31.8408Z" fill="#FFDE91"/>
<path d="M41.9303 25.5738V30.7083C39.0354 25.1128 39.2298 25.0628 38.2264 25.0628C37.911 25.0628 37.3965 25.1708 37.3965 25.5865V33.8758C37.3965 34.5685 39.0568 34.5728 39.0568 33.8758V28.7413C42.0239 34.2892 41.8581 34.1182 42.2179 34.2844C42.5456 34.4356 42.9733 34.4471 43.3292 34.265C43.5033 34.1757 43.591 34.046 43.591 33.8758V25.5738C43.591 24.8962 41.9303 24.8827 41.9303 25.5738Z" fill="#FFDE91"/>
<path d="M32.0559 14.9007C32.0559 15.9505 31.205 16.8015 30.1552 16.8015C29.1055 16.8015 28.2549 15.9505 28.2549 14.9007C28.2549 13.851 29.1055 13 30.1552 13C31.205 13 32.0559 13.851 32.0559 14.9007Z" fill="#EDC472"/>
</g>
<defs>
<clipPath id="clip0_7319_82305">
<rect width="52" height="52" fill="white" transform="translate(13 13)"/>
</clipPath>
</defs>
</svg>
