<svg width="54" height="54" viewBox="0 0 54 54" fill="none" xmlns="http://www.w3.org/2000/svg">
<path d="M11.3674 41.4749C11.2792 41.4749 11.1919 41.4497 11.1163 41.3984C10.9741 41.303 10.8985 41.1329 10.9219 40.9637L10.9867 40.4948L10.6636 40.6811C10.4953 40.7765 10.2874 40.7576 10.1416 40.6298C9.9976 40.502 9.949 40.2977 10.0228 40.1195L10.6375 38.6354L9.229 39.4481C9.0436 39.5561 8.8087 39.5165 8.6674 39.3563C8.5252 39.1961 8.5162 38.9594 8.6449 38.7875L9.8743 37.1531L7.9618 38.2574C7.7701 38.3699 7.5253 38.3231 7.384 38.1485C7.2463 37.9739 7.2553 37.7237 7.4065 37.5617L9.1813 35.6582L6.7747 37.0469C6.5785 37.1621 6.3265 37.1099 6.1897 36.9263C6.0529 36.7436 6.0745 36.488 6.241 36.3314L8.491 34.1957L5.665 35.8265C5.467 35.9435 5.2114 35.8877 5.0746 35.6996C4.9405 35.5124 4.9693 35.2523 5.1421 35.0993L7.9042 32.6576L4.5958 34.5674C4.3924 34.6853 4.1305 34.6259 3.9991 34.4315C3.8668 34.2362 3.9064 33.9716 4.0918 33.8258L6.4723 31.9394L3.7561 33.5063C3.5527 33.6251 3.2926 33.5639 3.1594 33.3713C3.0271 33.1769 3.0658 32.9132 3.2503 32.7656L6.6496 30.0449L2.8228 32.2535C2.6131 32.375 2.3485 32.3093 2.2189 32.1068C2.0884 31.9034 2.1415 31.6352 2.3386 31.4957L3.1108 30.9521L2.2558 31.4462C2.0515 31.565 1.7905 31.5047 1.6591 31.3103C1.5268 31.115 1.5664 30.8513 1.7518 30.7046L6.4894 26.9471L1.3081 29.9378C1.1038 30.0593 0.839199 29.9936 0.706899 29.7956C0.575499 29.5949 0.623199 29.3285 0.815799 29.1863L4.8847 26.1785L1.4503 28.1612C1.2442 28.2827 0.976899 28.217 0.845499 28.0136C0.715899 27.8102 0.769899 27.542 0.966999 27.4034L2.9758 25.994L2.8786 26.0498C2.677 26.1686 2.4142 26.1092 2.2828 25.9157C2.1505 25.7213 2.1883 25.4576 2.3719 25.31L6.7693 21.7649L5.9386 22.2437C5.7415 22.3607 5.4841 22.3049 5.3482 22.1168C5.2141 21.9296 5.2429 21.6695 5.4157 21.5165L9.9175 17.5385C9.8473 17.3378 9.9265 17.1101 10.1173 17.0003L11.3359 16.2974C11.5357 16.1795 11.7913 16.238 11.9263 16.4243C12.0604 16.6115 12.0316 16.8716 11.8588 17.0246L9.3685 19.2251L11.3359 18.0893C11.5384 17.9696 11.8003 18.0299 11.9317 18.2234C12.064 18.4178 12.0262 18.6815 11.8426 18.8291L7.447 22.3733L11.335 20.1287C11.542 20.0063 11.8093 20.0729 11.9398 20.2763C12.0694 20.4797 12.0154 20.7479 11.8183 20.8865L9.814 22.2923L11.3341 21.4148C11.5402 21.2951 11.8048 21.359 11.9353 21.557C12.0667 21.7577 12.019 22.0241 11.8264 22.1663L7.7548 25.1759L11.335 23.1095C11.5375 22.9889 11.8003 23.051 11.9317 23.2454C12.064 23.4407 12.0244 23.7044 11.839 23.8511L7.1014 27.6086L11.3341 25.1651C11.5411 25.0427 11.8084 25.1093 11.938 25.3118C12.0685 25.5152 12.0154 25.7834 11.8183 25.9229L11.0416 26.4692L11.3341 26.3C11.5366 26.1794 11.7976 26.2415 11.9308 26.435C12.0631 26.6294 12.0244 26.8931 11.8399 27.0407L8.4406 29.7614L11.3341 28.0919C11.5366 27.9722 11.7985 28.0334 11.9317 28.2278C12.0631 28.4231 12.0235 28.6877 11.8381 28.8335L9.4585 30.719L11.3332 29.6372C11.5321 29.522 11.7886 29.5769 11.9236 29.7641C12.0577 29.9513 12.0289 30.2105 11.8561 30.3644L9.094 32.8061L11.3332 31.5128C11.5285 31.3976 11.7814 31.4498 11.9182 31.6334C12.055 31.8161 12.0334 32.0717 11.8669 32.2283L9.6169 34.364L11.3323 33.3731C11.524 33.2606 11.7688 33.3065 11.9101 33.482C12.0478 33.6566 12.0388 33.9068 11.8876 34.0688L10.1137 35.9723L11.3323 35.2685C11.5168 35.1587 11.7517 35.1992 11.8939 35.3603C12.0361 35.5205 12.0451 35.7572 11.9164 35.9291L10.687 37.5635L11.3323 37.1918C11.4997 37.0964 11.7094 37.1153 11.8534 37.2431C11.9983 37.3709 12.0469 37.5752 11.9731 37.7534L11.3584 39.2393C11.5015 39.1682 11.6743 39.179 11.8084 39.269C11.9506 39.3653 12.0262 39.5345 12.0028 39.7037L11.8786 40.5965C11.9038 40.6226 11.9272 40.6523 11.9461 40.6865C12.0712 40.9016 11.9974 41.177 11.7814 41.3012L11.5897 41.4119C11.5204 41.4524 11.4421 41.4722 11.3647 41.4722L11.3674 41.4749Z" fill="#DCE4EA"/>
<path d="M42.4455 41.3639C42.3051 41.3639 42.1674 41.2982 42.0801 41.1767C41.946 40.9886 41.9748 40.7294 42.1476 40.5764L44.5956 38.4164L42.6705 39.527C42.4653 39.6458 42.2016 39.5846 42.0702 39.3857C41.9388 39.1868 41.9847 38.9195 42.1755 38.7773L44.1276 37.3166L42.6705 38.1581C42.4635 38.2787 42.1971 38.2139 42.0666 38.0123C41.937 37.8098 41.9883 37.5425 42.1836 37.4021L44.2707 35.9117L42.6705 36.8351C42.4635 36.9557 42.198 36.8909 42.0675 36.6902C41.937 36.4895 41.9874 36.2213 42.1818 36.0809L45.7116 33.5276L42.6705 35.2826C42.4662 35.4023 42.2043 35.3402 42.072 35.1449C41.9406 34.9487 41.982 34.6841 42.1683 34.5383L46.9887 30.7799L42.6696 33.2738C42.4644 33.3953 42.2007 33.3305 42.0684 33.1316C41.937 32.9318 41.9847 32.6654 42.1764 32.5232L45.1167 30.338L42.6696 31.7501C42.468 31.868 42.2079 31.8095 42.0747 31.6178C41.9424 31.4252 41.9784 31.1624 42.1584 31.0139L46.1319 27.7379L42.6696 29.7368C42.4626 29.8574 42.1971 29.7926 42.0666 29.5919C41.9361 29.3912 41.9865 29.123 42.1818 28.9826L42.5814 28.6946C42.3987 28.7513 42.1953 28.6883 42.0783 28.5281C41.9442 28.34 41.973 28.0808 42.1458 27.9278L45.231 25.2089L42.6687 26.6885C42.4689 26.8073 42.2115 26.7488 42.0765 26.5589C41.9433 26.3699 41.9748 26.1089 42.1503 25.9577L44.0592 24.3152L42.6687 25.118C42.4725 25.2323 42.2205 25.1819 42.0846 24.9992C41.9487 24.8183 41.9676 24.5636 42.1314 24.4052L43.9899 22.607L42.6687 23.3693C42.4716 23.4854 42.2169 23.4314 42.0801 23.2451C41.9451 23.0588 41.9712 22.8005 42.1413 22.6457L42.7182 22.1246L42.6687 22.1525C42.4806 22.2614 42.2421 22.22 42.1017 22.0553C41.9604 21.8906 41.9577 21.6485 42.0936 21.4802L43.152 20.1743L42.6687 20.4533C42.4869 20.5604 42.2538 20.5235 42.1107 20.366C41.9685 20.2094 41.9541 19.9736 42.0774 19.8017L42.5472 19.1447C42.4302 19.1717 42.3042 19.1528 42.2007 19.0871C42.0594 18.9962 41.9802 18.8351 41.9946 18.6668L42.1422 17.0225C42.108 16.9919 42.0783 16.955 42.0531 16.9127C41.928 16.6976 42.0018 16.4222 42.2178 16.298L42.4095 16.1873C42.5553 16.1027 42.7353 16.1081 42.8775 16.1972C43.0188 16.2881 43.098 16.4492 43.0836 16.6175L42.9693 17.8838L43.8711 17.3636C44.0529 17.2565 44.286 17.2934 44.4291 17.4509C44.5713 17.6075 44.5857 17.8433 44.4624 18.0152L44.0178 18.6353L44.8062 18.1808C44.9916 18.071 45.2319 18.1115 45.3732 18.278C45.5145 18.4427 45.5172 18.6848 45.3813 18.8531L44.3229 20.159L45.9294 19.232C46.1283 19.1168 46.3821 19.1717 46.518 19.3562C46.653 19.5425 46.6269 19.8008 46.4568 19.9556L45.8799 20.4767L46.7007 20.0033C46.8951 19.8881 47.1471 19.9394 47.2848 20.1221C47.4207 20.303 47.4018 20.5577 47.238 20.7161L45.3795 22.5143L47.7654 21.1373C47.9643 21.0194 48.2217 21.077 48.3576 21.2669C48.4908 21.4559 48.4593 21.7169 48.2838 21.8681L46.374 23.5115L48.6852 22.1777C48.885 22.0616 49.1397 22.1165 49.2756 22.3046C49.4097 22.4927 49.3809 22.7519 49.2081 22.9049L46.1238 25.6238L49.785 23.5097C49.9911 23.3873 50.2557 23.4539 50.388 23.6546C50.5185 23.8562 50.4681 24.1235 50.2728 24.2639L49.9569 24.4916L50.3673 24.2549C50.5689 24.1361 50.829 24.1955 50.9622 24.3872C51.0945 24.5798 51.0585 24.8426 50.8785 24.9911L46.9041 28.268L51.405 25.6697C51.6111 25.5491 51.8748 25.6139 52.0062 25.8119C52.1376 26.0117 52.0899 26.2781 51.8982 26.4203L48.957 28.6055L52.1511 26.7623C52.3554 26.6426 52.6173 26.7047 52.7496 26.9C52.881 27.0962 52.8396 27.3608 52.6533 27.5066L47.8329 31.2641L52.8423 28.3724C53.0484 28.2509 53.313 28.3157 53.4453 28.5173C53.5758 28.718 53.5254 28.9862 53.331 29.1266L49.803 31.6781L51.8703 30.4856C52.0764 30.3641 52.3419 30.4289 52.4742 30.6314C52.6038 30.8339 52.5525 31.1012 52.3572 31.2416L50.2548 32.7428C50.4546 32.6483 50.6976 32.7131 50.8227 32.9021C50.9541 33.101 50.9082 33.3683 50.7174 33.5105L48.2811 35.3339C48.4125 35.3402 48.5412 35.405 48.624 35.5202C48.7581 35.7083 48.7293 35.9675 48.5565 36.1205L44.0853 40.067C44.1546 40.2677 44.0745 40.4954 43.8846 40.6043L42.666 41.3072C42.5958 41.3486 42.5175 41.3675 42.441 41.3675L42.4455 41.3639Z" fill="#DCE4EA"/>
<path d="M25.6682 47.1795C25.5161 47.1795 25.3676 47.1021 25.283 46.9626C25.1561 46.7529 25.2209 46.4802 25.427 46.3488L27.2261 45.2103L24.2075 46.9527C23.9951 47.0769 23.726 47.0067 23.5982 46.797C23.4704 46.5891 23.5343 46.3164 23.7395 46.1841L29.9837 42.1791L22.3076 46.6116C22.0961 46.734 21.827 46.6665 21.6983 46.4568C21.5705 46.2489 21.6335 45.9771 21.8378 45.8439L31.3787 39.6789L20.3069 46.0707C20.0954 46.1931 19.8254 46.1256 19.6976 45.9159C19.5698 45.708 19.6328 45.4353 19.838 45.303L31.1267 38.0229L18.3926 45.375C18.1793 45.4983 17.9066 45.4272 17.7815 45.2166C17.6546 45.006 17.7221 44.7324 17.9309 44.6028L21.2321 42.5598L17.2361 44.8665C17.0246 44.9907 16.7537 44.9214 16.6259 44.7099C16.499 44.5002 16.5638 44.2275 16.7699 44.0961L27.2864 37.4505L15.7403 44.1159C15.527 44.2401 15.2543 44.169 15.1292 43.9575C15.0023 43.7469 15.0698 43.4733 15.2786 43.3437L21.1349 39.7185L14.6207 43.4796C14.4092 43.6029 14.1383 43.5336 14.0114 43.3248C13.8836 43.116 13.9466 42.8442 14.1518 42.711L29.7695 32.6715L12.935 42.3906C12.7235 42.5157 12.4517 42.4446 12.3248 42.2331C12.197 42.0234 12.2627 41.7507 12.4697 41.6202L25.0526 33.7038L11.6885 41.4186C11.4761 41.5428 11.2061 41.4735 11.0783 41.262C10.9514 41.0532 11.0153 40.7805 11.2223 40.6491L26.2208 31.1352L10.7219 40.0821C10.5077 40.2054 10.2368 40.1343 10.1108 39.9237C9.98394 39.714 10.0505 39.4404 10.2584 39.3108L21.2492 32.4591L10.0172 38.9436C9.80394 39.0678 9.53214 38.9967 9.40524 38.7843C9.27924 38.5728 9.34674 38.2992 9.55644 38.1705L14.7872 34.9593L9.51774 38.0022C9.30354 38.1264 9.03264 38.0553 8.90664 37.8438C8.77974 37.6332 8.84634 37.3605 9.05514 37.23L18.7742 31.1928L8.98584 36.8439C8.77344 36.9681 8.50254 36.8988 8.37474 36.6864C8.24784 36.4767 8.31354 36.204 8.52144 36.0726L21.0269 28.2147L8.47194 35.4633C8.26044 35.5875 7.98954 35.5182 7.86174 35.3067C7.73484 35.097 7.79964 34.8243 8.00664 34.6929L20.4068 26.8755L8.04714 34.0116C7.83294 34.1358 7.56114 34.0647 7.43604 33.8532C7.30914 33.6426 7.37664 33.369 7.58544 33.2394L13.592 29.5242L7.79694 32.8704C7.58544 32.9946 7.31454 32.9244 7.18674 32.7138C7.05984 32.505 7.12374 32.2323 7.33074 32.1009L19.1261 24.6201L7.56384 31.2945C7.35144 31.4187 7.08054 31.3476 6.95274 31.137C6.82584 30.9273 6.89244 30.6537 7.09944 30.5232L15.0617 25.5318L7.46844 29.9148C7.25424 30.0381 6.98244 29.967 6.85644 29.7564C6.73044 29.5449 6.79794 29.2713 7.00674 29.1417L9.18564 27.7953L7.45674 28.7934C7.24524 28.9167 6.97614 28.8483 6.84744 28.6386C6.71964 28.4307 6.78264 28.1589 6.98694 28.0257L18.0065 20.8923L7.57914 26.9115C7.36764 27.0348 7.09854 26.9655 6.97074 26.7576C6.84294 26.5497 6.90414 26.2779 7.10844 26.1447L16.5926 19.9698L7.89414 24.9918C7.68174 25.1151 7.41444 25.0458 7.28574 24.8388C7.15794 24.6318 7.21824 24.3609 7.42074 24.2259L15.4676 18.9276L8.43774 22.9857C8.22624 23.1099 7.95624 23.0397 7.82844 22.83C7.70064 22.6221 7.76364 22.3494 7.96884 22.2171L10.2332 20.7645L8.99754 21.4773C8.79144 21.5979 8.52594 21.5331 8.39544 21.3333C8.26404 21.1326 8.31354 20.8644 8.50794 20.724L15.014 15.9828L10.5194 18.5775C10.3133 18.699 10.046 18.6333 9.91644 18.4317C9.78594 18.2301 9.83724 17.9628 10.0325 17.8224L11.5202 16.7568C11.4194 16.7235 11.3303 16.6542 11.2736 16.5543C11.1485 16.3392 11.2223 16.0638 11.4383 15.9396L17.7788 12.2793C17.984 12.1578 18.2513 12.2217 18.3818 12.4251C18.5123 12.6267 18.461 12.894 18.2657 13.0344L18.038 13.1982L21.9053 10.9662C22.1114 10.8438 22.376 10.9104 22.5074 11.1102C22.6388 11.31 22.5893 11.5791 22.3958 11.7195L15.8897 16.4598L26.3189 10.4397C26.5322 10.3164 26.8013 10.3866 26.9282 10.5954C27.056 10.8033 26.993 11.076 26.7878 11.2083L24.527 12.6591L28.2908 10.4865C28.5023 10.3632 28.7705 10.4325 28.8992 10.6395C29.027 10.8465 28.9667 11.1174 28.7642 11.2524L20.72 16.5489L30.7064 10.7835C30.9179 10.6611 31.1879 10.7295 31.3148 10.9374C31.4426 11.1453 31.3814 11.4171 31.1771 11.5503L21.6956 17.7234L32.8646 11.2749C33.077 11.1516 33.3452 11.22 33.4739 11.4297C33.6017 11.6376 33.5387 11.9094 33.3344 12.0426L22.3139 19.1769L34.8689 11.9283C35.0813 11.8032 35.3531 11.8743 35.4809 12.0867C35.6069 12.2982 35.5394 12.5718 35.3306 12.7014L33.1355 14.0577L36.0209 12.3918C36.2351 12.2685 36.5051 12.3396 36.632 12.5493C36.7589 12.759 36.6923 13.0326 36.4853 13.1631L28.5221 18.1554L37.4006 13.0299C37.6139 12.9066 37.8839 12.9768 38.0108 13.1865C38.1377 13.3962 38.0738 13.668 37.8668 13.7994L26.0786 21.2766L38.9297 13.857C39.1421 13.7328 39.4148 13.8039 39.5408 14.0154C39.6677 14.226 39.6002 14.4996 39.3914 14.6292L33.3803 18.3471L40.0178 14.5149C40.2311 14.3925 40.5011 14.4618 40.628 14.6715C40.7549 14.8812 40.6901 15.1539 40.4831 15.2853L28.0829 23.1027L41.3804 15.4257C41.5946 15.3024 41.8646 15.3717 41.9915 15.5832C42.1184 15.7929 42.0527 16.0656 41.8448 16.197L29.3384 24.0558L42.5144 16.449C42.7277 16.3239 42.9977 16.395 43.1255 16.6074C43.2524 16.818 43.1858 17.0907 42.977 17.2212L33.2687 23.2512L43.2542 17.4867C43.4666 17.3616 43.7384 17.4327 43.8662 17.646C43.9922 17.8575 43.9247 18.1311 43.715 18.2598L38.4572 21.4872L43.8203 18.3921C44.0336 18.267 44.3036 18.3381 44.4314 18.5505C44.5583 18.7602 44.4917 19.0338 44.2838 19.1634L33.293 26.0151L44.4629 19.5666C44.6762 19.4442 44.9462 19.5135 45.0731 19.7232C45.2 19.9329 45.1361 20.2047 44.9291 20.3361L29.9342 29.8482L45.1352 21.0723C45.3485 20.949 45.6185 21.0183 45.7454 21.2298C45.8732 21.4395 45.8075 21.7122 45.6005 21.8427L33.0194 29.7582L45.6356 22.4745C45.8471 22.3512 46.1171 22.4214 46.2449 22.6293C46.3727 22.8381 46.3097 23.1099 46.1045 23.2431L30.4814 33.2871L46.1054 24.2673C46.3178 24.1422 46.5905 24.2133 46.7165 24.4257C46.8434 24.6363 46.7759 24.9099 46.5671 25.0395L40.7279 28.6548L46.3169 25.4283C46.5302 25.3059 46.8002 25.3752 46.9271 25.5849C47.054 25.7946 46.9892 26.0673 46.7831 26.1987L36.2639 32.847L46.4879 26.9439C46.7003 26.8197 46.973 26.8908 47.099 27.1023C47.2259 27.3129 47.1584 27.5865 46.9496 27.7161L43.6538 29.7555L46.5392 28.0896C46.7516 27.9663 47.0216 28.0347 47.1485 28.2444C47.2763 28.4523 47.2133 28.725 47.0081 28.8573L35.7176 36.1383L46.4861 29.922C46.6985 29.7987 46.9658 29.8671 47.0954 30.0768C47.2232 30.2847 47.1602 30.5565 46.9559 30.6897L37.424 36.8493L46.2638 31.7454C46.4771 31.6221 46.7462 31.6923 46.8731 31.9011C47.0009 32.109 46.9379 32.3817 46.7318 32.514L40.4795 36.5235L45.9182 33.3843C46.1315 33.261 46.4015 33.3312 46.5284 33.5409C46.6553 33.7506 46.5905 34.0233 46.3844 34.1547L44.5871 35.2923L45.506 34.7622C45.7175 34.6407 45.9821 34.7064 46.1117 34.9116C46.2413 35.1159 46.1855 35.385 45.9857 35.5227L38.5571 40.6392L44.4908 37.2138C44.7005 37.0896 44.9687 37.158 45.0983 37.3659C45.227 37.572 45.1676 37.842 44.9669 37.9779L43.3667 39.0471L43.5017 38.9697C43.7078 38.8482 43.9733 38.913 44.1047 39.1146C44.2352 39.3162 44.1839 39.5835 43.9895 39.7248L42.4532 40.83C42.5621 40.8606 42.6602 40.9317 42.7214 41.0379C42.8465 41.253 42.7727 41.5284 42.5567 41.6526L36.2162 45.3129C36.0101 45.4335 35.7437 45.3687 35.6132 45.168C35.4827 44.9673 35.534 44.6991 35.7284 44.5578L36.1622 44.2455L32.006 46.6449C31.7945 46.7673 31.5272 46.6998 31.3985 46.4928C31.2698 46.2867 31.3292 46.0167 31.5299 45.8808L33.1328 44.8089L29.2133 47.0724C29.0036 47.1948 28.7372 47.1282 28.6076 46.923C28.478 46.7187 28.5338 46.4496 28.7336 46.3119L36.1613 41.1963L25.8968 47.1219C25.8257 47.1633 25.7483 47.1822 25.6718 47.1822L25.6682 47.1795Z" fill="#D7342C"/>
<path d="M27.6518 43.6007C27.5042 43.6007 27.3593 43.5278 27.2738 43.3946C27.1433 43.1921 27.1946 42.9247 27.389 42.7843L32.7737 38.918L25.0283 43.3892C24.8168 43.5133 24.5486 43.4432 24.4199 43.2353C24.2921 43.0292 24.3524 42.7574 24.5558 42.6233L27.4313 40.7369L23.4272 43.0481C23.2157 43.1696 22.9493 43.102 22.8206 42.8968C22.6919 42.6907 22.7495 42.4208 22.9511 42.2849L30.2438 37.3727L21.548 42.3929C21.3356 42.5162 21.0656 42.4478 20.9387 42.2381C20.8109 42.0293 20.8739 41.7575 21.0791 41.6252L25.5251 38.7614L20.3006 41.7773C20.089 41.9014 19.8182 41.8321 19.6904 41.6206C19.5635 41.4118 19.6283 41.1392 19.8344 41.0077L22.7522 39.1565L19.2791 41.1625C19.0667 41.2868 18.7957 41.2175 18.6688 41.006C18.5419 40.7963 18.6067 40.5236 18.8128 40.3922L21.9737 38.3951L18.3485 40.4876C18.137 40.61 17.8687 40.5434 17.7409 40.3346C17.6122 40.1285 17.6726 39.8576 17.8742 39.7226L28.3619 32.7791L17.0327 39.3202C16.8221 39.4436 16.5521 39.3751 16.4234 39.1654C16.2956 38.9575 16.3585 38.6857 16.5628 38.5525L25.2632 32.9231L16.0634 38.2339C15.8519 38.359 15.5792 38.2871 15.4523 38.0765C15.3254 37.8659 15.3911 37.5941 15.599 37.4627L18.9181 35.381L15.4288 37.3951C15.2173 37.5166 14.9492 37.4501 14.8213 37.2422C14.6926 37.0361 14.753 36.7652 14.9555 36.6302L26.5448 28.9657L14.5216 35.9074C14.3101 36.0299 14.042 35.9633 13.9142 35.7545C13.7855 35.5484 13.8458 35.2775 14.0474 35.1425L25.6322 27.4735L13.7963 34.3072C13.5848 34.4296 13.3166 34.3631 13.1879 34.1543C13.0601 33.9482 13.1204 33.6764 13.3228 33.5423L24.2444 26.327L13.2778 32.6584C13.0663 32.7799 12.7982 32.7134 12.6704 32.5055C12.5417 32.2994 12.6019 32.0275 12.8044 31.8934L22.9718 25.174L12.9592 30.9548C12.7468 31.079 12.4778 31.0079 12.3491 30.7991C12.2222 30.5903 12.2861 30.3176 12.4913 30.1862L17.569 26.9407L12.863 29.6578C12.6515 29.7829 12.3823 29.7118 12.2527 29.5021C12.1258 29.2933 12.1897 29.0206 12.3949 28.8883L16.2658 26.4178L12.8701 28.378C12.6604 28.5004 12.3931 28.4338 12.2635 28.2277C12.1348 28.0225 12.1916 27.7534 12.3923 27.6166L21.2483 21.5839L13.151 26.2585C12.9395 26.3818 12.6713 26.3125 12.5426 26.1055C12.4148 25.8986 12.4751 25.6267 12.6785 25.4927L16.5746 22.9331L13.5776 24.6637C13.3661 24.7861 13.0979 24.7186 12.9692 24.5107C12.8414 24.3046 12.9017 24.0329 13.1041 23.8988L15.3866 22.3921L14.2148 23.068C14.006 23.1913 13.7378 23.1238 13.6082 22.9177C13.4795 22.7125 13.5362 22.4425 13.7369 22.3057L15.6466 21.0097L15.2371 21.2464C15.0328 21.3643 14.7719 21.3058 14.6396 21.1096C14.5073 20.9143 14.5478 20.6497 14.7332 20.5039L17.6437 18.2125C17.5357 18.1819 17.4385 18.1108 17.3782 18.0055C17.2531 17.7904 17.327 17.515 17.543 17.3908L21.8729 14.8915C22.0754 14.7718 22.3373 14.8321 22.4705 15.0283C22.6028 15.2236 22.5623 15.4882 22.3769 15.634L20.2205 17.3314L25.8869 14.0608C26.0975 13.9393 26.3648 14.005 26.4935 14.2111C26.6222 14.4163 26.5655 14.6863 26.3648 14.8231L24.4577 16.1174L27.9757 14.086C28.1855 13.9627 28.4546 14.0311 28.5842 14.239C28.712 14.4451 28.6517 14.7169 28.4492 14.851L26.174 16.3531L29.6777 14.3308C29.8892 14.2075 30.1574 14.2768 30.2861 14.4838C30.4139 14.6908 30.3535 14.9626 30.1502 15.0967L26.2568 17.6536L31.2752 14.7565C31.4867 14.6341 31.753 14.7016 31.8818 14.9068C32.0105 15.112 31.9538 15.3811 31.7531 15.5179L22.8944 21.5524L33.2516 15.5728C33.4648 15.4495 33.734 15.5197 33.8618 15.7285C33.9887 15.9373 33.9248 16.2101 33.7196 16.3424L29.8496 18.8128L34.364 16.2064C34.5772 16.084 34.8455 16.1533 34.9742 16.3621C35.1011 16.5709 35.0372 16.8436 34.832 16.975L29.756 20.2195L35.4368 16.9399C35.6465 16.8166 35.9165 16.8841 36.0443 17.0929C36.173 17.299 36.1127 17.5709 35.9102 17.705L25.7447 24.4234L36.7516 18.0676C36.9613 17.9444 37.2305 18.0118 37.3601 18.2207C37.4879 18.4268 37.4276 18.6985 37.2251 18.8326L26.3018 26.0489L37.9199 19.3411C38.1305 19.2178 38.3986 19.2853 38.5273 19.4941C38.656 19.7002 38.5958 19.9711 38.3942 20.1061L26.8076 27.7759L38.9441 20.7694C39.1538 20.6452 39.4237 20.7136 39.5515 20.9224C39.6803 21.1285 39.62 21.3994 39.4175 21.5344L27.8327 29.1961L39.7802 22.2976C39.9935 22.1752 40.2644 22.2455 40.3913 22.4551C40.5182 22.6648 40.4524 22.9375 40.2446 23.0689L36.9254 25.1497L40.1915 23.2642C40.403 23.14 40.6721 23.2102 40.8008 23.419C40.9286 23.6269 40.8656 23.8987 40.6613 24.0319L31.9583 29.6632L40.6478 24.6466C40.8575 24.5233 41.1275 24.5908 41.2553 24.7996C41.384 25.0057 41.3237 25.2766 41.1221 25.4116L30.6262 32.3606L41.0014 26.371C41.2139 26.2477 41.4848 26.317 41.6117 26.5276C41.7386 26.7382 41.6738 27.01 41.4677 27.1414L38.3321 29.1224L41.1176 27.5149C41.3309 27.3916 41.6009 27.4609 41.7278 27.6715C41.8547 27.8803 41.7899 28.153 41.5838 28.2844L38.6525 30.143L41.1392 28.7074C41.3507 28.585 41.6216 28.6526 41.7485 28.8623C41.8763 29.0711 41.8132 29.3428 41.608 29.4752L37.1621 32.3389L41.051 30.0944C41.2607 29.9701 41.528 30.0394 41.6576 30.2456C41.7863 30.4516 41.7286 30.7216 41.5271 30.8575L34.2362 35.768L40.6765 32.0501C40.889 31.9268 41.1563 31.9969 41.285 32.203C41.4128 32.41 41.3525 32.6819 41.1491 32.816L38.27 34.7051L40.1744 33.6053C40.3796 33.4829 40.6469 33.5494 40.7773 33.7502C40.9079 33.9527 40.8566 34.22 40.6622 34.3604L35.2748 38.2295L38.882 36.1478C39.0872 36.0263 39.3536 36.0911 39.485 36.2927C39.6155 36.4943 39.5651 36.7615 39.3706 36.9019L37.3349 38.3708C37.4771 38.3825 37.6112 38.4617 37.6877 38.594C37.8128 38.809 37.739 39.0844 37.523 39.2086L30.7505 43.1192C30.5435 43.2388 30.278 43.175 30.1475 42.9743C30.017 42.7736 30.0674 42.5054 30.2618 42.365L31.6586 41.357L27.8786 43.5394C27.8075 43.5809 27.7301 43.5998 27.6536 43.5998L27.6518 43.6007Z" fill="white"/>
<path d="M27.1387 38.2179C26.9929 38.2179 26.8498 38.1468 26.7634 38.0154C26.632 37.8165 26.6779 37.5492 26.8687 37.407L29.2411 35.6322L25.2478 37.9371C25.0426 38.0586 24.778 37.9947 24.6457 37.7931C24.5143 37.5924 24.5638 37.3251 24.7573 37.1838L28.8748 34.1796L23.4406 37.3161C23.2291 37.4385 22.9618 37.371 22.8331 37.164C22.7044 36.957 22.7638 36.687 22.9663 36.552L23.8195 35.9841L22.4461 36.777C22.2346 36.8994 21.9664 36.831 21.8377 36.624C21.7099 36.417 21.7702 36.1461 21.9727 36.0111L22.8664 35.4234L21.5911 36.1587C21.3823 36.282 21.1141 36.2145 20.9845 36.0084C20.8558 35.8023 20.9134 35.5332 21.1141 35.3964L24.9652 32.7864L20.6497 35.2785C20.4409 35.4018 20.1754 35.3343 20.044 35.13C19.9144 34.9257 19.9702 34.6566 20.1691 34.5189L25.6852 30.7038L19.7479 34.1319C19.5418 34.2525 19.2754 34.1877 19.1449 33.987C19.0144 33.7863 19.0657 33.5181 19.2601 33.3768L26.4862 28.182L18.9118 32.5542C18.7003 32.6766 18.4321 32.6082 18.3034 32.4012C18.1756 32.1942 18.2359 31.9224 18.4393 31.7883L19.9666 30.7866L18.5833 31.5849C18.3709 31.7064 18.1045 31.6398 17.9758 31.4328C17.8471 31.2258 17.9065 30.9558 18.1081 30.8208L20.6497 29.1261L18.3457 30.4563C18.1405 30.5787 17.875 30.513 17.7436 30.3132C17.6131 30.1125 17.6617 29.8452 17.8552 29.7039L23.9212 25.2624L18.2773 28.5204C18.0658 28.6419 17.7985 28.5744 17.6698 28.3692C17.5411 28.1631 17.5996 27.8931 17.8012 27.7572L18.4573 27.3171L18.4519 27.3198C18.2485 27.4395 17.9839 27.3783 17.8534 27.1812C17.722 26.9841 17.7643 26.7186 17.9515 26.5746L21.8062 23.601L19.2466 25.0788C19.045 25.1967 18.7858 25.1382 18.6526 24.9474C18.5194 24.7566 18.5545 24.4938 18.7336 24.3444L20.7685 22.6443C20.6686 22.6101 20.5804 22.5417 20.5246 22.4427C20.3995 22.2276 20.4733 21.9522 20.6893 21.828L24.1372 19.8372C24.3397 19.7184 24.598 19.7778 24.7312 19.9686C24.8644 20.1594 24.8293 20.4213 24.6502 20.5716L23.3029 21.6975L27.1918 19.4529C27.3961 19.3323 27.6589 19.3953 27.7903 19.5915C27.9217 19.7877 27.8794 20.0541 27.6922 20.1981L23.8375 23.1717L29.5453 19.8768C29.755 19.7535 30.0241 19.821 30.1528 20.028C30.2815 20.2341 30.223 20.5041 30.0214 20.64L29.3761 21.0729L30.6631 20.3304C30.8692 20.2107 31.1338 20.2737 31.2652 20.4735C31.3957 20.6742 31.3471 20.9415 31.1536 21.0828L25.0858 25.5261L32.3056 21.3573C32.5162 21.234 32.7844 21.3015 32.9131 21.5094C33.0418 21.7155 32.9824 21.9864 32.7808 22.1214L30.2338 23.8197L33.1696 22.125C33.382 22.0026 33.6493 22.0719 33.778 22.278C33.9058 22.485 33.8455 22.7568 33.6421 22.8909L32.1175 23.8908L33.8419 22.8963C34.048 22.7748 34.3126 22.8405 34.4449 23.0412C34.5754 23.2428 34.5241 23.5101 34.3297 23.6514L27.1054 28.8453L34.7995 24.4029C35.0074 24.2814 35.2747 24.348 35.4052 24.5514C35.5348 24.7557 35.479 25.0248 35.2801 25.1625L29.7667 28.9758L35.3422 25.7565C35.5537 25.6359 35.8201 25.7007 35.9488 25.9068C36.0775 26.1129 36.0199 26.382 35.8192 26.5188L31.9636 29.1315L35.6374 27.0111C35.8471 26.8869 36.1171 26.9571 36.2458 27.1641C36.3736 27.3711 36.3133 27.642 36.1108 27.777L35.2243 28.3602L35.7346 28.0659C35.9443 27.9426 36.2125 28.0101 36.3421 28.218C36.4708 28.4241 36.4114 28.695 36.2089 28.83L35.3449 29.4051L35.7139 29.1927C35.92 29.073 36.1846 29.1351 36.316 29.3367C36.4474 29.5374 36.3979 29.8047 36.2044 29.946L32.086 32.9511L35.3413 31.0719C35.5456 30.9513 35.8102 31.0134 35.9416 31.2132C36.073 31.4121 36.0271 31.6794 35.8363 31.8216L33.4648 33.5964L34.471 33.015C34.6753 32.8953 34.9372 32.9574 35.0686 33.1518C35.2009 33.348 35.1595 33.6126 34.9741 33.7584L33.3595 35.0247C33.4054 35.0598 33.445 35.1039 33.4747 35.1561C33.5998 35.3712 33.526 35.6466 33.31 35.7708L29.8621 37.7616C29.6587 37.8813 29.3959 37.8183 29.2645 37.6248C29.1322 37.4286 29.1736 37.164 29.359 37.0182L29.4238 36.9669L27.3619 38.1567C27.2917 38.1981 27.2134 38.217 27.1369 38.217L27.1387 38.2179Z" fill="#D7342C"/>
<path d="M27.6073 32.7658C27.4768 32.7658 27.3481 32.7091 27.2599 32.602C27.1204 32.4328 27.1231 32.1871 27.2671 32.0206L28.4767 30.6256L25.5301 32.3266C25.3339 32.4436 25.0792 32.3896 24.9433 32.2033C24.8074 32.0188 24.8317 31.7614 25 31.6057L26.9818 29.7796L24.3511 31.2988C24.1468 31.4185 23.8849 31.3564 23.7535 31.162C23.6212 30.9658 23.6626 30.7012 23.848 30.5554L24.4528 30.082L23.8777 30.4132C23.6815 30.5302 23.425 30.4762 23.2882 30.2872C23.1532 30.1009 23.1811 29.8417 23.353 29.6878L25.0549 28.1659L23.6671 28.9669C23.4763 29.0776 23.2333 29.0326 23.092 28.8607C22.9534 28.6897 22.9597 28.4413 23.1073 28.2775L24.2809 26.9707C24.1252 26.9959 23.956 26.8987 23.8687 26.7466C23.7436 26.5315 23.8174 26.2561 24.0334 26.1319L26.1736 24.8962C26.3626 24.7837 26.6074 24.8305 26.7487 25.0015C26.8873 25.1734 26.881 25.4218 26.7334 25.5856L25.666 26.7736L28.3696 25.2139C28.5685 25.0987 28.8232 25.1518 28.9591 25.3399C29.0941 25.5262 29.0662 25.7854 28.8943 25.9393L27.1933 27.4603L29.5108 26.1229C29.7151 26.0023 29.977 26.0662 30.1084 26.2597C30.2407 26.4559 30.1993 26.7205 30.0139 26.8663L29.41 27.3397L30.0445 26.9734C30.2416 26.8582 30.4963 26.9104 30.6313 27.0967C30.7672 27.2812 30.7429 27.5386 30.5746 27.6943L28.5919 29.5204L30.3451 28.5088C30.5332 28.3981 30.7762 28.4422 30.9175 28.6114C31.057 28.7806 31.0543 29.0263 30.9103 29.1928L29.6557 30.64C29.8366 30.5977 30.0382 30.6832 30.1363 30.8551C30.2614 31.0702 30.1876 31.3456 29.9716 31.4698L27.8314 32.7055C27.7612 32.7469 27.6838 32.7658 27.6064 32.7658H27.6073Z" fill="white"/>
<path d="M44.7588 7.14824C42.6888 5.20694 43.623 10.6348 43.4385 11.6842L40.6242 14.4985C31.6809 8.55044 20.0016 9.80954 11.6847 15.9844C7.29359 19.0786 3.07439 23.5075 0.367188 28.2811C4.62779 40.4194 20.3742 50.1673 33.3909 46.0795C41.679 43.6612 48.3993 37.3648 53.064 30.3214C55.5462 25.8781 44.8821 17.5927 41.4576 15.0178C42.4062 14.0692 43.3557 13.1197 44.3043 12.1711C48.7053 12.6661 52.3521 10.9984 45.2466 11.2288C50.6304 6.55874 50.0706 4.64084 44.7606 10.3648V7.14914L44.7588 7.14824ZM8.84249 38.164C-0.867613 28.624 0.134987 27.8365 9.43469 18.6142C5.91029 24.619 5.68529 32.0152 8.84969 38.1712C8.84699 38.1685 8.84519 38.1658 8.84249 38.164ZM52.1271 27.886C52.8021 32.0377 46.9782 36.1579 44.4267 39.1297C48.1167 33.0754 48.3462 25.5307 45.0765 19.3036C47.8026 21.8767 50.1768 24.8368 52.1271 27.886ZM41.7915 16.5352C53.8812 32.2915 39.3228 51.5488 20.7594 45.5098C7.65899 42.7099 4.17779 26.0923 12.1905 16.3651C19.9836 10.0759 31.4622 9.29834 39.8925 15.2293L37.2213 17.9005C24.9183 6.60284 4.84559 22.504 14.3046 36.8716C26.3124 53.9545 52.344 34.3939 37.908 18.5656C38.8422 17.6314 39.7764 16.6963 40.7115 15.7621C41.0769 16.0114 41.436 16.2706 41.7915 16.5352ZM27.4194 37.5259C11.7846 36.6421 20.0538 12.1603 32.5818 22.54C31.5846 23.5372 30.5874 24.5344 29.5902 25.5316C26.7516 23.4265 22.1292 25.9663 22.7952 29.5672C24.147 36.0895 34.5537 31.4635 30.3021 26.1715C31.2786 25.195 32.256 24.2176 33.2325 23.2411C37.7919 28.1992 34.3989 37.4638 27.4194 37.5259ZM29.8926 29.4547C29.4984 32.5273 25.1973 32.7055 24.2721 29.8687C23.1021 27.1597 26.4159 24.2338 28.7559 26.3659C26.3412 28.1938 27.4725 29.2333 29.3886 27.0841C29.8368 27.7744 30.0294 28.6231 29.8926 29.4547ZM33.417 21.7057C27.2232 16.2787 16.1892 21.7309 17.4168 30.0919C20.3913 45.9607 44.7516 34.9015 34.1109 22.3627C35.0946 21.379 36.0792 20.3944 37.0629 19.4107C49.4298 33.7837 28.3059 52.6441 16.1172 37.2469C5.97689 23.9809 24.2073 6.55514 36.4023 18.7204L33.417 21.7057Z" fill="#1E57CC"/>
</svg>
