<svg xmlns="http://www.w3.org/2000/svg" width="40" height="40" viewBox="0 0 40 40" fill="none"><rect width="40" height="40" rx="10" fill="url(#paint0_linear_2789_14929)" fill-opacity="0.4"></rect><path fill-rule="evenodd" clip-rule="evenodd" d="M7.90625 10.8418V22.0647H23.7007C23.8558 19.8346 25.6435 18.0474 27.872 17.8919V10.8418H7.90625ZM12.6508 18.8996C12.6508 19.2629 12.3533 19.5583 11.9916 19.5583C11.6277 19.5583 11.3324 19.2629 11.3324 18.8996C11.3324 18.5363 11.6277 18.241 11.9916 18.241C12.3533 18.2404 12.6508 18.5363 12.6508 18.8996ZM15.9219 15.9945C15.5601 15.9945 15.2648 15.6992 15.2648 15.3358C15.2648 14.9725 15.5601 14.6772 15.9219 14.6772C16.2857 14.6772 16.5832 14.9725 16.5832 15.3358C16.5832 15.6992 16.2857 15.9945 15.9219 15.9945ZM20.5135 17.6999C20.5135 18.0632 20.2181 18.3586 19.8543 18.3586C19.4925 18.3586 19.1972 18.0632 19.1972 17.6999C19.1972 17.3366 19.492 17.0412 19.8543 17.0412C20.2181 17.0407 20.5135 17.3366 20.5135 17.6999ZM23.7867 14.6666C23.4249 14.6666 23.1296 14.3713 23.1296 14.008C23.1296 13.6446 23.4249 13.3493 23.7867 13.3493C24.1505 13.3493 24.4459 13.6446 24.4459 14.008C24.4459 14.3708 24.1505 14.6666 23.7867 14.6666ZM24.3209 22.3811C24.3209 20.248 26.0569 18.5125 28.1889 18.5125C30.3231 18.5125 32.0591 20.248 32.0591 22.3811C32.0591 24.5142 30.3231 26.2497 28.1889 26.2497C26.0569 26.2497 24.3209 24.5142 24.3209 22.3811ZM29.6639 22.6981H28.1889C28.0144 22.6981 27.8725 22.5562 27.8725 22.3817V20.1927C27.8725 20.0181 28.0149 19.8762 28.1889 19.8762C28.3635 19.8762 28.5054 20.0181 28.5054 20.1927V22.0653H29.6639C29.8385 22.0653 29.9803 22.2071 29.9803 22.3817C29.9803 22.5557 29.8385 22.6981 29.6639 22.6981ZM22.9102 27.3345H12.868V28.5648H22.9102V27.3345ZM19.107 25.1866H16.6712V26.7017H19.107V25.1866ZM23.7007 22.6981H7.90625V24.5543H24.2476C23.9396 23.9964 23.7461 23.3667 23.7007 22.6981ZM11.9916 17.6076C12.2542 17.6076 12.5021 17.6872 12.7067 17.8238L14.7828 15.9417C14.6858 15.7609 14.632 15.5547 14.632 15.3358C14.632 14.6239 15.2115 14.0444 15.9219 14.0444C16.6348 14.0444 17.2139 14.6239 17.2139 15.3358C17.2139 15.4661 17.1944 15.5911 17.1601 15.7097L18.9457 16.7834C19.1803 16.5513 19.5015 16.4079 19.8543 16.4079C20.1106 16.4079 20.3495 16.4833 20.552 16.612L22.6582 14.6334C22.5548 14.4478 22.4968 14.2342 22.4968 14.0074C22.4968 13.295 23.0763 12.716 23.7867 12.716C24.4996 12.716 25.0787 13.295 25.0787 14.0074C25.0787 14.7194 24.4991 15.2989 23.7867 15.2989C23.5304 15.2989 23.2936 15.2235 23.0911 15.0943L20.9849 17.0734C21.0883 17.259 21.1463 17.4721 21.1463 17.6994C21.1463 18.4113 20.5667 18.9908 19.8543 18.9908C19.1434 18.9908 18.5644 18.4113 18.5644 17.6994C18.5644 17.5696 18.5839 17.4441 18.6182 17.3255L16.8326 16.2518C16.5979 16.4838 16.2768 16.6273 15.9219 16.6273C15.6593 16.6273 15.4135 16.5477 15.2068 16.4105L13.1306 18.2932C13.2277 18.4735 13.2815 18.6802 13.2815 18.8991C13.2815 19.611 12.7019 20.1905 11.9916 20.1905C11.2786 20.1905 10.6996 19.611 10.6996 18.8991C10.6996 18.1872 11.2786 17.6076 11.9916 17.6076Z" fill="#B892FF"></path><defs><linearGradient id="paint0_linear_2789_14929" x1="-28" y1="-115" x2="14" y2="18.5" gradientUnits="userSpaceOnUse"><stop stop-color="white" stop-opacity="0.06"></stop><stop offset="1" stop-color="#B892FF" stop-opacity="0.5"></stop></linearGradient></defs></svg>