<svg width="71" height="71" viewBox="0 0 71 71" fill="none" xmlns="http://www.w3.org/2000/svg">
<path d="M32.4968 39.154L29.121 35.7782C28.3555 35.0127 27.113 35.0127 26.3475 35.7782C25.5821 36.5437 25.5821 37.7862 26.3475 38.5517L31.8944 44.0985C32.6599 44.864 33.9024 44.864 34.6679 44.0985L46.9852 31.7811C47.7507 31.0157 47.7507 29.7732 46.9852 29.0077C46.2198 28.2422 44.9773 28.2422 44.2118 29.0077L34.0655 39.154C33.6328 39.5867 32.9295 39.5867 32.4968 39.154Z" fill="white"/>
<path d="M61.0156 44.375L66.4848 37.5413C65.442 53.7492 51.9631 66.5625 35.5 66.5625C19.0923 66.5625 5.65781 53.838 4.52625 37.7188H1.10938L4.51516 33.4698V33.4587L9.98437 26.625L15.62 33.6584L18.8594 37.7188H15.6533C16.7627 47.7031 25.2272 55.4688 35.5 55.4688C45.9059 55.4688 54.4592 47.5034 55.38 37.3416L61.0156 44.375Z" fill="white"/>
<path d="M69.8908 32.1719H67.4912C65.8227 15.9162 51.9666 3.32812 35.5001 3.32812C18.7386 3.32812 4.75048 16.3023 3.44586 33.0228L0.244202 37.0254C-0.0220482 37.3593 -0.0741888 37.8153 0.109967 38.2002C0.294124 38.583 0.683514 38.8281 1.10951 38.8281H3.50909C5.17759 55.0838 19.0337 67.6719 35.5001 67.6719C52.2617 67.6719 66.2498 54.6977 67.5544 37.9772L70.7561 33.9746C71.0223 33.6407 71.0745 33.1847 70.8903 32.7998C70.7062 32.417 70.3168 32.1719 69.8908 32.1719ZM35.5001 5.54688C51.1534 5.54688 64.2729 17.7633 65.3667 33.3589C65.4078 33.9402 65.8915 34.3906 66.4739 34.3906H67.5833L61.0158 42.5989L54.4494 34.3906H55.348C55.6641 34.3906 55.9648 34.2564 56.1745 34.0212C56.3852 33.786 56.4851 33.4721 56.4507 33.1592C55.2625 22.477 46.2566 14.4219 35.5001 14.4219C25.3982 14.4219 16.9691 21.3998 14.9179 31.0159L10.8509 25.9316C10.4305 25.4047 9.53855 25.4047 9.11809 25.9316L6.13276 29.6625C8.85739 15.8663 21.076 5.54688 35.5001 5.54688ZM49.6169 48.0481L48.0516 46.4817C47.6178 46.0479 46.9167 46.0479 46.483 46.4817C46.0492 46.9155 46.0492 47.6166 46.483 48.0504L48.0494 49.6168C44.9742 52.3481 40.9927 54.0554 36.6106 54.3061V52.1406C36.6106 51.5271 36.1136 51.0312 35.5012 51.0312C34.8889 51.0312 34.3919 51.5271 34.3919 52.1406V54.3095C30.0365 54.0565 26.0605 52.3314 22.9764 49.5935L24.5184 48.0515C24.9522 47.6177 24.9522 46.9166 24.5184 46.4828C24.0847 46.049 23.3835 46.049 22.9498 46.4828L21.4066 48.026C19.1535 45.4933 17.5593 42.3471 16.9336 38.8281H18.8595C19.2855 38.8281 19.6749 38.583 19.8591 38.2002C20.0443 37.8153 19.9922 37.3593 19.7248 37.0254L16.7817 33.3456C17.231 29.3419 18.8884 25.7619 21.3833 22.9519L22.9487 24.5172C23.165 24.7335 23.449 24.8422 23.733 24.8422C24.017 24.8422 24.301 24.7335 24.5173 24.5172C24.9511 24.0834 24.9511 23.3823 24.5173 22.9485L22.9509 21.3821C26.0272 18.6508 30.0076 16.9424 34.3908 16.6917V18.8594C34.3908 19.4729 34.8878 19.9688 35.5001 19.9688C36.1125 19.9688 36.6095 19.4729 36.6095 18.8594V16.6905C40.9649 16.9435 44.9409 18.6686 48.025 21.4076L46.483 22.9496C46.0492 23.3834 46.0492 24.0845 46.483 24.5183C46.6993 24.7346 46.9833 24.8433 47.2673 24.8433C47.5513 24.8433 47.8353 24.7346 48.0516 24.5183L49.5947 22.9752C51.8479 25.5079 53.4421 28.654 54.0677 32.173H52.1408C51.7148 32.173 51.3254 32.4182 51.1412 32.8009C50.956 33.1858 51.0081 33.6418 51.2755 33.9757L54.2186 37.6555C53.7682 41.6581 52.1108 45.2381 49.6169 48.0481ZM35.5001 65.4531C19.8469 65.4531 6.72739 53.2367 5.63355 37.6411C5.5925 37.0598 5.10881 36.6094 4.52639 36.6094H3.41701L9.98451 28.4011L16.5509 36.6094H15.6523C15.3361 36.6094 15.0355 36.7436 14.8258 36.9788C14.615 37.214 14.5152 37.5279 14.5496 37.8408C15.7377 48.523 24.7436 56.5781 35.5001 56.5781C45.6021 56.5781 54.0311 49.6002 56.0824 39.9841L60.1493 45.0684C60.3601 45.3313 60.6785 45.4844 61.0158 45.4844C61.353 45.4844 61.6714 45.3313 61.8822 45.0684L64.8675 41.3375C62.1429 55.1337 49.9242 65.4531 35.5001 65.4531Z" fill="white"/>
<path d="M43.428 28.2216L33.2828 38.3691L29.9059 34.9921C28.7089 33.794 26.7608 33.794 25.5638 34.9921C24.3668 36.1891 24.3668 38.1372 25.5638 39.3342L31.1107 44.8811C31.7097 45.4802 32.4952 45.7797 33.2817 45.7797C34.0682 45.7797 34.8537 45.4802 35.4527 44.8811L47.7701 32.5648C48.9672 31.3678 48.9672 29.4197 47.7701 28.2227C46.612 27.0645 44.5896 27.0634 43.428 28.2216ZM46.2015 30.995L33.8841 43.3135C33.5513 43.6452 33.0121 43.6452 32.6793 43.3135L27.1324 37.7667C26.9716 37.6047 26.8828 37.3917 26.8828 37.1643C26.8828 36.9369 26.9716 36.7239 27.1324 36.5619C27.2988 36.3966 27.5163 36.3123 27.7348 36.3123C27.9534 36.3123 28.1708 36.3955 28.3372 36.5619L31.713 39.9377C32.5772 40.8019 33.9862 40.8019 34.8504 39.9377L44.9967 29.7914C45.3184 29.4708 45.8798 29.4685 46.2015 29.7914C46.3623 29.9533 46.4511 30.1663 46.4511 30.3938C46.4511 30.6212 46.3623 30.8342 46.2015 30.995Z" fill="white"/>
</svg>
