<svg xmlns="http://www.w3.org/2000/svg" width="40" height="40" viewBox="0 0 40 40" fill="none"><rect width="40" height="40" rx="10" fill="url(#paint0_linear_3237_17041)" fill-opacity="0.4"></rect><path d="M30.1613 29.1271C29.9855 29.0255 29.9252 28.8003 30.0267 28.6245C30.1278 28.4492 30.353 28.3874 30.5293 28.4899L30.969 28.7439C31.2462 28.1623 31.406 27.5145 31.406 26.8285C31.406 26.1475 31.2486 25.5041 30.9753 24.9257L30.5293 25.1834C30.4713 25.2169 30.4081 25.2327 30.3458 25.2327C30.2183 25.2327 30.0947 25.1666 30.0267 25.0488C29.9252 24.8729 29.9855 24.6478 30.1613 24.5462L30.6097 24.2872C29.8669 23.2154 28.6692 22.4847 27.2975 22.373V22.8925C27.2975 23.0956 27.1327 23.2604 26.9295 23.2604C26.7264 23.2604 26.5616 23.0956 26.5616 22.8925V22.3732C25.1903 22.4861 23.9929 23.2167 23.2501 24.2874L23.6982 24.5462C23.874 24.6478 23.9344 24.8729 23.8328 25.0488C23.7648 25.1666 23.6412 25.2327 23.5138 25.2327C23.4515 25.2327 23.3883 25.2169 23.3303 25.1834L22.8843 24.9259C22.6107 25.5042 22.4531 26.1475 22.4531 26.8285C22.4531 27.5145 22.6131 28.1622 22.8905 28.7438L23.3303 28.4899C23.5066 28.3874 23.7318 28.4492 23.8328 28.6245C23.9344 28.8003 23.874 29.0255 23.6982 29.1271L23.2587 29.3809C24.0022 30.445 25.1953 31.1708 26.5616 31.2833V30.7803C26.5616 30.5772 26.7264 30.4124 26.9295 30.4124C27.1327 30.4124 27.2975 30.5772 27.2975 30.7803V31.2835C28.6641 31.1722 29.8576 30.4462 30.6011 29.3811L30.1613 29.1271ZM28.224 27.2036H26.9295C26.7264 27.2036 26.5616 27.0388 26.5616 26.8357V24.6387C26.5616 24.4356 26.7264 24.2708 26.9295 24.2708C27.1327 24.2708 27.2975 24.4356 27.2975 24.6387V26.4678H28.224C28.4271 26.4678 28.5919 26.6326 28.5919 26.8357C28.5919 27.0388 28.4271 27.2036 28.224 27.2036Z" fill="#F5C84D"></path><path d="M13.0726 22.3535C10.603 22.3535 8.59375 24.3603 8.59375 26.8275C8.59375 29.2943 10.603 31.3011 13.0726 31.3011C15.5398 31.3011 17.5466 29.2943 17.5466 26.8275C17.5466 24.3603 15.5398 22.3535 13.0726 22.3535ZM13.9469 26.4596C14.3181 26.4596 14.62 26.7614 14.62 27.1327V28.4171C14.62 28.7884 14.3181 29.0907 13.9469 29.0907H13.4381V29.461C13.4381 29.6641 13.2733 29.8289 13.0702 29.8289C12.867 29.8289 12.7022 29.6641 12.7022 29.461V29.0907H12.1939C11.8227 29.0907 11.5204 28.7884 11.5204 28.4171C11.5204 28.214 11.6852 28.0492 11.8883 28.0492C12.0703 28.0492 12.2213 28.1814 12.251 28.3548H13.8841V27.1955H12.1939C11.8227 27.1955 11.5204 26.8932 11.5204 26.5219V25.2375C11.5204 24.8662 11.8227 24.5639 12.1939 24.5639H12.7022V24.1936C12.7022 23.9905 12.867 23.8257 13.0702 23.8257C13.2733 23.8257 13.4381 23.9905 13.4381 24.1936V24.5639H13.9469C14.3181 24.5639 14.62 24.8662 14.62 25.2375C14.62 25.4406 14.4552 25.6054 14.252 25.6054C14.07 25.6054 13.9191 25.4732 13.8894 25.2998H12.2562V26.4596H13.9469Z" fill="#F5C84D"></path><path d="M19.998 8.7002C17.6602 8.7002 15.7578 10.6026 15.7578 12.9409C15.7578 15.365 17.7541 18.4401 19.998 18.4401C22.242 18.4401 24.2388 15.365 24.2388 12.9409C24.2388 10.6026 22.3364 8.7002 19.998 8.7002Z" fill="#F5C84D"></path><path d="M21.776 26.071C21.8716 25.4187 22.0859 24.8056 22.4007 24.2548C22.4048 24.2459 22.4047 24.2362 22.4098 24.2275C22.4161 24.2165 22.4265 24.2103 22.4338 24.2002C23.2965 22.7327 24.8549 21.7257 26.6549 21.6314C26.2089 19.8 25.008 18.2148 23.3511 17.2819C22.456 18.3965 21.272 19.1757 19.9977 19.1757C18.7232 19.1757 17.5392 18.3963 16.6441 17.2812C14.9899 18.2126 13.79 19.798 13.3438 21.6314C15.8351 21.7614 17.864 23.6451 18.2193 26.071C19.3684 26.0311 20.6289 26.0311 21.776 26.071Z" fill="#F5C84D"></path><defs><linearGradient id="paint0_linear_3237_17041" x1="11.5" y1="-41.3333" x2="20" y2="40" gradientUnits="userSpaceOnUse"><stop stop-color="white" stop-opacity="0.06"></stop><stop offset="1" stop-color="#F5C84D" stop-opacity="0.5"></stop></linearGradient></defs></svg>