<svg width="32" height="32" viewBox="0 0 32 32" fill="none" xmlns="http://www.w3.org/2000/svg">
<g clip-path="url(#clip0_7319_82993)">
<path d="M8.94054 26.3317C9.10852 26.1637 9.10852 25.8915 8.94054 25.7236C8.77263 25.5557 8.50038 25.5557 8.33247 25.7236L3.95406 30.102C3.78615 30.2699 3.78615 30.5422 3.95406 30.7101C4.12197 30.878 4.39429 30.878 4.5622 30.7101L8.94054 26.3317Z" fill="#085AAC"/>
<path d="M6.72577 24.1169C6.89368 23.949 6.89368 23.6767 6.72577 23.5087C6.55778 23.3408 6.28554 23.3408 6.11763 23.5087L1.73921 27.8872C1.5713 28.0551 1.5713 28.3273 1.73921 28.4952C1.90713 28.6631 2.17944 28.6631 2.34735 28.4952L6.72577 24.1169Z" fill="#085AAC"/>
<path d="M6.06268 26.9958C6.23059 26.8278 6.23059 26.5556 6.06268 26.3877C5.8947 26.2197 5.62245 26.2197 5.45454 26.3877L1.07613 30.7661C0.908218 30.934 0.908218 31.2062 1.07613 31.3741C1.24404 31.542 1.51636 31.542 1.68427 31.3741L6.06268 26.9958Z" fill="#085AAC"/>
<path fill-rule="evenodd" clip-rule="evenodd" d="M15.1703 8.42578C11.584 9.06145 5.8159 10.0214 2.38867 17.3954C2.38867 17.3954 6.38821 17.2289 9.14279 17.9288C9.2763 17.4649 9.47461 16.9745 9.66226 16.5318C10.1631 15.3505 10.7758 14.2036 11.4571 13.1171L11.5409 12.9834L11.537 12.9795L11.6483 12.8121L11.9158 12.3855L11.9258 12.3955C12.8809 10.9753 13.97 9.64571 15.1703 8.42578Z" fill="#085AAC"/>
<path fill-rule="evenodd" clip-rule="evenodd" d="M15.0529 30.0608C22.4278 26.6332 23.3755 20.8764 24.0087 17.293C22.7926 18.4879 21.4675 19.5724 20.0528 20.5237L20.0628 20.5338L19.6356 20.8016L19.4688 20.9126L19.4649 20.9087L19.3312 20.9925C18.2447 21.6738 17.0978 22.2865 15.9165 22.7873C15.4738 22.9749 14.9834 23.1733 14.5195 23.3068C15.2194 26.0614 15.0529 30.0608 15.0529 30.0608Z" fill="#085AAC"/>
<path fill-rule="evenodd" clip-rule="evenodd" d="M9.75129 19.0469L8.83886 19.9593C8.56283 20.2353 8.56283 20.687 8.83886 20.963L8.88706 21.0112L10.1642 22.2884L11.4414 23.5656L11.4896 23.6138C11.7656 23.8898 12.2173 23.8898 12.4933 23.6138L13.4058 22.7013L9.75129 19.0469Z" fill="#085AAC"/>
<path fill-rule="evenodd" clip-rule="evenodd" d="M8.39973 21.4961L7.4873 22.4085C7.21126 22.6846 7.21126 23.1362 7.4873 23.4122L8.26264 24.1876L9.03797 24.9629C9.31401 25.239 9.76568 25.2389 10.0417 24.9629L10.9541 24.0505L8.39973 21.4961Z" fill="#085AAC"/>
<path fill-rule="evenodd" clip-rule="evenodd" d="M30.0898 6.83463C30.8488 4.94349 31.4864 2.83917 31.9498 0.5C29.611 0.963328 27.5071 1.60072 25.6162 2.35953C25.7346 3.47334 26.2949 4.53029 27.1052 5.34095C27.9173 6.15319 28.9764 6.71456 30.0898 6.83463Z" fill="#085AAC"/>
<path fill-rule="evenodd" clip-rule="evenodd" d="M24.2408 16.0768C26.2787 13.9201 28.2716 11.1135 29.8187 7.49229C28.6189 7.31322 27.4914 6.697 26.6214 5.82684C25.7529 4.95803 25.1377 3.83257 24.9603 2.63281C21.3474 4.17626 18.5453 6.16352 16.3905 8.19654C14.6922 9.79899 13.3959 11.4298 12.4219 12.8943L19.5575 20.0299C21.0175 19.0588 22.6429 17.7675 24.2408 16.0768ZM19.8896 7.85736C21.0593 6.68763 22.9558 6.68763 24.1256 7.85736C25.2953 9.02701 25.2953 10.9235 24.1256 12.0932C22.9558 13.263 21.0593 13.263 19.8897 12.0932C18.72 10.9235 18.72 9.02701 19.8896 7.85736Z" fill="#085AAC"/>
<path fill-rule="evenodd" clip-rule="evenodd" d="M18.9661 20.4107L12.0398 13.4844C10.371 16.1457 9.80273 18.1243 9.80273 18.1243L10.2372 18.5588L12.0645 20.386L13.8917 22.2132L14.3262 22.6477C14.3262 22.6477 16.3048 22.0794 18.9661 20.4107Z" fill="#085AAC"/>
</g>
<defs>
<clipPath id="clip0_7319_82993">
<rect width="31" height="31" fill="white" transform="translate(0.950195 0.5)"/>
</clipPath>
</defs>
</svg>
