<svg width="48" height="48" viewBox="0 0 48 48" fill="none" xmlns="http://www.w3.org/2000/svg">
<g clip-path="url(#clip0_7319_83044)">
<path d="M12.372 39.9998C12.6322 39.7398 12.6322 39.3183 12.372 39.0583C12.1121 38.7983 11.6905 38.7983 11.4305 39.0583L4.65105 45.8377C4.39106 46.0977 4.39106 46.5193 4.65105 46.7793C4.91104 47.0393 5.33269 47.0393 5.59268 46.7793L12.372 39.9998Z" fill="white"/>
<path d="M8.94247 36.5702C9.20246 36.3102 9.20246 35.8886 8.94247 35.6286C8.68237 35.3686 8.26083 35.3686 8.00083 35.6286L1.22136 42.4081C0.961369 42.6681 0.961369 43.0896 1.22136 43.3496C1.48135 43.6096 1.90301 43.6096 2.163 43.3496L8.94247 36.5702Z" fill="white"/>
<path d="M7.91611 41.0273C8.1761 40.7672 8.1761 40.3456 7.91611 40.0856C7.656 39.8256 7.23446 39.8256 6.97447 40.0856L0.194993 46.8651C-0.0649977 47.1251 -0.0649977 47.5466 0.194993 47.8066C0.454984 48.0666 0.876639 48.0666 1.13663 47.8066L7.91611 41.0273Z" fill="white"/>
<path fill-rule="evenodd" clip-rule="evenodd" d="M22.0184 12.2734C16.4655 13.2577 7.53421 14.744 2.22754 26.1618C2.22754 26.1618 8.42037 25.9041 12.6855 26.9877C12.8923 26.2695 13.1993 25.5102 13.4899 24.8248C14.2653 22.9955 15.214 21.2198 16.2689 19.5373L16.3987 19.3304L16.3926 19.3244L16.565 19.0652L16.9793 18.4046L16.9948 18.4201C18.4735 16.2211 20.1599 14.1624 22.0184 12.2734Z" fill="white"/>
<path fill-rule="evenodd" clip-rule="evenodd" d="M21.8376 45.7735C33.2568 40.4662 34.7242 31.5525 35.7046 26.0039C33.8216 27.8541 31.7699 29.5333 29.5793 31.0064L29.5949 31.0219L28.9334 31.4367L28.675 31.6085L28.669 31.6025L28.4621 31.7322C26.7797 32.7871 25.0039 33.7359 23.1747 34.5112C22.4893 34.8017 21.7299 35.1089 21.0117 35.3156C22.0954 39.5808 21.8376 45.7735 21.8376 45.7735Z" fill="white"/>
<path fill-rule="evenodd" clip-rule="evenodd" d="M13.6269 28.7148L12.2141 30.1276C11.7867 30.555 11.7867 31.2544 12.2141 31.6818L12.2887 31.7564L14.2662 33.734L16.2439 35.7116L16.3185 35.7862C16.7459 36.2135 17.4453 36.2135 17.8726 35.7862L19.2855 34.3733L13.6269 28.7148Z" fill="white"/>
<path fill-rule="evenodd" clip-rule="evenodd" d="M11.5351 32.5078L10.1223 33.9206C9.6949 34.348 9.6949 35.0474 10.1223 35.4747L11.3228 36.6753L12.5234 37.8758C12.9508 38.3032 13.6501 38.3031 14.0775 37.8758L15.4902 36.463L11.5351 32.5078Z" fill="white"/>
<path fill-rule="evenodd" clip-rule="evenodd" d="M45.1202 9.80846C46.2955 6.88024 47.2826 3.62194 48.0002 0C44.3789 0.717411 41.1211 1.70434 38.1934 2.87928C38.3766 4.60388 39.2442 6.24045 40.499 7.49567C41.7563 8.75332 43.3963 9.62255 45.1202 9.80846Z" fill="white"/>
<path fill-rule="evenodd" clip-rule="evenodd" d="M36.062 24.1173C39.2174 20.7779 42.3032 16.4321 44.6988 10.8251C42.841 10.5479 41.0951 9.59372 39.7481 8.24637C38.4033 6.90113 37.4507 5.15848 37.176 3.30078C31.5819 5.69064 27.2431 8.76768 23.9067 11.9156C21.277 14.3968 19.27 16.922 17.7617 19.1896L28.8104 30.2382C31.0711 28.7346 33.5878 26.7352 36.062 24.1173ZM29.3247 11.3904C31.1359 9.57921 34.0724 9.57921 35.8836 11.3904C37.6948 13.2015 37.6948 16.138 35.8836 17.9492C34.0724 19.7604 31.1359 19.7604 29.3248 17.9492C27.5136 16.138 27.5136 13.2015 29.3247 11.3904Z" fill="white"/>
<path fill-rule="evenodd" clip-rule="evenodd" d="M27.8955 30.8301L17.1708 20.1055C14.587 24.2262 13.707 27.2899 13.707 27.2899L14.3798 27.9627L17.209 30.7919L20.0383 33.6211L20.7111 34.2939C20.7111 34.2939 23.7747 33.4139 27.8955 30.8301Z" fill="white"/>
</g>
<defs>
<clipPath id="clip0_7319_83044">
<rect width="48" height="48" fill="white"/>
</clipPath>
</defs>
</svg>
