<svg width="35" height="36" viewBox="0 0 35 36" fill="none" xmlns="http://www.w3.org/2000/svg">
<path fill-rule="evenodd" clip-rule="evenodd" d="M0.617188 17.9459C0.617188 17.0066 1.37864 16.2452 2.31783 16.2452C3.06575 16.2452 3.70095 16.728 3.92865 17.399H8.64128C8.68927 16.6097 8.84062 15.8483 9.08151 15.128H6.62379C6.42855 15.128 6.25731 15.0257 6.16052 14.8718L4.25931 12.317C3.16973 12.6699 2.03407 11.8609 2.03407 10.6989C2.03407 9.75963 2.79546 8.99824 3.73472 8.99824C5.11441 8.99824 5.90554 10.5516 5.13383 11.6658L6.89641 14.0343H9.53139C10.9774 11.0928 14.0028 9.06811 17.502 9.06811C21.0012 9.06811 24.0266 11.0929 25.4727 14.0343H28.1076L29.8702 11.6658C29.0984 10.5512 29.8899 8.99824 31.2693 8.99824C32.2086 8.99824 32.97 9.75963 32.97 10.6989C32.97 11.8612 31.8338 12.6699 30.7447 12.317L28.8435 14.8718C28.7467 15.0258 28.5755 15.128 28.3803 15.128H25.9225C26.1635 15.8483 26.3147 16.6096 26.3627 17.399H31.0753C31.303 16.728 31.9382 16.2452 32.6861 16.2452C33.6254 16.2452 34.3868 17.0067 34.3868 17.9459C34.3868 18.8851 33.6253 19.6465 32.6861 19.6465C31.9382 19.6465 31.303 19.1637 31.0753 18.4927H26.3633C26.3153 19.282 26.164 20.0434 25.9231 20.7637H28.3802C28.5754 20.7637 28.7467 20.866 28.8435 21.0199L30.7447 23.5748C31.8342 23.2218 32.9699 24.0309 32.9699 25.1929C32.9699 26.1321 32.2085 26.8935 31.2693 26.8935C29.8896 26.8935 29.0984 25.3402 29.8701 24.2259L28.1076 21.8574H25.4737C24.7128 23.4053 23.5146 24.6992 22.0401 25.5779C21.4798 25.9117 21.1612 26.4722 21.1612 27.1244V27.3784H13.8427V27.1244C13.8427 26.472 13.5241 25.9117 12.9638 25.5779C11.4893 24.6993 10.2911 23.4052 9.53022 21.8574H6.89634L5.13376 24.2259C5.90554 25.3404 5.11414 26.8935 3.73465 26.8935C2.79539 26.8935 2.034 26.132 2.034 25.1929C2.034 24.0306 3.17 23.2218 4.25924 23.5748L6.16045 21.0199C6.25725 20.866 6.42855 20.7637 6.62372 20.7637H9.08083C8.83986 20.0434 8.68865 19.282 8.64066 18.4927H3.92865C3.70095 19.1637 3.06575 19.6465 2.31783 19.6465C1.37864 19.6465 0.617188 18.8851 0.617188 17.9459ZM17.502 13.3695C14.9745 13.3695 12.9256 15.4184 12.9256 17.9459C12.9256 20.4733 14.9745 22.5223 17.502 22.5223C20.0294 22.5223 22.0783 20.4733 22.0783 17.9459C22.0783 15.4184 20.0294 13.3695 17.502 13.3695ZM16.9551 15.2259V15.5593C16.7186 15.6323 16.5066 15.7624 16.3357 15.9332C15.3879 16.881 16.0722 18.4927 17.3954 18.4927C17.5931 18.4927 17.7498 18.4674 17.8948 18.6124C18.1549 18.8725 17.9611 19.3049 17.6085 19.3049C17.3397 19.3049 17.133 19.3487 16.978 19.1346C16.8011 18.8904 16.4596 18.8358 16.2154 19.0128C15.9712 19.1898 15.9167 19.5312 16.0937 19.7754C16.3003 20.0608 16.6093 20.2693 16.9551 20.3553V20.666C16.9551 20.968 17.1999 21.2128 17.502 21.2128C17.804 21.2128 18.0488 20.968 18.0488 20.666V20.3325C18.2854 20.2596 18.4973 20.1295 18.6682 19.9586C19.616 19.0108 18.9316 17.3991 17.6085 17.3991C17.4109 17.3991 17.2542 17.4244 17.1092 17.2794C16.8492 17.0193 17.0428 16.5869 17.3955 16.5869C17.6642 16.5869 17.8709 16.5431 18.0259 16.7572C18.2029 17.0015 18.5444 17.056 18.7885 16.879C19.0328 16.702 19.0873 16.3605 18.9103 16.1164C18.7036 15.8309 18.3947 15.6225 18.0488 15.5365V15.2259C18.0488 14.9239 17.804 14.679 17.502 14.679C17.1999 14.679 16.9551 14.9238 16.9551 15.2259ZM16.9551 3.35449C16.9551 3.05248 17.1999 2.80762 17.502 2.80762C17.804 2.80762 18.0488 3.05248 18.0488 3.35449V5.95618C18.0488 6.25819 17.804 6.50306 17.502 6.50306C17.1999 6.50306 16.9551 6.25819 16.9551 5.95618V3.35449ZM9.73414 5.5828C9.58313 5.32208 9.67207 4.98828 9.93279 4.83728C10.1935 4.68627 10.5273 4.77521 10.6783 5.03593L11.9792 7.28905C12.1302 7.54978 12.0413 7.88357 11.7805 8.03458C11.5198 8.18559 11.186 8.09665 11.035 7.83593L9.73414 5.5828ZM24.3255 5.03805C24.4754 4.77732 24.8082 4.68743 25.0689 4.83721C25.3296 4.98705 25.4195 5.31989 25.2698 5.58062L23.969 7.83374C23.8191 8.09446 23.4863 8.18436 23.2255 8.03458C22.9648 7.88474 22.8749 7.55189 23.0247 7.29117L24.3255 5.03805ZM17.502 11.3892C13.8808 11.3892 10.9453 14.3247 10.9453 17.9459C10.9453 21.567 13.8808 24.5025 17.502 24.5025C21.1231 24.5025 24.0586 21.567 24.0586 17.9459C24.0586 14.3247 21.1231 11.3892 17.502 11.3892ZM21.1612 28.4723V29.2892C21.1612 29.9613 20.613 30.5096 19.9407 30.5096H15.0632C14.391 30.5096 13.8427 29.9614 13.8427 29.2892V28.4723H21.1612ZM19.9282 31.6033C19.8228 32.4954 19.0599 33.1923 18.1404 33.1923H16.8635C15.944 33.1923 15.181 32.4959 15.0757 31.6033H19.9282Z" fill="#0F1720"/>
</svg>
