<svg width="39" height="42" viewBox="0 0 39 42" fill="none" xmlns="http://www.w3.org/2000/svg">
<path fill-rule="evenodd" clip-rule="evenodd" d="M13.4939 2.02629C13.3214 1.566 13.3851 1.05001 13.6656 0.645435C13.9454 0.240862 14.4066 0 14.8979 0H24.0906C24.5834 0 25.0454 0.242573 25.3251 0.648862C25.6049 1.05429 25.6679 1.57201 25.4924 2.03315C24.7364 4.02087 23.6991 6.75001 23.6991 6.75001H15.2646C15.2646 6.75001 14.2394 4.01486 13.4939 2.02629Z" fill="#FBC02D"/>
<path fill-rule="evenodd" clip-rule="evenodd" d="M25.875 6C26.91 6 27.75 6.83903 27.75 7.875C27.75 8.91097 26.91 9.75 25.875 9.75H13.1242C12.0892 9.75 11.25 8.91097 11.25 7.875C11.25 6.83903 12.0892 6 13.1242 6H25.875Z" fill="#F9A825"/>
<path fill-rule="evenodd" clip-rule="evenodd" d="M19.1327 32.2496C19.1327 32.2496 29.6034 26.4953 29.6259 26.4297C30.3467 24.3899 30.9947 21.844 30.2169 18.7498C29.3612 15.3351 26.2922 13.1091 23.8614 9.75H15.1404C12.7097 13.1091 9.64142 15.3351 8.78492 18.7498C8.00867 21.844 8.65517 24.3899 9.37667 26.4297C9.3999 26.4953 19.1327 32.2496 19.1327 32.2496Z" fill="#FBC02D"/>
<path fill-rule="evenodd" clip-rule="evenodd" d="M16.6781 39.0373C17.3561 39.7153 17.3553 40.8141 16.6773 41.4921C16.3518 41.8176 15.9101 42.0006 15.4503 42.0006C14.9898 42.0006 14.5481 41.8176 14.2233 41.4921L12.2006 39.4701C11.3568 38.6256 10.2123 38.1516 9.01832 38.1516H5.41309V26.6061H9.58009C9.69334 26.6061 9.80583 26.5933 9.91608 26.5678L14.8211 25.4391C16.3323 25.0911 17.9163 25.5456 19.0128 26.6421L28.4073 36.0366C29.0853 36.7146 29.0846 37.8133 28.4073 38.4913C28.0818 38.8168 27.6401 38.9998 27.1796 38.9998C26.7191 38.9998 26.2781 38.8168 25.9526 38.4921L24.8613 37.4008C25.5393 38.0781 25.5386 39.1776 24.8606 39.8556C24.5358 40.1811 24.0941 40.3641 23.6336 40.3641C23.1731 40.3641 22.7321 40.1811 22.4066 39.8556L20.7693 38.2191C21.0948 38.5446 21.2778 38.9856 21.2778 39.4461C21.2778 39.9066 21.0948 40.3483 20.7693 40.6738C20.4438 40.9993 20.0021 41.1823 19.5416 41.1823C19.0818 41.1823 18.6401 40.9993 18.3146 40.6738L16.6781 39.0373Z" fill="#FFD1B3"/>
<path fill-rule="evenodd" clip-rule="evenodd" d="M17.0773 35.3231C16.8583 35.1037 16.8583 34.7468 17.0773 34.5274C17.297 34.3079 17.654 34.3083 17.873 34.5276L22.532 39.1863C22.7518 39.4061 22.7518 39.7625 22.532 39.982C22.3123 40.2014 21.956 40.2015 21.7363 39.9818L17.0773 35.3231ZM18.5608 40.1254C18.7805 40.3447 18.7805 40.7016 18.5608 40.9211C18.3418 41.1404 17.9848 41.1401 17.7658 40.9208L14.6225 37.778C14.4035 37.5587 14.4028 37.2018 14.6225 36.9824C14.8415 36.763 15.1985 36.7633 15.4183 36.9826L18.5608 40.1254ZM20.4373 33.7727C20.2175 33.553 20.2175 33.1965 20.4373 32.9771C20.6563 32.7577 21.0133 32.7575 21.233 32.9773L25.8298 37.5743C26.0488 37.7936 26.0495 38.1506 25.8298 38.37C25.6108 38.5894 25.2538 38.5891 25.034 38.3698L20.4373 33.7727Z" fill="#E0A285"/>
<path fill-rule="evenodd" clip-rule="evenodd" d="M33.5839 26.6068H29.4206C29.3074 26.6068 29.1941 26.5936 29.0846 26.5685L24.1796 25.439C22.6684 25.0911 21.0844 25.546 19.9879 26.6426L17.3381 29.2925C16.9511 29.6795 16.7336 30.2036 16.7344 30.7509C16.7336 31.2979 16.9511 31.8227 17.3374 32.2094L17.3389 32.2103C17.7251 32.597 18.2494 32.8139 18.7961 32.8139C19.3429 32.8138 19.8671 32.597 20.2534 32.2103L22.4171 30.047L28.4074 36.0371C28.7329 36.3624 28.9159 36.8039 28.9151 37.2644C28.9159 37.5794 28.8296 37.8856 28.6714 38.1519L33.5831 38.1521L33.5839 26.6068Z" fill="#E0A285"/>
<path fill-rule="evenodd" clip-rule="evenodd" d="M5.25 24C5.6475 24 6.02925 24.158 6.3105 24.4391C6.59175 24.7209 6.75 25.1023 6.75 25.5002V38.9998C6.75 39.3977 6.59175 39.7791 6.3105 40.0609C6.02925 40.342 5.6475 40.5 5.25 40.5H2.25C1.85175 40.5 1.47075 40.342 1.18874 40.0609C0.908248 39.7791 0.75 39.3977 0.75 38.9998V25.5002C0.75 25.1023 0.908249 24.7209 1.18874 24.4391C1.47075 24.158 1.85175 24 2.25 24H5.25Z" fill="#1E88E5"/>
<path fill-rule="evenodd" clip-rule="evenodd" d="M33.75 24C33.3525 24 32.9707 24.158 32.6895 24.4391C32.4082 24.7209 32.25 25.1023 32.25 25.5002V38.9998C32.25 39.3977 32.4082 39.7791 32.6895 40.0609C32.9707 40.342 33.3525 40.5 33.75 40.5H36.75C37.1483 40.5 37.5293 40.342 37.8113 40.0609C38.0918 39.7791 38.25 39.3977 38.25 38.9998V25.5002C38.25 25.1023 38.0918 24.7209 37.8113 24.4391C37.5293 24.158 37.1483 24 36.75 24H33.75Z" fill="#1E88E5"/>
</svg>
