<svg xmlns="http://www.w3.org/2000/svg" width="40" height="40" viewBox="0 0 40 40" fill="none"><rect width="40" height="40" rx="20" fill="url(#paint0_linear_2355_44022)"></rect><path d="M16.4032 17.9365L15.375 18.9652C15.5941 19.1857 15.9222 19.4152 16.4032 19.5075V17.937V17.9365Z" fill="white"></path><path d="M17.2969 17.3418V19.5081C18.0619 19.3789 18.6469 18.9375 18.6469 18.4249C18.6469 17.9124 18.0619 17.4709 17.2969 17.3418Z" fill="white"></path><path d="M14.2022 18.8619C14.1932 18.8426 14.1869 18.8282 14.1846 18.8232C14.0892 18.5938 14.1977 18.33 14.4272 18.2346C14.5559 18.1806 14.6922 18.1969 14.807 18.2572L15.8928 17.1713C14.8655 16.8869 14.15 16.1561 14.15 15.275C14.15 14.2548 15.108 13.4358 16.4 13.2792V12.8C16.4 12.5511 16.6016 12.35 16.85 12.35C17.0984 12.35 17.3 12.5511 17.3 12.8V13.2824C18.0803 13.3859 18.6171 13.7441 18.9663 14.0973L20.6511 12.4125C19.6274 11.5346 18.3012 11 16.85 11C13.6244 11 11 13.6244 11 16.85C11 18.3012 11.5341 19.6278 12.4125 20.6516L14.2022 18.8619Z" fill="white"></path><path d="M15.0469 15.275C15.0469 15.7876 15.6319 16.229 16.3969 16.3582V14.1919C15.6319 14.321 15.0469 14.7625 15.0469 15.275Z" fill="white"></path><path d="M17.2969 14.1929V15.7638L18.3251 14.7356C18.106 14.5146 17.7779 14.2851 17.2969 14.1929Z" fill="white"></path><path d="M19.5134 14.8767C19.6088 15.1062 19.5003 15.3699 19.2708 15.4653C19.1421 15.5193 19.0058 15.5031 18.8915 15.4428L17.8056 16.5286C18.8325 16.813 19.548 17.5438 19.548 18.4245C19.548 19.4446 18.59 20.2636 17.298 20.4202V20.8995C17.298 21.1483 17.0964 21.3495 16.848 21.3495C16.5996 21.3495 16.398 21.1483 16.398 20.8995V20.4171C15.6177 20.3136 15.0809 19.9554 14.7317 19.6021L13.0469 21.2869C14.0702 22.1649 15.3968 22.699 16.848 22.699C20.0736 22.699 22.698 20.0746 22.698 16.849C22.698 15.3978 22.1639 14.0712 21.2855 13.0479L19.4958 14.8375C19.5048 14.8569 19.5111 14.8717 19.5134 14.8767Z" fill="white"></path><path d="M16.8484 26.2999C22.059 26.2999 26.2984 22.0605 26.2984 16.8499C26.2984 11.6394 22.059 7.3999 16.8484 7.3999C11.6379 7.3999 7.39844 11.6394 7.39844 16.8499C7.39844 22.0605 11.6374 26.2999 16.8484 26.2999ZM16.8484 8.2999C21.5631 8.2999 25.3984 12.1353 25.3984 16.8499C25.3984 21.5646 21.5631 25.3999 16.8484 25.3999C12.1338 25.3999 8.29844 21.5646 8.29844 16.8499C8.29844 12.1353 12.1338 8.2999 16.8484 8.2999Z" fill="white"></path><path d="M32.1672 32.1655C32.6663 31.666 32.8445 30.8344 32.1159 30.1041L24.8259 23.4409C24.4101 23.9431 23.9475 24.4057 23.4453 24.822L30.1211 32.1286C30.8384 32.8414 31.6686 32.6646 32.1672 32.1655Z" fill="white"></path><path d="M16.8531 24.5002C21.0714 24.5002 24.5031 21.0685 24.5031 16.8502C24.5031 12.6319 21.0714 9.2002 16.8531 9.2002C12.6348 9.2002 9.20312 12.6319 9.20312 16.8502C9.20312 21.0685 12.6348 24.5002 16.8531 24.5002ZM16.8531 10.1002C20.5751 10.1002 23.6031 13.1282 23.6031 16.8502C23.6031 20.5721 20.5751 23.6002 16.8531 23.6002C13.1312 23.6002 10.1031 20.5721 10.1031 16.8502C10.1031 13.1282 13.1312 10.1002 16.8531 10.1002Z" fill="white"></path><defs><linearGradient id="paint0_linear_2355_44022" x1="38.9781" y1="56.625" x2="-5.74477" y2="51.3473" gradientUnits="userSpaceOnUse"><stop stop-color="#2E96FF"></stop><stop offset="1" stop-color="#015CB8"></stop></linearGradient></defs></svg>