<svg xmlns="http://www.w3.org/2000/svg" width="50" height="50" viewBox="0 0 50 50" fill="none"><rect width="50" height="50.0011" rx="25" fill="white" fill-opacity="0.04"></rect><rect x="0.5" y="0.5" width="49" height="49.0011" rx="24.5" stroke="white" stroke-opacity="0.1"></rect><g clip-path="url(#clip0_3187_41197)"><path d="M25.7219 12.2012C25.2819 12.2012 24.9219 12.5612 24.9219 13.0012C24.9219 13.4412 25.2819 13.8012 25.7219 13.8012C31.4819 13.8012 36.1619 18.4812 36.1619 24.2412C36.1619 24.6812 36.5219 25.0412 36.9619 25.0412C37.4019 25.0412 37.7619 24.6812 37.7619 24.2412C37.7619 17.6012 32.3619 12.2012 25.7219 12.2012Z" fill="url(#paint0_linear_3187_41197)"></path><path d="M25.7219 17.641C29.3619 17.641 32.3219 20.601 32.3219 24.241C32.3219 24.681 32.6819 25.041 33.1219 25.041C33.5619 25.041 33.9219 24.681 33.9219 24.241C33.9219 19.721 30.2419 16.041 25.7219 16.041C25.2819 16.041 24.9219 16.401 24.9219 16.841C24.9219 17.281 25.2819 17.641 25.7219 17.641Z" fill="url(#paint1_linear_3187_41197)"></path><path d="M25.7219 21.4408C27.2819 21.4408 28.5219 22.6808 28.5219 24.2408C28.5219 24.6808 28.8819 25.0408 29.3219 25.0408C29.7619 25.0408 30.1219 24.6808 30.1219 24.2408C30.1219 21.8008 28.1619 19.8408 25.7219 19.8408C25.2819 19.8408 24.9219 20.2008 24.9219 20.6408C24.9219 21.0808 25.2819 21.4408 25.7219 21.4408Z" fill="url(#paint2_linear_3187_41197)"></path><path d="M29.0821 28.0411C28.0421 28.0411 26.4421 30.6811 26.4421 30.6811C25.5621 31.5611 23.2421 30.7211 21.2821 28.7611C19.3621 26.8011 18.4821 24.4811 19.3621 23.6011C19.3621 23.6011 22.0021 22.0011 22.0021 20.9611C22.0021 18.5611 17.6021 14.1211 15.1621 14.1211C14.4821 14.1211 13.2421 16.0411 13.2421 16.0411C10.6821 18.6411 13.2021 25.4011 18.9221 31.1211C24.6421 36.8411 31.4021 39.3611 34.0021 36.7611C34.0021 36.7611 35.9221 35.5211 35.9221 34.8411C35.9221 32.4411 31.4821 28.0411 29.0821 28.0411Z" fill="url(#paint3_linear_3187_41197)"></path></g><defs><linearGradient id="paint0_linear_3187_41197" x1="40.8746" y1="55.0321" x2="44.9848" y2="3.70826" gradientUnits="userSpaceOnUse"><stop stop-color="#0B2D58"></stop><stop offset="1" stop-color="#F4F6FA"></stop></linearGradient><linearGradient id="paint1_linear_3187_41197" x1="36.1037" y1="46.0627" x2="38.9846" y2="10.088" gradientUnits="userSpaceOnUse"><stop stop-color="#0B2D58"></stop><stop offset="1" stop-color="#F4F6FA"></stop></linearGradient><linearGradient id="paint2_linear_3187_41197" x1="31.3825" y1="37.1867" x2="33.047" y2="16.4013" gradientUnits="userSpaceOnUse"><stop stop-color="#0B2D58"></stop><stop offset="1" stop-color="#F4F6FA"></stop></linearGradient><linearGradient id="paint3_linear_3187_41197" x1="41.6627" y1="93.0586" x2="49.2328" y2="-1.53217" gradientUnits="userSpaceOnUse"><stop stop-color="#0B2D58"></stop><stop offset="1" stop-color="#F4F6FA"></stop></linearGradient><clipPath id="clip0_3187_41197"><rect width="26" height="26" fill="white" transform="translate(12 12.001)"></rect></clipPath></defs></svg>