<svg width="41" height="41" viewBox="0 0 41 41" fill="none" xmlns="http://www.w3.org/2000/svg">
<g clip-path="url(#clip0_9766_42541)">
<path d="M36.9059 35.6559H4.09374C2.15527 35.6559 0.578125 34.0787 0.578125 32.1403V4.01562C0.578125 2.07715 2.15527 0.5 4.09374 0.5H36.9059C38.8447 0.5 40.4215 2.07715 40.4215 4.01562V32.1403C40.4215 34.0787 38.8447 35.6559 36.9059 35.6559Z" fill="#E0F4FE"/>
<path d="M36.9059 0.5H20.5V35.6559H36.9059C38.8444 35.6559 40.4215 34.0787 40.4215 32.1403V4.01562C40.4215 2.07745 38.8444 0.5 36.9059 0.5Z" fill="#BCDCFE"/>
<path d="M34.5621 14.5625H6.4375C5.79022 14.5625 5.26562 15.0871 5.26562 15.7344V29.7965C5.26562 30.4438 5.79022 30.9684 6.4375 30.9684H34.5621C35.2094 30.9684 35.734 30.4438 35.734 29.7965V15.7344C35.734 15.0871 35.2094 14.5625 34.5621 14.5625Z" fill="#19C0EF"/>
<path d="M35.734 15.7344V29.7965C35.734 30.4435 35.2091 30.9684 34.5622 30.9684H20.5V14.5625H34.5622C35.2091 14.5625 35.734 15.0874 35.734 15.7344Z" fill="#159BE1"/>
<path d="M7.60938 16.9062H33.3903V28.6247H7.60938V16.9062Z" fill="#30D9F6"/>
<path d="M20.5 16.9062H33.3903V28.6247H20.5V16.9062Z" fill="#19C0EF"/>
<path d="M40.4215 4.01562C40.4215 2.07715 38.8447 0.5 36.9059 0.5H4.09374C2.15527 0.5 0.578125 2.07715 0.578125 4.01562V11.0469H40.4215V4.01562Z" fill="#3E5959"/>
<path d="M40.4215 4.01562V11.0469H20.5V0.5H36.9059C38.8444 0.5 40.4215 2.07745 40.4215 4.01562Z" fill="#293939"/>
<path d="M13.4687 7.53125H6.35937C5.7121 7.53125 5.1875 7.00665 5.1875 6.35937C5.1875 5.7121 5.7121 5.1875 6.35937 5.1875H13.4687C14.116 5.1875 14.6406 5.7121 14.6406 6.35937C14.6406 7.00665 14.116 7.53125 13.4687 7.53125Z" fill="#547983"/>
<path d="M26.8394 39.8579L25.2488 36.7247L21.8968 38.4325C21.1174 38.8292 20.1957 38.2616 20.193 37.3918L20.1436 21.2004C20.1408 20.2465 21.2224 19.6883 21.9981 20.2443L35.2433 29.7362C35.9574 30.248 35.8741 31.3374 35.0898 31.7342L31.5187 33.542L33.1092 36.6756C33.4019 37.2523 33.1715 37.9582 32.5947 38.2512L28.4147 40.3728C27.8382 40.6654 27.1327 40.4356 26.8394 39.8579Z" fill="#FCBE29"/>
<path d="M35.2441 29.7361L21.9988 20.2442C21.5957 19.9549 21.1089 19.9674 20.7363 20.1801L30.5666 39.2808L32.5954 38.2511C33.1722 37.9581 33.4026 37.2526 33.1097 36.6752L31.5191 33.5416L35.0909 31.7338C35.8745 31.337 35.9582 30.2479 35.2441 29.7361Z" fill="#FE9022"/>
<path d="M35.7344 6.35937C35.7344 7.00665 35.2098 7.53125 34.5625 7.53125C33.9155 7.53125 33.3906 7.00665 33.3906 6.35937C33.3906 5.7121 33.9155 5.1875 34.5625 5.1875C35.2098 5.1875 35.7344 5.7121 35.7344 6.35937Z" fill="#547983"/>
<path d="M31.0469 6.35937C31.0469 7.00665 30.522 7.53125 29.875 7.53125C29.2277 7.53125 28.7031 7.00665 28.7031 6.35937C28.7031 5.7121 29.2277 5.1875 29.875 5.1875C30.522 5.1875 31.0469 5.7121 31.0469 6.35937Z" fill="#547983"/>
<path d="M26.3594 6.35937C26.3594 7.00665 25.8345 7.53125 25.1875 7.53125C24.5402 7.53125 24.0156 7.00665 24.0156 6.35937C24.0156 5.7121 24.5402 5.1875 25.1875 5.1875C25.8345 5.1875 26.3594 5.7121 26.3594 6.35937Z" fill="#547983"/>
</g>
<defs>
<clipPath id="clip0_9766_42541">
<rect width="40" height="40" fill="white" transform="translate(0.5 0.5)"/>
</clipPath>
</defs>
</svg>
